<?xml version="1.0" encoding="UTF-8" standalone="no"?>
<!DOCTYPE svg PUBLIC "-//W3C//DTD SVG 1.1//EN"
 "http://www.w3.org/Graphics/SVG/1.1/DTD/svg11.dtd">
<!-- Generated by graphviz version 15.0.0 (20260523.1842)
 -->
<!-- Title: modules/woz_uwb/src/aliro/aliro_uwb_internal.h Pages: 1 -->
<!--zoomable 381 -->

<svg id="main" version="1.1" xmlns="http://www.w3.org/2000/svg" xmlns:xlink="http://www.w3.org/1999/xlink" xml:space="preserve" onload="init(evt)">

<style type="text/css"><![CDATA[
.node, .edge {opacity: 0.7;}
.node.selected, .edge.selected {opacity: 1;}
.edge:hover path { stroke: red; }
.edge:hover polygon { stroke: red; fill: red; }
]]></style>

<defs>
  <circle id="rim" cx="0" cy="0" r="7"/>
  <circle id="rim2" cx="0" cy="0" r="3.5"/>
  <g id="zoomPlus">
    <use xlink:href="#rim" fill="#404040"><set attributeName="fill" to="#808080" begin="zoomplus.mouseover" end="zoomplus.mouseout"/></use>
    <path d="M-4,0h8M0,-4v8" fill="none" stroke="white" stroke-width="1.5" pointer-events="none"/>
  </g>
  <g id="zoomMin">
    <use xlink:href="#rim" fill="#404040"><set attributeName="fill" to="#808080" begin="zoomminus.mouseover" end="zoomminus.mouseout"/></use>
    <path d="M-4,0h8" fill="none" stroke="white" stroke-width="1.5" pointer-events="none"/>
  </g>
  <g id="arrowUp" transform="translate(30 24)">
    <use xlink:href="#rim"/>
    <path pointer-events="none" fill="none" stroke="white" stroke-width="1.5" d="M0,-3.0v7 M-2.5,-0.5L0,-3.0L2.5,-0.5"/>
  </g>
  <g id="arrowRight" transform="rotate(90) translate(36 -43)">
    <use xlink:href="#rim"/>
    <path pointer-events="none" fill="none" stroke="white" stroke-width="1.5" d="M0,-3.0v7 M-2.5,-0.5L0,-3.0L2.5,-0.5"/>
  </g>
  <g id="arrowDown" transform="rotate(180) translate(-30 -48)">
    <use xlink:href="#rim"/>
    <path pointer-events="none" fill="none" stroke="white" stroke-width="1.5" d="M0,-3.0v7 M-2.5,-0.5L0,-3.0L2.5,-0.5"/>
  </g>
  <g id="arrowLeft" transform="rotate(270) translate(-36 17)">
    <use xlink:href="#rim"/>
    <path pointer-events="none" fill="none" stroke="white" stroke-width="1.5" d="M0,-3.0v7 M-2.5,-0.5L0,-3.0L2.5,-0.5"/>
  </g>
  <g id="resetDef">
    <use xlink:href="#rim2" fill="#404040"><set attributeName="fill" to="#808080" begin="reset.mouseover" end="reset.mouseout"/></use>
  </g>
</defs>
<script type="application/ecmascript">
var viewWidth = 588;
var viewHeight = 381;
var sectionId = 'dynsection-0';
</script>
<script type="application/ecmascript" xlink:href="svg.min.js"/>
<svg id="graph" class="graph">
<g id="viewport">
<title>modules/woz_uwb/src/aliro/aliro_uwb_internal.h</title>
<!-- Node1 -->
<g id="Node000001" class="node">
<title>Node1</title>
<g id="a_Node000001"><a xlink:title="— private context types and shared helpers.">
<polygon fill="#999999" stroke="#666666" points="268.99,-373.25 142.74,-373.25 142.74,-342.75 268.99,-342.75 268.99,-373.25"/>
<text xml:space="preserve" text-anchor="start" x="150.74" y="-359.75" font-family="Helvetica,sans-Serif" font-size="10.00">modules/woz_uwb/src</text>
<text xml:space="preserve" text-anchor="middle" x="205.87" y="-348.5" font-family="Helvetica,sans-Serif" font-size="10.00">/aliro/aliro_uwb_internal.h</text>
</a>
</g>
</g>
<!-- Node2 -->
<g id="Node000002" class="node">
<title>Node2</title>
<g id="a_Node000002"><a xlink:href="aliro__uwb__adapter_8h.html" target="_top" xlink:title="— reader&#45;device public interface.">
<polygon fill="white" stroke="#666666" points="263.74,-306.75 147.99,-306.75 147.99,-276.25 263.74,-276.25 263.74,-306.75"/>
<text xml:space="preserve" text-anchor="start" x="155.99" y="-293.25" font-family="Helvetica,sans-Serif" font-size="10.00">aliro_uwb_adapter/aliro</text>
<text xml:space="preserve" text-anchor="middle" x="205.87" y="-282" font-family="Helvetica,sans-Serif" font-size="10.00">_uwb_adapter.h</text>
</a>
</g>
</g>
<!-- Node1&#45;&gt;Node2 -->
<g id="edge1_Node000001_Node000002" class="edge">
<title>Node1&#45;&gt;Node2</title>
<g id="a_edge1_Node000001_Node000002"><a xlink:title=" ">
<path fill="none" stroke="#63b8ff" d="M205.87,-342.36C205.87,-335.27 205.87,-326.54 205.87,-318.38"/>
<polygon fill="#63b8ff" stroke="#63b8ff" points="209.37,-318.59 205.87,-308.59 202.37,-318.59 209.37,-318.59"/>
</a>
</g>
</g>
<!-- Node3 -->
<g id="Node000003" class="node">
<title>Node3</title>
<g id="a_Node000003"><a xlink:href="cherry_8h.html" target="_top" xlink:title="— Cherry core (context + device&#45;capabilities) interface.">
<polygon fill="white" stroke="#666666" points="271.74,-129.75 191.99,-129.75 191.99,-110.5 271.74,-110.5 271.74,-129.75"/>
<text xml:space="preserve" text-anchor="middle" x="231.87" y="-116.25" font-family="Helvetica,sans-Serif" font-size="10.00">cherry/cherry.h</text>
</a>
</g>
</g>
<!-- Node1&#45;&gt;Node3 -->
<g id="edge27_Node000001_Node000003" class="edge">
<title>Node1&#45;&gt;Node3</title>
<g id="a_edge27_Node000001_Node000003"><a xlink:title=" ">
<path fill="none" stroke="#63b8ff" d="M142.4,-349.64C90.07,-342.11 21.78,-328.4 4.87,-306.75 -3.47,-296.07 0.97,-289.23 4.87,-276.25 21.81,-219.88 30.47,-200.64 77.87,-165.75 107.95,-143.61 148.8,-132.42 180.88,-126.78"/>
<polygon fill="#63b8ff" stroke="#63b8ff" points="181.01,-130.31 190.33,-125.25 179.9,-123.4 181.01,-130.31"/>
</a>
</g>
</g>
<!-- Node6 -->
<g id="Node000006" class="node">
<title>Node6</title>
<g id="a_Node000006"><a xlink:title=" ">
<polygon fill="#e0e0e0" stroke="#999999" points="489.99,-19.25 441.74,-19.25 441.74,0 489.99,0 489.99,-19.25"/>
<text xml:space="preserve" text-anchor="middle" x="465.87" y="-5.75" font-family="Helvetica,sans-Serif" font-size="10.00">stdint.h</text>
</a>
</g>
</g>
<!-- Node1&#45;&gt;Node6 -->
<g id="edge29_Node000001_Node000006" class="edge">
<title>Node1&#45;&gt;Node6</title>
<g id="a_edge29_Node000001_Node000006"><a xlink:title=" ">
<path fill="none" stroke="#63b8ff" d="M269.31,-349.03C376.02,-333.84 579.87,-296.34 579.87,-231.62 579.87,-231.62 579.87,-231.62 579.87,-119.12 579.87,-73.88 532.18,-41.78 498.49,-24.74"/>
<polygon fill="#63b8ff" stroke="#63b8ff" points="500.01,-21.59 489.48,-20.4 496.97,-27.89 500.01,-21.59"/>
</a>
</g>
</g>
<!-- Node7 -->
<g id="Node000007" class="node">
<title>Node7</title>
<g id="a_Node000007"><a xlink:href="cherry__ccc_8h.html" target="_top" xlink:title="— CCC/Aliro&#45;session interface (seam the adapter drives).">
<polygon fill="white" stroke="#666666" points="291.99,-240.25 189.74,-240.25 189.74,-221 291.99,-221 291.99,-240.25"/>
<text xml:space="preserve" text-anchor="middle" x="240.87" y="-226.75" font-family="Helvetica,sans-Serif" font-size="10.00">cherry/cherry_ccc.h</text>
</a>
</g>
</g>
<!-- Node1&#45;&gt;Node7 -->
<g id="edge28_Node000001_Node000007" class="edge">
<title>Node1&#45;&gt;Node7</title>
<g id="a_edge28_Node000001_Node000007"><a xlink:title=" ">
<path fill="none" stroke="#63b8ff" d="M236.6,-342.31C250.36,-333.97 265.2,-322.1 272.87,-306.75 282.53,-287.43 269.35,-264.49 257.1,-249.09"/>
<polygon fill="#63b8ff" stroke="#63b8ff" points="259.96,-247.04 250.79,-241.72 254.64,-251.59 259.96,-247.04"/>
</a>
</g>
</g>
<!-- Node10 -->
<g id="Node000010" class="node">
<title>Node10</title>
<g id="a_Node000010"><a xlink:href="aliro__uwb__session_8h.html" target="_top" xlink:title="— per&#45;session public interface.">
<polygon fill="white" stroke="#666666" points="129.74,-306.75 13.99,-306.75 13.99,-276.25 129.74,-276.25 129.74,-306.75"/>
<text xml:space="preserve" text-anchor="start" x="21.99" y="-293.25" font-family="Helvetica,sans-Serif" font-size="10.00">aliro_uwb_adapter/aliro</text>
<text xml:space="preserve" text-anchor="middle" x="71.87" y="-282" font-family="Helvetica,sans-Serif" font-size="10.00">_uwb_session.h</text>
</a>
</g>
</g>
<!-- Node1&#45;&gt;Node10 -->
<g id="edge21_Node000001_Node000010" class="edge">
<title>Node1&#45;&gt;Node10</title>
<g id="a_edge21_Node000001_Node000010"><a xlink:title=" ">
<path fill="none" stroke="#63b8ff" d="M175.46,-342.36C156.79,-333.38 132.64,-321.75 112.36,-311.99"/>
<polygon fill="#63b8ff" stroke="#63b8ff" points="114.05,-308.92 103.52,-307.73 111.01,-315.23 114.05,-308.92"/>
</a>
</g>
</g>
<!-- Node2&#45;&gt;Node3 -->
<g id="edge2_Node000002_Node000003" class="edge">
<title>Node2&#45;&gt;Node3</title>
<g id="a_edge2_Node000002_Node000003"><a xlink:title=" ">
<path fill="none" stroke="#63b8ff" d="M178.4,-275.82C139.32,-252.98 75.47,-207.25 104.87,-165.75 121.95,-141.64 153.14,-130.46 180.33,-125.32"/>
<polygon fill="#63b8ff" stroke="#63b8ff" points="180.89,-128.77 190.2,-123.71 179.76,-121.87 180.89,-128.77"/>
</a>
</g>
</g>
<!-- Node2&#45;&gt;Node6 -->
<g id="edge20_Node000002_Node000006" class="edge">
<title>Node2&#45;&gt;Node6</title>
<g id="a_edge20_Node000002_Node000006"><a xlink:title=" ">
<path fill="none" stroke="#63b8ff" d="M263.92,-288C343.23,-283.45 479.96,-271.25 517.87,-240.25 541.34,-221.05 541.87,-206.7 541.87,-176.38 541.87,-176.38 541.87,-176.38 541.87,-119.12 541.87,-88.8 535.25,-80.1 517.87,-55.25 510.12,-44.17 499,-34.13 489.03,-26.39"/>
<polygon fill="#63b8ff" stroke="#63b8ff" points="491.32,-23.73 481.19,-20.62 487.16,-29.37 491.32,-23.73"/>
</a>
</g>
</g>
<!-- Node2&#45;&gt;Node7 -->
<g id="edge8_Node000002_Node000007" class="edge">
<title>Node2&#45;&gt;Node7</title>
<g id="a_edge8_Node000002_Node000007"><a xlink:title=" ">
<path fill="none" stroke="#63b8ff" d="M214.52,-275.95C219.08,-268.28 224.73,-258.77 229.63,-250.54"/>
<polygon fill="#63b8ff" stroke="#63b8ff" points="232.6,-252.39 234.7,-242 226.58,-248.81 232.6,-252.39"/>
</a>
</g>
</g>
<!-- Node9 -->
<g id="Node000009" class="node">
<title>Node9</title>
<g id="a_Node000009"><a xlink:title=" ">
<polygon fill="#e0e0e0" stroke="#999999" points="165.49,-185 114.24,-185 114.24,-165.75 165.49,-165.75 165.49,-185"/>
<text xml:space="preserve" text-anchor="middle" x="139.87" y="-171.5" font-family="Helvetica,sans-Serif" font-size="10.00">stddef.h</text>
</a>
</g>
</g>
<!-- Node2&#45;&gt;Node9 -->
<g id="edge19_Node000002_Node000009" class="edge">
<title>Node2&#45;&gt;Node9</title>
<g id="a_edge19_Node000002_Node000009"><a xlink:title=" ">
<path fill="none" stroke="#63b8ff" d="M197.51,-276.05C185.65,-255.53 163.91,-217.95 150.79,-195.25"/>
<polygon fill="#63b8ff" stroke="#63b8ff" points="153.91,-193.66 145.87,-186.76 147.85,-197.17 153.91,-193.66"/>
</a>
</g>
</g>
<!-- Node4 -->
<g id="Node000004" class="node">
<title>Node4</title>
<g id="a_Node000004"><a xlink:href="cherry__common_8h.html" target="_top" xlink:title="— diagnostics config struct and report forward decl.">
<polygon fill="white" stroke="#666666" points="399.87,-74.5 305.87,-74.5 305.87,-55.25 399.87,-55.25 399.87,-74.5"/>
<text xml:space="preserve" text-anchor="middle" x="352.87" y="-61" font-family="Helvetica,sans-Serif" font-size="10.00">cherry_common.h</text>
</a>
</g>
</g>
<!-- Node3&#45;&gt;Node4 -->
<g id="edge3_Node000003_Node000004" class="edge">
<title>Node3&#45;&gt;Node4</title>
<g id="a_edge3_Node000003_Node000004"><a xlink:title=" ">
<path fill="none" stroke="#63b8ff" d="M252.39,-110.09C271.43,-101.72 300.02,-89.13 321.84,-79.53"/>
<polygon fill="#63b8ff" stroke="#63b8ff" points="323.11,-82.79 330.86,-75.56 320.29,-76.39 323.11,-82.79"/>
</a>
</g>
</g>
<!-- Node5 -->
<g id="Node000005" class="node">
<title>Node5</title>
<g id="a_Node000005"><a xlink:title=" ">
<polygon fill="#e0e0e0" stroke="#999999" points="229.74,-19.25 173.99,-19.25 173.99,0 229.74,0 229.74,-19.25"/>
<text xml:space="preserve" text-anchor="middle" x="201.87" y="-5.75" font-family="Helvetica,sans-Serif" font-size="10.00">stdbool.h</text>
</a>
</g>
</g>
<!-- Node3&#45;&gt;Node5 -->
<g id="edge6_Node000003_Node000005" class="edge">
<title>Node3&#45;&gt;Node5</title>
<g id="a_edge6_Node000003_Node000005"><a xlink:title=" ">
<path fill="none" stroke="#63b8ff" d="M229.41,-110.25C224.62,-92.92 213.93,-54.23 207.36,-30.49"/>
<polygon fill="#63b8ff" stroke="#63b8ff" points="210.8,-29.79 204.76,-21.09 204.05,-31.66 210.8,-29.79"/>
</a>
</g>
</g>
<!-- Node3&#45;&gt;Node6 -->
<g id="edge7_Node000003_Node000006" class="edge">
<title>Node3&#45;&gt;Node6</title>
<g id="a_edge7_Node000003_Node000006"><a xlink:title=" ">
<path fill="none" stroke="#63b8ff" d="M238.4,-110.23C249.06,-96.35 271.57,-69.65 296.87,-55.25 339.05,-31.25 394.48,-19.82 430.15,-14.62"/>
<polygon fill="#63b8ff" stroke="#63b8ff" points="430.5,-18.1 439.94,-13.29 429.56,-11.17 430.5,-18.1"/>
</a>
</g>
</g>
<!-- Node4&#45;&gt;Node5 -->
<g id="edge4_Node000004_Node000005" class="edge">
<title>Node4&#45;&gt;Node5</title>
<g id="a_edge4_Node000004_Node000005"><a xlink:title=" ">
<path fill="none" stroke="#63b8ff" d="M327.25,-54.84C302.85,-46.24 265.86,-33.19 238.37,-23.5"/>
<polygon fill="#63b8ff" stroke="#63b8ff" points="239.63,-20.23 229.04,-20.21 237.3,-26.83 239.63,-20.23"/>
</a>
</g>
</g>
<!-- Node4&#45;&gt;Node6 -->
<g id="edge5_Node000004_Node000006" class="edge">
<title>Node4&#45;&gt;Node6</title>
<g id="a_edge5_Node000004_Node000006"><a xlink:title=" ">
<path fill="none" stroke="#63b8ff" d="M372.04,-54.84C389.65,-46.54 416.03,-34.11 436.33,-24.54"/>
<polygon fill="#63b8ff" stroke="#63b8ff" points="437.68,-27.78 445.24,-20.35 434.7,-21.44 437.68,-27.78"/>
</a>
</g>
</g>
<!-- Node7&#45;&gt;Node3 -->
<g id="edge9_Node000007_Node000003" class="edge">
<title>Node7&#45;&gt;Node3</title>
<g id="a_edge9_Node000007_Node000003"><a xlink:title=" ">
<path fill="none" stroke="#63b8ff" d="M240.13,-220.75C238.7,-203.5 235.52,-165.08 233.54,-141.31"/>
<polygon fill="#63b8ff" stroke="#63b8ff" points="237.06,-141.31 232.74,-131.64 230.08,-141.89 237.06,-141.31"/>
</a>
</g>
</g>
<!-- Node7&#45;&gt;Node4 -->
<g id="edge10_Node000007_Node000004" class="edge">
<title>Node7&#45;&gt;Node4</title>
<g id="a_edge10_Node000007_Node000004"><a xlink:title=" ">
<path fill="none" stroke="#63b8ff" d="M292.14,-228.87C325.5,-225.37 366.78,-214.73 388.87,-185 411.74,-154.21 385.58,-108.83 367.39,-83.91"/>
<polygon fill="#63b8ff" stroke="#63b8ff" points="370.25,-81.89 361.39,-76.07 364.68,-86.14 370.25,-81.89"/>
</a>
</g>
</g>
<!-- Node7&#45;&gt;Node5 -->
<g id="edge16_Node000007_Node000005" class="edge">
<title>Node7&#45;&gt;Node5</title>
<g id="a_edge16_Node000007_Node000005"><a xlink:title=" ">
<path fill="none" stroke="#63b8ff" d="M233.48,-220.73C220.21,-204.13 192.83,-166.73 182.87,-129.75 173.6,-95.32 185.06,-54.01 193.78,-30.18"/>
<polygon fill="#63b8ff" stroke="#63b8ff" points="196.93,-31.73 197.3,-21.14 190.41,-29.19 196.93,-31.73"/>
</a>
</g>
</g>
<!-- Node7&#45;&gt;Node6 -->
<g id="edge18_Node000007_Node000006" class="edge">
<title>Node7&#45;&gt;Node6</title>
<g id="a_edge18_Node000007_Node000006"><a xlink:title=" ">
<path fill="none" stroke="#63b8ff" d="M292.31,-228.17C328.61,-224.48 376.07,-213.89 406.87,-185 451.29,-143.32 462.27,-67.05 464.98,-30.79"/>
<polygon fill="#63b8ff" stroke="#63b8ff" points="468.47,-31.09 465.56,-20.9 461.48,-30.67 468.47,-31.09"/>
</a>
</g>
</g>
<!-- Node8 -->
<g id="Node000008" class="node">
<title>Node8</title>
<g id="a_Node000008"><a xlink:href="cherry__session_8h.html" target="_top" xlink:title="— generic base&#45;session interface.">
<polygon fill="white" stroke="#666666" points="379.99,-185 259.74,-185 259.74,-165.75 379.99,-165.75 379.99,-185"/>
<text xml:space="preserve" text-anchor="middle" x="319.87" y="-171.5" font-family="Helvetica,sans-Serif" font-size="10.00">cherry/cherry_session.h</text>
</a>
</g>
</g>
<!-- Node7&#45;&gt;Node8 -->
<g id="edge11_Node000007_Node000008" class="edge">
<title>Node7&#45;&gt;Node8</title>
<g id="a_edge11_Node000007_Node000008"><a xlink:title=" ">
<path fill="none" stroke="#63b8ff" d="M254.27,-220.59C265.96,-212.71 283.17,-201.11 297.03,-191.77"/>
<polygon fill="#63b8ff" stroke="#63b8ff" points="298.81,-194.79 305.15,-186.3 294.9,-188.99 298.81,-194.79"/>
</a>
</g>
</g>
<!-- Node7&#45;&gt;Node9 -->
<g id="edge17_Node000007_Node000009" class="edge">
<title>Node7&#45;&gt;Node9</title>
<g id="a_edge17_Node000007_Node000009"><a xlink:title=" ">
<path fill="none" stroke="#63b8ff" d="M223.74,-220.59C208.21,-212.41 185.07,-200.21 167.02,-190.69"/>
<polygon fill="#63b8ff" stroke="#63b8ff" points="168.9,-187.73 158.42,-186.16 165.64,-193.92 168.9,-187.73"/>
</a>
</g>
</g>
<!-- Node8&#45;&gt;Node3 -->
<g id="edge12_Node000008_Node000003" class="edge">
<title>Node8&#45;&gt;Node3</title>
<g id="a_edge12_Node000008_Node000003"><a xlink:title=" ">
<path fill="none" stroke="#63b8ff" d="M304.94,-165.34C291.67,-157.31 272,-145.41 256.42,-135.98"/>
<polygon fill="#63b8ff" stroke="#63b8ff" points="258.53,-133.17 248.16,-130.99 254.91,-139.16 258.53,-133.17"/>
</a>
</g>
</g>
<!-- Node8&#45;&gt;Node4 -->
<g id="edge13_Node000008_Node000004" class="edge">
<title>Node8&#45;&gt;Node4</title>
<g id="a_edge13_Node000008_Node000004"><a xlink:title=" ">
<path fill="none" stroke="#63b8ff" d="M322.57,-165.5C327.84,-148.17 339.61,-109.48 346.83,-85.74"/>
<polygon fill="#63b8ff" stroke="#63b8ff" points="350.13,-86.91 349.69,-76.32 343.43,-84.87 350.13,-86.91"/>
</a>
</g>
</g>
<!-- Node8&#45;&gt;Node5 -->
<g id="edge14_Node000008_Node000005" class="edge">
<title>Node8&#45;&gt;Node5</title>
<g id="a_edge14_Node000008_Node000005"><a xlink:title=" ">
<path fill="none" stroke="#63b8ff" d="M314.9,-165.48C307.78,-152.94 294.09,-129.47 280.87,-110.5 260.11,-80.71 233.47,-48.03 217.04,-28.44"/>
<polygon fill="#63b8ff" stroke="#63b8ff" points="219.76,-26.24 210.64,-20.86 214.41,-30.76 219.76,-26.24"/>
</a>
</g>
</g>
<!-- Node8&#45;&gt;Node6 -->
<g id="edge15_Node000008_Node000006" class="edge">
<title>Node8&#45;&gt;Node6</title>
<g id="a_edge15_Node000008_Node000006"><a xlink:title=" ">
<path fill="none" stroke="#63b8ff" d="M327.72,-165.57C350.99,-139.47 419.9,-62.19 450.7,-27.64"/>
<polygon fill="#63b8ff" stroke="#63b8ff" points="452.93,-30.4 456.97,-20.6 447.71,-25.74 452.93,-30.4"/>
</a>
</g>
</g>
<!-- Node10&#45;&gt;Node3 -->
<g id="edge22_Node000010_Node000003" class="edge">
<title>Node10&#45;&gt;Node3</title>
<g id="a_edge22_Node000010_Node000003"><a xlink:title=" ">
<path fill="none" stroke="#63b8ff" d="M69.99,-275.78C67.59,-250.16 66.58,-197.1 93.87,-165.75 115.49,-140.91 151.04,-129.8 180.64,-124.88"/>
<polygon fill="#63b8ff" stroke="#63b8ff" points="180.76,-128.4 190.16,-123.5 179.76,-121.47 180.76,-128.4"/>
</a>
</g>
</g>
<!-- Node10&#45;&gt;Node5 -->
<g id="edge24_Node000010_Node000005" class="edge">
<title>Node10&#45;&gt;Node5</title>
<g id="a_edge24_Node000010_Node000005"><a xlink:title=" ">
<path fill="none" stroke="#63b8ff" d="M57.8,-276.01C39.51,-255.56 9.87,-216.29 9.87,-176.38 9.87,-176.38 9.87,-176.38 9.87,-119.12 9.87,-49.78 105.97,-24.25 162.2,-15.24"/>
<polygon fill="#63b8ff" stroke="#63b8ff" points="162.66,-18.71 172.04,-13.79 161.64,-11.79 162.66,-18.71"/>
</a>
</g>
</g>
<!-- Node10&#45;&gt;Node6 -->
<g id="edge26_Node000010_Node000006" class="edge">
<title>Node10&#45;&gt;Node6</title>
<g id="a_edge26_Node000010_Node000006"><a xlink:title=" ">
<path fill="none" stroke="#63b8ff" d="M129.98,-278.03C192.28,-264.62 284.47,-244.62 300.87,-240.25 392.26,-215.9 503.87,-270.96 503.87,-176.38 503.87,-176.38 503.87,-176.38 503.87,-119.12 503.87,-86.13 488.03,-50.51 476.8,-29.41"/>
<polygon fill="#63b8ff" stroke="#63b8ff" points="479.97,-27.9 472.05,-20.86 473.85,-31.3 479.97,-27.9"/>
</a>
</g>
</g>
<!-- Node10&#45;&gt;Node7 -->
<g id="edge23_Node000010_Node000007" class="edge">
<title>Node10&#45;&gt;Node7</title>
<g id="a_edge23_Node000010_Node000007"><a xlink:title=" ">
<path fill="none" stroke="#63b8ff" d="M114.08,-275.8C141.8,-266.14 177.69,-253.63 204.21,-244.4"/>
<polygon fill="#63b8ff" stroke="#63b8ff" points="205.23,-247.75 213.52,-241.15 202.93,-241.14 205.23,-247.75"/>
</a>
</g>
</g>
<!-- Node10&#45;&gt;Node9 -->
<g id="edge25_Node000010_Node000009" class="edge">
<title>Node10&#45;&gt;Node9</title>
<g id="a_edge25_Node000010_Node000009"><a xlink:title=" ">
<path fill="none" stroke="#63b8ff" d="M80.48,-276.05C92.7,-255.53 115.1,-217.95 128.62,-195.25"/>
<polygon fill="#63b8ff" stroke="#63b8ff" points="131.58,-197.13 133.69,-186.75 125.56,-193.55 131.58,-197.13"/>
</a>
</g>
</g>
</g>
</svg>

<g id="navigator" transform="translate(0 0)" fill="#404254">
  <rect fill="#f2f5e9" fill-opacity="0.5" stroke="#606060" stroke-width=".5" x="0" y="0" width="60" height="60"/>
  <use id="zoomplus" xlink:href="#zoomPlus" x="17" y="9" onmousedown="handleZoom(evt,'in')"/>
  <use id="zoomminus" xlink:href="#zoomMin" x="42" y="9" onmousedown="handleZoom(evt,'out')"/>
  <use id="reset" xlink:href="#resetDef" x="30" y="36" onmousedown="handleReset()"/>
   <use id="arrowup" xlink:href="#arrowUp" x="0" y="0" onmousedown="handlePan(0,-1)"/>
  <use id="arrowright" xlink:href="#arrowRight" x="0" y="0" onmousedown="handlePan(1,0)"/>
  <use id="arrowdown" xlink:href="#arrowDown" x="0" y="0" onmousedown="handlePan(0,1)"/>
  <use id="arrowleft" xlink:href="#arrowLeft" x="0" y="0" onmousedown="handlePan(-1,0)"/>
</g>
<svg viewBox="0 0 15 15" width="100%" height="30px" preserveAspectRatio="xMaxYMin meet">
 <g id="arrow_out" transform="scale(0.3 0.3)">
  <a xlink:href="aliro__uwb__internal_8h__incl_org.svg" target="_base">
   <rect id="button" ry="5" rx="5" y="6" x="6" height="38" width="38"
        fill="#f2f5e9" fill-opacity="0.5" stroke="#606060" stroke-width="1.0"/>
   <path id="arrow"
     d="M 11.500037,31.436501 C 11.940474,20.09759 22.043105,11.32322 32.158766,21.979434 L 37.068811,17.246167 C 37.068811,17.246167 37.088388,32 37.088388,32 L 22.160133,31.978069 C 22.160133,31.978069 26.997745,27.140456 26.997745,27.140456 C 18.528582,18.264221 13.291696,25.230495 11.500037,31.436501 z"
     style="fill:#404040;"/>
  </a>
 </g>
</svg>

<style type='text/css'>
<![CDATA[
[data-mouse-over-selected='false'] { opacity: 0.7; }
[data-mouse-over-selected='true']  { opacity: 1.0; }
]]>
</style>
<script type="application/ecmascript"><![CDATA[
document.addEventListener('DOMContentLoaded', (event) => {
  highlightEdges();
  highlightAdjacentNodes();
});
]]></script>
</svg>
