<?xml version="1.0" encoding="UTF-8" standalone="no"?>
<!DOCTYPE svg PUBLIC "-//W3C//DTD SVG 1.1//EN"
 "http://www.w3.org/Graphics/SVG/1.1/DTD/svg11.dtd">
<!-- Generated by graphviz version 15.0.0 (20260523.1842)
 -->
<!-- Title: modules/woz_uwb/src/aliro/aliro_uwb_msg.h Pages: 1 -->
<svg width="634pt" height="437pt"
 viewBox="0.00 0.00 634.00 437.00" xmlns="http://www.w3.org/2000/svg" xmlns:xlink="http://www.w3.org/1999/xlink">
<g id="graph0" class="graph" transform="scale(1 1) rotate(0) translate(4 432.5)">
<title>modules/woz_uwb/src/aliro/aliro_uwb_msg.h</title>
<!-- Node1 -->
<g id="Node000001" class="node">
<title>Node1</title>
<g id="a_Node000001"><a xlink:title="— message framing accessors, dispatch and builders.">
<polygon fill="#999999" stroke="#666666" points="520.75,-428.5 407.25,-428.5 407.25,-398 520.75,-398 520.75,-428.5"/>
<text xml:space="preserve" text-anchor="start" x="415.25" y="-415" font-family="Helvetica,sans-Serif" font-size="10.00">modules/woz_uwb/src</text>
<text xml:space="preserve" text-anchor="middle" x="464" y="-403.75" font-family="Helvetica,sans-Serif" font-size="10.00">/aliro/aliro_uwb_msg.h</text>
</a>
</g>
</g>
<!-- Node2 -->
<g id="Node000002" class="node">
<title>Node2</title>
<g id="a_Node000002"><a xlink:href="aliro__uwb__internal_8h.html" target="_top" xlink:title="— private context types and shared helpers.">
<polygon fill="white" stroke="#666666" points="515.12,-362 412.88,-362 412.88,-342.75 515.12,-342.75 515.12,-362"/>
<text xml:space="preserve" text-anchor="middle" x="464" y="-348.5" font-family="Helvetica,sans-Serif" font-size="10.00">aliro_uwb_internal.h</text>
</a>
</g>
</g>
<!-- Node1&#45;&gt;Node2 -->
<g id="edge1_Node000001_Node000002" class="edge">
<title>Node1&#45;&gt;Node2</title>
<g id="a_edge1_Node000001_Node000002"><a xlink:title=" ">
<path fill="none" stroke="#63b8ff" d="M464,-397.7C464,-390.46 464,-381.59 464,-373.69"/>
<polygon fill="#63b8ff" stroke="#63b8ff" points="467.5,-373.96 464,-363.96 460.5,-373.96 467.5,-373.96"/>
</a>
</g>
</g>
<!-- Node7 -->
<g id="Node000007" class="node">
<title>Node7</title>
<g id="a_Node000007"><a xlink:title=" ">
<polygon fill="#e0e0e0" stroke="#999999" points="389.12,-19.25 340.88,-19.25 340.88,0 389.12,0 389.12,-19.25"/>
<text xml:space="preserve" text-anchor="middle" x="365" y="-5.75" font-family="Helvetica,sans-Serif" font-size="10.00">stdint.h</text>
</a>
</g>
</g>
<!-- Node1&#45;&gt;Node7 -->
<g id="edge32_Node000001_Node000007" class="edge">
<title>Node1&#45;&gt;Node7</title>
<g id="a_edge32_Node000001_Node000007"><a xlink:title=" ">
<path fill="none" stroke="#63b8ff" d="M516.15,-397.65C563.51,-380.84 626,-348.11 626,-292.5 626,-292.5 626,-292.5 626,-119.12 626,-22.67 472.13,-10.37 400.68,-9.86"/>
<polygon fill="#63b8ff" stroke="#63b8ff" points="401.06,-6.36 391.07,-9.87 401.07,-13.36 401.06,-6.36"/>
</a>
</g>
</g>
<!-- Node11 -->
<g id="Node000011" class="node">
<title>Node11</title>
<g id="a_Node000011"><a xlink:href="aliro__uwb__session_8h.html" target="_top" xlink:title="— per&#45;session public interface.">
<polygon fill="white" stroke="#666666" points="349.88,-306.75 234.12,-306.75 234.12,-276.25 349.88,-276.25 349.88,-306.75"/>
<text xml:space="preserve" text-anchor="start" x="242.12" y="-293.25" font-family="Helvetica,sans-Serif" font-size="10.00">aliro_uwb_adapter/aliro</text>
<text xml:space="preserve" text-anchor="middle" x="292" y="-282" font-family="Helvetica,sans-Serif" font-size="10.00">_uwb_session.h</text>
</a>
</g>
</g>
<!-- Node1&#45;&gt;Node11 -->
<g id="edge31_Node000001_Node000011" class="edge">
<title>Node1&#45;&gt;Node11</title>
<g id="a_edge31_Node000001_Node000011"><a xlink:title=" ">
<path fill="none" stroke="#63b8ff" d="M442.91,-397.57C412.65,-376.5 356.77,-337.59 322.15,-313.49"/>
<polygon fill="#63b8ff" stroke="#63b8ff" points="324.44,-310.82 314.24,-307.98 320.44,-316.57 324.44,-310.82"/>
</a>
</g>
</g>
<!-- Node3 -->
<g id="Node000003" class="node">
<title>Node3</title>
<g id="a_Node000003"><a xlink:href="aliro__uwb__adapter_8h.html" target="_top" xlink:title="— reader&#45;device public interface.">
<polygon fill="white" stroke="#666666" points="521.88,-306.75 406.12,-306.75 406.12,-276.25 521.88,-276.25 521.88,-306.75"/>
<text xml:space="preserve" text-anchor="start" x="414.12" y="-293.25" font-family="Helvetica,sans-Serif" font-size="10.00">aliro_uwb_adapter/aliro</text>
<text xml:space="preserve" text-anchor="middle" x="464" y="-282" font-family="Helvetica,sans-Serif" font-size="10.00">_uwb_adapter.h</text>
</a>
</g>
</g>
<!-- Node2&#45;&gt;Node3 -->
<g id="edge2_Node000002_Node000003" class="edge">
<title>Node2&#45;&gt;Node3</title>
<g id="a_edge2_Node000002_Node000003"><a xlink:title=" ">
<path fill="none" stroke="#63b8ff" d="M464,-342.43C464,-335.98 464,-326.91 464,-318.26"/>
<polygon fill="#63b8ff" stroke="#63b8ff" points="467.5,-318.55 464,-308.55 460.5,-318.55 467.5,-318.55"/>
</a>
</g>
</g>
<!-- Node4 -->
<g id="Node000004" class="node">
<title>Node4</title>
<g id="a_Node000004"><a xlink:href="cherry_8h.html" target="_top" xlink:title="— Cherry core (context + device&#45;capabilities) interface.">
<polygon fill="white" stroke="#666666" points="355.88,-129.75 276.12,-129.75 276.12,-110.5 355.88,-110.5 355.88,-129.75"/>
<text xml:space="preserve" text-anchor="middle" x="316" y="-116.25" font-family="Helvetica,sans-Serif" font-size="10.00">cherry/cherry.h</text>
</a>
</g>
</g>
<!-- Node2&#45;&gt;Node4 -->
<g id="edge28_Node000002_Node000004" class="edge">
<title>Node2&#45;&gt;Node4</title>
<g id="a_edge28_Node000002_Node000004"><a xlink:title=" ">
<path fill="none" stroke="#63b8ff" d="M488.11,-342.35C503.41,-335.22 521.96,-323.63 531,-306.75 558.31,-255.75 503.11,-189.52 474,-165.75 443.75,-141.04 400.63,-130 367.07,-125.07"/>
<polygon fill="#63b8ff" stroke="#63b8ff" points="367.96,-121.66 357.59,-123.82 367.04,-128.6 367.96,-121.66"/>
</a>
</g>
</g>
<!-- Node2&#45;&gt;Node7 -->
<g id="edge30_Node000002_Node000007" class="edge">
<title>Node2&#45;&gt;Node7</title>
<g id="a_edge30_Node000002_Node000007"><a xlink:title=" ">
<path fill="none" stroke="#63b8ff" d="M490.4,-342.38C508.66,-335.08 532.54,-323.29 549,-306.75 575.54,-280.09 588,-269.24 588,-231.62 588,-231.62 588,-231.62 588,-119.12 588,-36.81 463.63,-16.93 400.65,-12.14"/>
<polygon fill="#63b8ff" stroke="#63b8ff" points="401.01,-8.66 390.8,-11.49 400.55,-15.64 401.01,-8.66"/>
</a>
</g>
</g>
<!-- Node8 -->
<g id="Node000008" class="node">
<title>Node8</title>
<g id="a_Node000008"><a xlink:href="cherry__ccc_8h.html" target="_top" xlink:title="— CCC/Aliro&#45;session interface (seam the adapter drives).">
<polygon fill="white" stroke="#666666" points="370.12,-240.25 267.88,-240.25 267.88,-221 370.12,-221 370.12,-240.25"/>
<text xml:space="preserve" text-anchor="middle" x="319" y="-226.75" font-family="Helvetica,sans-Serif" font-size="10.00">cherry/cherry_ccc.h</text>
</a>
</g>
</g>
<!-- Node2&#45;&gt;Node8 -->
<g id="edge29_Node000002_Node000008" class="edge">
<title>Node2&#45;&gt;Node8</title>
<g id="a_edge29_Node000002_Node000008"><a xlink:title=" ">
<path fill="none" stroke="#63b8ff" d="M448.83,-342.36C434.88,-333.82 413.88,-320.32 397,-306.75 374.22,-288.43 350.34,-264.65 335.09,-248.8"/>
<polygon fill="#63b8ff" stroke="#63b8ff" points="337.66,-246.42 328.24,-241.59 332.59,-251.25 337.66,-246.42"/>
</a>
</g>
</g>
<!-- Node2&#45;&gt;Node11 -->
<g id="edge22_Node000002_Node000011" class="edge">
<title>Node2&#45;&gt;Node11</title>
<g id="a_edge22_Node000002_Node000011"><a xlink:title=" ">
<path fill="none" stroke="#63b8ff" d="M437.5,-342.3C413.06,-333.94 376.03,-321.26 345.45,-310.79"/>
<polygon fill="#63b8ff" stroke="#63b8ff" points="346.96,-307.61 336.36,-307.68 344.69,-314.23 346.96,-307.61"/>
</a>
</g>
</g>
<!-- Node3&#45;&gt;Node4 -->
<g id="edge3_Node000003_Node000004" class="edge">
<title>Node3&#45;&gt;Node4</title>
<g id="a_edge3_Node000003_Node000004"><a xlink:title=" ">
<path fill="none" stroke="#63b8ff" d="M467.68,-275.97C473.18,-250.64 480.36,-198.02 455,-165.75 434.31,-139.42 397.95,-128.38 367.61,-123.87"/>
<polygon fill="#63b8ff" stroke="#63b8ff" points="368.18,-120.41 357.82,-122.62 367.3,-127.35 368.18,-120.41"/>
</a>
</g>
</g>
<!-- Node3&#45;&gt;Node7 -->
<g id="edge21_Node000003_Node000007" class="edge">
<title>Node3&#45;&gt;Node7</title>
<g id="a_edge21_Node000003_Node000007"><a xlink:title=" ">
<path fill="none" stroke="#63b8ff" d="M474.65,-275.83C488.79,-254.86 512,-214.64 512,-176.38 512,-176.38 512,-176.38 512,-119.12 512,-63.95 444.12,-33.66 400.62,-19.91"/>
<polygon fill="#63b8ff" stroke="#63b8ff" points="401.64,-16.56 391.05,-17.05 399.63,-23.27 401.64,-16.56"/>
</a>
</g>
</g>
<!-- Node3&#45;&gt;Node8 -->
<g id="edge9_Node000003_Node000008" class="edge">
<title>Node3&#45;&gt;Node8</title>
<g id="a_edge9_Node000003_Node000008"><a xlink:title=" ">
<path fill="none" stroke="#63b8ff" d="M427.78,-275.8C404.43,-266.31 374.3,-254.08 351.68,-244.89"/>
<polygon fill="#63b8ff" stroke="#63b8ff" points="353.22,-241.74 342.64,-241.22 350.59,-248.23 353.22,-241.74"/>
</a>
</g>
</g>
<!-- Node10 -->
<g id="Node000010" class="node">
<title>Node10</title>
<g id="a_Node000010"><a xlink:title=" ">
<polygon fill="#e0e0e0" stroke="#999999" points="445.62,-185 394.38,-185 394.38,-165.75 445.62,-165.75 445.62,-185"/>
<text xml:space="preserve" text-anchor="middle" x="420" y="-171.5" font-family="Helvetica,sans-Serif" font-size="10.00">stddef.h</text>
</a>
</g>
</g>
<!-- Node3&#45;&gt;Node10 -->
<g id="edge20_Node000003_Node000010" class="edge">
<title>Node3&#45;&gt;Node10</title>
<g id="a_edge20_Node000003_Node000010"><a xlink:title=" ">
<path fill="none" stroke="#63b8ff" d="M458.43,-276.05C450.63,-255.81 436.42,-218.97 427.64,-196.19"/>
<polygon fill="#63b8ff" stroke="#63b8ff" points="430.91,-194.93 424.04,-186.86 424.37,-197.45 430.91,-194.93"/>
</a>
</g>
</g>
<!-- Node5 -->
<g id="Node000005" class="node">
<title>Node5</title>
<g id="a_Node000005"><a xlink:href="cherry__common_8h.html" target="_top" xlink:title="— diagnostics config struct and report forward decl.">
<polygon fill="white" stroke="#666666" points="242,-74.5 148,-74.5 148,-55.25 242,-55.25 242,-74.5"/>
<text xml:space="preserve" text-anchor="middle" x="195" y="-61" font-family="Helvetica,sans-Serif" font-size="10.00">cherry_common.h</text>
</a>
</g>
</g>
<!-- Node4&#45;&gt;Node5 -->
<g id="edge4_Node000004_Node000005" class="edge">
<title>Node4&#45;&gt;Node5</title>
<g id="a_edge4_Node000004_Node000005"><a xlink:title=" ">
<path fill="none" stroke="#63b8ff" d="M295.47,-110.09C276.44,-101.72 247.85,-89.13 226.03,-79.53"/>
<polygon fill="#63b8ff" stroke="#63b8ff" points="227.57,-76.39 217.01,-75.56 224.76,-82.79 227.57,-76.39"/>
</a>
</g>
</g>
<!-- Node6 -->
<g id="Node000006" class="node">
<title>Node6</title>
<g id="a_Node000006"><a xlink:title=" ">
<polygon fill="#e0e0e0" stroke="#999999" points="147.88,-19.25 92.12,-19.25 92.12,0 147.88,0 147.88,-19.25"/>
<text xml:space="preserve" text-anchor="middle" x="120" y="-5.75" font-family="Helvetica,sans-Serif" font-size="10.00">stdbool.h</text>
</a>
</g>
</g>
<!-- Node4&#45;&gt;Node6 -->
<g id="edge7_Node000004_Node000006" class="edge">
<title>Node4&#45;&gt;Node6</title>
<g id="a_edge7_Node000004_Node000006"><a xlink:title=" ">
<path fill="none" stroke="#63b8ff" d="M309.35,-110.43C298.52,-96.84 275.78,-70.53 251,-55.25 222.55,-37.71 186.33,-26.05 159.19,-19.07"/>
<polygon fill="#63b8ff" stroke="#63b8ff" points="160.18,-15.71 149.63,-16.72 158.51,-22.5 160.18,-15.71"/>
</a>
</g>
</g>
<!-- Node4&#45;&gt;Node7 -->
<g id="edge8_Node000004_Node000007" class="edge">
<title>Node4&#45;&gt;Node7</title>
<g id="a_edge8_Node000004_Node000007"><a xlink:title=" ">
<path fill="none" stroke="#63b8ff" d="M320.01,-110.25C327.91,-92.76 345.63,-53.52 356.32,-29.84"/>
<polygon fill="#63b8ff" stroke="#63b8ff" points="359.39,-31.56 360.31,-21.01 353.01,-28.68 359.39,-31.56"/>
</a>
</g>
</g>
<!-- Node5&#45;&gt;Node6 -->
<g id="edge5_Node000005_Node000006" class="edge">
<title>Node5&#45;&gt;Node6</title>
<g id="a_edge5_Node000005_Node000006"><a xlink:title=" ">
<path fill="none" stroke="#63b8ff" d="M182.28,-54.84C171.29,-47.04 155.16,-35.59 142.07,-26.29"/>
<polygon fill="#63b8ff" stroke="#63b8ff" points="144.2,-23.51 134.02,-20.58 140.15,-29.22 144.2,-23.51"/>
</a>
</g>
</g>
<!-- Node5&#45;&gt;Node7 -->
<g id="edge6_Node000005_Node000007" class="edge">
<title>Node5&#45;&gt;Node7</title>
<g id="a_edge6_Node000005_Node000007"><a xlink:title=" ">
<path fill="none" stroke="#63b8ff" d="M223.84,-54.84C253.03,-45.7 298.22,-31.54 329.57,-21.72"/>
<polygon fill="#63b8ff" stroke="#63b8ff" points="330.5,-25.1 339,-18.77 328.41,-18.42 330.5,-25.1"/>
</a>
</g>
</g>
<!-- Node8&#45;&gt;Node4 -->
<g id="edge10_Node000008_Node000004" class="edge">
<title>Node8&#45;&gt;Node4</title>
<g id="a_edge10_Node000008_Node000004"><a xlink:title=" ">
<path fill="none" stroke="#63b8ff" d="M318.75,-220.75C318.28,-203.5 317.22,-165.08 316.56,-141.31"/>
<polygon fill="#63b8ff" stroke="#63b8ff" points="320.07,-141.54 316.29,-131.64 313.07,-141.73 320.07,-141.54"/>
</a>
</g>
</g>
<!-- Node8&#45;&gt;Node5 -->
<g id="edge11_Node000008_Node000005" class="edge">
<title>Node8&#45;&gt;Node5</title>
<g id="a_edge11_Node000008_Node000005"><a xlink:title=" ">
<path fill="none" stroke="#63b8ff" d="M267.55,-224.36C218.42,-218.15 149.5,-205.93 133,-185 106.93,-151.94 148.49,-106.24 175.24,-82.19"/>
<polygon fill="#63b8ff" stroke="#63b8ff" points="177.23,-85.1 182.48,-75.9 172.64,-79.82 177.23,-85.1"/>
</a>
</g>
</g>
<!-- Node8&#45;&gt;Node6 -->
<g id="edge17_Node000008_Node000006" class="edge">
<title>Node8&#45;&gt;Node6</title>
<g id="a_edge17_Node000008_Node000006"><a xlink:title=" ">
<path fill="none" stroke="#63b8ff" d="M267.76,-229.53C224.61,-226.98 163.33,-217.24 121,-185 70.61,-146.61 34.02,-112.08 62,-55.25 68.16,-42.73 79.71,-32.74 90.89,-25.41"/>
<polygon fill="#63b8ff" stroke="#63b8ff" points="92.41,-28.59 99.18,-20.44 88.81,-22.58 92.41,-28.59"/>
</a>
</g>
</g>
<!-- Node8&#45;&gt;Node7 -->
<g id="edge19_Node000008_Node000007" class="edge">
<title>Node8&#45;&gt;Node7</title>
<g id="a_edge19_Node000008_Node000007"><a xlink:title=" ">
<path fill="none" stroke="#63b8ff" d="M324.72,-220.73C335.2,-203.83 357.15,-165.55 365,-129.75 372.47,-95.67 370.1,-54.78 367.61,-30.85"/>
<polygon fill="#63b8ff" stroke="#63b8ff" points="371.12,-30.76 366.49,-21.24 364.17,-31.57 371.12,-30.76"/>
</a>
</g>
</g>
<!-- Node9 -->
<g id="Node000009" class="node">
<title>Node9</title>
<g id="a_Node000009"><a xlink:href="cherry__session_8h.html" target="_top" xlink:title="— generic base&#45;session interface.">
<polygon fill="white" stroke="#666666" points="262.12,-185 141.88,-185 141.88,-165.75 262.12,-165.75 262.12,-185"/>
<text xml:space="preserve" text-anchor="middle" x="202" y="-171.5" font-family="Helvetica,sans-Serif" font-size="10.00">cherry/cherry_session.h</text>
</a>
</g>
</g>
<!-- Node8&#45;&gt;Node9 -->
<g id="edge12_Node000008_Node000009" class="edge">
<title>Node8&#45;&gt;Node9</title>
<g id="a_edge12_Node000008_Node000009"><a xlink:title=" ">
<path fill="none" stroke="#63b8ff" d="M299.15,-220.59C280.83,-212.25 253.35,-199.75 232.29,-190.16"/>
<polygon fill="#63b8ff" stroke="#63b8ff" points="233.87,-187.04 223.32,-186.08 230.97,-193.41 233.87,-187.04"/>
</a>
</g>
</g>
<!-- Node8&#45;&gt;Node10 -->
<g id="edge18_Node000008_Node000010" class="edge">
<title>Node8&#45;&gt;Node10</title>
<g id="a_edge18_Node000008_Node000010"><a xlink:title=" ">
<path fill="none" stroke="#63b8ff" d="M336.13,-220.59C351.66,-212.41 374.8,-200.21 392.84,-190.69"/>
<polygon fill="#63b8ff" stroke="#63b8ff" points="394.23,-193.92 401.44,-186.16 390.97,-187.73 394.23,-193.92"/>
</a>
</g>
</g>
<!-- Node9&#45;&gt;Node4 -->
<g id="edge13_Node000009_Node000004" class="edge">
<title>Node9&#45;&gt;Node4</title>
<g id="a_edge13_Node000009_Node000004"><a xlink:title=" ">
<path fill="none" stroke="#63b8ff" d="M221.34,-165.34C239.11,-157.04 265.72,-144.61 286.2,-135.04"/>
<polygon fill="#63b8ff" stroke="#63b8ff" points="287.62,-138.25 295.2,-130.84 284.65,-131.9 287.62,-138.25"/>
</a>
</g>
</g>
<!-- Node9&#45;&gt;Node5 -->
<g id="edge14_Node000009_Node000005" class="edge">
<title>Node9&#45;&gt;Node5</title>
<g id="a_edge14_Node000009_Node000005"><a xlink:title=" ">
<path fill="none" stroke="#63b8ff" d="M201.43,-165.5C200.31,-148.25 197.84,-109.83 196.3,-86.06"/>
<polygon fill="#63b8ff" stroke="#63b8ff" points="199.81,-86.14 195.68,-76.39 192.83,-86.59 199.81,-86.14"/>
</a>
</g>
</g>
<!-- Node9&#45;&gt;Node6 -->
<g id="edge15_Node000009_Node000006" class="edge">
<title>Node9&#45;&gt;Node6</title>
<g id="a_edge15_Node000009_Node000006"><a xlink:title=" ">
<path fill="none" stroke="#63b8ff" d="M195.21,-165.49C182.57,-148.6 155.26,-110.34 139,-74.5 132.55,-60.29 127.62,-43.32 124.4,-30.44"/>
<polygon fill="#63b8ff" stroke="#63b8ff" points="127.89,-29.98 122.19,-21.05 121.08,-31.59 127.89,-29.98"/>
</a>
</g>
</g>
<!-- Node9&#45;&gt;Node7 -->
<g id="edge16_Node000009_Node000007" class="edge">
<title>Node9&#45;&gt;Node7</title>
<g id="a_edge16_Node000009_Node000007"><a xlink:title=" ">
<path fill="none" stroke="#63b8ff" d="M210.76,-165.57C236.85,-139.36 314.33,-61.53 348.5,-27.2"/>
<polygon fill="#63b8ff" stroke="#63b8ff" points="350.55,-30.1 355.13,-20.55 345.59,-25.16 350.55,-30.1"/>
</a>
</g>
</g>
<!-- Node11&#45;&gt;Node4 -->
<g id="edge23_Node000011_Node000004" class="edge">
<title>Node11&#45;&gt;Node4</title>
<g id="a_edge23_Node000011_Node000004"><a xlink:title=" ">
<path fill="none" stroke="#63b8ff" d="M278.16,-275.93C266.91,-262.27 253.69,-241.01 259,-221 267.29,-189.76 287.89,-158.09 301.92,-139.02"/>
<polygon fill="#63b8ff" stroke="#63b8ff" points="304.56,-141.33 307.82,-131.25 298.98,-137.1 304.56,-141.33"/>
</a>
</g>
</g>
<!-- Node11&#45;&gt;Node6 -->
<g id="edge25_Node000011_Node000006" class="edge">
<title>Node11&#45;&gt;Node6</title>
<g id="a_edge25_Node000011_Node000006"><a xlink:title=" ">
<path fill="none" stroke="#63b8ff" d="M233.96,-280.03C148.81,-263 0,-226.11 0,-176.38 0,-176.38 0,-176.38 0,-119.12 0,-72.67 50.09,-40.96 85.54,-24.32"/>
<polygon fill="#63b8ff" stroke="#63b8ff" points="86.92,-27.54 94.62,-20.26 84.07,-21.15 86.92,-27.54"/>
</a>
</g>
</g>
<!-- Node11&#45;&gt;Node7 -->
<g id="edge27_Node000011_Node000007" class="edge">
<title>Node11&#45;&gt;Node7</title>
<g id="a_edge27_Node000011_Node000007"><a xlink:title=" ">
<path fill="none" stroke="#63b8ff" d="M233.83,-284.71C169.86,-274.75 76,-247.95 76,-176.38 76,-176.38 76,-176.38 76,-119.12 76,-79.25 103.89,-74.14 139,-55.25 200.4,-22.22 282.97,-13.48 329.41,-11.27"/>
<polygon fill="#63b8ff" stroke="#63b8ff" points="329.32,-14.77 339.17,-10.88 329.04,-7.78 329.32,-14.77"/>
</a>
</g>
</g>
<!-- Node11&#45;&gt;Node8 -->
<g id="edge24_Node000011_Node000008" class="edge">
<title>Node11&#45;&gt;Node8</title>
<g id="a_edge24_Node000011_Node000008"><a xlink:title=" ">
<path fill="none" stroke="#63b8ff" d="M298.67,-275.95C302.11,-268.45 306.35,-259.2 310.07,-251.1"/>
<polygon fill="#63b8ff" stroke="#63b8ff" points="313.22,-252.63 314.21,-242.08 306.86,-249.71 313.22,-252.63"/>
</a>
</g>
</g>
<!-- Node11&#45;&gt;Node10 -->
<g id="edge26_Node000011_Node000010" class="edge">
<title>Node11&#45;&gt;Node10</title>
<g id="a_edge26_Node000011_Node000010"><a xlink:title=" ">
<path fill="none" stroke="#63b8ff" d="M325.48,-275.9C342.79,-267.24 363.48,-255.06 379,-240.25 392.56,-227.32 403.7,-209.04 410.93,-195.35"/>
<polygon fill="#63b8ff" stroke="#63b8ff" points="414.02,-197.01 415.37,-186.5 407.76,-193.87 414.02,-197.01"/>
</a>
</g>
</g>
</g>
</svg>
