<?xml version="1.0" encoding="UTF-8" standalone="no"?>
<!DOCTYPE svg PUBLIC "-//W3C//DTD SVG 1.1//EN"
 "http://www.w3.org/Graphics/SVG/1.1/DTD/svg11.dtd">
<!-- Generated by graphviz version 15.0.0 (20260523.1842)
 -->
<!-- Title: modules/woz_uwb/src/aliro/aliro_uwb_msg.c Pages: 1 -->
<svg width="1278pt" height="492pt"
 viewBox="0.00 0.00 1278.00 492.00" xmlns="http://www.w3.org/2000/svg" xmlns:xlink="http://www.w3.org/1999/xlink">
<g id="graph0" class="graph" transform="scale(1 1) rotate(0) translate(4 487.75)">
<title>modules/woz_uwb/src/aliro/aliro_uwb_msg.c</title>
<!-- Node1 -->
<g id="Node000001" class="node">
<title>Node1</title>
<g id="a_Node000001"><a xlink:title="— setup/notification message codec.">
<polygon fill="#999999" stroke="#666666" points="993.75,-483.75 880.25,-483.75 880.25,-453.25 993.75,-453.25 993.75,-483.75"/>
<text xml:space="preserve" text-anchor="start" x="888.25" y="-470.25" font-family="Helvetica,sans-Serif" font-size="10.00">modules/woz_uwb/src</text>
<text xml:space="preserve" text-anchor="middle" x="937" y="-459" font-family="Helvetica,sans-Serif" font-size="10.00">/aliro/aliro_uwb_msg.c</text>
</a>
</g>
</g>
<!-- Node2 -->
<g id="Node000002" class="node">
<title>Node2</title>
<g id="a_Node000002"><a xlink:href="aliro__uwb__msg_8h.html" target="_top" xlink:title="— message framing accessors, dispatch and builders.">
<polygon fill="white" stroke="#666666" points="618.75,-417.25 529.25,-417.25 529.25,-398 618.75,-398 618.75,-417.25"/>
<text xml:space="preserve" text-anchor="middle" x="574" y="-403.75" font-family="Helvetica,sans-Serif" font-size="10.00">aliro_uwb_msg.h</text>
</a>
</g>
</g>
<!-- Node1&#45;&gt;Node2 -->
<g id="edge1_Node000001_Node000002" class="edge">
<title>Node1&#45;&gt;Node2</title>
<g id="a_edge1_Node000001_Node000002"><a xlink:title=" ">
<path fill="none" stroke="#63b8ff" d="M879.88,-458.24C811.65,-447.17 698.24,-428.78 630.35,-417.76"/>
<polygon fill="#63b8ff" stroke="#63b8ff" points="630.97,-414.32 620.54,-416.17 629.85,-421.23 630.97,-414.32"/>
</a>
</g>
</g>
<!-- Node4 -->
<g id="Node000004" class="node">
<title>Node4</title>
<g id="a_Node000004"><a xlink:href="aliro__uwb__adapter_8h.html" target="_top" xlink:title="— reader&#45;device public interface.">
<polygon fill="white" stroke="#666666" points="469.88,-306.75 354.12,-306.75 354.12,-276.25 469.88,-276.25 469.88,-306.75"/>
<text xml:space="preserve" text-anchor="start" x="362.12" y="-293.25" font-family="Helvetica,sans-Serif" font-size="10.00">aliro_uwb_adapter/aliro</text>
<text xml:space="preserve" text-anchor="middle" x="412" y="-282" font-family="Helvetica,sans-Serif" font-size="10.00">_uwb_adapter.h</text>
</a>
</g>
</g>
<!-- Node1&#45;&gt;Node4 -->
<g id="edge48_Node000001_Node000004" class="edge">
<title>Node1&#45;&gt;Node4</title>
<g id="a_edge48_Node000001_Node000004"><a xlink:title=" ">
<path fill="none" stroke="#63b8ff" d="M879.95,-465.67C780.71,-461.66 581.09,-449.72 520,-417.25 476.75,-394.26 443.09,-346.32 425.51,-317.02"/>
<polygon fill="#63b8ff" stroke="#63b8ff" points="428.58,-315.35 420.53,-308.46 422.53,-318.86 428.58,-315.35"/>
</a>
</g>
</g>
<!-- Node13 -->
<g id="Node000013" class="node">
<title>Node13</title>
<g id="a_Node000013"><a xlink:href="aliro__uwb__msg__builder_8h.html" target="_top" xlink:title="— big&#45;endian TLV message builder.">
<polygon fill="white" stroke="#666666" points="750.25,-362 627.75,-362 627.75,-342.75 750.25,-342.75 750.25,-362"/>
<text xml:space="preserve" text-anchor="middle" x="689" y="-348.5" font-family="Helvetica,sans-Serif" font-size="10.00">aliro_uwb_msg_builder.h</text>
</a>
</g>
</g>
<!-- Node1&#45;&gt;Node13 -->
<g id="edge34_Node000001_Node000013" class="edge">
<title>Node1&#45;&gt;Node13</title>
<g id="a_edge34_Node000001_Node000013"><a xlink:title=" ">
<path fill="none" stroke="#63b8ff" d="M905.09,-452.81C856.88,-430.63 766.15,-388.88 719.06,-367.21"/>
<polygon fill="#63b8ff" stroke="#63b8ff" points="720.55,-364.04 710,-363.04 717.62,-370.4 720.55,-364.04"/>
</a>
</g>
</g>
<!-- Node14 -->
<g id="Node000014" class="node">
<title>Node14</title>
<g id="a_Node000014"><a xlink:href="aliro__uwb__msg__spec_8h.html" target="_top" xlink:title="— UWB ranging&#45;service framing constants.">
<polygon fill="white" stroke="#666666" points="889.88,-301.12 774.12,-301.12 774.12,-281.88 889.88,-281.88 889.88,-301.12"/>
<text xml:space="preserve" text-anchor="middle" x="832" y="-287.62" font-family="Helvetica,sans-Serif" font-size="10.00">aliro_uwb_msg_spec.h</text>
</a>
</g>
</g>
<!-- Node1&#45;&gt;Node14 -->
<g id="edge47_Node000001_Node000014" class="edge">
<title>Node1&#45;&gt;Node14</title>
<g id="a_edge47_Node000001_Node000014"><a xlink:title=" ">
<path fill="none" stroke="#63b8ff" d="M935.5,-452.75C932.38,-428 923.31,-377.42 899,-342.75 888.72,-328.09 872.83,-315.91 859.11,-307.21"/>
<polygon fill="#63b8ff" stroke="#63b8ff" points="861.28,-304.44 850.91,-302.29 857.68,-310.44 861.28,-304.44"/>
</a>
</g>
</g>
<!-- Node15 -->
<g id="Node000015" class="node">
<title>Node15</title>
<g id="a_Node000015"><a xlink:href="aliro__uwb__msg__parser_8h.html" target="_top" xlink:title="— TLV attribute iteration and big&#45;endian reads.">
<polygon fill="white" stroke="#666666" points="889.5,-362 768.5,-362 768.5,-342.75 889.5,-342.75 889.5,-362"/>
<text xml:space="preserve" text-anchor="middle" x="829" y="-348.5" font-family="Helvetica,sans-Serif" font-size="10.00">aliro_uwb_msg_parser.h</text>
</a>
</g>
</g>
<!-- Node1&#45;&gt;Node15 -->
<g id="edge41_Node000001_Node000015" class="edge">
<title>Node1&#45;&gt;Node15</title>
<g id="a_edge41_Node000001_Node000015"><a xlink:title=" ">
<path fill="none" stroke="#63b8ff" d="M923.32,-453.05C903.47,-432.06 866.71,-393.23 845.42,-370.73"/>
<polygon fill="#63b8ff" stroke="#63b8ff" points="848.04,-368.4 838.63,-363.55 842.96,-373.22 848.04,-368.4"/>
</a>
</g>
</g>
<!-- Node16 -->
<g id="Node000016" class="node">
<title>Node16</title>
<g id="a_Node000016"><a xlink:href="aliro__round__config_8h.html" target="_top" xlink:title="— one knob for the CCC ranging round&#39;s responder count.">
<polygon fill="white" stroke="#666666" points="1125.5,-417.25 1022.5,-417.25 1022.5,-398 1125.5,-398 1125.5,-417.25"/>
<text xml:space="preserve" text-anchor="middle" x="1074" y="-403.75" font-family="Helvetica,sans-Serif" font-size="10.00">aliro_round_config.h</text>
</a>
</g>
</g>
<!-- Node1&#45;&gt;Node16 -->
<g id="edge49_Node000001_Node000016" class="edge">
<title>Node1&#45;&gt;Node16</title>
<g id="a_edge49_Node000001_Node000016"><a xlink:title=" ">
<path fill="none" stroke="#63b8ff" d="M971.22,-452.8C993.08,-443.4 1021.23,-431.3 1042.54,-422.14"/>
<polygon fill="#63b8ff" stroke="#63b8ff" points="1043.79,-425.42 1051.6,-418.25 1041.03,-418.98 1043.79,-425.42"/>
</a>
</g>
</g>
<!-- Node17 -->
<g id="Node000017" class="node">
<title>Node17</title>
<g id="a_Node000017"><a xlink:href="woz__alloc_8h_source.html" target="_top" xlink:title=" ">
<polygon fill="white" stroke="#666666" points="1051.88,-301.12 984.12,-301.12 984.12,-281.88 1051.88,-281.88 1051.88,-301.12"/>
<text xml:space="preserve" text-anchor="middle" x="1018" y="-287.62" font-family="Helvetica,sans-Serif" font-size="10.00">woz_alloc.h</text>
</a>
</g>
</g>
<!-- Node1&#45;&gt;Node17 -->
<g id="edge50_Node000001_Node000017" class="edge">
<title>Node1&#45;&gt;Node17</title>
<g id="a_edge50_Node000001_Node000017"><a xlink:title=" ">
<path fill="none" stroke="#63b8ff" d="M947.68,-453.05C954.61,-443.27 963.52,-429.88 970,-417.25 988.3,-381.59 1003.76,-337.26 1011.88,-312.19"/>
<polygon fill="#63b8ff" stroke="#63b8ff" points="1015.11,-313.59 1014.8,-303 1008.43,-311.47 1015.11,-313.59"/>
</a>
</g>
</g>
<!-- Node19 -->
<g id="Node000019" class="node">
<title>Node19</title>
<g id="a_Node000019"><a xlink:title=" ">
<polygon fill="#e0e0e0" stroke="#999999" points="1192.12,-417.25 1143.88,-417.25 1143.88,-398 1192.12,-398 1192.12,-417.25"/>
<text xml:space="preserve" text-anchor="middle" x="1168" y="-403.75" font-family="Helvetica,sans-Serif" font-size="10.00">string.h</text>
</a>
</g>
</g>
<!-- Node1&#45;&gt;Node19 -->
<g id="edge56_Node000001_Node000019" class="edge">
<title>Node1&#45;&gt;Node19</title>
<g id="a_edge56_Node000001_Node000019"><a xlink:title=" ">
<path fill="none" stroke="#63b8ff" d="M994.21,-453.09C1031.14,-443.77 1080.52,-431.25 1132.39,-417.91"/>
<polygon fill="#63b8ff" stroke="#63b8ff" points="1133.22,-421.31 1142.03,-415.43 1131.47,-414.53 1133.22,-421.31"/>
</a>
</g>
</g>
<!-- Node20 -->
<g id="Node000020" class="node">
<title>Node20</title>
<g id="a_Node000020"><a xlink:href="woz__log_8h_source.html" target="_top" xlink:title=" ">
<polygon fill="white" stroke="#666666" points="1270.12,-417.25 1209.88,-417.25 1209.88,-398 1270.12,-398 1270.12,-417.25"/>
<text xml:space="preserve" text-anchor="middle" x="1240" y="-403.75" font-family="Helvetica,sans-Serif" font-size="10.00">woz_log.h</text>
</a>
</g>
</g>
<!-- Node1&#45;&gt;Node20 -->
<g id="edge57_Node000001_Node000020" class="edge">
<title>Node1&#45;&gt;Node20</title>
<g id="a_edge57_Node000001_Node000020"><a xlink:title=" ">
<path fill="none" stroke="#63b8ff" d="M994,-457.15C1045.03,-447.78 1122.17,-433.32 1198.53,-417.71"/>
<polygon fill="#63b8ff" stroke="#63b8ff" points="1199.21,-421.14 1208.3,-415.7 1197.8,-414.29 1199.21,-421.14"/>
</a>
</g>
</g>
<!-- Node21 -->
<g id="Node000021" class="node">
<title>Node21</title>
<g id="a_Node000021"><a xlink:href="woz__util_8h_source.html" target="_top" xlink:title=" ">
<polygon fill="white" stroke="#666666" points="885.12,-240.25 824.88,-240.25 824.88,-221 885.12,-221 885.12,-240.25"/>
<text xml:space="preserve" text-anchor="middle" x="855" y="-226.75" font-family="Helvetica,sans-Serif" font-size="10.00">woz_util.h</text>
</a>
</g>
</g>
<!-- Node1&#45;&gt;Node21 -->
<g id="edge58_Node000001_Node000021" class="edge">
<title>Node1&#45;&gt;Node21</title>
<g id="a_edge58_Node000001_Node000021"><a xlink:title=" ">
<path fill="none" stroke="#63b8ff" d="M938.46,-453.01C939.4,-442.98 940.52,-429.32 941,-417.25 943.6,-351.91 933.47,-331.81 899,-276.25 892.51,-265.79 883.17,-255.87 874.76,-248.04"/>
<polygon fill="#63b8ff" stroke="#63b8ff" points="877.12,-245.46 867.32,-241.45 872.49,-250.7 877.12,-245.46"/>
</a>
</g>
</g>
<!-- Node3 -->
<g id="Node000003" class="node">
<title>Node3</title>
<g id="a_Node000003"><a xlink:href="aliro__uwb__internal_8h.html" target="_top" xlink:title="— private context types and shared helpers.">
<polygon fill="white" stroke="#666666" points="401.12,-362 298.88,-362 298.88,-342.75 401.12,-342.75 401.12,-362"/>
<text xml:space="preserve" text-anchor="middle" x="350" y="-348.5" font-family="Helvetica,sans-Serif" font-size="10.00">aliro_uwb_internal.h</text>
</a>
</g>
</g>
<!-- Node2&#45;&gt;Node3 -->
<g id="edge2_Node000002_Node000003" class="edge">
<title>Node2&#45;&gt;Node3</title>
<g id="a_edge2_Node000002_Node000003"><a xlink:title=" ">
<path fill="none" stroke="#63b8ff" d="M535.75,-397.53C498.06,-388.57 440.31,-374.84 399.21,-365.07"/>
<polygon fill="#63b8ff" stroke="#63b8ff" points="400.11,-361.69 389.57,-362.78 398.49,-368.5 400.11,-361.69"/>
</a>
</g>
</g>
<!-- Node8 -->
<g id="Node000008" class="node">
<title>Node8</title>
<g id="a_Node000008"><a xlink:title=" ">
<polygon fill="#e0e0e0" stroke="#999999" points="618.12,-19.25 569.88,-19.25 569.88,0 618.12,0 618.12,-19.25"/>
<text xml:space="preserve" text-anchor="middle" x="594" y="-5.75" font-family="Helvetica,sans-Serif" font-size="10.00">stdint.h</text>
</a>
</g>
</g>
<!-- Node2&#45;&gt;Node8 -->
<g id="edge33_Node000002_Node000008" class="edge">
<title>Node2&#45;&gt;Node8</title>
<g id="a_edge33_Node000002_Node000008"><a xlink:title=" ">
<path fill="none" stroke="#63b8ff" d="M579.15,-397.86C593.34,-372.83 632,-298.52 632,-231.62 632,-231.62 632,-231.62 632,-119.12 632,-86.13 616.16,-50.51 604.93,-29.41"/>
<polygon fill="#63b8ff" stroke="#63b8ff" points="608.1,-27.9 600.18,-20.86 601.98,-31.3 608.1,-27.9"/>
</a>
</g>
</g>
<!-- Node12 -->
<g id="Node000012" class="node">
<title>Node12</title>
<g id="a_Node000012"><a xlink:href="aliro__uwb__session_8h.html" target="_top" xlink:title="— per&#45;session public interface.">
<polygon fill="white" stroke="#666666" points="603.88,-306.75 488.12,-306.75 488.12,-276.25 603.88,-276.25 603.88,-306.75"/>
<text xml:space="preserve" text-anchor="start" x="496.12" y="-293.25" font-family="Helvetica,sans-Serif" font-size="10.00">aliro_uwb_adapter/aliro</text>
<text xml:space="preserve" text-anchor="middle" x="546" y="-282" font-family="Helvetica,sans-Serif" font-size="10.00">_uwb_session.h</text>
</a>
</g>
</g>
<!-- Node2&#45;&gt;Node12 -->
<g id="edge32_Node000002_Node000012" class="edge">
<title>Node2&#45;&gt;Node12</title>
<g id="a_edge32_Node000002_Node000012"><a xlink:title=" ">
<path fill="none" stroke="#63b8ff" d="M571.8,-397.67C567.64,-380.7 558.47,-343.31 552.26,-318.01"/>
<polygon fill="#63b8ff" stroke="#63b8ff" points="555.7,-317.37 549.92,-308.49 548.91,-319.04 555.7,-317.37"/>
</a>
</g>
</g>
<!-- Node3&#45;&gt;Node4 -->
<g id="edge3_Node000003_Node000004" class="edge">
<title>Node3&#45;&gt;Node4</title>
<g id="a_edge3_Node000003_Node000004"><a xlink:title=" ">
<path fill="none" stroke="#63b8ff" d="M359.42,-342.43C367.14,-335.09 378.42,-324.38 388.56,-314.76"/>
<polygon fill="#63b8ff" stroke="#63b8ff" points="390.76,-317.5 395.6,-308.07 385.94,-312.42 390.76,-317.5"/>
</a>
</g>
</g>
<!-- Node5 -->
<g id="Node000005" class="node">
<title>Node5</title>
<g id="a_Node000005"><a xlink:href="cherry_8h.html" target="_top" xlink:title="— Cherry core (context + device&#45;capabilities) interface.">
<polygon fill="white" stroke="#666666" points="281.88,-129.75 202.12,-129.75 202.12,-110.5 281.88,-110.5 281.88,-129.75"/>
<text xml:space="preserve" text-anchor="middle" x="242" y="-116.25" font-family="Helvetica,sans-Serif" font-size="10.00">cherry/cherry.h</text>
</a>
</g>
</g>
<!-- Node3&#45;&gt;Node5 -->
<g id="edge29_Node000003_Node000005" class="edge">
<title>Node3&#45;&gt;Node5</title>
<g id="a_edge29_Node000003_Node000005"><a xlink:title=" ">
<path fill="none" stroke="#63b8ff" d="M314.04,-342.36C268.69,-328.8 192.81,-298.34 161,-240.25 154.28,-227.98 146.68,-192.58 163,-165.75 171.56,-151.67 186.32,-141.65 200.78,-134.71"/>
<polygon fill="#63b8ff" stroke="#63b8ff" points="202,-138 209.77,-130.8 199.2,-131.58 202,-138"/>
</a>
</g>
</g>
<!-- Node3&#45;&gt;Node8 -->
<g id="edge31_Node000003_Node000008" class="edge">
<title>Node3&#45;&gt;Node8</title>
<g id="a_edge31_Node000003_Node000008"><a xlink:title=" ">
<path fill="none" stroke="#63b8ff" d="M346.33,-342.67C340.66,-327.76 331.76,-296.95 345,-276.25 365.58,-244.09 393.35,-264.3 423,-240.25 500.44,-177.43 561.52,-72.06 584.32,-29.4"/>
<polygon fill="#63b8ff" stroke="#63b8ff" points="587.36,-31.15 588.91,-20.67 581.16,-27.9 587.36,-31.15"/>
</a>
</g>
</g>
<!-- Node9 -->
<g id="Node000009" class="node">
<title>Node9</title>
<g id="a_Node000009"><a xlink:href="cherry__ccc_8h.html" target="_top" xlink:title="— CCC/Aliro&#45;session interface (seam the adapter drives).">
<polygon fill="white" stroke="#666666" points="414.12,-240.25 311.88,-240.25 311.88,-221 414.12,-221 414.12,-240.25"/>
<text xml:space="preserve" text-anchor="middle" x="363" y="-226.75" font-family="Helvetica,sans-Serif" font-size="10.00">cherry/cherry_ccc.h</text>
</a>
</g>
</g>
<!-- Node3&#45;&gt;Node9 -->
<g id="edge30_Node000003_Node000009" class="edge">
<title>Node3&#45;&gt;Node9</title>
<g id="a_edge30_Node000003_Node000009"><a xlink:title=" ">
<path fill="none" stroke="#63b8ff" d="M320.46,-342.29C303.63,-335.42 283.96,-324.15 274,-306.75 267.27,-294.99 266.88,-287.79 274,-276.25 283.07,-261.55 298.63,-251.53 314.22,-244.77"/>
<polygon fill="#63b8ff" stroke="#63b8ff" points="315.48,-248.03 323.53,-241.14 312.94,-241.51 315.48,-248.03"/>
</a>
</g>
</g>
<!-- Node3&#45;&gt;Node12 -->
<g id="edge23_Node000003_Node000012" class="edge">
<title>Node3&#45;&gt;Node12</title>
<g id="a_edge23_Node000003_Node000012"><a xlink:title=" ">
<path fill="none" stroke="#63b8ff" d="M380.2,-342.3C408.42,-333.83 451.35,-320.93 486.46,-310.38"/>
<polygon fill="#63b8ff" stroke="#63b8ff" points="487.06,-313.86 495.63,-307.63 485.05,-307.16 487.06,-313.86"/>
</a>
</g>
</g>
<!-- Node4&#45;&gt;Node5 -->
<g id="edge4_Node000004_Node000005" class="edge">
<title>Node4&#45;&gt;Node5</title>
<g id="a_edge4_Node000004_Node000005"><a xlink:title=" ">
<path fill="none" stroke="#63b8ff" d="M353.81,-278.57C284.39,-264.28 177.42,-242.01 176,-240.25 155.17,-214.51 160.47,-194.99 176,-165.75 183.01,-152.54 195.87,-142.53 208.39,-135.38"/>
<polygon fill="#63b8ff" stroke="#63b8ff" points="209.65,-138.67 216.89,-130.94 206.41,-132.46 209.65,-138.67"/>
</a>
</g>
</g>
<!-- Node4&#45;&gt;Node8 -->
<g id="edge22_Node000004_Node000008" class="edge">
<title>Node4&#45;&gt;Node8</title>
<g id="a_edge22_Node000004_Node000008"><a xlink:title=" ">
<path fill="none" stroke="#63b8ff" d="M434.57,-276C461.31,-257.75 505.54,-224.04 532,-185 549.69,-158.9 576.69,-70.36 588.33,-30.43"/>
<polygon fill="#63b8ff" stroke="#63b8ff" points="591.65,-31.56 591.06,-20.98 584.93,-29.61 591.65,-31.56"/>
</a>
</g>
</g>
<!-- Node4&#45;&gt;Node9 -->
<g id="edge10_Node000004_Node000009" class="edge">
<title>Node4&#45;&gt;Node9</title>
<g id="a_edge10_Node000004_Node000009"><a xlink:title=" ">
<path fill="none" stroke="#63b8ff" d="M399.89,-275.95C393.22,-267.93 384.88,-257.92 377.82,-249.44"/>
<polygon fill="#63b8ff" stroke="#63b8ff" points="380.61,-247.31 371.52,-241.86 375.23,-251.79 380.61,-247.31"/>
</a>
</g>
</g>
<!-- Node11 -->
<g id="Node000011" class="node">
<title>Node11</title>
<g id="a_Node000011"><a xlink:title=" ">
<polygon fill="#e0e0e0" stroke="#999999" points="756.62,-185 705.38,-185 705.38,-165.75 756.62,-165.75 756.62,-185"/>
<text xml:space="preserve" text-anchor="middle" x="731" y="-171.5" font-family="Helvetica,sans-Serif" font-size="10.00">stddef.h</text>
</a>
</g>
</g>
<!-- Node4&#45;&gt;Node11 -->
<g id="edge21_Node000004_Node000011" class="edge">
<title>Node4&#45;&gt;Node11</title>
<g id="a_edge21_Node000004_Node000011"><a xlink:title=" ">
<path fill="none" stroke="#63b8ff" d="M453.05,-275.81C515.97,-253.3 635.22,-210.64 694.98,-189.26"/>
<polygon fill="#63b8ff" stroke="#63b8ff" points="696.1,-192.58 704.33,-185.92 693.74,-185.99 696.1,-192.58"/>
</a>
</g>
</g>
<!-- Node6 -->
<g id="Node000006" class="node">
<title>Node6</title>
<g id="a_Node000006"><a xlink:href="cherry__common_8h.html" target="_top" xlink:title="— diagnostics config struct and report forward decl.">
<polygon fill="white" stroke="#666666" points="410,-74.5 316,-74.5 316,-55.25 410,-55.25 410,-74.5"/>
<text xml:space="preserve" text-anchor="middle" x="363" y="-61" font-family="Helvetica,sans-Serif" font-size="10.00">cherry_common.h</text>
</a>
</g>
</g>
<!-- Node5&#45;&gt;Node6 -->
<g id="edge5_Node000005_Node000006" class="edge">
<title>Node5&#45;&gt;Node6</title>
<g id="a_edge5_Node000005_Node000006"><a xlink:title=" ">
<path fill="none" stroke="#63b8ff" d="M262.53,-110.09C281.56,-101.72 310.15,-89.13 331.97,-79.53"/>
<polygon fill="#63b8ff" stroke="#63b8ff" points="333.24,-82.79 340.99,-75.56 330.43,-76.39 333.24,-82.79"/>
</a>
</g>
</g>
<!-- Node7 -->
<g id="Node000007" class="node">
<title>Node7</title>
<g id="a_Node000007"><a xlink:title=" ">
<polygon fill="#e0e0e0" stroke="#999999" points="201.88,-19.25 146.12,-19.25 146.12,0 201.88,0 201.88,-19.25"/>
<text xml:space="preserve" text-anchor="middle" x="174" y="-5.75" font-family="Helvetica,sans-Serif" font-size="10.00">stdbool.h</text>
</a>
</g>
</g>
<!-- Node5&#45;&gt;Node7 -->
<g id="edge8_Node000005_Node000007" class="edge">
<title>Node5&#45;&gt;Node7</title>
<g id="a_edge8_Node000005_Node000007"><a xlink:title=" ">
<path fill="none" stroke="#63b8ff" d="M236.44,-110.25C225.38,-92.6 200.43,-52.8 185.64,-29.2"/>
<polygon fill="#63b8ff" stroke="#63b8ff" points="188.72,-27.52 180.45,-20.91 182.79,-31.24 188.72,-27.52"/>
</a>
</g>
</g>
<!-- Node5&#45;&gt;Node8 -->
<g id="edge9_Node000005_Node000008" class="edge">
<title>Node5&#45;&gt;Node8</title>
<g id="a_edge9_Node000005_Node000008"><a xlink:title=" ">
<path fill="none" stroke="#63b8ff" d="M248.02,-110.37C258.31,-96.19 280.7,-68.46 307,-55.25 350.46,-33.42 491.4,-19.15 558.23,-13.44"/>
<polygon fill="#63b8ff" stroke="#63b8ff" points="558.24,-16.95 567.91,-12.63 557.66,-9.98 558.24,-16.95"/>
</a>
</g>
</g>
<!-- Node6&#45;&gt;Node7 -->
<g id="edge6_Node000006_Node000007" class="edge">
<title>Node6&#45;&gt;Node7</title>
<g id="a_edge6_Node000006_Node000007"><a xlink:title=" ">
<path fill="none" stroke="#63b8ff" d="M330.94,-54.84C298.34,-45.66 247.81,-31.42 212.93,-21.59"/>
<polygon fill="#63b8ff" stroke="#63b8ff" points="214.23,-18.32 203.66,-18.98 212.33,-25.06 214.23,-18.32"/>
</a>
</g>
</g>
<!-- Node6&#45;&gt;Node8 -->
<g id="edge7_Node000006_Node000008" class="edge">
<title>Node6&#45;&gt;Node8</title>
<g id="a_edge7_Node000006_Node000008"><a xlink:title=" ">
<path fill="none" stroke="#63b8ff" d="M402.45,-54.78C446.26,-44.68 516.37,-28.52 558.52,-18.8"/>
<polygon fill="#63b8ff" stroke="#63b8ff" points="559.19,-22.24 568.14,-16.59 557.61,-15.42 559.19,-22.24"/>
</a>
</g>
</g>
<!-- Node9&#45;&gt;Node5 -->
<g id="edge11_Node000009_Node000005" class="edge">
<title>Node9&#45;&gt;Node5</title>
<g id="a_edge11_Node000009_Node000005"><a xlink:title=" ">
<path fill="none" stroke="#63b8ff" d="M341.41,-220.58C324.71,-212.84 301.68,-200.51 285,-185 270.94,-171.93 259.12,-153.42 251.46,-139.69"/>
<polygon fill="#63b8ff" stroke="#63b8ff" points="254.74,-138.41 246.95,-131.23 248.56,-141.7 254.74,-138.41"/>
</a>
</g>
</g>
<!-- Node9&#45;&gt;Node6 -->
<g id="edge12_Node000009_Node000006" class="edge">
<title>Node9&#45;&gt;Node6</title>
<g id="a_edge12_Node000009_Node000006"><a xlink:title=" ">
<path fill="none" stroke="#63b8ff" d="M383.47,-220.6C397.41,-213.23 414.78,-201.36 423,-185 426.84,-177.36 425.29,-173.99 423,-165.75 414.3,-134.36 392.8,-102.93 378.05,-83.94"/>
<polygon fill="#63b8ff" stroke="#63b8ff" points="380.79,-81.78 371.81,-76.16 375.33,-86.15 380.79,-81.78"/>
</a>
</g>
</g>
<!-- Node9&#45;&gt;Node7 -->
<g id="edge18_Node000009_Node000007" class="edge">
<title>Node9&#45;&gt;Node7</title>
<g id="a_edge18_Node000009_Node000007"><a xlink:title=" ">
<path fill="none" stroke="#63b8ff" d="M329.07,-220.57C288.63,-207.77 222.78,-180.14 193,-129.75 174.76,-98.89 172.42,-56.04 172.87,-31.03"/>
<polygon fill="#63b8ff" stroke="#63b8ff" points="176.36,-31.38 173.23,-21.25 169.36,-31.12 176.36,-31.38"/>
</a>
</g>
</g>
<!-- Node9&#45;&gt;Node8 -->
<g id="edge20_Node000009_Node000008" class="edge">
<title>Node9&#45;&gt;Node8</title>
<g id="a_edge20_Node000009_Node000008"><a xlink:title=" ">
<path fill="none" stroke="#63b8ff" d="M384.94,-220.62C401.22,-213.06 423.09,-200.93 438,-185 482.21,-137.76 458.02,-100.76 504,-55.25 519.29,-40.11 540.75,-29.2 558.88,-21.96"/>
<polygon fill="#63b8ff" stroke="#63b8ff" points="560.1,-25.24 568.24,-18.45 557.64,-18.68 560.1,-25.24"/>
</a>
</g>
</g>
<!-- Node10 -->
<g id="Node000010" class="node">
<title>Node10</title>
<g id="a_Node000010"><a xlink:href="cherry__session_8h.html" target="_top" xlink:title="— generic base&#45;session interface.">
<polygon fill="white" stroke="#666666" points="414.12,-185 293.88,-185 293.88,-165.75 414.12,-165.75 414.12,-185"/>
<text xml:space="preserve" text-anchor="middle" x="354" y="-171.5" font-family="Helvetica,sans-Serif" font-size="10.00">cherry/cherry_session.h</text>
</a>
</g>
</g>
<!-- Node9&#45;&gt;Node10 -->
<g id="edge13_Node000009_Node000010" class="edge">
<title>Node9&#45;&gt;Node10</title>
<g id="a_edge13_Node000009_Node000010"><a xlink:title=" ">
<path fill="none" stroke="#63b8ff" d="M361.51,-220.83C360.4,-214.24 358.83,-204.96 357.41,-196.57"/>
<polygon fill="#63b8ff" stroke="#63b8ff" points="360.89,-196.13 355.77,-186.85 353.99,-197.3 360.89,-196.13"/>
</a>
</g>
</g>
<!-- Node9&#45;&gt;Node11 -->
<g id="edge19_Node000009_Node000011" class="edge">
<title>Node9&#45;&gt;Node11</title>
<g id="a_edge19_Node000009_Node000011"><a xlink:title=" ">
<path fill="none" stroke="#63b8ff" d="M414.56,-222.16C489.76,-211.28 627.75,-191.32 693.83,-181.75"/>
<polygon fill="#63b8ff" stroke="#63b8ff" points="694.03,-185.26 703.42,-180.37 693.02,-178.33 694.03,-185.26"/>
</a>
</g>
</g>
<!-- Node10&#45;&gt;Node5 -->
<g id="edge14_Node000010_Node000005" class="edge">
<title>Node10&#45;&gt;Node5</title>
<g id="a_edge14_Node000010_Node000005"><a xlink:title=" ">
<path fill="none" stroke="#63b8ff" d="M335,-165.34C317.54,-157.04 291.4,-144.61 271.28,-135.04"/>
<polygon fill="#63b8ff" stroke="#63b8ff" points="272.99,-131.99 262.46,-130.85 269.99,-138.31 272.99,-131.99"/>
</a>
</g>
</g>
<!-- Node10&#45;&gt;Node6 -->
<g id="edge15_Node000010_Node000006" class="edge">
<title>Node10&#45;&gt;Node6</title>
<g id="a_edge15_Node000010_Node000006"><a xlink:title=" ">
<path fill="none" stroke="#63b8ff" d="M354.74,-165.5C356.17,-148.25 359.35,-109.83 361.33,-86.06"/>
<polygon fill="#63b8ff" stroke="#63b8ff" points="364.79,-86.64 362.13,-76.39 357.81,-86.06 364.79,-86.64"/>
</a>
</g>
</g>
<!-- Node10&#45;&gt;Node7 -->
<g id="edge16_Node000010_Node000007" class="edge">
<title>Node10&#45;&gt;Node7</title>
<g id="a_edge16_Node000010_Node000007"><a xlink:title=" ">
<path fill="none" stroke="#63b8ff" d="M345.67,-165.46C333.83,-152.89 311.3,-129.39 291,-110.5 258.01,-79.8 217.67,-46.18 194.01,-26.82"/>
<polygon fill="#63b8ff" stroke="#63b8ff" points="196.38,-24.24 186.42,-20.64 191.96,-29.67 196.38,-24.24"/>
</a>
</g>
</g>
<!-- Node10&#45;&gt;Node8 -->
<g id="edge17_Node000010_Node000008" class="edge">
<title>Node10&#45;&gt;Node8</title>
<g id="a_edge17_Node000010_Node000008"><a xlink:title=" ">
<path fill="none" stroke="#63b8ff" d="M359.97,-165.53C375.15,-143.71 417.43,-86.78 466,-55.25 494.67,-36.64 532.01,-24.78 558.96,-18"/>
<polygon fill="#63b8ff" stroke="#63b8ff" points="559.43,-21.49 568.34,-15.76 557.8,-14.68 559.43,-21.49"/>
</a>
</g>
</g>
<!-- Node12&#45;&gt;Node5 -->
<g id="edge24_Node000012_Node000005" class="edge">
<title>Node12&#45;&gt;Node5</title>
<g id="a_edge24_Node000012_Node000005"><a xlink:title=" ">
<path fill="none" stroke="#63b8ff" d="M487.9,-278.11C484.89,-277.48 481.91,-276.86 479,-276.25 400.84,-259.94 369.83,-283.93 303,-240.25 268.26,-217.54 252.3,-168.52 245.83,-140.96"/>
<polygon fill="#63b8ff" stroke="#63b8ff" points="249.31,-140.52 243.8,-131.47 242.46,-141.98 249.31,-140.52"/>
</a>
</g>
</g>
<!-- Node12&#45;&gt;Node7 -->
<g id="edge26_Node000012_Node000007" class="edge">
<title>Node12&#45;&gt;Node7</title>
<g id="a_edge26_Node000012_Node000007"><a xlink:title=" ">
<path fill="none" stroke="#63b8ff" d="M487.92,-278.03C484.9,-277.42 481.92,-276.82 479,-276.25 389.94,-258.81 357.04,-284.85 278,-240.25 221.09,-208.13 210.43,-188.1 181,-129.75 165.03,-98.09 167.29,-55.51 170.54,-30.77"/>
<polygon fill="#63b8ff" stroke="#63b8ff" points="173.96,-31.52 172.01,-21.11 167.04,-30.47 173.96,-31.52"/>
</a>
</g>
</g>
<!-- Node12&#45;&gt;Node8 -->
<g id="edge28_Node000012_Node000008" class="edge">
<title>Node12&#45;&gt;Node8</title>
<g id="a_edge28_Node000012_Node000008"><a xlink:title=" ">
<path fill="none" stroke="#63b8ff" d="M549.74,-275.91C554.85,-255.62 564.04,-217.71 570,-185 580.11,-129.53 588.11,-63.44 591.79,-30.85"/>
<polygon fill="#63b8ff" stroke="#63b8ff" points="595.24,-31.58 592.86,-21.25 588.28,-30.8 595.24,-31.58"/>
</a>
</g>
</g>
<!-- Node12&#45;&gt;Node9 -->
<g id="edge25_Node000012_Node000009" class="edge">
<title>Node12&#45;&gt;Node9</title>
<g id="a_edge25_Node000012_Node000009"><a xlink:title=" ">
<path fill="none" stroke="#63b8ff" d="M500.29,-275.8C470.11,-266.08 430.96,-253.49 402.19,-244.23"/>
<polygon fill="#63b8ff" stroke="#63b8ff" points="403.37,-240.94 392.78,-241.2 401.22,-247.6 403.37,-240.94"/>
</a>
</g>
</g>
<!-- Node12&#45;&gt;Node11 -->
<g id="edge27_Node000012_Node000011" class="edge">
<title>Node12&#45;&gt;Node11</title>
<g id="a_edge27_Node000012_Node000011"><a xlink:title=" ">
<path fill="none" stroke="#63b8ff" d="M569.81,-275.81C605.16,-254.01 671.17,-213.28 706.77,-191.32"/>
<polygon fill="#63b8ff" stroke="#63b8ff" points="708.4,-194.43 715.07,-186.2 704.72,-188.47 708.4,-194.43"/>
</a>
</g>
</g>
<!-- Node13&#45;&gt;Node7 -->
<g id="edge38_Node000013_Node000007" class="edge">
<title>Node13&#45;&gt;Node7</title>
<g id="a_edge38_Node000013_Node000007"><a xlink:title=" ">
<path fill="none" stroke="#63b8ff" d="M627.33,-349.15C480.06,-342.59 113.5,-318.61 24,-240.25 1.18,-220.27 0,-206.7 0,-176.38 0,-176.38 0,-176.38 0,-119.12 0,-88.8 1.82,-75.93 24,-55.25 54.13,-27.16 101.19,-16.69 134.56,-12.82"/>
<polygon fill="#63b8ff" stroke="#63b8ff" points="134.62,-16.33 144.23,-11.86 133.93,-9.37 134.62,-16.33"/>
</a>
</g>
</g>
<!-- Node13&#45;&gt;Node8 -->
<g id="edge40_Node000013_Node000008" class="edge">
<title>Node13&#45;&gt;Node8</title>
<g id="a_edge40_Node000013_Node000008"><a xlink:title=" ">
<path fill="none" stroke="#63b8ff" d="M686.59,-342.44C681.48,-322.64 670,-273.51 670,-231.62 670,-231.62 670,-231.62 670,-119.12 670,-88.8 663.39,-80.1 646,-55.25 638.25,-44.17 627.13,-34.13 617.16,-26.39"/>
<polygon fill="#63b8ff" stroke="#63b8ff" points="619.45,-23.73 609.32,-20.62 615.3,-29.37 619.45,-23.73"/>
</a>
</g>
</g>
<!-- Node13&#45;&gt;Node11 -->
<g id="edge39_Node000013_Node000011" class="edge">
<title>Node13&#45;&gt;Node11</title>
<g id="a_edge39_Node000013_Node000011"><a xlink:title=" ">
<path fill="none" stroke="#63b8ff" d="M691.14,-342.46C697.6,-315.55 717,-234.69 726.14,-196.62"/>
<polygon fill="#63b8ff" stroke="#63b8ff" points="729.53,-197.5 728.46,-186.96 722.72,-195.86 729.53,-197.5"/>
</a>
</g>
</g>
<!-- Node13&#45;&gt;Node12 -->
<g id="edge37_Node000013_Node000012" class="edge">
<title>Node13&#45;&gt;Node12</title>
<g id="a_edge37_Node000013_Node000012"><a xlink:title=" ">
<path fill="none" stroke="#63b8ff" d="M666.97,-342.3C647.09,-334.12 617.2,-321.81 592.11,-311.48"/>
<polygon fill="#63b8ff" stroke="#63b8ff" points="593.67,-308.34 583.09,-307.77 591.01,-314.81 593.67,-308.34"/>
</a>
</g>
</g>
<!-- Node13&#45;&gt;Node14 -->
<g id="edge35_Node000013_Node000014" class="edge">
<title>Node13&#45;&gt;Node14</title>
<g id="a_edge35_Node000013_Node000014"><a xlink:title=" ">
<path fill="none" stroke="#63b8ff" d="M711.03,-342.3C734.72,-332.55 772.61,-316.95 799.68,-305.81"/>
<polygon fill="#63b8ff" stroke="#63b8ff" points="800.87,-309.1 808.78,-302.06 798.2,-302.63 800.87,-309.1"/>
</a>
</g>
</g>
<!-- Node14&#45;&gt;Node8 -->
<g id="edge36_Node000014_Node000008" class="edge">
<title>Node14&#45;&gt;Node8</title>
<g id="a_edge36_Node000014_Node000008"><a xlink:title=" ">
<path fill="none" stroke="#63b8ff" d="M826.44,-281.41C815.45,-262.56 792,-217.53 792,-176.38 792,-176.38 792,-176.38 792,-119.12 792,-45.94 686.67,-21.79 629.66,-14.08"/>
<polygon fill="#63b8ff" stroke="#63b8ff" points="630.13,-10.61 619.78,-12.86 629.28,-17.56 630.13,-10.61"/>
</a>
</g>
</g>
<!-- Node15&#45;&gt;Node7 -->
<g id="edge44_Node000015_Node000007" class="edge">
<title>Node15&#45;&gt;Node7</title>
<g id="a_edge44_Node000015_Node000007"><a xlink:title=" ">
<path fill="none" stroke="#63b8ff" d="M768.31,-343.76C765.16,-343.41 762.04,-343.07 759,-342.75 575.32,-323.45 525.37,-346.47 345,-306.75 260.08,-288.05 240.65,-275.14 161,-240.25 104.58,-215.53 38,-237.97 38,-176.38 38,-176.38 38,-176.38 38,-119.12 38,-69.05 95.05,-38.32 135.25,-22.89"/>
<polygon fill="#63b8ff" stroke="#63b8ff" points="136.21,-26.27 144.4,-19.55 133.81,-19.69 136.21,-26.27"/>
</a>
</g>
</g>
<!-- Node15&#45;&gt;Node8 -->
<g id="edge46_Node000015_Node000008" class="edge">
<title>Node15&#45;&gt;Node8</title>
<g id="a_edge46_Node000015_Node000008"><a xlink:title=" ">
<path fill="none" stroke="#63b8ff" d="M853.14,-342.39C868.88,-335.23 888.39,-323.57 899,-306.75 930.14,-257.37 915,-234.75 915,-176.38 915,-176.38 915,-176.38 915,-119.12 915,-59.42 713.18,-26.18 629.6,-14.98"/>
<polygon fill="#63b8ff" stroke="#63b8ff" points="630.26,-11.53 619.89,-13.71 629.35,-18.47 630.26,-11.53"/>
</a>
</g>
</g>
<!-- Node15&#45;&gt;Node11 -->
<g id="edge45_Node000015_Node000011" class="edge">
<title>Node15&#45;&gt;Node11</title>
<g id="a_edge45_Node000015_Node000011"><a xlink:title=" ">
<path fill="none" stroke="#63b8ff" d="M809.07,-342.26C794.74,-334.7 776.07,-322.64 765,-306.75 741.45,-272.95 734.21,-223.95 731.99,-196.67"/>
<polygon fill="#63b8ff" stroke="#63b8ff" points="735.5,-196.74 731.36,-186.99 728.51,-197.2 735.5,-196.74"/>
</a>
</g>
</g>
<!-- Node15&#45;&gt;Node12 -->
<g id="edge43_Node000015_Node000012" class="edge">
<title>Node15&#45;&gt;Node12</title>
<g id="a_edge43_Node000015_Node000012"><a xlink:title=" ">
<path fill="none" stroke="#63b8ff" d="M785.4,-342.3C740.02,-332.86 668.29,-317.94 615.17,-306.89"/>
<polygon fill="#63b8ff" stroke="#63b8ff" points="616.12,-303.51 605.61,-304.9 614.69,-310.37 616.12,-303.51"/>
</a>
</g>
</g>
<!-- Node15&#45;&gt;Node14 -->
<g id="edge42_Node000015_Node000014" class="edge">
<title>Node15&#45;&gt;Node14</title>
<g id="a_edge42_Node000015_Node000014"><a xlink:title=" ">
<path fill="none" stroke="#63b8ff" d="M829.46,-342.43C829.86,-334.57 830.45,-322.82 830.97,-312.7"/>
<polygon fill="#63b8ff" stroke="#63b8ff" points="834.45,-313.2 831.46,-303.04 827.46,-312.85 834.45,-313.2"/>
</a>
</g>
</g>
<!-- Node17&#45;&gt;Node8 -->
<g id="edge52_Node000017_Node000008" class="edge">
<title>Node17&#45;&gt;Node8</title>
<g id="a_edge52_Node000017_Node000008"><a xlink:title=" ">
<path fill="none" stroke="#63b8ff" d="M1025.9,-281.47C1033.97,-271.84 1046.35,-255.86 1054,-240.25 1067.03,-213.65 1073,-205.99 1073,-176.38 1073,-176.38 1073,-176.38 1073,-119.12 1073,-28.22 740.68,-13.48 629.64,-11.09"/>
<polygon fill="#63b8ff" stroke="#63b8ff" points="629.99,-7.59 619.93,-10.9 629.86,-14.59 629.99,-7.59"/>
</a>
</g>
</g>
<!-- Node17&#45;&gt;Node11 -->
<g id="edge51_Node000017_Node000011" class="edge">
<title>Node17&#45;&gt;Node11</title>
<g id="a_edge51_Node000017_Node000011"><a xlink:title=" ">
<path fill="none" stroke="#63b8ff" d="M1004.42,-281.42C982.19,-266.9 936.24,-238.32 894,-221 852.23,-203.88 801.79,-191.22 768.19,-183.84"/>
<polygon fill="#63b8ff" stroke="#63b8ff" points="769.04,-180.44 758.53,-181.77 767.57,-187.29 769.04,-180.44"/>
</a>
</g>
</g>
<!-- Node18 -->
<g id="Node000018" class="node">
<title>Node18</title>
<g id="a_Node000018"><a xlink:href="woz__port_8h_source.html" target="_top" xlink:title=" ">
<polygon fill="white" stroke="#666666" points="1045,-240.25 981,-240.25 981,-221 1045,-221 1045,-240.25"/>
<text xml:space="preserve" text-anchor="middle" x="1013" y="-226.75" font-family="Helvetica,sans-Serif" font-size="10.00">woz_port.h</text>
</a>
</g>
</g>
<!-- Node17&#45;&gt;Node18 -->
<g id="edge53_Node000017_Node000018" class="edge">
<title>Node17&#45;&gt;Node18</title>
<g id="a_edge53_Node000017_Node000018"><a xlink:title=" ">
<path fill="none" stroke="#63b8ff" d="M1017.24,-281.56C1016.57,-273.69 1015.58,-261.95 1014.72,-251.82"/>
<polygon fill="#63b8ff" stroke="#63b8ff" points="1018.23,-251.83 1013.89,-242.16 1011.25,-252.42 1018.23,-251.83"/>
</a>
</g>
</g>
<!-- Node18&#45;&gt;Node8 -->
<g id="edge55_Node000018_Node000008" class="edge">
<title>Node18&#45;&gt;Node8</title>
<g id="a_edge55_Node000018_Node000008"><a xlink:title=" ">
<path fill="none" stroke="#63b8ff" d="M1011.73,-220.9C1006.99,-191.82 987.5,-97.65 929,-55.25 881.76,-21.01 705.77,-13.04 629.56,-11.19"/>
<polygon fill="#63b8ff" stroke="#63b8ff" points="629.8,-7.69 619.73,-10.97 629.65,-14.69 629.8,-7.69"/>
</a>
</g>
</g>
<!-- Node18&#45;&gt;Node11 -->
<g id="edge54_Node000018_Node000011" class="edge">
<title>Node18&#45;&gt;Node11</title>
<g id="a_edge54_Node000018_Node000011"><a xlink:title=" ">
<path fill="none" stroke="#63b8ff" d="M980.65,-223.52C927.84,-213.54 823.43,-193.83 767.85,-183.33"/>
<polygon fill="#63b8ff" stroke="#63b8ff" points="768.72,-179.94 758.25,-181.52 767.43,-186.82 768.72,-179.94"/>
</a>
</g>
</g>
<!-- Node21&#45;&gt;Node11 -->
<g id="edge59_Node000021_Node000011" class="edge">
<title>Node21&#45;&gt;Node11</title>
<g id="a_edge59_Node000021_Node000011"><a xlink:title=" ">
<path fill="none" stroke="#63b8ff" d="M833.97,-220.59C814.37,-212.18 784.89,-199.52 762.49,-189.9"/>
<polygon fill="#63b8ff" stroke="#63b8ff" points="764.1,-186.78 753.53,-186.05 761.34,-193.21 764.1,-186.78"/>
</a>
</g>
</g>
</g>
</svg>
