<?xml version="1.0" encoding="UTF-8" standalone="no"?>
<!DOCTYPE svg PUBLIC "-//W3C//DTD SVG 1.1//EN"
 "http://www.w3.org/Graphics/SVG/1.1/DTD/svg11.dtd">
<!-- Generated by graphviz version 15.0.0 (20260523.1842)
 -->
<!-- Title: modules/woz_uwb/src/aliro/aliro_uwb_msg_builder.c Pages: 1 -->
<!--zoomable 448 -->

<svg id="main" version="1.1" xmlns="http://www.w3.org/2000/svg" xmlns:xlink="http://www.w3.org/1999/xlink" xml:space="preserve" onload="init(evt)">

<style type="text/css"><![CDATA[
.node, .edge {opacity: 0.7;}
.node.selected, .edge.selected {opacity: 1;}
.edge:hover path { stroke: red; }
.edge:hover polygon { stroke: red; fill: red; }
]]></style>

<defs>
  <circle id="rim" cx="0" cy="0" r="7"/>
  <circle id="rim2" cx="0" cy="0" r="3.5"/>
  <g id="zoomPlus">
    <use xlink:href="#rim" fill="#404040"><set attributeName="fill" to="#808080" begin="zoomplus.mouseover" end="zoomplus.mouseout"/></use>
    <path d="M-4,0h8M0,-4v8" fill="none" stroke="white" stroke-width="1.5" pointer-events="none"/>
  </g>
  <g id="zoomMin">
    <use xlink:href="#rim" fill="#404040"><set attributeName="fill" to="#808080" begin="zoomminus.mouseover" end="zoomminus.mouseout"/></use>
    <path d="M-4,0h8" fill="none" stroke="white" stroke-width="1.5" pointer-events="none"/>
  </g>
  <g id="arrowUp" transform="translate(30 24)">
    <use xlink:href="#rim"/>
    <path pointer-events="none" fill="none" stroke="white" stroke-width="1.5" d="M0,-3.0v7 M-2.5,-0.5L0,-3.0L2.5,-0.5"/>
  </g>
  <g id="arrowRight" transform="rotate(90) translate(36 -43)">
    <use xlink:href="#rim"/>
    <path pointer-events="none" fill="none" stroke="white" stroke-width="1.5" d="M0,-3.0v7 M-2.5,-0.5L0,-3.0L2.5,-0.5"/>
  </g>
  <g id="arrowDown" transform="rotate(180) translate(-30 -48)">
    <use xlink:href="#rim"/>
    <path pointer-events="none" fill="none" stroke="white" stroke-width="1.5" d="M0,-3.0v7 M-2.5,-0.5L0,-3.0L2.5,-0.5"/>
  </g>
  <g id="arrowLeft" transform="rotate(270) translate(-36 17)">
    <use xlink:href="#rim"/>
    <path pointer-events="none" fill="none" stroke="white" stroke-width="1.5" d="M0,-3.0v7 M-2.5,-0.5L0,-3.0L2.5,-0.5"/>
  </g>
  <g id="resetDef">
    <use xlink:href="#rim2" fill="#404040"><set attributeName="fill" to="#808080" begin="reset.mouseover" end="reset.mouseout"/></use>
  </g>
</defs>
<script type="application/ecmascript">
var viewWidth = 696;
var viewHeight = 448;
var sectionId = 'dynsection-0';
</script>
<script type="application/ecmascript" xlink:href="svg.min.js"/>
<svg id="graph" class="graph">
<g id="viewport">
<title>modules/woz_uwb/src/aliro/aliro_uwb_msg_builder.c</title>
<!-- Node1 -->
<g id="Node000001" class="node">
<title>Node1</title>
<g id="a_Node000001"><a xlink:title="— big&#45;endian TLV message builder.">
<polygon fill="#999999" stroke="#666666" points="271.75,-439.75 158.25,-439.75 158.25,-398 271.75,-398 271.75,-439.75"/>
<text xml:space="preserve" text-anchor="start" x="166.25" y="-426.25" font-family="Helvetica,sans-Serif" font-size="10.00">modules/woz_uwb/src</text>
<text xml:space="preserve" text-anchor="start" x="166.25" y="-415" font-family="Helvetica,sans-Serif" font-size="10.00">/aliro/aliro_uwb_msg</text>
<text xml:space="preserve" text-anchor="middle" x="215" y="-403.75" font-family="Helvetica,sans-Serif" font-size="10.00">_builder.c</text>
</a>
</g>
</g>
<!-- Node2 -->
<g id="Node000002" class="node">
<title>Node2</title>
<g id="a_Node000002"><a xlink:href="aliro__uwb__msg__builder_8h.html" target="_top" xlink:title="— big&#45;endian TLV message builder.">
<polygon fill="white" stroke="#666666" points="276.25,-362 153.75,-362 153.75,-342.75 276.25,-342.75 276.25,-362"/>
<text xml:space="preserve" text-anchor="middle" x="215" y="-348.5" font-family="Helvetica,sans-Serif" font-size="10.00">aliro_uwb_msg_builder.h</text>
</a>
</g>
</g>
<!-- Node1&#45;&gt;Node2 -->
<g id="edge1_Node000001_Node000002" class="edge">
<title>Node1&#45;&gt;Node2</title>
<g id="a_edge1_Node000001_Node000002"><a xlink:title=" ">
<path fill="none" stroke="#63b8ff" d="M215,-397.82C215,-390.15 215,-381.39 215,-373.7"/>
<polygon fill="#63b8ff" stroke="#63b8ff" points="218.5,-373.96 215,-363.96 211.5,-373.96 218.5,-373.96"/>
</a>
</g>
</g>
<!-- Node12 -->
<g id="Node000012" class="node">
<title>Node12</title>
<g id="a_Node000012"><a xlink:href="woz__alloc_8h_source.html" target="_top" xlink:title=" ">
<polygon fill="white" stroke="#666666" points="111.88,-301.12 44.12,-301.12 44.12,-281.88 111.88,-281.88 111.88,-301.12"/>
<text xml:space="preserve" text-anchor="middle" x="78" y="-287.62" font-family="Helvetica,sans-Serif" font-size="10.00">woz_alloc.h</text>
</a>
</g>
</g>
<!-- Node1&#45;&gt;Node12 -->
<g id="edge28_Node000001_Node000012" class="edge">
<title>Node1&#45;&gt;Node12</title>
<g id="a_edge28_Node000001_Node000012"><a xlink:title=" ">
<path fill="none" stroke="#63b8ff" d="M188.07,-397.7C174.77,-387.41 158.68,-374.46 145,-362 126.5,-345.15 106.79,-324.32 93.57,-309.88"/>
<polygon fill="#63b8ff" stroke="#63b8ff" points="96.23,-307.6 86.92,-302.54 91.04,-312.3 96.23,-307.6"/>
</a>
</g>
</g>
<!-- Node14 -->
<g id="Node000014" class="node">
<title>Node14</title>
<g id="a_Node000014"><a xlink:title=" ">
<polygon fill="#e0e0e0" stroke="#999999" points="342.12,-362 293.88,-362 293.88,-342.75 342.12,-342.75 342.12,-362"/>
<text xml:space="preserve" text-anchor="middle" x="318" y="-348.5" font-family="Helvetica,sans-Serif" font-size="10.00">string.h</text>
</a>
</g>
</g>
<!-- Node1&#45;&gt;Node14 -->
<g id="edge34_Node000001_Node000014" class="edge">
<title>Node1&#45;&gt;Node14</title>
<g id="a_edge34_Node000001_Node000014"><a xlink:title=" ">
<path fill="none" stroke="#63b8ff" d="M247.31,-397.64C262.5,-388.13 280.29,-376.99 294.22,-368.26"/>
<polygon fill="#63b8ff" stroke="#63b8ff" points="295.7,-371.47 302.31,-363.2 291.98,-365.54 295.7,-371.47"/>
</a>
</g>
</g>
<!-- Node3 -->
<g id="Node000003" class="node">
<title>Node3</title>
<g id="a_Node000003"><a xlink:href="aliro__uwb__msg__spec_8h.html" target="_top" xlink:title="— UWB ranging&#45;service framing constants.">
<polygon fill="white" stroke="#666666" points="204.88,-129.75 89.12,-129.75 89.12,-110.5 204.88,-110.5 204.88,-129.75"/>
<text xml:space="preserve" text-anchor="middle" x="147" y="-116.25" font-family="Helvetica,sans-Serif" font-size="10.00">aliro_uwb_msg_spec.h</text>
</a>
</g>
</g>
<!-- Node2&#45;&gt;Node3 -->
<g id="edge2_Node000002_Node000003" class="edge">
<title>Node2&#45;&gt;Node3</title>
<g id="a_edge2_Node000002_Node000003"><a xlink:title=" ">
<path fill="none" stroke="#63b8ff" d="M209.69,-342.41C195.66,-318.13 157.78,-248.6 145,-185 142.08,-170.48 142.75,-153.73 144.06,-141.03"/>
<polygon fill="#63b8ff" stroke="#63b8ff" points="147.49,-141.77 145.28,-131.41 140.55,-140.89 147.49,-141.77"/>
</a>
</g>
</g>
<!-- Node4 -->
<g id="Node000004" class="node">
<title>Node4</title>
<g id="a_Node000004"><a xlink:title=" ">
<polygon fill="#e0e0e0" stroke="#999999" points="296.12,-19.25 247.88,-19.25 247.88,0 296.12,0 296.12,-19.25"/>
<text xml:space="preserve" text-anchor="middle" x="272" y="-5.75" font-family="Helvetica,sans-Serif" font-size="10.00">stdint.h</text>
</a>
</g>
</g>
<!-- Node2&#45;&gt;Node4 -->
<g id="edge27_Node000002_Node000004" class="edge">
<title>Node2&#45;&gt;Node4</title>
<g id="a_edge27_Node000002_Node000004"><a xlink:title=" ">
<path fill="none" stroke="#63b8ff" d="M217.41,-342.44C222.52,-322.64 234,-273.51 234,-231.62 234,-231.62 234,-231.62 234,-119.12 234,-86.13 249.84,-50.51 261.07,-29.41"/>
<polygon fill="#63b8ff" stroke="#63b8ff" points="264.02,-31.3 265.82,-20.86 257.9,-27.9 264.02,-31.3"/>
</a>
</g>
</g>
<!-- Node5 -->
<g id="Node000005" class="node">
<title>Node5</title>
<g id="a_Node000005"><a xlink:href="aliro__uwb__session_8h.html" target="_top" xlink:title="— per&#45;session public interface.">
<polygon fill="white" stroke="#666666" points="412.88,-306.75 297.12,-306.75 297.12,-276.25 412.88,-276.25 412.88,-306.75"/>
<text xml:space="preserve" text-anchor="start" x="305.12" y="-293.25" font-family="Helvetica,sans-Serif" font-size="10.00">aliro_uwb_adapter/aliro</text>
<text xml:space="preserve" text-anchor="middle" x="355" y="-282" font-family="Helvetica,sans-Serif" font-size="10.00">_uwb_session.h</text>
</a>
</g>
</g>
<!-- Node2&#45;&gt;Node5 -->
<g id="edge4_Node000002_Node000005" class="edge">
<title>Node2&#45;&gt;Node5</title>
<g id="a_edge4_Node000002_Node000005"><a xlink:title=" ">
<path fill="none" stroke="#63b8ff" d="M236.57,-342.3C255.94,-334.16 285.03,-321.92 309.53,-311.62"/>
<polygon fill="#63b8ff" stroke="#63b8ff" points="310.8,-314.88 318.66,-307.78 308.09,-308.43 310.8,-314.88"/>
</a>
</g>
</g>
<!-- Node8 -->
<g id="Node000008" class="node">
<title>Node8</title>
<g id="a_Node000008"><a xlink:title=" ">
<polygon fill="#e0e0e0" stroke="#999999" points="620.88,-19.25 565.12,-19.25 565.12,0 620.88,0 620.88,-19.25"/>
<text xml:space="preserve" text-anchor="middle" x="593" y="-5.75" font-family="Helvetica,sans-Serif" font-size="10.00">stdbool.h</text>
</a>
</g>
</g>
<!-- Node2&#45;&gt;Node8 -->
<g id="edge25_Node000002_Node000008" class="edge">
<title>Node2&#45;&gt;Node8</title>
<g id="a_edge25_Node000002_Node000008"><a xlink:title=" ">
<path fill="none" stroke="#63b8ff" d="M276.35,-342.25C404.33,-322.38 688,-273.61 688,-231.62 688,-231.62 688,-231.62 688,-119.12 688,-77.2 647.36,-43.71 619.24,-25.54"/>
<polygon fill="#63b8ff" stroke="#63b8ff" points="621.18,-22.63 610.84,-20.36 617.51,-28.59 621.18,-22.63"/>
</a>
</g>
</g>
<!-- Node11 -->
<g id="Node000011" class="node">
<title>Node11</title>
<g id="a_Node000011"><a xlink:title=" ">
<polygon fill="#e0e0e0" stroke="#999999" points="205.62,-185 154.38,-185 154.38,-165.75 205.62,-165.75 205.62,-185"/>
<text xml:space="preserve" text-anchor="middle" x="180" y="-171.5" font-family="Helvetica,sans-Serif" font-size="10.00">stddef.h</text>
</a>
</g>
</g>
<!-- Node2&#45;&gt;Node11 -->
<g id="edge26_Node000002_Node000011" class="edge">
<title>Node2&#45;&gt;Node11</title>
<g id="a_edge26_Node000002_Node000011"><a xlink:title=" ">
<path fill="none" stroke="#63b8ff" d="M213.22,-342.46C207.83,-315.55 191.66,-234.69 184.05,-196.62"/>
<polygon fill="#63b8ff" stroke="#63b8ff" points="187.51,-196.09 182.12,-186.97 180.65,-197.46 187.51,-196.09"/>
</a>
</g>
</g>
<!-- Node3&#45;&gt;Node4 -->
<g id="edge3_Node000003_Node000004" class="edge">
<title>Node3&#45;&gt;Node4</title>
<g id="a_edge3_Node000003_Node000004"><a xlink:title=" ">
<path fill="none" stroke="#63b8ff" d="M156.89,-110.42C170.9,-98.09 197.35,-74.88 220,-55.25 230.9,-45.8 243.14,-35.3 253.01,-26.85"/>
<polygon fill="#63b8ff" stroke="#63b8ff" points="255.14,-29.63 260.47,-20.47 250.59,-24.31 255.14,-29.63"/>
</a>
</g>
</g>
<!-- Node5&#45;&gt;Node4 -->
<g id="edge24_Node000005_Node000004" class="edge">
<title>Node5&#45;&gt;Node4</title>
<g id="a_edge24_Node000005_Node000004"><a xlink:title=" ">
<path fill="none" stroke="#63b8ff" d="M346.32,-275.97C340.75,-266.15 333.71,-252.75 329,-240.25 300.77,-165.33 282.48,-71.39 275.37,-30.82"/>
<polygon fill="#63b8ff" stroke="#63b8ff" points="278.84,-30.37 273.7,-21.1 271.94,-31.55 278.84,-30.37"/>
</a>
</g>
</g>
<!-- Node6 -->
<g id="Node000006" class="node">
<title>Node6</title>
<g id="a_Node000006"><a xlink:href="cherry_8h.html" target="_top" xlink:title="— Cherry core (context + device&#45;capabilities) interface.">
<polygon fill="white" stroke="#666666" points="583.88,-129.75 504.12,-129.75 504.12,-110.5 583.88,-110.5 583.88,-129.75"/>
<text xml:space="preserve" text-anchor="middle" x="544" y="-116.25" font-family="Helvetica,sans-Serif" font-size="10.00">cherry/cherry.h</text>
</a>
</g>
</g>
<!-- Node5&#45;&gt;Node6 -->
<g id="edge5_Node000005_Node000006" class="edge">
<title>Node5&#45;&gt;Node6</title>
<g id="a_edge5_Node000005_Node000006"><a xlink:title=" ">
<path fill="none" stroke="#63b8ff" d="M397.81,-275.79C437.67,-259.8 495.51,-230.31 527,-185 535.93,-172.15 540.17,-154.85 542.18,-141.5"/>
<polygon fill="#63b8ff" stroke="#63b8ff" points="545.65,-142.03 543.34,-131.69 538.69,-141.21 545.65,-142.03"/>
</a>
</g>
</g>
<!-- Node5&#45;&gt;Node8 -->
<g id="edge22_Node000005_Node000008" class="edge">
<title>Node5&#45;&gt;Node8</title>
<g id="a_edge22_Node000005_Node000008"><a xlink:title=" ">
<path fill="none" stroke="#63b8ff" d="M413.28,-280.21C499.25,-263.35 650,-226.62 650,-176.38 650,-176.38 650,-176.38 650,-119.12 650,-83.67 625.86,-48.41 608.99,-28.1"/>
<polygon fill="#63b8ff" stroke="#63b8ff" points="611.84,-26.05 602.65,-20.79 606.56,-30.63 611.84,-26.05"/>
</a>
</g>
</g>
<!-- Node9 -->
<g id="Node000009" class="node">
<title>Node9</title>
<g id="a_Node000009"><a xlink:href="cherry__ccc_8h.html" target="_top" xlink:title="— CCC/Aliro&#45;session interface (seam the adapter drives).">
<polygon fill="white" stroke="#666666" points="440.12,-240.25 337.88,-240.25 337.88,-221 440.12,-221 440.12,-240.25"/>
<text xml:space="preserve" text-anchor="middle" x="389" y="-226.75" font-family="Helvetica,sans-Serif" font-size="10.00">cherry/cherry_ccc.h</text>
</a>
</g>
</g>
<!-- Node5&#45;&gt;Node9 -->
<g id="edge11_Node000005_Node000009" class="edge">
<title>Node5&#45;&gt;Node9</title>
<g id="a_edge11_Node000005_Node000009"><a xlink:title=" ">
<path fill="none" stroke="#63b8ff" d="M363.4,-275.95C367.83,-268.28 373.32,-258.77 378.08,-250.54"/>
<polygon fill="#63b8ff" stroke="#63b8ff" points="381.03,-252.42 383,-242.01 374.97,-248.92 381.03,-252.42"/>
</a>
</g>
</g>
<!-- Node5&#45;&gt;Node11 -->
<g id="edge23_Node000005_Node000011" class="edge">
<title>Node5&#45;&gt;Node11</title>
<g id="a_edge23_Node000005_Node000011"><a xlink:title=" ">
<path fill="none" stroke="#63b8ff" d="M332.48,-275.81C299.18,-254.1 237.13,-213.63 203.36,-191.61"/>
<polygon fill="#63b8ff" stroke="#63b8ff" points="205.4,-188.76 195.12,-186.23 201.58,-194.63 205.4,-188.76"/>
</a>
</g>
</g>
<!-- Node6&#45;&gt;Node4 -->
<g id="edge10_Node000006_Node000004" class="edge">
<title>Node6&#45;&gt;Node4</title>
<g id="a_edge10_Node000006_Node000004"><a xlink:title=" ">
<path fill="none" stroke="#63b8ff" d="M537.55,-110.09C526.99,-96.02 504.62,-69.07 479,-55.25 423.98,-25.59 350.74,-15.64 307.75,-12.31"/>
<polygon fill="#63b8ff" stroke="#63b8ff" points="308.19,-8.83 297.98,-11.63 307.71,-15.81 308.19,-8.83"/>
</a>
</g>
</g>
<!-- Node7 -->
<g id="Node000007" class="node">
<title>Node7</title>
<g id="a_Node000007"><a xlink:href="cherry__common_8h.html" target="_top" xlink:title="— diagnostics config struct and report forward decl.">
<polygon fill="white" stroke="#666666" points="470,-74.5 376,-74.5 376,-55.25 470,-55.25 470,-74.5"/>
<text xml:space="preserve" text-anchor="middle" x="423" y="-61" font-family="Helvetica,sans-Serif" font-size="10.00">cherry_common.h</text>
</a>
</g>
</g>
<!-- Node6&#45;&gt;Node7 -->
<g id="edge6_Node000006_Node000007" class="edge">
<title>Node6&#45;&gt;Node7</title>
<g id="a_edge6_Node000006_Node000007"><a xlink:title=" ">
<path fill="none" stroke="#63b8ff" d="M523.47,-110.09C504.44,-101.72 475.85,-89.13 454.03,-79.53"/>
<polygon fill="#63b8ff" stroke="#63b8ff" points="455.57,-76.39 445.01,-75.56 452.76,-82.79 455.57,-76.39"/>
</a>
</g>
</g>
<!-- Node6&#45;&gt;Node8 -->
<g id="edge9_Node000006_Node000008" class="edge">
<title>Node6&#45;&gt;Node8</title>
<g id="a_edge9_Node000006_Node000008"><a xlink:title=" ">
<path fill="none" stroke="#63b8ff" d="M548.01,-110.25C555.91,-92.76 573.63,-53.52 584.32,-29.84"/>
<polygon fill="#63b8ff" stroke="#63b8ff" points="587.39,-31.56 588.31,-21.01 581.01,-28.68 587.39,-31.56"/>
</a>
</g>
</g>
<!-- Node7&#45;&gt;Node4 -->
<g id="edge8_Node000007_Node000004" class="edge">
<title>Node7&#45;&gt;Node4</title>
<g id="a_edge8_Node000007_Node000004"><a xlink:title=" ">
<path fill="none" stroke="#63b8ff" d="M397.38,-54.84C372.61,-46.11 334.87,-32.79 307.26,-23.06"/>
<polygon fill="#63b8ff" stroke="#63b8ff" points="308.51,-19.79 297.92,-19.76 306.18,-26.39 308.51,-19.79"/>
</a>
</g>
</g>
<!-- Node7&#45;&gt;Node8 -->
<g id="edge7_Node000007_Node000008" class="edge">
<title>Node7&#45;&gt;Node8</title>
<g id="a_edge7_Node000007_Node000008"><a xlink:title=" ">
<path fill="none" stroke="#63b8ff" d="M451.84,-54.84C479.93,-46.04 522.84,-32.6 553.98,-22.85"/>
<polygon fill="#63b8ff" stroke="#63b8ff" points="554.93,-26.22 563.43,-19.89 552.84,-19.54 554.93,-26.22"/>
</a>
</g>
</g>
<!-- Node9&#45;&gt;Node4 -->
<g id="edge21_Node000009_Node000004" class="edge">
<title>Node9&#45;&gt;Node4</title>
<g id="a_edge21_Node000009_Node000004"><a xlink:title=" ">
<path fill="none" stroke="#63b8ff" d="M383.23,-220.5C377.64,-211.56 368.99,-197.48 362,-185 330.88,-129.4 297.19,-61.97 281.3,-29.67"/>
<polygon fill="#63b8ff" stroke="#63b8ff" points="284.5,-28.24 276.95,-20.8 278.21,-31.32 284.5,-28.24"/>
</a>
</g>
</g>
<!-- Node9&#45;&gt;Node6 -->
<g id="edge12_Node000009_Node000006" class="edge">
<title>Node9&#45;&gt;Node6</title>
<g id="a_edge12_Node000009_Node000006"><a xlink:title=" ">
<path fill="none" stroke="#63b8ff" d="M431.09,-220.58C454.79,-213.84 483.79,-202.69 505,-185 519.35,-173.04 529.88,-154.37 536.36,-140.3"/>
<polygon fill="#63b8ff" stroke="#63b8ff" points="539.53,-141.77 540.24,-131.2 533.1,-139.02 539.53,-141.77"/>
</a>
</g>
</g>
<!-- Node9&#45;&gt;Node7 -->
<g id="edge13_Node000009_Node000007" class="edge">
<title>Node9&#45;&gt;Node7</title>
<g id="a_edge13_Node000009_Node000007"><a xlink:title=" ">
<path fill="none" stroke="#63b8ff" d="M382.37,-220.66C374.14,-208.42 361.78,-185.72 367,-165.75 375.13,-134.61 395.38,-102.91 409.16,-83.82"/>
<polygon fill="#63b8ff" stroke="#63b8ff" points="411.79,-86.14 414.95,-76.03 406.18,-81.96 411.79,-86.14"/>
</a>
</g>
</g>
<!-- Node9&#45;&gt;Node8 -->
<g id="edge19_Node000009_Node000008" class="edge">
<title>Node9&#45;&gt;Node8</title>
<g id="a_edge19_Node000009_Node000008"><a xlink:title=" ">
<path fill="none" stroke="#63b8ff" d="M440.38,-222.53C491.46,-212.25 565.97,-187.63 593,-129.75 607.98,-97.68 602.93,-55.24 597.93,-30.63"/>
<polygon fill="#63b8ff" stroke="#63b8ff" points="601.38,-30.01 595.77,-21.02 594.55,-31.54 601.38,-30.01"/>
</a>
</g>
</g>
<!-- Node10 -->
<g id="Node000010" class="node">
<title>Node10</title>
<g id="a_Node000010"><a xlink:href="cherry__session_8h.html" target="_top" xlink:title="— generic base&#45;session interface.">
<polygon fill="white" stroke="#666666" points="496.12,-185 375.88,-185 375.88,-165.75 496.12,-165.75 496.12,-185"/>
<text xml:space="preserve" text-anchor="middle" x="436" y="-171.5" font-family="Helvetica,sans-Serif" font-size="10.00">cherry/cherry_session.h</text>
</a>
</g>
</g>
<!-- Node9&#45;&gt;Node10 -->
<g id="edge14_Node000009_Node000010" class="edge">
<title>Node9&#45;&gt;Node10</title>
<g id="a_edge14_Node000009_Node000010"><a xlink:title=" ">
<path fill="none" stroke="#63b8ff" d="M396.76,-220.83C403.19,-213.55 412.51,-202.98 420.46,-193.98"/>
<polygon fill="#63b8ff" stroke="#63b8ff" points="423.08,-196.31 427.07,-186.49 417.83,-191.68 423.08,-196.31"/>
</a>
</g>
</g>
<!-- Node9&#45;&gt;Node11 -->
<g id="edge20_Node000009_Node000011" class="edge">
<title>Node9&#45;&gt;Node11</title>
<g id="a_edge20_Node000009_Node000011"><a xlink:title=" ">
<path fill="none" stroke="#63b8ff" d="M353.55,-220.59C315.49,-210.9 255.33,-195.57 216.77,-185.74"/>
<polygon fill="#63b8ff" stroke="#63b8ff" points="218.05,-182.46 207.5,-183.38 216.32,-189.24 218.05,-182.46"/>
</a>
</g>
</g>
<!-- Node10&#45;&gt;Node4 -->
<g id="edge18_Node000010_Node000004" class="edge">
<title>Node10&#45;&gt;Node4</title>
<g id="a_edge18_Node000010_Node000004"><a xlink:title=" ">
<path fill="none" stroke="#63b8ff" d="M428.16,-165.4C410.32,-145.12 365.05,-94.47 324,-55.25 313.7,-45.41 301.66,-35.01 291.76,-26.73"/>
<polygon fill="#63b8ff" stroke="#63b8ff" points="294.16,-24.17 284.22,-20.49 289.69,-29.56 294.16,-24.17"/>
</a>
</g>
</g>
<!-- Node10&#45;&gt;Node6 -->
<g id="edge15_Node000010_Node000006" class="edge">
<title>Node10&#45;&gt;Node6</title>
<g id="a_edge15_Node000010_Node000006"><a xlink:title=" ">
<path fill="none" stroke="#63b8ff" d="M454.32,-165.34C471.08,-157.08 496.13,-144.73 515.5,-135.18"/>
<polygon fill="#63b8ff" stroke="#63b8ff" points="516.81,-138.43 524.23,-130.87 513.72,-132.15 516.81,-138.43"/>
</a>
</g>
</g>
<!-- Node10&#45;&gt;Node7 -->
<g id="edge16_Node000010_Node000007" class="edge">
<title>Node10&#45;&gt;Node7</title>
<g id="a_edge16_Node000010_Node000007"><a xlink:title=" ">
<path fill="none" stroke="#63b8ff" d="M434.94,-165.5C432.87,-148.25 428.27,-109.83 425.42,-86.06"/>
<polygon fill="#63b8ff" stroke="#63b8ff" points="428.92,-85.89 424.26,-76.38 421.97,-86.72 428.92,-85.89"/>
</a>
</g>
</g>
<!-- Node10&#45;&gt;Node8 -->
<g id="edge17_Node000010_Node000008" class="edge">
<title>Node10&#45;&gt;Node8</title>
<g id="a_edge17_Node000010_Node000008"><a xlink:title=" ">
<path fill="none" stroke="#63b8ff" d="M443.93,-165.62C455.19,-153.24 476.47,-129.96 495,-110.5 523.03,-81.05 556.3,-47.42 575.97,-27.66"/>
<polygon fill="#63b8ff" stroke="#63b8ff" points="578.34,-30.25 582.92,-20.7 573.38,-25.31 578.34,-30.25"/>
</a>
</g>
</g>
<!-- Node12&#45;&gt;Node4 -->
<g id="edge30_Node000012_Node000004" class="edge">
<title>Node12&#45;&gt;Node4</title>
<g id="a_edge30_Node000012_Node000004"><a xlink:title=" ">
<path fill="none" stroke="#63b8ff" d="M63.27,-281.54C49.86,-272.65 30.45,-257.84 19,-240.25 2.84,-215.43 0,-205.99 0,-176.38 0,-176.38 0,-176.38 0,-119.12 0,-68.82 162.57,-31.45 236.34,-17.08"/>
<polygon fill="#63b8ff" stroke="#63b8ff" points="236.73,-20.57 245.9,-15.25 235.42,-13.69 236.73,-20.57"/>
</a>
</g>
</g>
<!-- Node12&#45;&gt;Node11 -->
<g id="edge29_Node000012_Node000011" class="edge">
<title>Node12&#45;&gt;Node11</title>
<g id="a_edge29_Node000012_Node000011"><a xlink:title=" ">
<path fill="none" stroke="#63b8ff" d="M86,-281.54C102.91,-262.63 142.51,-218.32 164.54,-193.68"/>
<polygon fill="#63b8ff" stroke="#63b8ff" points="166.97,-196.21 171.02,-186.42 161.75,-191.54 166.97,-196.21"/>
</a>
</g>
</g>
<!-- Node13 -->
<g id="Node000013" class="node">
<title>Node13</title>
<g id="a_Node000013"><a xlink:href="woz__port_8h_source.html" target="_top" xlink:title=" ">
<polygon fill="white" stroke="#666666" points="92,-240.25 28,-240.25 28,-221 92,-221 92,-240.25"/>
<text xml:space="preserve" text-anchor="middle" x="60" y="-226.75" font-family="Helvetica,sans-Serif" font-size="10.00">woz_port.h</text>
</a>
</g>
</g>
<!-- Node12&#45;&gt;Node13 -->
<g id="edge31_Node000012_Node000013" class="edge">
<title>Node12&#45;&gt;Node13</title>
<g id="a_edge31_Node000012_Node000013"><a xlink:title=" ">
<path fill="none" stroke="#63b8ff" d="M75.27,-281.56C72.83,-273.6 69.19,-261.69 66.07,-251.49"/>
<polygon fill="#63b8ff" stroke="#63b8ff" points="69.47,-250.64 63.2,-242.1 62.78,-252.68 69.47,-250.64"/>
</a>
</g>
</g>
<!-- Node13&#45;&gt;Node4 -->
<g id="edge33_Node000013_Node000004" class="edge">
<title>Node13&#45;&gt;Node4</title>
<g id="a_edge33_Node000013_Node000004"><a xlink:title=" ">
<path fill="none" stroke="#63b8ff" d="M58.97,-220.53C57.04,-199.12 55.09,-144.76 80,-110.5 118.24,-57.92 192.5,-30.79 236.62,-18.73"/>
<polygon fill="#63b8ff" stroke="#63b8ff" points="237.42,-22.14 246.22,-16.23 235.66,-15.36 237.42,-22.14"/>
</a>
</g>
</g>
<!-- Node13&#45;&gt;Node11 -->
<g id="edge32_Node000013_Node000011" class="edge">
<title>Node13&#45;&gt;Node11</title>
<g id="a_edge32_Node000013_Node000011"><a xlink:title=" ">
<path fill="none" stroke="#63b8ff" d="M80.36,-220.59C99.23,-212.22 127.59,-199.63 149.23,-190.03"/>
<polygon fill="#63b8ff" stroke="#63b8ff" points="150.44,-193.32 158.16,-186.07 147.6,-186.92 150.44,-193.32"/>
</a>
</g>
</g>
</g>
</svg>

<g id="navigator" transform="translate(0 0)" fill="#404254">
  <rect fill="#f2f5e9" fill-opacity="0.5" stroke="#606060" stroke-width=".5" x="0" y="0" width="60" height="60"/>
  <use id="zoomplus" xlink:href="#zoomPlus" x="17" y="9" onmousedown="handleZoom(evt,'in')"/>
  <use id="zoomminus" xlink:href="#zoomMin" x="42" y="9" onmousedown="handleZoom(evt,'out')"/>
  <use id="reset" xlink:href="#resetDef" x="30" y="36" onmousedown="handleReset()"/>
   <use id="arrowup" xlink:href="#arrowUp" x="0" y="0" onmousedown="handlePan(0,-1)"/>
  <use id="arrowright" xlink:href="#arrowRight" x="0" y="0" onmousedown="handlePan(1,0)"/>
  <use id="arrowdown" xlink:href="#arrowDown" x="0" y="0" onmousedown="handlePan(0,1)"/>
  <use id="arrowleft" xlink:href="#arrowLeft" x="0" y="0" onmousedown="handlePan(-1,0)"/>
</g>
<svg viewBox="0 0 15 15" width="100%" height="30px" preserveAspectRatio="xMaxYMin meet">
 <g id="arrow_out" transform="scale(0.3 0.3)">
  <a xlink:href="aliro__uwb__msg__builder_8c__incl_org.svg" target="_base">
   <rect id="button" ry="5" rx="5" y="6" x="6" height="38" width="38"
        fill="#f2f5e9" fill-opacity="0.5" stroke="#606060" stroke-width="1.0"/>
   <path id="arrow"
     d="M 11.500037,31.436501 C 11.940474,20.09759 22.043105,11.32322 32.158766,21.979434 L 37.068811,17.246167 C 37.068811,17.246167 37.088388,32 37.088388,32 L 22.160133,31.978069 C 22.160133,31.978069 26.997745,27.140456 26.997745,27.140456 C 18.528582,18.264221 13.291696,25.230495 11.500037,31.436501 z"
     style="fill:#404040;"/>
  </a>
 </g>
</svg>

<style type='text/css'>
<![CDATA[
[data-mouse-over-selected='false'] { opacity: 0.7; }
[data-mouse-over-selected='true']  { opacity: 1.0; }
]]>
</style>
<script type="application/ecmascript"><![CDATA[
document.addEventListener('DOMContentLoaded', (event) => {
  highlightEdges();
  highlightAdjacentNodes();
});
]]></script>
</svg>
