<?xml version="1.0" encoding="UTF-8" standalone="no"?>
<!DOCTYPE svg PUBLIC "-//W3C//DTD SVG 1.1//EN"
 "http://www.w3.org/Graphics/SVG/1.1/DTD/svg11.dtd">
<!-- Generated by graphviz version 15.0.0 (20260523.1842)
 -->
<!-- Title: modules/woz_uwb/src/aliro/include/aliro_uwb_adapter/aliro_uwb_adapter.h Pages: 1 -->
<svg width="439pt" height="337pt"
 viewBox="0.00 0.00 439.00 337.00" xmlns="http://www.w3.org/2000/svg" xmlns:xlink="http://www.w3.org/1999/xlink">
<g id="graph0" class="graph" transform="scale(1 1) rotate(0) translate(4 333.25)">
<title>modules/woz_uwb/src/aliro/include/aliro_uwb_adapter/aliro_uwb_adapter.h</title>
<!-- Node1 -->
<g id="Node000001" class="node">
<title>Node1</title>
<g id="a_Node000001"><a xlink:title="— reader&#45;device public interface.">
<polygon fill="#999999" stroke="#666666" points="199.5,-329.25 78.5,-329.25 78.5,-276.25 199.5,-276.25 199.5,-329.25"/>
<text xml:space="preserve" text-anchor="start" x="86.5" y="-315.75" font-family="Helvetica,sans-Serif" font-size="10.00">modules/woz_uwb/src</text>
<text xml:space="preserve" text-anchor="start" x="86.5" y="-304.5" font-family="Helvetica,sans-Serif" font-size="10.00">/aliro/include/aliro</text>
<text xml:space="preserve" text-anchor="start" x="86.5" y="-293.25" font-family="Helvetica,sans-Serif" font-size="10.00">_uwb_adapter/aliro_uwb</text>
<text xml:space="preserve" text-anchor="middle" x="139" y="-282" font-family="Helvetica,sans-Serif" font-size="10.00">_adapter.h</text>
</a>
</g>
</g>
<!-- Node2 -->
<g id="Node000002" class="node">
<title>Node2</title>
<g id="a_Node000002"><a xlink:href="cherry_8h.html" target="_top" xlink:title="— Cherry core (context + device&#45;capabilities) interface.">
<polygon fill="white" stroke="#666666" points="145.88,-129.75 66.12,-129.75 66.12,-110.5 145.88,-110.5 145.88,-129.75"/>
<text xml:space="preserve" text-anchor="middle" x="106" y="-116.25" font-family="Helvetica,sans-Serif" font-size="10.00">cherry/cherry.h</text>
</a>
</g>
</g>
<!-- Node1&#45;&gt;Node2 -->
<g id="edge1_Node000001_Node000002" class="edge">
<title>Node1&#45;&gt;Node2</title>
<g id="a_edge1_Node000001_Node000002"><a xlink:title=" ">
<path fill="none" stroke="#63b8ff" d="M133.99,-275.8C129.45,-252.16 122.64,-216.26 117,-185 114.36,-170.38 111.52,-153.86 109.39,-141.28"/>
<polygon fill="#63b8ff" stroke="#63b8ff" points="112.89,-141 107.77,-131.72 105.99,-142.17 112.89,-141"/>
</a>
</g>
</g>
<!-- Node5 -->
<g id="Node000005" class="node">
<title>Node5</title>
<g id="a_Node000005"><a xlink:title=" ">
<polygon fill="#e0e0e0" stroke="#999999" points="111.12,-19.25 62.88,-19.25 62.88,0 111.12,0 111.12,-19.25"/>
<text xml:space="preserve" text-anchor="middle" x="87" y="-5.75" font-family="Helvetica,sans-Serif" font-size="10.00">stdint.h</text>
</a>
</g>
</g>
<!-- Node1&#45;&gt;Node5 -->
<g id="edge19_Node000001_Node000005" class="edge">
<title>Node1&#45;&gt;Node5</title>
<g id="a_edge19_Node000001_Node000005"><a xlink:title=" ">
<path fill="none" stroke="#63b8ff" d="M79.24,-275.88C41.57,-255.1 0,-221.87 0,-176.38 0,-176.38 0,-176.38 0,-119.12 0,-78.66 37.29,-44.68 63.04,-26.03"/>
<polygon fill="#63b8ff" stroke="#63b8ff" points="64.77,-29.09 71,-20.52 60.78,-23.33 64.77,-29.09"/>
</a>
</g>
</g>
<!-- Node6 -->
<g id="Node000006" class="node">
<title>Node6</title>
<g id="a_Node000006"><a xlink:href="cherry__ccc_8h.html" target="_top" xlink:title="— CCC/Aliro&#45;session interface (seam the adapter drives).">
<polygon fill="white" stroke="#666666" points="253.12,-240.25 150.88,-240.25 150.88,-221 253.12,-221 253.12,-240.25"/>
<text xml:space="preserve" text-anchor="middle" x="202" y="-226.75" font-family="Helvetica,sans-Serif" font-size="10.00">cherry/cherry_ccc.h</text>
</a>
</g>
</g>
<!-- Node1&#45;&gt;Node6 -->
<g id="edge7_Node000001_Node000006" class="edge">
<title>Node1&#45;&gt;Node6</title>
<g id="a_edge7_Node000001_Node000006"><a xlink:title=" ">
<path fill="none" stroke="#63b8ff" d="M162.1,-276.04C170.16,-267.06 179.02,-257.21 186.33,-249.06"/>
<polygon fill="#63b8ff" stroke="#63b8ff" points="188.72,-251.64 192.8,-241.86 183.52,-246.96 188.72,-251.64"/>
</a>
</g>
</g>
<!-- Node8 -->
<g id="Node000008" class="node">
<title>Node8</title>
<g id="a_Node000008"><a xlink:title=" ">
<polygon fill="#e0e0e0" stroke="#999999" points="430.62,-185 379.38,-185 379.38,-165.75 430.62,-165.75 430.62,-185"/>
<text xml:space="preserve" text-anchor="middle" x="405" y="-171.5" font-family="Helvetica,sans-Serif" font-size="10.00">stddef.h</text>
</a>
</g>
</g>
<!-- Node1&#45;&gt;Node8 -->
<g id="edge18_Node000001_Node000008" class="edge">
<title>Node1&#45;&gt;Node8</title>
<g id="a_edge18_Node000001_Node000008"><a xlink:title=" ">
<path fill="none" stroke="#63b8ff" d="M194.12,-275.77C249.25,-249.79 331.95,-210.81 375.6,-190.23"/>
<polygon fill="#63b8ff" stroke="#63b8ff" points="376.89,-193.49 384.44,-186.06 373.9,-187.16 376.89,-193.49"/>
</a>
</g>
</g>
<!-- Node3 -->
<g id="Node000003" class="node">
<title>Node3</title>
<g id="a_Node000003"><a xlink:href="cherry__common_8h.html" target="_top" xlink:title="— diagnostics config struct and report forward decl.">
<polygon fill="white" stroke="#666666" points="285,-74.5 191,-74.5 191,-55.25 285,-55.25 285,-74.5"/>
<text xml:space="preserve" text-anchor="middle" x="238" y="-61" font-family="Helvetica,sans-Serif" font-size="10.00">cherry_common.h</text>
</a>
</g>
</g>
<!-- Node2&#45;&gt;Node3 -->
<g id="edge2_Node000002_Node000003" class="edge">
<title>Node2&#45;&gt;Node3</title>
<g id="a_edge2_Node000002_Node000003"><a xlink:title=" ">
<path fill="none" stroke="#63b8ff" d="M128.39,-110.09C149.44,-101.6 181.2,-88.79 205.12,-79.14"/>
<polygon fill="#63b8ff" stroke="#63b8ff" points="206.13,-82.51 214.09,-75.52 203.51,-76.01 206.13,-82.51"/>
</a>
</g>
</g>
<!-- Node4 -->
<g id="Node000004" class="node">
<title>Node4</title>
<g id="a_Node000004"><a xlink:title=" ">
<polygon fill="#e0e0e0" stroke="#999999" points="302.88,-19.25 247.12,-19.25 247.12,0 302.88,0 302.88,-19.25"/>
<text xml:space="preserve" text-anchor="middle" x="275" y="-5.75" font-family="Helvetica,sans-Serif" font-size="10.00">stdbool.h</text>
</a>
</g>
</g>
<!-- Node2&#45;&gt;Node4 -->
<g id="edge5_Node000002_Node000004" class="edge">
<title>Node2&#45;&gt;Node4</title>
<g id="a_edge5_Node000002_Node000004"><a xlink:title=" ">
<path fill="none" stroke="#63b8ff" d="M115.23,-110.03C128.95,-96.82 155.93,-72.07 182,-55.25 200.78,-43.13 223.35,-32.22 241.56,-24.22"/>
<polygon fill="#63b8ff" stroke="#63b8ff" points="242.78,-27.51 250.59,-20.35 240.02,-21.07 242.78,-27.51"/>
</a>
</g>
</g>
<!-- Node2&#45;&gt;Node5 -->
<g id="edge6_Node000002_Node000005" class="edge">
<title>Node2&#45;&gt;Node5</title>
<g id="a_edge6_Node000002_Node000005"><a xlink:title=" ">
<path fill="none" stroke="#63b8ff" d="M104.45,-110.25C101.43,-93 94.7,-54.58 90.54,-30.81"/>
<polygon fill="#63b8ff" stroke="#63b8ff" points="94.01,-30.36 88.84,-21.12 87.11,-31.57 94.01,-30.36"/>
</a>
</g>
</g>
<!-- Node3&#45;&gt;Node4 -->
<g id="edge3_Node000003_Node000004" class="edge">
<title>Node3&#45;&gt;Node4</title>
<g id="a_edge3_Node000003_Node000004"><a xlink:title=" ">
<path fill="none" stroke="#63b8ff" d="M244.11,-55.08C249.06,-47.96 256.2,-37.68 262.37,-28.8"/>
<polygon fill="#63b8ff" stroke="#63b8ff" points="265.06,-31.06 267.89,-20.85 259.31,-27.07 265.06,-31.06"/>
</a>
</g>
</g>
<!-- Node3&#45;&gt;Node5 -->
<g id="edge4_Node000003_Node000005" class="edge">
<title>Node3&#45;&gt;Node5</title>
<g id="a_edge4_Node000003_Node000005"><a xlink:title=" ">
<path fill="none" stroke="#63b8ff" d="M212.38,-54.84C187.61,-46.11 149.87,-32.79 122.26,-23.06"/>
<polygon fill="#63b8ff" stroke="#63b8ff" points="123.51,-19.79 112.92,-19.76 121.18,-26.39 123.51,-19.79"/>
</a>
</g>
</g>
<!-- Node6&#45;&gt;Node2 -->
<g id="edge8_Node000006_Node000002" class="edge">
<title>Node6&#45;&gt;Node2</title>
<g id="a_edge8_Node000006_Node000002"><a xlink:title=" ">
<path fill="none" stroke="#63b8ff" d="M181.52,-220.51C166.39,-212.89 146.21,-200.73 133,-185 122.21,-172.15 115.17,-154.36 110.99,-140.82"/>
<polygon fill="#63b8ff" stroke="#63b8ff" points="114.39,-140 108.34,-131.3 107.65,-141.87 114.39,-140"/>
</a>
</g>
</g>
<!-- Node6&#45;&gt;Node3 -->
<g id="edge9_Node000006_Node000003" class="edge">
<title>Node6&#45;&gt;Node3</title>
<g id="a_edge9_Node000006_Node000003"><a xlink:title=" ">
<path fill="none" stroke="#63b8ff" d="M227.16,-220.64C242.83,-213.57 261.73,-202.04 271,-185 288.96,-152 266.92,-108.41 251.19,-84.16"/>
<polygon fill="#63b8ff" stroke="#63b8ff" points="254.15,-82.3 245.62,-76.01 248.37,-86.24 254.15,-82.3"/>
</a>
</g>
</g>
<!-- Node6&#45;&gt;Node4 -->
<g id="edge15_Node000006_Node000004" class="edge">
<title>Node6&#45;&gt;Node4</title>
<g id="a_edge15_Node000006_Node000004"><a xlink:title=" ">
<path fill="none" stroke="#63b8ff" d="M234.5,-220.58C252.97,-213.77 274.94,-202.54 288,-185 322.89,-138.14 327.68,-110.6 309,-55.25 305.59,-45.15 298.88,-35.52 292.31,-27.82"/>
<polygon fill="#63b8ff" stroke="#63b8ff" points="294.99,-25.55 285.63,-20.58 289.84,-30.3 294.99,-25.55"/>
</a>
</g>
</g>
<!-- Node6&#45;&gt;Node5 -->
<g id="edge17_Node000006_Node000005" class="edge">
<title>Node6&#45;&gt;Node5</title>
<g id="a_edge17_Node000006_Node000005"><a xlink:title=" ">
<path fill="none" stroke="#63b8ff" d="M173.78,-220.56C138.01,-207.26 78.42,-178.6 57,-129.75 42.14,-95.88 61.19,-53.22 75.02,-29.23"/>
<polygon fill="#63b8ff" stroke="#63b8ff" points="77.87,-31.28 80.08,-20.92 71.89,-27.64 77.87,-31.28"/>
</a>
</g>
</g>
<!-- Node7 -->
<g id="Node000007" class="node">
<title>Node7</title>
<g id="a_Node000007"><a xlink:href="cherry__session_8h.html" target="_top" xlink:title="— generic base&#45;session interface.">
<polygon fill="white" stroke="#666666" points="262.12,-185 141.88,-185 141.88,-165.75 262.12,-165.75 262.12,-185"/>
<text xml:space="preserve" text-anchor="middle" x="202" y="-171.5" font-family="Helvetica,sans-Serif" font-size="10.00">cherry/cherry_session.h</text>
</a>
</g>
</g>
<!-- Node6&#45;&gt;Node7 -->
<g id="edge10_Node000006_Node000007" class="edge">
<title>Node6&#45;&gt;Node7</title>
<g id="a_edge10_Node000006_Node000007"><a xlink:title=" ">
<path fill="none" stroke="#63b8ff" d="M202,-220.83C202,-214.32 202,-205.17 202,-196.87"/>
<polygon fill="#63b8ff" stroke="#63b8ff" points="205.5,-196.87 202,-186.87 198.5,-196.87 205.5,-196.87"/>
</a>
</g>
</g>
<!-- Node6&#45;&gt;Node8 -->
<g id="edge16_Node000006_Node000008" class="edge">
<title>Node6&#45;&gt;Node8</title>
<g id="a_edge16_Node000006_Node000008"><a xlink:title=" ">
<path fill="none" stroke="#63b8ff" d="M236.44,-220.59C273.03,-210.99 330.69,-195.87 368.17,-186.04"/>
<polygon fill="#63b8ff" stroke="#63b8ff" points="368.86,-189.47 377.65,-183.55 367.09,-182.7 368.86,-189.47"/>
</a>
</g>
</g>
<!-- Node7&#45;&gt;Node2 -->
<g id="edge11_Node000007_Node000002" class="edge">
<title>Node7&#45;&gt;Node2</title>
<g id="a_edge11_Node000007_Node000002"><a xlink:title=" ">
<path fill="none" stroke="#63b8ff" d="M185.71,-165.34C171.1,-157.23 149.37,-145.18 132.29,-135.71"/>
<polygon fill="#63b8ff" stroke="#63b8ff" points="134.13,-132.73 123.69,-130.94 130.74,-138.85 134.13,-132.73"/>
</a>
</g>
</g>
<!-- Node7&#45;&gt;Node3 -->
<g id="edge12_Node000007_Node000003" class="edge">
<title>Node7&#45;&gt;Node3</title>
<g id="a_edge12_Node000007_Node000003"><a xlink:title=" ">
<path fill="none" stroke="#63b8ff" d="M204.95,-165.5C210.69,-148.17 223.53,-109.48 231.41,-85.74"/>
<polygon fill="#63b8ff" stroke="#63b8ff" points="234.71,-86.91 234.54,-76.31 228.07,-84.7 234.71,-86.91"/>
</a>
</g>
</g>
<!-- Node7&#45;&gt;Node4 -->
<g id="edge13_Node000007_Node000004" class="edge">
<title>Node7&#45;&gt;Node4</title>
<g id="a_edge13_Node000007_Node000004"><a xlink:title=" ">
<path fill="none" stroke="#63b8ff" d="M214.95,-165.47C236.27,-149.93 277.97,-115.57 294,-74.5 299.85,-59.51 293.74,-41.96 286.93,-29.05"/>
<polygon fill="#63b8ff" stroke="#63b8ff" points="290.15,-27.62 282.07,-20.76 284.11,-31.16 290.15,-27.62"/>
</a>
</g>
</g>
<!-- Node7&#45;&gt;Node5 -->
<g id="edge14_Node000007_Node000005" class="edge">
<title>Node7&#45;&gt;Node5</title>
<g id="a_edge14_Node000007_Node000005"><a xlink:title=" ">
<path fill="none" stroke="#63b8ff" d="M195.82,-165.57C177.64,-139.69 124.13,-63.5 99.58,-28.53"/>
<polygon fill="#63b8ff" stroke="#63b8ff" points="102.69,-26.88 94.08,-20.71 96.97,-30.91 102.69,-26.88"/>
</a>
</g>
</g>
</g>
</svg>
