<?xml version="1.0" encoding="UTF-8" standalone="no"?>
<!DOCTYPE svg PUBLIC "-//W3C//DTD SVG 1.1//EN"
 "http://www.w3.org/Graphics/SVG/1.1/DTD/svg11.dtd">
<!-- Generated by graphviz version 15.0.0 (20260523.1842)
 -->
<!-- Title: modules/woz_uwb/src/aliro/aliro_uwb_session.c Pages: 1 -->
<svg width="911pt" height="492pt"
 viewBox="0.00 0.00 911.00 492.00" xmlns="http://www.w3.org/2000/svg" xmlns:xlink="http://www.w3.org/1999/xlink">
<g id="graph0" class="graph" transform="scale(1 1) rotate(0) translate(4 487.75)">
<title>modules/woz_uwb/src/aliro/aliro_uwb_session.c</title>
<!-- Node1 -->
<g id="Node000001" class="node">
<title>Node1</title>
<g id="a_Node000001"><a xlink:title="— per&#45;session lifecycle and state machine.">
<polygon fill="#999999" stroke="#666666" points="734.25,-483.75 605.75,-483.75 605.75,-453.25 734.25,-453.25 734.25,-483.75"/>
<text xml:space="preserve" text-anchor="start" x="613.75" y="-470.25" font-family="Helvetica,sans-Serif" font-size="10.00">modules/woz_uwb/src</text>
<text xml:space="preserve" text-anchor="middle" x="670" y="-459" font-family="Helvetica,sans-Serif" font-size="10.00">/aliro/aliro_uwb_session.c</text>
</a>
</g>
</g>
<!-- Node2 -->
<g id="Node000002" class="node">
<title>Node2</title>
<g id="a_Node000002"><a xlink:href="aliro__uwb__internal_8h.html" target="_top" xlink:title="— private context types and shared helpers.">
<polygon fill="white" stroke="#666666" points="600.12,-362 497.88,-362 497.88,-342.75 600.12,-342.75 600.12,-362"/>
<text xml:space="preserve" text-anchor="middle" x="549" y="-348.5" font-family="Helvetica,sans-Serif" font-size="10.00">aliro_uwb_internal.h</text>
</a>
</g>
</g>
<!-- Node1&#45;&gt;Node2 -->
<g id="edge1_Node000001_Node000002" class="edge">
<title>Node1&#45;&gt;Node2</title>
<g id="a_edge1_Node000001_Node000002"><a xlink:title=" ">
<path fill="none" stroke="#63b8ff" d="M632.38,-452.82C614.75,-444.48 594.5,-432.6 580,-417.25 568.09,-404.63 559.9,-386.58 554.95,-372.88"/>
<polygon fill="#63b8ff" stroke="#63b8ff" points="558.36,-372.04 551.89,-363.65 551.71,-374.24 558.36,-372.04"/>
</a>
</g>
</g>
<!-- Node8 -->
<g id="Node000008" class="node">
<title>Node8</title>
<g id="a_Node000008"><a xlink:href="cherry__ccc_8h.html" target="_top" xlink:title="— CCC/Aliro&#45;session interface (seam the adapter drives).">
<polygon fill="white" stroke="#666666" points="379.12,-240.25 276.88,-240.25 276.88,-221 379.12,-221 379.12,-240.25"/>
<text xml:space="preserve" text-anchor="middle" x="328" y="-226.75" font-family="Helvetica,sans-Serif" font-size="10.00">cherry/cherry_ccc.h</text>
</a>
</g>
</g>
<!-- Node1&#45;&gt;Node8 -->
<g id="edge38_Node000001_Node000008" class="edge">
<title>Node1&#45;&gt;Node8</title>
<g id="a_edge38_Node000001_Node000008"><a xlink:title=" ">
<path fill="none" stroke="#63b8ff" d="M605.44,-460.84C519.46,-448.01 371.14,-411.15 310,-306.75 299.76,-289.26 307.88,-266.24 316.26,-250.31"/>
<polygon fill="#63b8ff" stroke="#63b8ff" points="319.15,-252.3 321.11,-241.89 313.09,-248.8 319.15,-252.3"/>
</a>
</g>
</g>
<!-- Node11 -->
<g id="Node000011" class="node">
<title>Node11</title>
<g id="a_Node000011"><a xlink:href="aliro__uwb__session_8h.html" target="_top" xlink:title="— per&#45;session public interface.">
<polygon fill="white" stroke="#666666" points="434.88,-306.75 319.12,-306.75 319.12,-276.25 434.88,-276.25 434.88,-306.75"/>
<text xml:space="preserve" text-anchor="start" x="327.12" y="-293.25" font-family="Helvetica,sans-Serif" font-size="10.00">aliro_uwb_adapter/aliro</text>
<text xml:space="preserve" text-anchor="middle" x="377" y="-282" font-family="Helvetica,sans-Serif" font-size="10.00">_uwb_session.h</text>
</a>
</g>
</g>
<!-- Node1&#45;&gt;Node11 -->
<g id="edge37_Node000001_Node000011" class="edge">
<title>Node1&#45;&gt;Node11</title>
<g id="a_edge37_Node000001_Node000011"><a xlink:title=" ">
<path fill="none" stroke="#63b8ff" d="M629.75,-452.8C583.95,-435.06 508,-402.5 450,-362 430.57,-348.43 411.27,-329.77 397.4,-315.2"/>
<polygon fill="#63b8ff" stroke="#63b8ff" points="400.31,-313.19 390.93,-308.27 395.19,-317.97 400.31,-313.19"/>
</a>
</g>
</g>
<!-- Node12 -->
<g id="Node000012" class="node">
<title>Node12</title>
<g id="a_Node000012"><a xlink:href="aliro__uwb__msg_8h.html" target="_top" xlink:title="— message framing accessors, dispatch and builders.">
<polygon fill="white" stroke="#666666" points="678.75,-417.25 589.25,-417.25 589.25,-398 678.75,-398 678.75,-417.25"/>
<text xml:space="preserve" text-anchor="middle" x="634" y="-403.75" font-family="Helvetica,sans-Serif" font-size="10.00">aliro_uwb_msg.h</text>
</a>
</g>
</g>
<!-- Node1&#45;&gt;Node12 -->
<g id="edge31_Node000001_Node000012" class="edge">
<title>Node1&#45;&gt;Node12</title>
<g id="a_edge31_Node000001_Node000012"><a xlink:title=" ">
<path fill="none" stroke="#63b8ff" d="M661.1,-452.95C656.36,-445.19 650.47,-435.56 645.4,-427.26"/>
<polygon fill="#63b8ff" stroke="#63b8ff" points="648.54,-425.7 640.34,-418.99 642.57,-429.35 648.54,-425.7"/>
</a>
</g>
</g>
<!-- Node13 -->
<g id="Node000013" class="node">
<title>Node13</title>
<g id="a_Node000013"><a xlink:href="aliro__uwb__msg__spec_8h.html" target="_top" xlink:title="— UWB ranging&#45;service framing constants.">
<polygon fill="white" stroke="#666666" points="871.88,-362 756.12,-362 756.12,-342.75 871.88,-342.75 871.88,-362"/>
<text xml:space="preserve" text-anchor="middle" x="814" y="-348.5" font-family="Helvetica,sans-Serif" font-size="10.00">aliro_uwb_msg_spec.h</text>
</a>
</g>
</g>
<!-- Node1&#45;&gt;Node13 -->
<g id="edge35_Node000001_Node000013" class="edge">
<title>Node1&#45;&gt;Node13</title>
<g id="a_edge35_Node000001_Node000013"><a xlink:title=" ">
<path fill="none" stroke="#63b8ff" d="M688.53,-452.81C715.57,-431.38 765.68,-391.67 793.69,-369.47"/>
<polygon fill="#63b8ff" stroke="#63b8ff" points="795.76,-372.3 801.42,-363.35 791.41,-366.81 795.76,-372.3"/>
</a>
</g>
</g>
<!-- Node14 -->
<g id="Node000014" class="node">
<title>Node14</title>
<g id="a_Node000014"><a xlink:href="woz__alloc_8h_source.html" target="_top" xlink:title=" ">
<polygon fill="white" stroke="#666666" points="768.88,-301.12 701.12,-301.12 701.12,-281.88 768.88,-281.88 768.88,-301.12"/>
<text xml:space="preserve" text-anchor="middle" x="735" y="-287.62" font-family="Helvetica,sans-Serif" font-size="10.00">woz_alloc.h</text>
</a>
</g>
</g>
<!-- Node1&#45;&gt;Node14 -->
<g id="edge39_Node000001_Node000014" class="edge">
<title>Node1&#45;&gt;Node14</title>
<g id="a_edge39_Node000001_Node000014"><a xlink:title=" ">
<path fill="none" stroke="#63b8ff" d="M675.43,-452.88C687.11,-421.44 714.61,-347.38 727.76,-311.99"/>
<polygon fill="#63b8ff" stroke="#63b8ff" points="730.89,-313.6 731.1,-303.01 724.33,-311.17 730.89,-313.6"/>
</a>
</g>
</g>
<!-- Node16 -->
<g id="Node000016" class="node">
<title>Node16</title>
<g id="a_Node000016"><a xlink:title=" ">
<polygon fill="#e0e0e0" stroke="#999999" points="825.12,-417.25 776.88,-417.25 776.88,-398 825.12,-398 825.12,-417.25"/>
<text xml:space="preserve" text-anchor="middle" x="801" y="-403.75" font-family="Helvetica,sans-Serif" font-size="10.00">string.h</text>
</a>
</g>
</g>
<!-- Node1&#45;&gt;Node16 -->
<g id="edge45_Node000001_Node000016" class="edge">
<title>Node1&#45;&gt;Node16</title>
<g id="a_edge45_Node000001_Node000016"><a xlink:title=" ">
<path fill="none" stroke="#63b8ff" d="M702.72,-452.8C723.53,-443.44 750.3,-431.41 770.64,-422.27"/>
<polygon fill="#63b8ff" stroke="#63b8ff" points="771.84,-425.57 779.53,-418.27 768.97,-419.18 771.84,-425.57"/>
</a>
</g>
</g>
<!-- Node17 -->
<g id="Node000017" class="node">
<title>Node17</title>
<g id="a_Node000017"><a xlink:href="woz__log_8h_source.html" target="_top" xlink:title=" ">
<polygon fill="white" stroke="#666666" points="903.12,-417.25 842.88,-417.25 842.88,-398 903.12,-398 903.12,-417.25"/>
<text xml:space="preserve" text-anchor="middle" x="873" y="-403.75" font-family="Helvetica,sans-Serif" font-size="10.00">woz_log.h</text>
</a>
</g>
</g>
<!-- Node1&#45;&gt;Node17 -->
<g id="edge46_Node000001_Node000017" class="edge">
<title>Node1&#45;&gt;Node17</title>
<g id="a_edge46_Node000001_Node000017"><a xlink:title=" ">
<path fill="none" stroke="#63b8ff" d="M720.7,-452.8C754.95,-442.86 799.59,-429.92 831.68,-420.61"/>
<polygon fill="#63b8ff" stroke="#63b8ff" points="832.38,-424.05 841.01,-417.9 830.43,-417.33 832.38,-424.05"/>
</a>
</g>
</g>
<!-- Node3 -->
<g id="Node000003" class="node">
<title>Node3</title>
<g id="a_Node000003"><a xlink:href="aliro__uwb__adapter_8h.html" target="_top" xlink:title="— reader&#45;device public interface.">
<polygon fill="white" stroke="#666666" points="606.88,-306.75 491.12,-306.75 491.12,-276.25 606.88,-276.25 606.88,-306.75"/>
<text xml:space="preserve" text-anchor="start" x="499.12" y="-293.25" font-family="Helvetica,sans-Serif" font-size="10.00">aliro_uwb_adapter/aliro</text>
<text xml:space="preserve" text-anchor="middle" x="549" y="-282" font-family="Helvetica,sans-Serif" font-size="10.00">_uwb_adapter.h</text>
</a>
</g>
</g>
<!-- Node2&#45;&gt;Node3 -->
<g id="edge2_Node000002_Node000003" class="edge">
<title>Node2&#45;&gt;Node3</title>
<g id="a_edge2_Node000002_Node000003"><a xlink:title=" ">
<path fill="none" stroke="#63b8ff" d="M549,-342.43C549,-335.98 549,-326.91 549,-318.26"/>
<polygon fill="#63b8ff" stroke="#63b8ff" points="552.5,-318.55 549,-308.55 545.5,-318.55 552.5,-318.55"/>
</a>
</g>
</g>
<!-- Node4 -->
<g id="Node000004" class="node">
<title>Node4</title>
<g id="a_Node000004"><a xlink:href="cherry_8h.html" target="_top" xlink:title="— Cherry core (context + device&#45;capabilities) interface.">
<polygon fill="white" stroke="#666666" points="291.88,-129.75 212.12,-129.75 212.12,-110.5 291.88,-110.5 291.88,-129.75"/>
<text xml:space="preserve" text-anchor="middle" x="252" y="-116.25" font-family="Helvetica,sans-Serif" font-size="10.00">cherry/cherry.h</text>
</a>
</g>
</g>
<!-- Node2&#45;&gt;Node4 -->
<g id="edge28_Node000002_Node000004" class="edge">
<title>Node2&#45;&gt;Node4</title>
<g id="a_edge28_Node000002_Node000004"><a xlink:title=" ">
<path fill="none" stroke="#63b8ff" d="M497.52,-351.59C446.63,-349.63 368.17,-340.65 310,-306.75 256.82,-275.75 249.5,-246.3 244,-185 242.68,-170.31 244.85,-153.78 247.26,-141.22"/>
<polygon fill="#63b8ff" stroke="#63b8ff" points="250.63,-142.19 249.31,-131.68 243.79,-140.72 250.63,-142.19"/>
</a>
</g>
</g>
<!-- Node7 -->
<g id="Node000007" class="node">
<title>Node7</title>
<g id="a_Node000007"><a xlink:title=" ">
<polygon fill="#e0e0e0" stroke="#999999" points="583.12,-19.25 534.88,-19.25 534.88,0 583.12,0 583.12,-19.25"/>
<text xml:space="preserve" text-anchor="middle" x="559" y="-5.75" font-family="Helvetica,sans-Serif" font-size="10.00">stdint.h</text>
</a>
</g>
</g>
<!-- Node2&#45;&gt;Node7 -->
<g id="edge30_Node000002_Node000007" class="edge">
<title>Node2&#45;&gt;Node7</title>
<g id="a_edge30_Node000002_Node000007"><a xlink:title=" ">
<path fill="none" stroke="#63b8ff" d="M570.21,-342.35C585.18,-334.91 604.54,-322.95 616,-306.75 635.88,-278.63 635,-266.07 635,-231.62 635,-231.62 635,-231.62 635,-119.12 635,-80.52 602.32,-45.89 579.82,-26.62"/>
<polygon fill="#63b8ff" stroke="#63b8ff" points="582.33,-24.16 572.38,-20.52 577.89,-29.57 582.33,-24.16"/>
</a>
</g>
</g>
<!-- Node2&#45;&gt;Node8 -->
<g id="edge29_Node000002_Node000008" class="edge">
<title>Node2&#45;&gt;Node8</title>
<g id="a_edge29_Node000002_Node000008"><a xlink:title=" ">
<path fill="none" stroke="#63b8ff" d="M534.63,-342.33C520.89,-333.56 499.7,-319.71 482,-306.75 464.53,-293.96 462.77,-287.04 444,-276.25 420.69,-262.85 392.59,-251.92 369.88,-244.23"/>
<polygon fill="#63b8ff" stroke="#63b8ff" points="371.25,-241 360.65,-241.2 369.06,-247.65 371.25,-241"/>
</a>
</g>
</g>
<!-- Node2&#45;&gt;Node11 -->
<g id="edge22_Node000002_Node000011" class="edge">
<title>Node2&#45;&gt;Node11</title>
<g id="a_edge22_Node000002_Node000011"><a xlink:title=" ">
<path fill="none" stroke="#63b8ff" d="M522.5,-342.3C498.06,-333.94 461.03,-321.26 430.45,-310.79"/>
<polygon fill="#63b8ff" stroke="#63b8ff" points="431.96,-307.61 421.36,-307.68 429.69,-314.23 431.96,-307.61"/>
</a>
</g>
</g>
<!-- Node3&#45;&gt;Node4 -->
<g id="edge3_Node000003_Node000004" class="edge">
<title>Node3&#45;&gt;Node4</title>
<g id="a_edge3_Node000003_Node000004"><a xlink:title=" ">
<path fill="none" stroke="#63b8ff" d="M523.16,-275.77C466.95,-243.71 334.08,-167.93 277.85,-135.87"/>
<polygon fill="#63b8ff" stroke="#63b8ff" points="279.71,-132.9 269.29,-130.98 276.24,-138.98 279.71,-132.9"/>
</a>
</g>
</g>
<!-- Node3&#45;&gt;Node7 -->
<g id="edge21_Node000003_Node000007" class="edge">
<title>Node3&#45;&gt;Node7</title>
<g id="a_edge21_Node000003_Node000007"><a xlink:title=" ">
<path fill="none" stroke="#63b8ff" d="M551.12,-275.76C554.06,-254.05 559,-212.18 559,-176.38 559,-176.38 559,-176.38 559,-119.12 559,-88.41 559,-52.8 559,-30.99"/>
<polygon fill="#63b8ff" stroke="#63b8ff" points="562.5,-31.14 559,-21.14 555.5,-31.14 562.5,-31.14"/>
</a>
</g>
</g>
<!-- Node3&#45;&gt;Node8 -->
<g id="edge9_Node000003_Node000008" class="edge">
<title>Node3&#45;&gt;Node8</title>
<g id="a_edge9_Node000003_Node000008"><a xlink:title=" ">
<path fill="none" stroke="#63b8ff" d="M493.8,-275.8C456.54,-265.87 407.97,-252.93 373.05,-243.63"/>
<polygon fill="#63b8ff" stroke="#63b8ff" points="374.24,-240.32 363.68,-241.13 372.44,-247.09 374.24,-240.32"/>
</a>
</g>
</g>
<!-- Node10 -->
<g id="Node000010" class="node">
<title>Node10</title>
<g id="a_Node000010"><a xlink:title=" ">
<polygon fill="#e0e0e0" stroke="#999999" points="530.62,-185 479.38,-185 479.38,-165.75 530.62,-165.75 530.62,-185"/>
<text xml:space="preserve" text-anchor="middle" x="505" y="-171.5" font-family="Helvetica,sans-Serif" font-size="10.00">stddef.h</text>
</a>
</g>
</g>
<!-- Node3&#45;&gt;Node10 -->
<g id="edge20_Node000003_Node000010" class="edge">
<title>Node3&#45;&gt;Node10</title>
<g id="a_edge20_Node000003_Node000010"><a xlink:title=" ">
<path fill="none" stroke="#63b8ff" d="M543.43,-276.05C535.63,-255.81 521.42,-218.97 512.64,-196.19"/>
<polygon fill="#63b8ff" stroke="#63b8ff" points="515.91,-194.93 509.04,-186.86 509.37,-197.45 515.91,-194.93"/>
</a>
</g>
</g>
<!-- Node5 -->
<g id="Node000005" class="node">
<title>Node5</title>
<g id="a_Node000005"><a xlink:href="cherry__common_8h.html" target="_top" xlink:title="— diagnostics config struct and report forward decl.">
<polygon fill="white" stroke="#666666" points="300,-74.5 206,-74.5 206,-55.25 300,-55.25 300,-74.5"/>
<text xml:space="preserve" text-anchor="middle" x="253" y="-61" font-family="Helvetica,sans-Serif" font-size="10.00">cherry_common.h</text>
</a>
</g>
</g>
<!-- Node4&#45;&gt;Node5 -->
<g id="edge4_Node000004_Node000005" class="edge">
<title>Node4&#45;&gt;Node5</title>
<g id="a_edge4_Node000004_Node000005"><a xlink:title=" ">
<path fill="none" stroke="#63b8ff" d="M252.17,-110.33C252.29,-103.82 252.46,-94.67 252.62,-86.37"/>
<polygon fill="#63b8ff" stroke="#63b8ff" points="256.11,-86.44 252.8,-76.37 249.12,-86.3 256.11,-86.44"/>
</a>
</g>
</g>
<!-- Node6 -->
<g id="Node000006" class="node">
<title>Node6</title>
<g id="a_Node000006"><a xlink:title=" ">
<polygon fill="#e0e0e0" stroke="#999999" points="129.88,-19.25 74.12,-19.25 74.12,0 129.88,0 129.88,-19.25"/>
<text xml:space="preserve" text-anchor="middle" x="102" y="-5.75" font-family="Helvetica,sans-Serif" font-size="10.00">stdbool.h</text>
</a>
</g>
</g>
<!-- Node4&#45;&gt;Node6 -->
<g id="edge7_Node000004_Node000006" class="edge">
<title>Node4&#45;&gt;Node6</title>
<g id="a_edge7_Node000004_Node000006"><a xlink:title=" ">
<path fill="none" stroke="#63b8ff" d="M239.47,-110.06C213.82,-91.51 155.07,-49.01 123.31,-26.04"/>
<polygon fill="#63b8ff" stroke="#63b8ff" points="125.77,-23.5 115.62,-20.47 121.67,-29.17 125.77,-23.5"/>
</a>
</g>
</g>
<!-- Node4&#45;&gt;Node7 -->
<g id="edge8_Node000004_Node000007" class="edge">
<title>Node4&#45;&gt;Node7</title>
<g id="a_edge8_Node000004_Node000007"><a xlink:title=" ">
<path fill="none" stroke="#63b8ff" d="M263.64,-110.04C282.02,-96.14 319.32,-69.72 355,-55.25 411.54,-32.32 481.9,-20.26 523.48,-14.68"/>
<polygon fill="#63b8ff" stroke="#63b8ff" points="523.68,-18.18 533.15,-13.43 522.79,-11.24 523.68,-18.18"/>
</a>
</g>
</g>
<!-- Node5&#45;&gt;Node6 -->
<g id="edge5_Node000005_Node000006" class="edge">
<title>Node5&#45;&gt;Node6</title>
<g id="a_edge5_Node000005_Node000006"><a xlink:title=" ">
<path fill="none" stroke="#63b8ff" d="M227.38,-54.84C202.98,-46.24 165.99,-33.19 138.5,-23.5"/>
<polygon fill="#63b8ff" stroke="#63b8ff" points="139.76,-20.23 129.17,-20.21 137.43,-26.83 139.76,-20.23"/>
</a>
</g>
</g>
<!-- Node5&#45;&gt;Node7 -->
<g id="edge6_Node000005_Node000007" class="edge">
<title>Node5&#45;&gt;Node7</title>
<g id="a_edge6_Node000005_Node000007"><a xlink:title=" ">
<path fill="none" stroke="#63b8ff" d="M300.48,-55.61C362.1,-44.89 468.24,-26.42 523.39,-16.82"/>
<polygon fill="#63b8ff" stroke="#63b8ff" points="523.93,-20.28 533.18,-15.12 522.73,-13.38 523.93,-20.28"/>
</a>
</g>
</g>
<!-- Node8&#45;&gt;Node4 -->
<g id="edge10_Node000008_Node000004" class="edge">
<title>Node8&#45;&gt;Node4</title>
<g id="a_edge10_Node000008_Node000004"><a xlink:title=" ">
<path fill="none" stroke="#63b8ff" d="M321.78,-220.75C309.37,-203.02 281.29,-162.94 264.79,-139.38"/>
<polygon fill="#63b8ff" stroke="#63b8ff" points="267.78,-137.55 259.17,-131.37 262.04,-141.56 267.78,-137.55"/>
</a>
</g>
</g>
<!-- Node8&#45;&gt;Node5 -->
<g id="edge11_Node000008_Node000005" class="edge">
<title>Node8&#45;&gt;Node5</title>
<g id="a_edge11_Node000008_Node000005"><a xlink:title=" ">
<path fill="none" stroke="#63b8ff" d="M327.74,-220.61C326.78,-199.81 322.27,-147.44 301,-110.5 294.61,-99.41 284.57,-89.45 275.32,-81.76"/>
<polygon fill="#63b8ff" stroke="#63b8ff" points="277.73,-79.2 267.69,-75.81 273.42,-84.72 277.73,-79.2"/>
</a>
</g>
</g>
<!-- Node8&#45;&gt;Node6 -->
<g id="edge17_Node000008_Node000006" class="edge">
<title>Node8&#45;&gt;Node6</title>
<g id="a_edge17_Node000008_Node000006"><a xlink:title=" ">
<path fill="none" stroke="#63b8ff" d="M276.4,-228.76C205.77,-226.36 84.58,-217.49 57,-185 17.78,-138.79 63.77,-62.57 88.4,-28.29"/>
<polygon fill="#63b8ff" stroke="#63b8ff" points="90.92,-30.77 94.07,-20.65 85.3,-26.6 90.92,-30.77"/>
</a>
</g>
</g>
<!-- Node8&#45;&gt;Node7 -->
<g id="edge19_Node000008_Node000007" class="edge">
<title>Node8&#45;&gt;Node7</title>
<g id="a_edge19_Node000008_Node000007"><a xlink:title=" ">
<path fill="none" stroke="#63b8ff" d="M331.08,-220.56C341.21,-192 376.31,-102.99 435,-55.25 460.66,-34.37 496.9,-22.84 523.57,-16.76"/>
<polygon fill="#63b8ff" stroke="#63b8ff" points="524.18,-20.21 533.24,-14.72 522.73,-13.36 524.18,-20.21"/>
</a>
</g>
</g>
<!-- Node9 -->
<g id="Node000009" class="node">
<title>Node9</title>
<g id="a_Node000009"><a xlink:href="cherry__session_8h.html" target="_top" xlink:title="— generic base&#45;session interface.">
<polygon fill="white" stroke="#666666" points="186.12,-185 65.88,-185 65.88,-165.75 186.12,-165.75 186.12,-185"/>
<text xml:space="preserve" text-anchor="middle" x="126" y="-171.5" font-family="Helvetica,sans-Serif" font-size="10.00">cherry/cherry_session.h</text>
</a>
</g>
</g>
<!-- Node8&#45;&gt;Node9 -->
<g id="edge12_Node000008_Node000009" class="edge">
<title>Node8&#45;&gt;Node9</title>
<g id="a_edge12_Node000008_Node000009"><a xlink:title=" ">
<path fill="none" stroke="#63b8ff" d="M293.73,-220.59C260.07,-211.72 208.51,-198.12 171.44,-188.35"/>
<polygon fill="#63b8ff" stroke="#63b8ff" points="172.46,-185 161.9,-185.84 170.68,-191.77 172.46,-185"/>
</a>
</g>
</g>
<!-- Node8&#45;&gt;Node10 -->
<g id="edge18_Node000008_Node000010" class="edge">
<title>Node8&#45;&gt;Node10</title>
<g id="a_edge18_Node000008_Node000010"><a xlink:title=" ">
<path fill="none" stroke="#63b8ff" d="M358.03,-220.59C388.46,-211.43 435.61,-197.25 468.26,-187.43"/>
<polygon fill="#63b8ff" stroke="#63b8ff" points="469.13,-190.82 477.7,-184.59 467.12,-184.12 469.13,-190.82"/>
</a>
</g>
</g>
<!-- Node9&#45;&gt;Node4 -->
<g id="edge13_Node000009_Node000004" class="edge">
<title>Node9&#45;&gt;Node4</title>
<g id="a_edge13_Node000009_Node000004"><a xlink:title=" ">
<path fill="none" stroke="#63b8ff" d="M147.37,-165.34C167.29,-156.93 197.24,-144.27 220,-134.65"/>
<polygon fill="#63b8ff" stroke="#63b8ff" points="221.28,-137.91 229.13,-130.79 218.55,-131.46 221.28,-137.91"/>
</a>
</g>
</g>
<!-- Node9&#45;&gt;Node5 -->
<g id="edge14_Node000009_Node000005" class="edge">
<title>Node9&#45;&gt;Node5</title>
<g id="a_edge14_Node000009_Node000005"><a xlink:title=" ">
<path fill="none" stroke="#63b8ff" d="M136.39,-165.5C157.7,-147.3 206.6,-105.52 233.82,-82.26"/>
<polygon fill="#63b8ff" stroke="#63b8ff" points="235.98,-85.02 241.31,-75.86 231.44,-79.69 235.98,-85.02"/>
</a>
</g>
</g>
<!-- Node9&#45;&gt;Node6 -->
<g id="edge15_Node000009_Node000006" class="edge">
<title>Node9&#45;&gt;Node6</title>
<g id="a_edge15_Node000009_Node000006"><a xlink:title=" ">
<path fill="none" stroke="#63b8ff" d="M124.71,-165.57C121,-140.25 110.23,-66.75 104.96,-30.84"/>
<polygon fill="#63b8ff" stroke="#63b8ff" points="108.43,-30.36 103.52,-20.97 101.5,-31.37 108.43,-30.36"/>
</a>
</g>
</g>
<!-- Node9&#45;&gt;Node7 -->
<g id="edge16_Node000009_Node000007" class="edge">
<title>Node9&#45;&gt;Node7</title>
<g id="a_edge16_Node000009_Node000007"><a xlink:title=" ">
<path fill="none" stroke="#63b8ff" d="M128.41,-165.29C135,-142.38 155.66,-82.22 197,-55.25 250.22,-20.53 442.49,-12.82 523.07,-11.11"/>
<polygon fill="#63b8ff" stroke="#63b8ff" points="523.12,-14.61 533.05,-10.92 522.98,-7.61 523.12,-14.61"/>
</a>
</g>
</g>
<!-- Node11&#45;&gt;Node4 -->
<g id="edge23_Node000011_Node000004" class="edge">
<title>Node11&#45;&gt;Node4</title>
<g id="a_edge23_Node000011_Node000004"><a xlink:title=" ">
<path fill="none" stroke="#63b8ff" d="M318.69,-275.93C299.72,-268.35 280.38,-257.01 268,-240.25 246.47,-211.1 246.79,-166.68 249.22,-141.12"/>
<polygon fill="#63b8ff" stroke="#63b8ff" points="252.66,-141.79 250.36,-131.45 245.71,-140.97 252.66,-141.79"/>
</a>
</g>
</g>
<!-- Node11&#45;&gt;Node6 -->
<g id="edge25_Node000011_Node000006" class="edge">
<title>Node11&#45;&gt;Node6</title>
<g id="a_edge25_Node000011_Node000006"><a xlink:title=" ">
<path fill="none" stroke="#63b8ff" d="M318.92,-285.07C213.17,-273.56 0,-242.2 0,-176.38 0,-176.38 0,-176.38 0,-119.12 0,-75.92 43.46,-42.89 73.65,-25.16"/>
<polygon fill="#63b8ff" stroke="#63b8ff" points="74.97,-28.43 81.97,-20.48 71.54,-22.33 74.97,-28.43"/>
</a>
</g>
</g>
<!-- Node11&#45;&gt;Node7 -->
<g id="edge27_Node000011_Node000007" class="edge">
<title>Node11&#45;&gt;Node7</title>
<g id="a_edge27_Node000011_Node000007"><a xlink:title=" ">
<path fill="none" stroke="#63b8ff" d="M386.53,-275.85C417.18,-228.71 513.23,-81.02 547.06,-28.99"/>
<polygon fill="#63b8ff" stroke="#63b8ff" points="549.78,-31.22 552.3,-20.93 543.91,-27.4 549.78,-31.22"/>
</a>
</g>
</g>
<!-- Node11&#45;&gt;Node8 -->
<g id="edge24_Node000011_Node000008" class="edge">
<title>Node11&#45;&gt;Node8</title>
<g id="a_edge24_Node000011_Node000008"><a xlink:title=" ">
<path fill="none" stroke="#63b8ff" d="M364.89,-275.95C358.22,-267.93 349.88,-257.92 342.82,-249.44"/>
<polygon fill="#63b8ff" stroke="#63b8ff" points="345.61,-247.31 336.52,-241.86 340.23,-251.79 345.61,-247.31"/>
</a>
</g>
</g>
<!-- Node11&#45;&gt;Node10 -->
<g id="edge26_Node000011_Node000010" class="edge">
<title>Node11&#45;&gt;Node10</title>
<g id="a_edge26_Node000011_Node000010"><a xlink:title=" ">
<path fill="none" stroke="#63b8ff" d="M393.47,-275.81C417.3,-254.57 461.27,-215.37 486.29,-193.06"/>
<polygon fill="#63b8ff" stroke="#63b8ff" points="488.61,-195.68 493.74,-186.41 483.95,-190.46 488.61,-195.68"/>
</a>
</g>
</g>
<!-- Node12&#45;&gt;Node2 -->
<g id="edge32_Node000012_Node000002" class="edge">
<title>Node12&#45;&gt;Node2</title>
<g id="a_edge32_Node000012_Node000002"><a xlink:title=" ">
<path fill="none" stroke="#63b8ff" d="M619.58,-397.59C606.88,-389.64 588.13,-377.89 573.14,-368.5"/>
<polygon fill="#63b8ff" stroke="#63b8ff" points="575.1,-365.6 564.77,-363.26 571.39,-371.53 575.1,-365.6"/>
</a>
</g>
</g>
<!-- Node12&#45;&gt;Node7 -->
<g id="edge34_Node000012_Node000007" class="edge">
<title>Node12&#45;&gt;Node7</title>
<g id="a_edge34_Node000012_Node000007"><a xlink:title=" ">
<path fill="none" stroke="#63b8ff" d="M639.42,-397.52C650.14,-378.64 673,-333.54 673,-292.5 673,-292.5 673,-292.5 673,-119.12 673,-73.88 625.31,-41.78 591.62,-24.74"/>
<polygon fill="#63b8ff" stroke="#63b8ff" points="593.14,-21.59 582.61,-20.4 590.1,-27.89 593.14,-21.59"/>
</a>
</g>
</g>
<!-- Node12&#45;&gt;Node11 -->
<g id="edge33_Node000012_Node000011" class="edge">
<title>Node12&#45;&gt;Node11</title>
<g id="a_edge33_Node000012_Node000011"><a xlink:title=" ">
<path fill="none" stroke="#63b8ff" d="M595.16,-397.57C565.38,-389.95 523.64,-377.76 489,-362 459.56,-348.6 428.48,-328.81 406.55,-313.77"/>
<polygon fill="#63b8ff" stroke="#63b8ff" points="408.61,-310.94 398.4,-308.1 404.61,-316.69 408.61,-310.94"/>
</a>
</g>
</g>
<!-- Node13&#45;&gt;Node7 -->
<g id="edge36_Node000013_Node000007" class="edge">
<title>Node13&#45;&gt;Node7</title>
<g id="a_edge36_Node000013_Node000007"><a xlink:title=" ">
<path fill="none" stroke="#63b8ff" d="M816.15,-342.42C820.73,-322.59 831,-273.41 831,-231.62 831,-231.62 831,-231.62 831,-119.12 831,-83.35 812.37,-74.16 782,-55.25 723.57,-18.87 641.31,-11.34 594.77,-10.24"/>
<polygon fill="#63b8ff" stroke="#63b8ff" points="595.03,-6.75 584.98,-10.11 594.93,-13.75 595.03,-6.75"/>
</a>
</g>
</g>
<!-- Node14&#45;&gt;Node7 -->
<g id="edge41_Node000014_Node000007" class="edge">
<title>Node14&#45;&gt;Node7</title>
<g id="a_edge41_Node000014_Node000007"><a xlink:title=" ">
<path fill="none" stroke="#63b8ff" d="M743.61,-281.59C752.38,-272.06 765.83,-256.16 774,-240.25 787.53,-213.9 793,-205.99 793,-176.38 793,-176.38 793,-176.38 793,-119.12 793,-32.92 660.66,-15.01 595.03,-11.43"/>
<polygon fill="#63b8ff" stroke="#63b8ff" points="595.26,-7.94 585.11,-10.98 594.94,-14.93 595.26,-7.94"/>
</a>
</g>
</g>
<!-- Node14&#45;&gt;Node10 -->
<g id="edge40_Node000014_Node000010" class="edge">
<title>Node14&#45;&gt;Node10</title>
<g id="a_edge40_Node000014_Node000010"><a xlink:title=" ">
<path fill="none" stroke="#63b8ff" d="M716.95,-281.54C677.16,-261.8 581.63,-214.4 533.59,-190.56"/>
<polygon fill="#63b8ff" stroke="#63b8ff" points="535.15,-187.43 524.64,-186.12 532.04,-193.7 535.15,-187.43"/>
</a>
</g>
</g>
<!-- Node15 -->
<g id="Node000015" class="node">
<title>Node15</title>
<g id="a_Node000015"><a xlink:href="woz__port_8h_source.html" target="_top" xlink:title=" ">
<polygon fill="white" stroke="#666666" points="765,-240.25 701,-240.25 701,-221 765,-221 765,-240.25"/>
<text xml:space="preserve" text-anchor="middle" x="733" y="-226.75" font-family="Helvetica,sans-Serif" font-size="10.00">woz_port.h</text>
</a>
</g>
</g>
<!-- Node14&#45;&gt;Node15 -->
<g id="edge42_Node000014_Node000015" class="edge">
<title>Node14&#45;&gt;Node15</title>
<g id="a_edge42_Node000014_Node000015"><a xlink:title=" ">
<path fill="none" stroke="#63b8ff" d="M734.7,-281.56C734.43,-273.69 734.03,-261.95 733.69,-251.82"/>
<polygon fill="#63b8ff" stroke="#63b8ff" points="737.2,-252.04 733.36,-242.16 730.2,-252.28 737.2,-252.04"/>
</a>
</g>
</g>
<!-- Node15&#45;&gt;Node7 -->
<g id="edge44_Node000015_Node000007" class="edge">
<title>Node15&#45;&gt;Node7</title>
<g id="a_edge44_Node000015_Node000007"><a xlink:title=" ">
<path fill="none" stroke="#63b8ff" d="M733.38,-220.66C734.06,-192.41 732.29,-104.2 687,-55.25 663.12,-29.44 623.51,-18.56 594.67,-13.97"/>
<polygon fill="#63b8ff" stroke="#63b8ff" points="595.32,-10.52 584.93,-12.62 594.35,-17.46 595.32,-10.52"/>
</a>
</g>
</g>
<!-- Node15&#45;&gt;Node10 -->
<g id="edge43_Node000015_Node000010" class="edge">
<title>Node15&#45;&gt;Node10</title>
<g id="a_edge43_Node000015_Node000010"><a xlink:title=" ">
<path fill="none" stroke="#63b8ff" d="M700.82,-222.11C659.01,-212.34 586.18,-195.34 542.1,-185.04"/>
<polygon fill="#63b8ff" stroke="#63b8ff" points="543.02,-181.66 532.49,-182.79 541.43,-188.48 543.02,-181.66"/>
</a>
</g>
</g>
</g>
</svg>
