<?xml version="1.0" encoding="UTF-8" standalone="no"?>
<!DOCTYPE svg PUBLIC "-//W3C//DTD SVG 1.1//EN"
 "http://www.w3.org/Graphics/SVG/1.1/DTD/svg11.dtd">
<!-- Generated by graphviz version 15.0.0 (20260523.1842)
 -->
<!-- Title: modules/woz_uwb/src/aliro/aliro_uwb_adapter.c Pages: 1 -->
<svg width="725pt" height="437pt"
 viewBox="0.00 0.00 725.00 437.00" xmlns="http://www.w3.org/2000/svg" xmlns:xlink="http://www.w3.org/1999/xlink">
<g id="graph0" class="graph" transform="scale(1 1) rotate(0) translate(4 432.5)">
<title>modules/woz_uwb/src/aliro/aliro_uwb_adapter.c</title>
<!-- Node1 -->
<g id="Node000001" class="node">
<title>Node1</title>
<g id="a_Node000001"><a xlink:title="— reader&#45;context lifecycle.">
<polygon fill="#999999" stroke="#666666" points="607.12,-428.5 480.88,-428.5 480.88,-398 607.12,-398 607.12,-428.5"/>
<text xml:space="preserve" text-anchor="start" x="488.88" y="-415" font-family="Helvetica,sans-Serif" font-size="10.00">modules/woz_uwb/src</text>
<text xml:space="preserve" text-anchor="middle" x="544" y="-403.75" font-family="Helvetica,sans-Serif" font-size="10.00">/aliro/aliro_uwb_adapter.c</text>
</a>
</g>
</g>
<!-- Node2 -->
<g id="Node000002" class="node">
<title>Node2</title>
<g id="a_Node000002"><a xlink:href="aliro__uwb__internal_8h.html" target="_top" xlink:title="— private context types and shared helpers.">
<polygon fill="white" stroke="#666666" points="451.12,-362 348.88,-362 348.88,-342.75 451.12,-342.75 451.12,-362"/>
<text xml:space="preserve" text-anchor="middle" x="400" y="-348.5" font-family="Helvetica,sans-Serif" font-size="10.00">aliro_uwb_internal.h</text>
</a>
</g>
</g>
<!-- Node1&#45;&gt;Node2 -->
<g id="edge1_Node000001_Node000002" class="edge">
<title>Node1&#45;&gt;Node2</title>
<g id="a_edge1_Node000001_Node000002"><a xlink:title=" ">
<path fill="none" stroke="#63b8ff" d="M508.03,-397.55C484.84,-388.06 454.92,-375.83 432.45,-366.64"/>
<polygon fill="#63b8ff" stroke="#63b8ff" points="434.07,-363.52 423.48,-362.98 431.42,-370 434.07,-363.52"/>
</a>
</g>
</g>
<!-- Node3 -->
<g id="Node000003" class="node">
<title>Node3</title>
<g id="a_Node000003"><a xlink:href="aliro__uwb__adapter_8h.html" target="_top" xlink:title="— reader&#45;device public interface.">
<polygon fill="white" stroke="#666666" points="606.88,-306.75 491.12,-306.75 491.12,-276.25 606.88,-276.25 606.88,-306.75"/>
<text xml:space="preserve" text-anchor="start" x="499.12" y="-293.25" font-family="Helvetica,sans-Serif" font-size="10.00">aliro_uwb_adapter/aliro</text>
<text xml:space="preserve" text-anchor="middle" x="549" y="-282" font-family="Helvetica,sans-Serif" font-size="10.00">_uwb_adapter.h</text>
</a>
</g>
</g>
<!-- Node1&#45;&gt;Node3 -->
<g id="edge31_Node000001_Node000003" class="edge">
<title>Node1&#45;&gt;Node3</title>
<g id="a_edge31_Node000001_Node000003"><a xlink:title=" ">
<path fill="none" stroke="#63b8ff" d="M544.61,-397.57C545.44,-377.8 546.92,-342.32 547.93,-318.11"/>
<polygon fill="#63b8ff" stroke="#63b8ff" points="551.41,-318.58 548.33,-308.44 544.42,-318.29 551.41,-318.58"/>
</a>
</g>
</g>
<!-- Node8 -->
<g id="Node000008" class="node">
<title>Node8</title>
<g id="a_Node000008"><a xlink:href="cherry__ccc_8h.html" target="_top" xlink:title="— CCC/Aliro&#45;session interface (seam the adapter drives).">
<polygon fill="white" stroke="#666666" points="264.12,-240.25 161.88,-240.25 161.88,-221 264.12,-221 264.12,-240.25"/>
<text xml:space="preserve" text-anchor="middle" x="213" y="-226.75" font-family="Helvetica,sans-Serif" font-size="10.00">cherry/cherry_ccc.h</text>
</a>
</g>
</g>
<!-- Node1&#45;&gt;Node8 -->
<g id="edge32_Node000001_Node000008" class="edge">
<title>Node1&#45;&gt;Node8</title>
<g id="a_edge32_Node000001_Node000008"><a xlink:title=" ">
<path fill="none" stroke="#63b8ff" d="M480.62,-408.16C411.38,-400.15 302.3,-376.49 242,-306.75 228.3,-290.91 220.7,-267.88 216.76,-251.5"/>
<polygon fill="#63b8ff" stroke="#63b8ff" points="220.24,-251.03 214.73,-241.98 213.39,-252.49 220.24,-251.03"/>
</a>
</g>
</g>
<!-- Node12 -->
<g id="Node000012" class="node">
<title>Node12</title>
<g id="a_Node000012"><a xlink:href="woz__alloc_8h_source.html" target="_top" xlink:title=" ">
<polygon fill="white" stroke="#666666" points="692.88,-301.12 625.12,-301.12 625.12,-281.88 692.88,-281.88 692.88,-301.12"/>
<text xml:space="preserve" text-anchor="middle" x="659" y="-287.62" font-family="Helvetica,sans-Serif" font-size="10.00">woz_alloc.h</text>
</a>
</g>
</g>
<!-- Node1&#45;&gt;Node12 -->
<g id="edge33_Node000001_Node000012" class="edge">
<title>Node1&#45;&gt;Node12</title>
<g id="a_edge33_Node000001_Node000012"><a xlink:title=" ">
<path fill="none" stroke="#63b8ff" d="M549.49,-397.63C555.67,-382.59 566.87,-359.1 582,-342.75 595.69,-327.95 614.62,-315.52 630.29,-306.72"/>
<polygon fill="#63b8ff" stroke="#63b8ff" points="631.54,-310.02 638.69,-302.2 628.22,-303.86 631.54,-310.02"/>
</a>
</g>
</g>
<!-- Node14 -->
<g id="Node000014" class="node">
<title>Node14</title>
<g id="a_Node000014"><a xlink:title=" ">
<polygon fill="#e0e0e0" stroke="#999999" points="639.12,-362 590.88,-362 590.88,-342.75 639.12,-342.75 639.12,-362"/>
<text xml:space="preserve" text-anchor="middle" x="615" y="-348.5" font-family="Helvetica,sans-Serif" font-size="10.00">string.h</text>
</a>
</g>
</g>
<!-- Node1&#45;&gt;Node14 -->
<g id="edge39_Node000001_Node000014" class="edge">
<title>Node1&#45;&gt;Node14</title>
<g id="a_edge39_Node000001_Node000014"><a xlink:title=" ">
<path fill="none" stroke="#63b8ff" d="M561.55,-397.7C571.84,-389.16 584.86,-378.37 595.48,-369.56"/>
<polygon fill="#63b8ff" stroke="#63b8ff" points="597.43,-372.49 602.89,-363.42 592.96,-367.11 597.43,-372.49"/>
</a>
</g>
</g>
<!-- Node15 -->
<g id="Node000015" class="node">
<title>Node15</title>
<g id="a_Node000015"><a xlink:href="woz__log_8h_source.html" target="_top" xlink:title=" ">
<polygon fill="white" stroke="#666666" points="717.12,-362 656.88,-362 656.88,-342.75 717.12,-342.75 717.12,-362"/>
<text xml:space="preserve" text-anchor="middle" x="687" y="-348.5" font-family="Helvetica,sans-Serif" font-size="10.00">woz_log.h</text>
</a>
</g>
</g>
<!-- Node1&#45;&gt;Node15 -->
<g id="edge40_Node000001_Node000015" class="edge">
<title>Node1&#45;&gt;Node15</title>
<g id="a_edge40_Node000001_Node000015"><a xlink:title=" ">
<path fill="none" stroke="#63b8ff" d="M579.72,-397.55C602.65,-388.1 632.19,-375.94 654.47,-366.77"/>
<polygon fill="#63b8ff" stroke="#63b8ff" points="655.76,-370.02 663.67,-362.98 653.09,-363.55 655.76,-370.02"/>
</a>
</g>
</g>
<!-- Node2&#45;&gt;Node3 -->
<g id="edge2_Node000002_Node000003" class="edge">
<title>Node2&#45;&gt;Node3</title>
<g id="a_edge2_Node000002_Node000003"><a xlink:title=" ">
<path fill="none" stroke="#63b8ff" d="M422.95,-342.3C443.76,-334.08 475.09,-321.7 501.31,-311.35"/>
<polygon fill="#63b8ff" stroke="#63b8ff" points="502.39,-314.68 510.4,-307.75 499.82,-308.17 502.39,-314.68"/>
</a>
</g>
</g>
<!-- Node4 -->
<g id="Node000004" class="node">
<title>Node4</title>
<g id="a_Node000004"><a xlink:href="cherry_8h.html" target="_top" xlink:title="— Cherry core (context + device&#45;capabilities) interface.">
<polygon fill="white" stroke="#666666" points="369.88,-129.75 290.12,-129.75 290.12,-110.5 369.88,-110.5 369.88,-129.75"/>
<text xml:space="preserve" text-anchor="middle" x="330" y="-116.25" font-family="Helvetica,sans-Serif" font-size="10.00">cherry/cherry.h</text>
</a>
</g>
</g>
<!-- Node2&#45;&gt;Node4 -->
<g id="edge28_Node000002_Node000004" class="edge">
<title>Node2&#45;&gt;Node4</title>
<g id="a_edge28_Node000002_Node000004"><a xlink:title=" ">
<path fill="none" stroke="#63b8ff" d="M361.06,-342.36C342.18,-335.81 321.22,-324.83 310,-306.75 277.16,-253.81 304.9,-175.73 320.77,-140.1"/>
<polygon fill="#63b8ff" stroke="#63b8ff" points="323.74,-142.03 324.78,-131.48 317.39,-139.08 323.74,-142.03"/>
</a>
</g>
</g>
<!-- Node7 -->
<g id="Node000007" class="node">
<title>Node7</title>
<g id="a_Node000007"><a xlink:title=" ">
<polygon fill="#e0e0e0" stroke="#999999" points="468.12,-19.25 419.88,-19.25 419.88,0 468.12,0 468.12,-19.25"/>
<text xml:space="preserve" text-anchor="middle" x="444" y="-5.75" font-family="Helvetica,sans-Serif" font-size="10.00">stdint.h</text>
</a>
</g>
</g>
<!-- Node2&#45;&gt;Node7 -->
<g id="edge30_Node000002_Node000007" class="edge">
<title>Node2&#45;&gt;Node7</title>
<g id="a_edge30_Node000002_Node000007"><a xlink:title=" ">
<path fill="none" stroke="#63b8ff" d="M411.74,-342.33C421.68,-334.07 435.63,-321.01 444,-306.75 474.56,-254.7 482,-236.73 482,-176.38 482,-176.38 482,-176.38 482,-119.12 482,-86.13 466.16,-50.51 454.93,-29.41"/>
<polygon fill="#63b8ff" stroke="#63b8ff" points="458.1,-27.9 450.18,-20.86 451.98,-31.3 458.1,-27.9"/>
</a>
</g>
</g>
<!-- Node2&#45;&gt;Node8 -->
<g id="edge29_Node000002_Node000008" class="edge">
<title>Node2&#45;&gt;Node8</title>
<g id="a_edge29_Node000002_Node000008"><a xlink:title=" ">
<path fill="none" stroke="#63b8ff" d="M359.29,-342.3C334.05,-335.35 301.82,-323.97 277,-306.75 254.85,-291.38 235.75,-266.52 224.32,-249.65"/>
<polygon fill="#63b8ff" stroke="#63b8ff" points="227.46,-248.06 219.06,-241.6 221.6,-251.88 227.46,-248.06"/>
</a>
</g>
</g>
<!-- Node11 -->
<g id="Node000011" class="node">
<title>Node11</title>
<g id="a_Node000011"><a xlink:href="aliro__uwb__session_8h.html" target="_top" xlink:title="— per&#45;session public interface.">
<polygon fill="white" stroke="#666666" points="434.88,-306.75 319.12,-306.75 319.12,-276.25 434.88,-276.25 434.88,-306.75"/>
<text xml:space="preserve" text-anchor="start" x="327.12" y="-293.25" font-family="Helvetica,sans-Serif" font-size="10.00">aliro_uwb_adapter/aliro</text>
<text xml:space="preserve" text-anchor="middle" x="377" y="-282" font-family="Helvetica,sans-Serif" font-size="10.00">_uwb_session.h</text>
</a>
</g>
</g>
<!-- Node2&#45;&gt;Node11 -->
<g id="edge22_Node000002_Node000011" class="edge">
<title>Node2&#45;&gt;Node11</title>
<g id="a_edge22_Node000002_Node000011"><a xlink:title=" ">
<path fill="none" stroke="#63b8ff" d="M396.51,-342.43C393.93,-335.83 390.28,-326.49 386.84,-317.68"/>
<polygon fill="#63b8ff" stroke="#63b8ff" points="390.13,-316.48 383.23,-308.44 383.61,-319.03 390.13,-316.48"/>
</a>
</g>
</g>
<!-- Node3&#45;&gt;Node4 -->
<g id="edge3_Node000003_Node000004" class="edge">
<title>Node3&#45;&gt;Node4</title>
<g id="a_edge3_Node000003_Node000004"><a xlink:title=" ">
<path fill="none" stroke="#63b8ff" d="M529.95,-275.77C489.01,-244.11 392.96,-169.82 350.64,-137.09"/>
<polygon fill="#63b8ff" stroke="#63b8ff" points="353.03,-134.51 342.98,-131.16 348.75,-140.05 353.03,-134.51"/>
</a>
</g>
</g>
<!-- Node3&#45;&gt;Node7 -->
<g id="edge21_Node000003_Node000007" class="edge">
<title>Node3&#45;&gt;Node7</title>
<g id="a_edge21_Node000003_Node000007"><a xlink:title=" ">
<path fill="none" stroke="#63b8ff" d="M559.43,-275.79C573.28,-254.79 596,-214.52 596,-176.38 596,-176.38 596,-176.38 596,-119.12 596,-62.16 524.4,-32.28 479.48,-19.14"/>
<polygon fill="#63b8ff" stroke="#63b8ff" points="480.45,-15.78 469.88,-16.48 478.59,-22.52 480.45,-15.78"/>
</a>
</g>
</g>
<!-- Node3&#45;&gt;Node8 -->
<g id="edge9_Node000003_Node000008" class="edge">
<title>Node3&#45;&gt;Node8</title>
<g id="a_edge9_Node000003_Node000008"><a xlink:title=" ">
<path fill="none" stroke="#63b8ff" d="M490.86,-280.31C430.74,-269.78 337.19,-253.39 275.51,-242.58"/>
<polygon fill="#63b8ff" stroke="#63b8ff" points="276.33,-239.17 265.87,-240.89 275.12,-246.06 276.33,-239.17"/>
</a>
</g>
</g>
<!-- Node10 -->
<g id="Node000010" class="node">
<title>Node10</title>
<g id="a_Node000010"><a xlink:title=" ">
<polygon fill="#e0e0e0" stroke="#999999" points="561.62,-185 510.38,-185 510.38,-165.75 561.62,-165.75 561.62,-185"/>
<text xml:space="preserve" text-anchor="middle" x="536" y="-171.5" font-family="Helvetica,sans-Serif" font-size="10.00">stddef.h</text>
</a>
</g>
</g>
<!-- Node3&#45;&gt;Node10 -->
<g id="edge20_Node000003_Node000010" class="edge">
<title>Node3&#45;&gt;Node10</title>
<g id="a_edge20_Node000003_Node000010"><a xlink:title=" ">
<path fill="none" stroke="#63b8ff" d="M547.35,-276.05C545.07,-256 540.93,-219.65 538.33,-196.82"/>
<polygon fill="#63b8ff" stroke="#63b8ff" points="541.81,-196.49 537.2,-186.95 534.86,-197.28 541.81,-196.49"/>
</a>
</g>
</g>
<!-- Node5 -->
<g id="Node000005" class="node">
<title>Node5</title>
<g id="a_Node000005"><a xlink:href="cherry__common_8h.html" target="_top" xlink:title="— diagnostics config struct and report forward decl.">
<polygon fill="white" stroke="#666666" points="198,-74.5 104,-74.5 104,-55.25 198,-55.25 198,-74.5"/>
<text xml:space="preserve" text-anchor="middle" x="151" y="-61" font-family="Helvetica,sans-Serif" font-size="10.00">cherry_common.h</text>
</a>
</g>
</g>
<!-- Node4&#45;&gt;Node5 -->
<g id="edge4_Node000004_Node000005" class="edge">
<title>Node4&#45;&gt;Node5</title>
<g id="a_edge4_Node000004_Node000005"><a xlink:title=" ">
<path fill="none" stroke="#63b8ff" d="M299.64,-110.09C270.19,-101.33 225.29,-87.98 192.54,-78.23"/>
<polygon fill="#63b8ff" stroke="#63b8ff" points="193.55,-74.88 182.96,-75.38 191.55,-81.59 193.55,-74.88"/>
</a>
</g>
</g>
<!-- Node6 -->
<g id="Node000006" class="node">
<title>Node6</title>
<g id="a_Node000006"><a xlink:title=" ">
<polygon fill="#e0e0e0" stroke="#999999" points="103.88,-19.25 48.12,-19.25 48.12,0 103.88,0 103.88,-19.25"/>
<text xml:space="preserve" text-anchor="middle" x="76" y="-5.75" font-family="Helvetica,sans-Serif" font-size="10.00">stdbool.h</text>
</a>
</g>
</g>
<!-- Node4&#45;&gt;Node6 -->
<g id="edge7_Node000004_Node000006" class="edge">
<title>Node4&#45;&gt;Node6</title>
<g id="a_edge7_Node000004_Node000006"><a xlink:title=" ">
<path fill="none" stroke="#63b8ff" d="M314.45,-110.08C291.46,-96.93 246.83,-72.26 207,-55.25 176.74,-42.33 141.37,-30.46 115.02,-22.22"/>
<polygon fill="#63b8ff" stroke="#63b8ff" points="116.35,-18.97 105.76,-19.36 114.28,-25.66 116.35,-18.97"/>
</a>
</g>
</g>
<!-- Node4&#45;&gt;Node7 -->
<g id="edge8_Node000004_Node000007" class="edge">
<title>Node4&#45;&gt;Node7</title>
<g id="a_edge8_Node000004_Node000007"><a xlink:title=" ">
<path fill="none" stroke="#63b8ff" d="M338.18,-110.2C349.81,-97.62 371.96,-74.1 392,-55.25 402.38,-45.49 414.42,-35.1 424.3,-26.8"/>
<polygon fill="#63b8ff" stroke="#63b8ff" points="426.38,-29.63 431.83,-20.54 421.9,-24.25 426.38,-29.63"/>
</a>
</g>
</g>
<!-- Node5&#45;&gt;Node6 -->
<g id="edge5_Node000005_Node000006" class="edge">
<title>Node5&#45;&gt;Node6</title>
<g id="a_edge5_Node000005_Node000006"><a xlink:title=" ">
<path fill="none" stroke="#63b8ff" d="M138.28,-54.84C127.29,-47.04 111.16,-35.59 98.07,-26.29"/>
<polygon fill="#63b8ff" stroke="#63b8ff" points="100.2,-23.51 90.02,-20.58 96.15,-29.22 100.2,-23.51"/>
</a>
</g>
</g>
<!-- Node5&#45;&gt;Node7 -->
<g id="edge6_Node000005_Node000007" class="edge">
<title>Node5&#45;&gt;Node7</title>
<g id="a_edge6_Node000005_Node000007"><a xlink:title=" ">
<path fill="none" stroke="#63b8ff" d="M198.4,-55.26C257.13,-44.59 355.84,-26.65 408.46,-17.08"/>
<polygon fill="#63b8ff" stroke="#63b8ff" points="408.87,-20.57 418.08,-15.34 407.62,-13.68 408.87,-20.57"/>
</a>
</g>
</g>
<!-- Node8&#45;&gt;Node4 -->
<g id="edge10_Node000008_Node000004" class="edge">
<title>Node8&#45;&gt;Node4</title>
<g id="a_edge10_Node000008_Node000004"><a xlink:title=" ">
<path fill="none" stroke="#63b8ff" d="M221.65,-220.75C233.94,-208.24 257.26,-184.8 278,-165.75 288.49,-156.11 300.54,-145.73 310.4,-137.41"/>
<polygon fill="#63b8ff" stroke="#63b8ff" points="312.49,-140.23 317.9,-131.12 307.99,-134.86 312.49,-140.23"/>
</a>
</g>
</g>
<!-- Node8&#45;&gt;Node5 -->
<g id="edge11_Node000008_Node000005" class="edge">
<title>Node8&#45;&gt;Node5</title>
<g id="a_edge11_Node000008_Node000005"><a xlink:title=" ">
<path fill="none" stroke="#63b8ff" d="M161.38,-223.15C137.62,-217.3 111.54,-206.17 97,-185 73.99,-151.49 109.57,-106.6 133.04,-82.62"/>
<polygon fill="#63b8ff" stroke="#63b8ff" points="135.25,-85.36 139.94,-75.86 130.35,-80.37 135.25,-85.36"/>
</a>
</g>
</g>
<!-- Node8&#45;&gt;Node6 -->
<g id="edge17_Node000008_Node000006" class="edge">
<title>Node8&#45;&gt;Node6</title>
<g id="a_edge17_Node000008_Node000006"><a xlink:title=" ">
<path fill="none" stroke="#63b8ff" d="M161.39,-224.93C134.5,-219.62 103.63,-208.44 86,-185 51.41,-139.04 62.59,-65.44 70.71,-30.4"/>
<polygon fill="#63b8ff" stroke="#63b8ff" points="74.07,-31.38 73.1,-20.83 67.28,-29.68 74.07,-31.38"/>
</a>
</g>
</g>
<!-- Node8&#45;&gt;Node7 -->
<g id="edge19_Node000008_Node000007" class="edge">
<title>Node8&#45;&gt;Node7</title>
<g id="a_edge19_Node000008_Node000007"><a xlink:title=" ">
<path fill="none" stroke="#63b8ff" d="M235.69,-220.61C270.24,-205.95 336.52,-174.06 379,-129.75 407.43,-100.09 427.29,-55.56 437.06,-30.19"/>
<polygon fill="#63b8ff" stroke="#63b8ff" points="440.23,-31.72 440.41,-21.12 433.66,-29.29 440.23,-31.72"/>
</a>
</g>
</g>
<!-- Node9 -->
<g id="Node000009" class="node">
<title>Node9</title>
<g id="a_Node000009"><a xlink:href="cherry__session_8h.html" target="_top" xlink:title="— generic base&#45;session interface.">
<polygon fill="white" stroke="#666666" points="226.12,-185 105.88,-185 105.88,-165.75 226.12,-165.75 226.12,-185"/>
<text xml:space="preserve" text-anchor="middle" x="166" y="-171.5" font-family="Helvetica,sans-Serif" font-size="10.00">cherry/cherry_session.h</text>
</a>
</g>
</g>
<!-- Node8&#45;&gt;Node9 -->
<g id="edge12_Node000008_Node000009" class="edge">
<title>Node8&#45;&gt;Node9</title>
<g id="a_edge12_Node000008_Node000009"><a xlink:title=" ">
<path fill="none" stroke="#63b8ff" d="M205.24,-220.83C198.81,-213.55 189.49,-202.98 181.54,-193.98"/>
<polygon fill="#63b8ff" stroke="#63b8ff" points="184.17,-191.68 174.93,-186.49 178.92,-196.31 184.17,-191.68"/>
</a>
</g>
</g>
<!-- Node8&#45;&gt;Node10 -->
<g id="edge18_Node000008_Node000010" class="edge">
<title>Node8&#45;&gt;Node10</title>
<g id="a_edge18_Node000008_Node000010"><a xlink:title=" ">
<path fill="none" stroke="#63b8ff" d="M264.54,-221.13C330.02,-210.33 441.44,-191.96 499.06,-182.47"/>
<polygon fill="#63b8ff" stroke="#63b8ff" points="499.38,-185.96 508.67,-180.88 498.24,-179.05 499.38,-185.96"/>
</a>
</g>
</g>
<!-- Node9&#45;&gt;Node4 -->
<g id="edge13_Node000009_Node000004" class="edge">
<title>Node9&#45;&gt;Node4</title>
<g id="a_edge13_Node000009_Node000004"><a xlink:title=" ">
<path fill="none" stroke="#63b8ff" d="M193.82,-165.34C220.56,-156.66 261.22,-143.46 291.15,-133.74"/>
<polygon fill="#63b8ff" stroke="#63b8ff" points="292.17,-137.09 300.6,-130.67 290.01,-130.43 292.17,-137.09"/>
</a>
</g>
</g>
<!-- Node9&#45;&gt;Node5 -->
<g id="edge14_Node000009_Node000005" class="edge">
<title>Node9&#45;&gt;Node5</title>
<g id="a_edge14_Node000009_Node000005"><a xlink:title=" ">
<path fill="none" stroke="#63b8ff" d="M164.77,-165.5C162.39,-148.25 157.08,-109.83 153.79,-86.06"/>
<polygon fill="#63b8ff" stroke="#63b8ff" points="157.29,-85.8 152.45,-76.38 150.35,-86.76 157.29,-85.8"/>
</a>
</g>
</g>
<!-- Node9&#45;&gt;Node6 -->
<g id="edge15_Node000009_Node000006" class="edge">
<title>Node9&#45;&gt;Node6</title>
<g id="a_edge15_Node000009_Node000006"><a xlink:title=" ">
<path fill="none" stroke="#63b8ff" d="M158.04,-165.39C143.56,-148.64 112.8,-111.03 95,-74.5 88.16,-60.47 83.25,-43.49 80.14,-30.57"/>
<polygon fill="#63b8ff" stroke="#63b8ff" points="83.63,-30.12 78.03,-21.12 76.8,-31.64 83.63,-30.12"/>
</a>
</g>
</g>
<!-- Node9&#45;&gt;Node7 -->
<g id="edge16_Node000009_Node000007" class="edge">
<title>Node9&#45;&gt;Node7</title>
<g id="a_edge16_Node000009_Node000007"><a xlink:title=" ">
<path fill="none" stroke="#63b8ff" d="M181.34,-165.34C227,-138.44 362.35,-58.72 418.82,-25.46"/>
<polygon fill="#63b8ff" stroke="#63b8ff" points="420.56,-28.49 427.4,-20.4 417.01,-22.46 420.56,-28.49"/>
</a>
</g>
</g>
<!-- Node11&#45;&gt;Node4 -->
<g id="edge23_Node000011_Node000004" class="edge">
<title>Node11&#45;&gt;Node4</title>
<g id="a_edge23_Node000011_Node000004"><a xlink:title=" ">
<path fill="none" stroke="#63b8ff" d="M369.23,-275.91C364.27,-266.07 358.03,-252.66 354,-240.25 342.95,-206.23 336.01,-165.03 332.58,-141.07"/>
<polygon fill="#63b8ff" stroke="#63b8ff" points="336.09,-140.91 331.28,-131.47 329.16,-141.85 336.09,-140.91"/>
</a>
</g>
</g>
<!-- Node11&#45;&gt;Node6 -->
<g id="edge25_Node000011_Node000006" class="edge">
<title>Node11&#45;&gt;Node6</title>
<g id="a_edge25_Node000011_Node000006"><a xlink:title=" ">
<path fill="none" stroke="#63b8ff" d="M318.92,-285.07C213.17,-273.56 0,-242.2 0,-176.38 0,-176.38 0,-176.38 0,-119.12 0,-80.52 32.68,-45.89 55.18,-26.62"/>
<polygon fill="#63b8ff" stroke="#63b8ff" points="57.11,-29.57 62.62,-20.52 52.67,-24.16 57.11,-29.57"/>
</a>
</g>
</g>
<!-- Node11&#45;&gt;Node7 -->
<g id="edge27_Node000011_Node000007" class="edge">
<title>Node11&#45;&gt;Node7</title>
<g id="a_edge27_Node000011_Node000007"><a xlink:title=" ">
<path fill="none" stroke="#63b8ff" d="M380.72,-275.86C389.56,-241.04 412.36,-150.48 430,-74.5 433.39,-59.9 437.01,-43.38 439.71,-30.79"/>
<polygon fill="#63b8ff" stroke="#63b8ff" points="443.09,-31.73 441.76,-21.22 436.25,-30.27 443.09,-31.73"/>
</a>
</g>
</g>
<!-- Node11&#45;&gt;Node8 -->
<g id="edge24_Node000011_Node000008" class="edge">
<title>Node11&#45;&gt;Node8</title>
<g id="a_edge24_Node000011_Node000008"><a xlink:title=" ">
<path fill="none" stroke="#63b8ff" d="M336.04,-275.8C309.26,-266.18 274.62,-253.75 248.92,-244.52"/>
<polygon fill="#63b8ff" stroke="#63b8ff" points="250.17,-241.25 239.58,-241.17 247.8,-247.84 250.17,-241.25"/>
</a>
</g>
</g>
<!-- Node11&#45;&gt;Node10 -->
<g id="edge26_Node000011_Node000010" class="edge">
<title>Node11&#45;&gt;Node10</title>
<g id="a_edge26_Node000011_Node000010"><a xlink:title=" ">
<path fill="none" stroke="#63b8ff" d="M397.46,-275.81C427.58,-254.19 483.61,-213.98 514.38,-191.89"/>
<polygon fill="#63b8ff" stroke="#63b8ff" points="516.11,-194.96 522.19,-186.29 512.02,-189.28 516.11,-194.96"/>
</a>
</g>
</g>
<!-- Node12&#45;&gt;Node7 -->
<g id="edge35_Node000012_Node000007" class="edge">
<title>Node12&#45;&gt;Node7</title>
<g id="a_edge35_Node000012_Node000007"><a xlink:title=" ">
<path fill="none" stroke="#63b8ff" d="M667.37,-281.55C675.91,-271.98 689,-256.06 697,-240.25 710.37,-213.82 716,-205.99 716,-176.38 716,-176.38 716,-176.38 716,-119.12 716,-72.22 674.4,-75.29 632,-55.25 582.12,-31.67 518.72,-19.97 479.77,-14.62"/>
<polygon fill="#63b8ff" stroke="#63b8ff" points="480.38,-11.16 470.01,-13.35 479.48,-18.11 480.38,-11.16"/>
</a>
</g>
</g>
<!-- Node12&#45;&gt;Node10 -->
<g id="edge34_Node000012_Node000010" class="edge">
<title>Node12&#45;&gt;Node10</title>
<g id="a_edge34_Node000012_Node000010"><a xlink:title=" ">
<path fill="none" stroke="#63b8ff" d="M649.35,-281.54C628.78,-262.46 580.36,-217.53 553.95,-193.03"/>
<polygon fill="#63b8ff" stroke="#63b8ff" points="556.43,-190.55 546.72,-186.32 551.67,-195.69 556.43,-190.55"/>
</a>
</g>
</g>
<!-- Node13 -->
<g id="Node000013" class="node">
<title>Node13</title>
<g id="a_Node000013"><a xlink:href="woz__port_8h_source.html" target="_top" xlink:title=" ">
<polygon fill="white" stroke="#666666" points="688,-240.25 624,-240.25 624,-221 688,-221 688,-240.25"/>
<text xml:space="preserve" text-anchor="middle" x="656" y="-226.75" font-family="Helvetica,sans-Serif" font-size="10.00">woz_port.h</text>
</a>
</g>
</g>
<!-- Node12&#45;&gt;Node13 -->
<g id="edge36_Node000012_Node000013" class="edge">
<title>Node12&#45;&gt;Node13</title>
<g id="a_edge36_Node000012_Node000013"><a xlink:title=" ">
<path fill="none" stroke="#63b8ff" d="M658.54,-281.56C658.14,-273.69 657.55,-261.95 657.03,-251.82"/>
<polygon fill="#63b8ff" stroke="#63b8ff" points="660.54,-251.97 656.54,-242.16 653.55,-252.33 660.54,-251.97"/>
</a>
</g>
</g>
<!-- Node13&#45;&gt;Node7 -->
<g id="edge38_Node000013_Node000007" class="edge">
<title>Node13&#45;&gt;Node7</title>
<g id="a_edge38_Node000013_Node000007"><a xlink:title=" ">
<path fill="none" stroke="#63b8ff" d="M656.52,-220.52C657.65,-191.84 657.05,-102.52 610,-55.25 575.62,-20.7 517.54,-12.07 480,-10.35"/>
<polygon fill="#63b8ff" stroke="#63b8ff" points="480.2,-6.86 470.1,-10.06 479.99,-13.86 480.2,-6.86"/>
</a>
</g>
</g>
<!-- Node13&#45;&gt;Node10 -->
<g id="edge37_Node000013_Node000010" class="edge">
<title>Node13&#45;&gt;Node10</title>
<g id="a_edge37_Node000013_Node000010"><a xlink:title=" ">
<path fill="none" stroke="#63b8ff" d="M635.64,-220.59C616.77,-212.22 588.41,-199.63 566.77,-190.03"/>
<polygon fill="#63b8ff" stroke="#63b8ff" points="568.4,-186.92 557.84,-186.07 565.56,-193.32 568.4,-186.92"/>
</a>
</g>
</g>
</g>
</svg>
