<?xml version="1.0" encoding="UTF-8" standalone="no"?>
<!DOCTYPE svg PUBLIC "-//W3C//DTD SVG 1.1//EN"
 "http://www.w3.org/Graphics/SVG/1.1/DTD/svg11.dtd">
<!-- Generated by graphviz version 15.0.0 (20260523.1842)
 -->
<!-- Title: modules/woz_uwb/src/aliro/include/aliro_uwb_adapter/aliro_uwb_session.h Pages: 1 -->
<svg width="445pt" height="337pt"
 viewBox="0.00 0.00 445.00 337.00" xmlns="http://www.w3.org/2000/svg" xmlns:xlink="http://www.w3.org/1999/xlink">

<svg id="main" version="1.1" xmlns="http://www.w3.org/2000/svg" xmlns:xlink="http://www.w3.org/1999/xlink" xml:space="preserve">

<style type="text/css"><![CDATA[
.node, .edge {opacity: 0.7;}
.node.selected, .edge.selected {opacity: 1;}
.edge:hover path { stroke: red; }
.edge:hover polygon { stroke: red; fill: red; }
]]></style>
<script type="application/ecmascript" xlink:href="svg.min.js"/>
<svg id="graph" class="graph">
<g id="graph0" class="graph" transform="scale(1 1) rotate(0) translate(4 333.25)">
<title>modules/woz_uwb/src/aliro/include/aliro_uwb_adapter/aliro_uwb_session.h</title>
<!-- Node1 -->
<g id="Node000001" class="node">
<title>Node1</title>
<g id="a_Node000001"><a xlink:title="— per&#45;session public interface.">
<polygon fill="#999999" stroke="#666666" points="405.5,-329.25 284.5,-329.25 284.5,-276.25 405.5,-276.25 405.5,-329.25"/>
<text xml:space="preserve" text-anchor="start" x="292.5" y="-315.75" font-family="Helvetica,sans-Serif" font-size="10.00">modules/woz_uwb/src</text>
<text xml:space="preserve" text-anchor="start" x="292.5" y="-304.5" font-family="Helvetica,sans-Serif" font-size="10.00">/aliro/include/aliro</text>
<text xml:space="preserve" text-anchor="start" x="292.5" y="-293.25" font-family="Helvetica,sans-Serif" font-size="10.00">_uwb_adapter/aliro_uwb</text>
<text xml:space="preserve" text-anchor="middle" x="345" y="-282" font-family="Helvetica,sans-Serif" font-size="10.00">_session.h</text>
</a>
</g>
</g>
<!-- Node2 -->
<g id="Node000002" class="node">
<title>Node2</title>
<g id="a_Node000002"><a xlink:href="cherry_8h.html" target="_top" xlink:title="— Cherry core (context + device&#45;capabilities) interface.">
<polygon fill="white" stroke="#666666" points="311.88,-129.75 232.12,-129.75 232.12,-110.5 311.88,-110.5 311.88,-129.75"/>
<text xml:space="preserve" text-anchor="middle" x="272" y="-116.25" font-family="Helvetica,sans-Serif" font-size="10.00">cherry/cherry.h</text>
</a>
</g>
</g>
<!-- Node1&#45;&gt;Node2 -->
<g id="edge1_Node000001_Node000002" class="edge">
<title>Node1&#45;&gt;Node2</title>
<g id="a_edge1_Node000001_Node000002"><a xlink:title=" ">
<path fill="none" stroke="#63b8ff" d="M363.12,-275.88C380.97,-246.87 402.57,-199.49 380,-165.75 367.18,-146.58 344.45,-135.63 323.13,-129.39"/>
<polygon fill="#63b8ff" stroke="#63b8ff" points="324.2,-126.05 313.64,-126.92 322.44,-132.83 324.2,-126.05"/>
</a>
</g>
</g>
<!-- Node4 -->
<g id="Node000004" class="node">
<title>Node4</title>
<g id="a_Node000004"><a xlink:title=" ">
<polygon fill="#e0e0e0" stroke="#999999" points="103.88,-19.25 48.12,-19.25 48.12,0 103.88,0 103.88,-19.25"/>
<text xml:space="preserve" text-anchor="middle" x="76" y="-5.75" font-family="Helvetica,sans-Serif" font-size="10.00">stdbool.h</text>
</a>
</g>
</g>
<!-- Node1&#45;&gt;Node4 -->
<g id="edge18_Node000001_Node000004" class="edge">
<title>Node1&#45;&gt;Node4</title>
<g id="a_edge18_Node000001_Node000004"><a xlink:title=" ">
<path fill="none" stroke="#63b8ff" d="M284.12,-292.46C185.07,-275.6 0,-236.12 0,-176.38 0,-176.38 0,-176.38 0,-119.12 0,-80.52 32.68,-45.89 55.18,-26.62"/>
<polygon fill="#63b8ff" stroke="#63b8ff" points="57.11,-29.57 62.62,-20.52 52.67,-24.16 57.11,-29.57"/>
</a>
</g>
</g>
<!-- Node5 -->
<g id="Node000005" class="node">
<title>Node5</title>
<g id="a_Node000005"><a xlink:title=" ">
<polygon fill="#e0e0e0" stroke="#999999" points="326.12,-19.25 277.88,-19.25 277.88,0 326.12,0 326.12,-19.25"/>
<text xml:space="preserve" text-anchor="middle" x="302" y="-5.75" font-family="Helvetica,sans-Serif" font-size="10.00">stdint.h</text>
</a>
</g>
</g>
<!-- Node1&#45;&gt;Node5 -->
<g id="edge20_Node000001_Node000005" class="edge">
<title>Node1&#45;&gt;Node5</title>
<g id="a_edge20_Node000001_Node000005"><a xlink:title=" ">
<path fill="none" stroke="#63b8ff" d="M379.26,-275.89C405.41,-252.96 437,-216.87 437,-176.38 437,-176.38 437,-176.38 437,-119.12 437,-67.87 377.14,-36.76 337.14,-21.7"/>
<polygon fill="#63b8ff" stroke="#63b8ff" points="338.47,-18.46 327.87,-18.38 336.11,-25.05 338.47,-18.46"/>
</a>
</g>
</g>
<!-- Node6 -->
<g id="Node000006" class="node">
<title>Node6</title>
<g id="a_Node000006"><a xlink:href="cherry__ccc_8h.html" target="_top" xlink:title="— CCC/Aliro&#45;session interface (seam the adapter drives).">
<polygon fill="white" stroke="#666666" points="304.12,-240.25 201.88,-240.25 201.88,-221 304.12,-221 304.12,-240.25"/>
<text xml:space="preserve" text-anchor="middle" x="253" y="-226.75" font-family="Helvetica,sans-Serif" font-size="10.00">cherry/cherry_ccc.h</text>
</a>
</g>
</g>
<!-- Node1&#45;&gt;Node6 -->
<g id="edge7_Node000001_Node000006" class="edge">
<title>Node1&#45;&gt;Node6</title>
<g id="a_edge7_Node000001_Node000006"><a xlink:title=" ">
<path fill="none" stroke="#63b8ff" d="M311,-275.84C298.49,-266.3 284.71,-255.8 273.72,-247.42"/>
<polygon fill="#63b8ff" stroke="#63b8ff" points="276.16,-244.88 266.09,-241.6 271.92,-250.44 276.16,-244.88"/>
</a>
</g>
</g>
<!-- Node8 -->
<g id="Node000008" class="node">
<title>Node8</title>
<g id="a_Node000008"><a xlink:title=" ">
<polygon fill="#e0e0e0" stroke="#999999" points="370.62,-185 319.38,-185 319.38,-165.75 370.62,-165.75 370.62,-185"/>
<text xml:space="preserve" text-anchor="middle" x="345" y="-171.5" font-family="Helvetica,sans-Serif" font-size="10.00">stddef.h</text>
</a>
</g>
</g>
<!-- Node1&#45;&gt;Node8 -->
<g id="edge19_Node000001_Node000008" class="edge">
<title>Node1&#45;&gt;Node8</title>
<g id="a_edge19_Node000001_Node000008"><a xlink:title=" ">
<path fill="none" stroke="#63b8ff" d="M345,-275.77C345,-252.26 345,-218.11 345,-196.58"/>
<polygon fill="#63b8ff" stroke="#63b8ff" points="348.5,-196.79 345,-186.79 341.5,-196.79 348.5,-196.79"/>
</a>
</g>
</g>
<!-- Node3 -->
<g id="Node000003" class="node">
<title>Node3</title>
<g id="a_Node000003"><a xlink:href="cherry__common_8h.html" target="_top" xlink:title="— diagnostics config struct and report forward decl.">
<polygon fill="white" stroke="#666666" points="198,-74.5 104,-74.5 104,-55.25 198,-55.25 198,-74.5"/>
<text xml:space="preserve" text-anchor="middle" x="151" y="-61" font-family="Helvetica,sans-Serif" font-size="10.00">cherry_common.h</text>
</a>
</g>
</g>
<!-- Node2&#45;&gt;Node3 -->
<g id="edge2_Node000002_Node000003" class="edge">
<title>Node2&#45;&gt;Node3</title>
<g id="a_edge2_Node000002_Node000003"><a xlink:title=" ">
<path fill="none" stroke="#63b8ff" d="M251.47,-110.09C232.44,-101.72 203.85,-89.13 182.03,-79.53"/>
<polygon fill="#63b8ff" stroke="#63b8ff" points="183.57,-76.39 173.01,-75.56 180.76,-82.79 183.57,-76.39"/>
</a>
</g>
</g>
<!-- Node2&#45;&gt;Node4 -->
<g id="edge5_Node000002_Node000004" class="edge">
<title>Node2&#45;&gt;Node4</title>
<g id="a_edge5_Node000002_Node000004"><a xlink:title=" ">
<path fill="none" stroke="#63b8ff" d="M265.35,-110.43C254.52,-96.84 231.78,-70.53 207,-55.25 178.55,-37.71 142.33,-26.05 115.19,-19.07"/>
<polygon fill="#63b8ff" stroke="#63b8ff" points="116.18,-15.71 105.63,-16.72 114.51,-22.5 116.18,-15.71"/>
</a>
</g>
</g>
<!-- Node2&#45;&gt;Node5 -->
<g id="edge6_Node000002_Node000005" class="edge">
<title>Node2&#45;&gt;Node5</title>
<g id="a_edge6_Node000002_Node000005"><a xlink:title=" ">
<path fill="none" stroke="#63b8ff" d="M274.46,-110.25C279.25,-92.92 289.94,-54.23 296.51,-30.49"/>
<polygon fill="#63b8ff" stroke="#63b8ff" points="299.82,-31.66 299.11,-21.09 293.07,-29.79 299.82,-31.66"/>
</a>
</g>
</g>
<!-- Node3&#45;&gt;Node4 -->
<g id="edge3_Node000003_Node000004" class="edge">
<title>Node3&#45;&gt;Node4</title>
<g id="a_edge3_Node000003_Node000004"><a xlink:title=" ">
<path fill="none" stroke="#63b8ff" d="M138.28,-54.84C127.29,-47.04 111.16,-35.59 98.07,-26.29"/>
<polygon fill="#63b8ff" stroke="#63b8ff" points="100.2,-23.51 90.02,-20.58 96.15,-29.22 100.2,-23.51"/>
</a>
</g>
</g>
<!-- Node3&#45;&gt;Node5 -->
<g id="edge4_Node000003_Node000005" class="edge">
<title>Node3&#45;&gt;Node5</title>
<g id="a_edge4_Node000003_Node000005"><a xlink:title=" ">
<path fill="none" stroke="#63b8ff" d="M176.62,-54.84C201.39,-46.11 239.13,-32.79 266.74,-23.06"/>
<polygon fill="#63b8ff" stroke="#63b8ff" points="267.82,-26.39 276.08,-19.76 265.49,-19.79 267.82,-26.39"/>
</a>
</g>
</g>
<!-- Node6&#45;&gt;Node2 -->
<g id="edge8_Node000006_Node000002" class="edge">
<title>Node6&#45;&gt;Node2</title>
<g id="a_edge8_Node000006_Node000002"><a xlink:title=" ">
<path fill="none" stroke="#63b8ff" d="M254.55,-220.75C257.57,-203.5 264.3,-165.08 268.46,-141.31"/>
<polygon fill="#63b8ff" stroke="#63b8ff" points="271.89,-142.07 270.16,-131.62 264.99,-140.86 271.89,-142.07"/>
</a>
</g>
</g>
<!-- Node6&#45;&gt;Node3 -->
<g id="edge9_Node000006_Node000003" class="edge">
<title>Node6&#45;&gt;Node3</title>
<g id="a_edge9_Node000006_Node000003"><a xlink:title=" ">
<path fill="none" stroke="#63b8ff" d="M201.53,-221.8C160.85,-214.45 108.85,-202.01 96,-185 71.42,-152.46 108.11,-107.18 132.4,-82.89"/>
<polygon fill="#63b8ff" stroke="#63b8ff" points="134.78,-85.45 139.56,-76 129.93,-80.41 134.78,-85.45"/>
</a>
</g>
</g>
<!-- Node6&#45;&gt;Node4 -->
<g id="edge15_Node000006_Node000004" class="edge">
<title>Node6&#45;&gt;Node4</title>
<g id="a_edge15_Node000006_Node000004"><a xlink:title=" ">
<path fill="none" stroke="#63b8ff" d="M201.74,-222.81C157.61,-215.8 98.77,-203.3 84,-185 47.73,-140.07 61.02,-65.43 70.19,-30.19"/>
<polygon fill="#63b8ff" stroke="#63b8ff" points="73.45,-31.51 72.76,-20.94 66.71,-29.63 73.45,-31.51"/>
</a>
</g>
</g>
<!-- Node6&#45;&gt;Node5 -->
<g id="edge17_Node000006_Node000005" class="edge">
<title>Node6&#45;&gt;Node5</title>
<g id="a_edge17_Node000006_Node000005"><a xlink:title=" ">
<path fill="none" stroke="#63b8ff" d="M261.89,-220.73C277.49,-204.41 309.26,-167.84 321,-129.75 331.55,-95.51 319.51,-53.83 310.37,-29.94"/>
<polygon fill="#63b8ff" stroke="#63b8ff" points="313.69,-28.83 306.67,-20.89 307.21,-31.47 313.69,-28.83"/>
</a>
</g>
</g>
<!-- Node7 -->
<g id="Node000007" class="node">
<title>Node7</title>
<g id="a_Node000007"><a xlink:href="cherry__session_8h.html" target="_top" xlink:title="— generic base&#45;session interface.">
<polygon fill="white" stroke="#666666" points="225.12,-185 104.88,-185 104.88,-165.75 225.12,-165.75 225.12,-185"/>
<text xml:space="preserve" text-anchor="middle" x="165" y="-171.5" font-family="Helvetica,sans-Serif" font-size="10.00">cherry/cherry_session.h</text>
</a>
</g>
</g>
<!-- Node6&#45;&gt;Node7 -->
<g id="edge10_Node000006_Node000007" class="edge">
<title>Node6&#45;&gt;Node7</title>
<g id="a_edge10_Node000006_Node000007"><a xlink:title=" ">
<path fill="none" stroke="#63b8ff" d="M238.07,-220.59C224.8,-212.56 205.13,-200.66 189.55,-191.23"/>
<polygon fill="#63b8ff" stroke="#63b8ff" points="191.66,-188.42 181.3,-186.24 188.04,-194.41 191.66,-188.42"/>
</a>
</g>
</g>
<!-- Node6&#45;&gt;Node8 -->
<g id="edge16_Node000006_Node000008" class="edge">
<title>Node6&#45;&gt;Node8</title>
<g id="a_edge16_Node000006_Node000008"><a xlink:title=" ">
<path fill="none" stroke="#63b8ff" d="M268.61,-220.59C282.62,-212.48 303.43,-200.43 319.8,-190.96"/>
<polygon fill="#63b8ff" stroke="#63b8ff" points="321.11,-194.25 328.01,-186.21 317.6,-188.19 321.11,-194.25"/>
</a>
</g>
</g>
<!-- Node7&#45;&gt;Node2 -->
<g id="edge11_Node000007_Node000002" class="edge">
<title>Node7&#45;&gt;Node2</title>
<g id="a_edge11_Node000007_Node000002"><a xlink:title=" ">
<path fill="none" stroke="#63b8ff" d="M183.15,-165.34C199.68,-157.12 224.34,-144.84 243.5,-135.31"/>
<polygon fill="#63b8ff" stroke="#63b8ff" points="245.01,-138.47 252.4,-130.88 241.89,-132.2 245.01,-138.47"/>
</a>
</g>
</g>
<!-- Node7&#45;&gt;Node3 -->
<g id="edge12_Node000007_Node000003" class="edge">
<title>Node7&#45;&gt;Node3</title>
<g id="a_edge12_Node000007_Node000003"><a xlink:title=" ">
<path fill="none" stroke="#63b8ff" d="M163.85,-165.5C161.63,-148.25 156.67,-109.83 153.61,-86.06"/>
<polygon fill="#63b8ff" stroke="#63b8ff" points="157.11,-85.85 152.36,-76.38 150.16,-86.74 157.11,-85.85"/>
</a>
</g>
</g>
<!-- Node7&#45;&gt;Node4 -->
<g id="edge13_Node000007_Node000004" class="edge">
<title>Node7&#45;&gt;Node4</title>
<g id="a_edge13_Node000007_Node000004"><a xlink:title=" ">
<path fill="none" stroke="#63b8ff" d="M157.16,-165.37C142.9,-148.59 112.6,-110.91 95,-74.5 88.21,-60.45 83.3,-43.47 80.17,-30.55"/>
<polygon fill="#63b8ff" stroke="#63b8ff" points="83.66,-30.1 78.05,-21.11 76.83,-31.64 83.66,-30.1"/>
</a>
</g>
</g>
<!-- Node7&#45;&gt;Node5 -->
<g id="edge14_Node000007_Node000005" class="edge">
<title>Node7&#45;&gt;Node5</title>
<g id="a_edge14_Node000007_Node000005"><a xlink:title=" ">
<path fill="none" stroke="#63b8ff" d="M172.37,-165.57C194.11,-139.58 258.31,-62.84 287.39,-28.09"/>
<polygon fill="#63b8ff" stroke="#63b8ff" points="289.89,-30.55 293.63,-20.63 284.53,-26.06 289.89,-30.55"/>
</a>
</g>
</g>
</g>
</svg>
</svg>

<style type='text/css'>
<![CDATA[
[data-mouse-over-selected='false'] { opacity: 0.7; }
[data-mouse-over-selected='true']  { opacity: 1.0; }
]]>
</style>
<script type="application/ecmascript"><![CDATA[
document.addEventListener('DOMContentLoaded', (event) => {
  highlightEdges();
  highlightAdjacentNodes();
});
]]></script>
</svg>
