<?xml version="1.0" encoding="UTF-8" standalone="no"?>
<!DOCTYPE svg PUBLIC "-//W3C//DTD SVG 1.1//EN"
 "http://www.w3.org/Graphics/SVG/1.1/DTD/svg11.dtd">
<!-- Generated by graphviz version 15.0.0 (20260523.1842)
 -->
<!-- Title: modules/woz_uwb/src/shell/aliro_shell.c Pages: 1 -->
<svg width="686pt" height="204pt"
 viewBox="0.00 0.00 686.00 204.00" xmlns="http://www.w3.org/2000/svg" xmlns:xlink="http://www.w3.org/1999/xlink">
<g id="graph0" class="graph" transform="scale(1 1) rotate(0) translate(4 200.25)">
<title>modules/woz_uwb/src/shell/aliro_shell.c</title>
<!-- Node1 -->
<g id="Node000001" class="node">
<title>Node1</title>
<g id="a_Node000001"><a xlink:title="— `aliro` UART shell command: colored console over the UWB engine.">
<polygon fill="#999999" stroke="#666666" points="406.38,-196.25 292.88,-196.25 292.88,-165.75 406.38,-165.75 406.38,-196.25"/>
<text xml:space="preserve" text-anchor="start" x="300.88" y="-182.75" font-family="Helvetica,sans-Serif" font-size="10.00">modules/woz_uwb/src</text>
<text xml:space="preserve" text-anchor="middle" x="349.62" y="-171.5" font-family="Helvetica,sans-Serif" font-size="10.00">/shell/aliro_shell.c</text>
</a>
</g>
</g>
<!-- Node2 -->
<g id="Node000002" class="node">
<title>Node2</title>
<g id="a_Node000002"><a xlink:title=" ">
<polygon fill="#e0e0e0" stroke="#999999" points="228.75,-19.25 180.5,-19.25 180.5,0 228.75,0 228.75,-19.25"/>
<text xml:space="preserve" text-anchor="middle" x="204.62" y="-5.75" font-family="Helvetica,sans-Serif" font-size="10.00">stdint.h</text>
</a>
</g>
</g>
<!-- Node1&#45;&gt;Node2 -->
<g id="edge1_Node000001_Node000002" class="edge">
<title>Node1&#45;&gt;Node2</title>
<g id="a_edge1_Node000001_Node000002"><a xlink:title=" ">
<path fill="none" stroke="#63b8ff" d="M358,-165.32C365.17,-150.65 372.97,-127.83 363.62,-110.5 337.86,-62.71 278.31,-34.83 239.85,-21.18"/>
<polygon fill="#63b8ff" stroke="#63b8ff" points="241.16,-17.93 230.57,-18.03 238.91,-24.56 241.16,-17.93"/>
</a>
</g>
</g>
<!-- Node3 -->
<g id="Node000003" class="node">
<title>Node3</title>
<g id="a_Node000003"><a xlink:title=" ">
<polygon fill="#e0e0e0" stroke="#999999" points="458.75,-129.75 410.5,-129.75 410.5,-110.5 458.75,-110.5 458.75,-129.75"/>
<text xml:space="preserve" text-anchor="middle" x="434.62" y="-116.25" font-family="Helvetica,sans-Serif" font-size="10.00">string.h</text>
</a>
</g>
</g>
<!-- Node1&#45;&gt;Node3 -->
<g id="edge2_Node000001_Node000003" class="edge">
<title>Node1&#45;&gt;Node3</title>
<g id="a_edge2_Node000001_Node000003"><a xlink:title=" ">
<path fill="none" stroke="#63b8ff" d="M370.64,-165.45C383.33,-156.65 399.49,-145.46 412.4,-136.52"/>
<polygon fill="#63b8ff" stroke="#63b8ff" points="414.05,-139.63 420.28,-131.06 410.06,-133.88 414.05,-139.63"/>
</a>
</g>
</g>
<!-- Node4 -->
<g id="Node000004" class="node">
<title>Node4</title>
<g id="a_Node000004"><a xlink:title=" ">
<polygon fill="#e0e0e0" stroke="#999999" points="560,-129.75 477.25,-129.75 477.25,-110.5 560,-110.5 560,-129.75"/>
<text xml:space="preserve" text-anchor="middle" x="518.62" y="-116.25" font-family="Helvetica,sans-Serif" font-size="10.00">zephyr/kernel.h</text>
</a>
</g>
</g>
<!-- Node1&#45;&gt;Node4 -->
<g id="edge3_Node000001_Node000004" class="edge">
<title>Node1&#45;&gt;Node4</title>
<g id="a_edge3_Node000001_Node000004"><a xlink:title=" ">
<path fill="none" stroke="#63b8ff" d="M391.83,-165.3C419.55,-155.64 455.45,-143.13 481.97,-133.9"/>
<polygon fill="#63b8ff" stroke="#63b8ff" points="482.99,-137.25 491.28,-130.65 480.68,-130.64 482.99,-137.25"/>
</a>
</g>
</g>
<!-- Node5 -->
<g id="Node000005" class="node">
<title>Node5</title>
<g id="a_Node000005"><a xlink:title=" ">
<polygon fill="#e0e0e0" stroke="#999999" points="677.62,-129.75 577.62,-129.75 577.62,-110.5 677.62,-110.5 677.62,-129.75"/>
<text xml:space="preserve" text-anchor="middle" x="627.62" y="-116.25" font-family="Helvetica,sans-Serif" font-size="10.00">zephyr/shell/shell.h</text>
</a>
</g>
</g>
<!-- Node1&#45;&gt;Node5 -->
<g id="edge4_Node000001_Node000005" class="edge">
<title>Node1&#45;&gt;Node5</title>
<g id="a_edge4_Node000001_Node000005"><a xlink:title=" ">
<path fill="none" stroke="#63b8ff" d="M406.55,-167.94C455.53,-157.57 525.67,-142.72 573.74,-132.54"/>
<polygon fill="#63b8ff" stroke="#63b8ff" points="574.31,-135.99 583.37,-130.5 572.86,-129.14 574.31,-135.99"/>
</a>
</g>
</g>
<!-- Node6 -->
<g id="Node000006" class="node">
<title>Node6</title>
<g id="a_Node000006"><a xlink:href="ccc__shim_8h.html" target="_top" xlink:title="— map a per&#45;frame STS index to the (dURSK, STS&#45;V) pair the DW3000 STS engine loads.">
<polygon fill="white" stroke="#666666" points="86.75,-129.75 20.5,-129.75 20.5,-110.5 86.75,-110.5 86.75,-129.75"/>
<text xml:space="preserve" text-anchor="middle" x="53.62" y="-116.25" font-family="Helvetica,sans-Serif" font-size="10.00">ccc_shim.h</text>
</a>
</g>
</g>
<!-- Node1&#45;&gt;Node6 -->
<g id="edge5_Node000001_Node000006" class="edge">
<title>Node1&#45;&gt;Node6</title>
<g id="a_edge5_Node000001_Node000006"><a xlink:title=" ">
<path fill="none" stroke="#63b8ff" d="M292.6,-168.84C243.63,-159.23 170.8,-144.87 98.26,-130.27"/>
<polygon fill="#63b8ff" stroke="#63b8ff" points="99.07,-126.86 88.57,-128.32 97.69,-133.73 99.07,-126.86"/>
</a>
</g>
</g>
<!-- Node10 -->
<g id="Node000010" class="node">
<title>Node10</title>
<g id="a_Node000010"><a xlink:href="fira__session_8h.html" target="_top" xlink:title="— Range + URSK store for the CCC Pre&#45;POLL responder.">
<polygon fill="white" stroke="#666666" points="355,-129.75 278.25,-129.75 278.25,-110.5 355,-110.5 355,-129.75"/>
<text xml:space="preserve" text-anchor="middle" x="316.62" y="-116.25" font-family="Helvetica,sans-Serif" font-size="10.00">fira_session.h</text>
</a>
</g>
</g>
<!-- Node1&#45;&gt;Node10 -->
<g id="edge12_Node000001_Node000010" class="edge">
<title>Node1&#45;&gt;Node10</title>
<g id="a_edge12_Node000001_Node000010"><a xlink:title=" ">
<path fill="none" stroke="#63b8ff" d="M341.47,-165.45C337.17,-157.78 331.84,-148.27 327.23,-140.04"/>
<polygon fill="#63b8ff" stroke="#63b8ff" points="330.39,-138.53 322.45,-131.52 324.29,-141.96 330.39,-138.53"/>
</a>
</g>
</g>
<!-- Node11 -->
<g id="Node000011" class="node">
<title>Node11</title>
<g id="a_Node000011"><a xlink:href="uwb__min_8h.html" target="_top" xlink:title="— Minimal DW3110 (DWM3000EVB) hardware bring&#45;up driver.">
<polygon fill="white" stroke="#666666" points="168.25,-129.75 105,-129.75 105,-110.5 168.25,-110.5 168.25,-129.75"/>
<text xml:space="preserve" text-anchor="middle" x="136.62" y="-116.25" font-family="Helvetica,sans-Serif" font-size="10.00">uwb_min.h</text>
</a>
</g>
</g>
<!-- Node1&#45;&gt;Node11 -->
<g id="edge15_Node000001_Node000011" class="edge">
<title>Node1&#45;&gt;Node11</title>
<g id="a_edge15_Node000001_Node000011"><a xlink:title=" ">
<path fill="none" stroke="#63b8ff" d="M296.43,-165.3C260.34,-155.32 213.24,-142.3 179.55,-132.99"/>
<polygon fill="#63b8ff" stroke="#63b8ff" points="180.7,-129.68 170.13,-130.38 178.83,-136.42 180.7,-129.68"/>
</a>
</g>
</g>
<!-- Node12 -->
<g id="Node000012" class="node">
<title>Node12</title>
<g id="a_Node000012"><a xlink:href="uwb__rxdiag_8h.html" target="_top" xlink:title="— Read&#45;side accessors for the RX event tallies + log stream.">
<polygon fill="white" stroke="#666666" points="260.5,-129.75 186.75,-129.75 186.75,-110.5 260.5,-110.5 260.5,-129.75"/>
<text xml:space="preserve" text-anchor="middle" x="223.62" y="-116.25" font-family="Helvetica,sans-Serif" font-size="10.00">uwb_rxdiag.h</text>
</a>
</g>
</g>
<!-- Node1&#45;&gt;Node12 -->
<g id="edge18_Node000001_Node000012" class="edge">
<title>Node1&#45;&gt;Node12</title>
<g id="a_edge18_Node000001_Node000012"><a xlink:title=" ">
<path fill="none" stroke="#63b8ff" d="M318.15,-165.3C298.32,-156.03 272.87,-144.13 253.37,-135.02"/>
<polygon fill="#63b8ff" stroke="#63b8ff" points="254.86,-131.86 244.32,-130.79 251.9,-138.2 254.86,-131.86"/>
</a>
</g>
</g>
<!-- Node6&#45;&gt;Node2 -->
<g id="edge8_Node000006_Node000002" class="edge">
<title>Node6&#45;&gt;Node2</title>
<g id="a_edge8_Node000006_Node000002"><a xlink:title=" ">
<path fill="none" stroke="#63b8ff" d="M66.24,-110.06C92.06,-91.51 151.2,-49.01 183.17,-26.04"/>
<polygon fill="#63b8ff" stroke="#63b8ff" points="184.84,-29.15 190.92,-20.47 180.76,-23.46 184.84,-29.15"/>
</a>
</g>
</g>
<!-- Node7 -->
<g id="Node000007" class="node">
<title>Node7</title>
<g id="a_Node000007"><a xlink:title=" ">
<polygon fill="#e0e0e0" stroke="#999999" points="232.5,-74.5 176.75,-74.5 176.75,-55.25 232.5,-55.25 232.5,-74.5"/>
<text xml:space="preserve" text-anchor="middle" x="204.62" y="-61" font-family="Helvetica,sans-Serif" font-size="10.00">stdbool.h</text>
</a>
</g>
</g>
<!-- Node6&#45;&gt;Node7 -->
<g id="edge6_Node000006_Node000007" class="edge">
<title>Node6&#45;&gt;Node7</title>
<g id="a_edge6_Node000006_Node000007"><a xlink:title=" ">
<path fill="none" stroke="#63b8ff" d="M79.24,-110.09C103.64,-101.49 140.64,-88.44 168.12,-78.75"/>
<polygon fill="#63b8ff" stroke="#63b8ff" points="169.19,-82.08 177.46,-75.46 166.86,-75.48 169.19,-82.08"/>
</a>
</g>
</g>
<!-- Node8 -->
<g id="Node000008" class="node">
<title>Node8</title>
<g id="a_Node000008"><a xlink:title=" ">
<polygon fill="#e0e0e0" stroke="#999999" points="51.25,-19.25 0,-19.25 0,0 51.25,0 51.25,-19.25"/>
<text xml:space="preserve" text-anchor="middle" x="25.62" y="-5.75" font-family="Helvetica,sans-Serif" font-size="10.00">stddef.h</text>
</a>
</g>
</g>
<!-- Node6&#45;&gt;Node8 -->
<g id="edge7_Node000006_Node000008" class="edge">
<title>Node6&#45;&gt;Node8</title>
<g id="a_edge7_Node000006_Node000008"><a xlink:title=" ">
<path fill="none" stroke="#63b8ff" d="M42.55,-110.2C33.36,-102.03 20.97,-89.02 15.62,-74.5 10.34,-60.14 13.52,-42.97 17.64,-30.05"/>
<polygon fill="#63b8ff" stroke="#63b8ff" points="20.8,-31.59 20.96,-21 14.23,-29.18 20.8,-31.59"/>
</a>
</g>
</g>
<!-- Node9 -->
<g id="Node000009" class="node">
<title>Node9</title>
<g id="a_Node000009"><a xlink:href="ccc__kdf_8h.html" target="_top" xlink:title="UWB ranging key schedule + SP0 frame crypto (CONFIG_WOZ_ALIRO).">
<polygon fill="white" stroke="#666666" points="83,-74.5 24.25,-74.5 24.25,-55.25 83,-55.25 83,-74.5"/>
<text xml:space="preserve" text-anchor="middle" x="53.62" y="-61" font-family="Helvetica,sans-Serif" font-size="10.00">ccc_kdf.h</text>
</a>
</g>
</g>
<!-- Node6&#45;&gt;Node9 -->
<g id="edge9_Node000006_Node000009" class="edge">
<title>Node6&#45;&gt;Node9</title>
<g id="a_edge9_Node000006_Node000009"><a xlink:title=" ">
<path fill="none" stroke="#63b8ff" d="M53.62,-110.33C53.62,-103.82 53.62,-94.67 53.62,-86.37"/>
<polygon fill="#63b8ff" stroke="#63b8ff" points="57.13,-86.37 53.63,-76.37 50.13,-86.37 57.13,-86.37"/>
</a>
</g>
</g>
<!-- Node9&#45;&gt;Node2 -->
<g id="edge11_Node000009_Node000002" class="edge">
<title>Node9&#45;&gt;Node2</title>
<g id="a_edge11_Node000009_Node000002"><a xlink:title=" ">
<path fill="none" stroke="#63b8ff" d="M79.24,-54.84C104.01,-46.11 141.76,-32.79 169.37,-23.06"/>
<polygon fill="#63b8ff" stroke="#63b8ff" points="170.44,-26.39 178.71,-19.76 168.12,-19.79 170.44,-26.39"/>
</a>
</g>
</g>
<!-- Node9&#45;&gt;Node8 -->
<g id="edge10_Node000009_Node000008" class="edge">
<title>Node9&#45;&gt;Node8</title>
<g id="a_edge10_Node000009_Node000008"><a xlink:title=" ">
<path fill="none" stroke="#63b8ff" d="M49,-55.08C45.38,-48.19 40.2,-38.34 35.63,-29.66"/>
<polygon fill="#63b8ff" stroke="#63b8ff" points="38.81,-28.17 31.05,-20.95 32.61,-31.43 38.81,-28.17"/>
</a>
</g>
</g>
<!-- Node10&#45;&gt;Node2 -->
<g id="edge14_Node000010_Node000002" class="edge">
<title>Node10&#45;&gt;Node2</title>
<g id="a_edge14_Node000010_Node000002"><a xlink:title=" ">
<path fill="none" stroke="#63b8ff" d="M308.76,-110.16C297.56,-97.54 276.2,-73.97 256.62,-55.25 246.33,-45.41 234.29,-35.01 224.39,-26.73"/>
<polygon fill="#63b8ff" stroke="#63b8ff" points="226.78,-24.17 216.85,-20.49 222.32,-29.56 226.78,-24.17"/>
</a>
</g>
</g>
<!-- Node10&#45;&gt;Node7 -->
<g id="edge13_Node000010_Node000007" class="edge">
<title>Node10&#45;&gt;Node7</title>
<g id="a_edge13_Node000010_Node000007"><a xlink:title=" ">
<path fill="none" stroke="#63b8ff" d="M297.63,-110.09C280.17,-101.79 254.03,-89.36 233.9,-79.79"/>
<polygon fill="#63b8ff" stroke="#63b8ff" points="235.62,-76.74 225.08,-75.6 232.61,-83.06 235.62,-76.74"/>
</a>
</g>
</g>
<!-- Node11&#45;&gt;Node2 -->
<g id="edge17_Node000011_Node000002" class="edge">
<title>Node11&#45;&gt;Node2</title>
<g id="a_edge17_Node000011_Node000002"><a xlink:title=" ">
<path fill="none" stroke="#63b8ff" d="M140.2,-110.09C145.4,-97.37 155.75,-73.7 167.62,-55.25 173.73,-45.76 181.59,-36.02 188.49,-28.08"/>
<polygon fill="#63b8ff" stroke="#63b8ff" points="190.92,-30.61 194.98,-20.82 185.71,-25.94 190.92,-30.61"/>
</a>
</g>
</g>
<!-- Node11&#45;&gt;Node7 -->
<g id="edge16_Node000011_Node000007" class="edge">
<title>Node11&#45;&gt;Node7</title>
<g id="a_edge16_Node000011_Node000007"><a xlink:title=" ">
<path fill="none" stroke="#63b8ff" d="M148.16,-110.09C158.09,-102.32 172.64,-90.92 184.48,-81.65"/>
<polygon fill="#63b8ff" stroke="#63b8ff" points="186.35,-84.63 192.07,-75.71 182.04,-79.12 186.35,-84.63"/>
</a>
</g>
</g>
<!-- Node12&#45;&gt;Node2 -->
<g id="edge20_Node000012_Node000002" class="edge">
<title>Node12&#45;&gt;Node2</title>
<g id="a_edge20_Node000012_Node000002"><a xlink:title=" ">
<path fill="none" stroke="#63b8ff" d="M229.56,-110.32C237.16,-97.89 248.58,-74.54 241.62,-55.25 237.89,-44.91 230.61,-35.26 223.48,-27.61"/>
<polygon fill="#63b8ff" stroke="#63b8ff" points="226.05,-25.23 216.49,-20.68 221.13,-30.2 226.05,-25.23"/>
</a>
</g>
</g>
<!-- Node12&#45;&gt;Node7 -->
<g id="edge19_Node000012_Node000007" class="edge">
<title>Node12&#45;&gt;Node7</title>
<g id="a_edge19_Node000012_Node000007"><a xlink:title=" ">
<path fill="none" stroke="#63b8ff" d="M220.49,-110.33C218.08,-103.59 214.67,-94.02 211.62,-85.49"/>
<polygon fill="#63b8ff" stroke="#63b8ff" points="215,-84.53 208.34,-76.28 208.4,-86.88 215,-84.53"/>
</a>
</g>
</g>
</g>
</svg>
