<?xml version="1.0" encoding="UTF-8" standalone="no"?>
<!DOCTYPE svg PUBLIC "-//W3C//DTD SVG 1.1//EN"
 "http://www.w3.org/Graphics/SVG/1.1/DTD/svg11.dtd">
<!-- Generated by graphviz version 15.0.0 (20260523.1842)
 -->
<!-- Title: modules/woz_uwb/src/aliro/aliro_uwb_msg_parser.c Pages: 1 -->
<svg width="664pt" height="448pt"
 viewBox="0.00 0.00 664.00 448.00" xmlns="http://www.w3.org/2000/svg" xmlns:xlink="http://www.w3.org/1999/xlink">
<g id="graph0" class="graph" transform="scale(1 1) rotate(0) translate(4 443.75)">
<title>modules/woz_uwb/src/aliro/aliro_uwb_msg_parser.c</title>
<!-- Node1 -->
<g id="Node000001" class="node">
<title>Node1</title>
<g id="a_Node000001"><a xlink:title="— TLV attribute parser and big&#45;endian reads.">
<polygon fill="#999999" stroke="#666666" points="338.62,-439.75 225.12,-439.75 225.12,-398 338.62,-398 338.62,-439.75"/>
<text xml:space="preserve" text-anchor="start" x="233.12" y="-426.25" font-family="Helvetica,sans-Serif" font-size="10.00">modules/woz_uwb/src</text>
<text xml:space="preserve" text-anchor="start" x="233.12" y="-415" font-family="Helvetica,sans-Serif" font-size="10.00">/aliro/aliro_uwb_msg</text>
<text xml:space="preserve" text-anchor="middle" x="281.88" y="-403.75" font-family="Helvetica,sans-Serif" font-size="10.00">_parser.c</text>
</a>
</g>
</g>
<!-- Node2 -->
<g id="Node000002" class="node">
<title>Node2</title>
<g id="a_Node000002"><a xlink:href="aliro__uwb__msg__parser_8h.html" target="_top" xlink:title="— TLV attribute iteration and big&#45;endian reads.">
<polygon fill="white" stroke="#666666" points="288.38,-362 167.38,-362 167.38,-342.75 288.38,-342.75 288.38,-362"/>
<text xml:space="preserve" text-anchor="middle" x="227.88" y="-348.5" font-family="Helvetica,sans-Serif" font-size="10.00">aliro_uwb_msg_parser.h</text>
</a>
</g>
</g>
<!-- Node1&#45;&gt;Node2 -->
<g id="edge1_Node000001_Node000002" class="edge">
<title>Node1&#45;&gt;Node2</title>
<g id="a_edge1_Node000001_Node000002"><a xlink:title=" ">
<path fill="none" stroke="#63b8ff" d="M265.09,-397.82C257.96,-389.31 249.73,-379.48 242.82,-371.23"/>
<polygon fill="#63b8ff" stroke="#63b8ff" points="245.54,-369.03 236.44,-363.61 240.18,-373.52 245.54,-369.03"/>
</a>
</g>
</g>
<!-- Node12 -->
<g id="Node000012" class="node">
<title>Node12</title>
<g id="a_Node000012"><a xlink:href="woz__log_8h_source.html" target="_top" xlink:title=" ">
<polygon fill="white" stroke="#666666" points="367,-362 306.75,-362 306.75,-342.75 367,-342.75 367,-362"/>
<text xml:space="preserve" text-anchor="middle" x="336.88" y="-348.5" font-family="Helvetica,sans-Serif" font-size="10.00">woz_log.h</text>
</a>
</g>
</g>
<!-- Node1&#45;&gt;Node12 -->
<g id="edge28_Node000001_Node000012" class="edge">
<title>Node1&#45;&gt;Node12</title>
<g id="a_edge28_Node000001_Node000012"><a xlink:title=" ">
<path fill="none" stroke="#63b8ff" d="M298.98,-397.82C306.31,-389.22 314.8,-379.27 321.88,-370.96"/>
<polygon fill="#63b8ff" stroke="#63b8ff" points="324.33,-373.48 328.16,-363.6 319.01,-368.94 324.33,-373.48"/>
</a>
</g>
</g>
<!-- Node3 -->
<g id="Node000003" class="node">
<title>Node3</title>
<g id="a_Node000003"><a xlink:href="aliro__uwb__msg__spec_8h.html" target="_top" xlink:title="— UWB ranging&#45;service framing constants.">
<polygon fill="white" stroke="#666666" points="115.75,-240.25 0,-240.25 0,-221 115.75,-221 115.75,-240.25"/>
<text xml:space="preserve" text-anchor="middle" x="57.88" y="-226.75" font-family="Helvetica,sans-Serif" font-size="10.00">aliro_uwb_msg_spec.h</text>
</a>
</g>
</g>
<!-- Node2&#45;&gt;Node3 -->
<g id="edge2_Node000002_Node000003" class="edge">
<title>Node2&#45;&gt;Node3</title>
<g id="a_edge2_Node000002_Node000003"><a xlink:title=" ">
<path fill="none" stroke="#63b8ff" d="M201.05,-342.33C180.49,-334.67 151.98,-322.43 129.88,-306.75 106.72,-290.32 84.86,-265.75 71.43,-249.23"/>
<polygon fill="#63b8ff" stroke="#63b8ff" points="74.45,-247.4 65.49,-241.74 68.96,-251.75 74.45,-247.4"/>
</a>
</g>
</g>
<!-- Node4 -->
<g id="Node000004" class="node">
<title>Node4</title>
<g id="a_Node000004"><a xlink:title=" ">
<polygon fill="#e0e0e0" stroke="#999999" points="276,-19.25 227.75,-19.25 227.75,0 276,0 276,-19.25"/>
<text xml:space="preserve" text-anchor="middle" x="251.88" y="-5.75" font-family="Helvetica,sans-Serif" font-size="10.00">stdint.h</text>
</a>
</g>
</g>
<!-- Node2&#45;&gt;Node4 -->
<g id="edge27_Node000002_Node000004" class="edge">
<title>Node2&#45;&gt;Node4</title>
<g id="a_edge27_Node000002_Node000004"><a xlink:title=" ">
<path fill="none" stroke="#63b8ff" d="M215.48,-342.37C192.11,-324.26 143.88,-280.89 143.88,-231.62 143.88,-231.62 143.88,-231.62 143.88,-119.12 143.88,-74.76 189.8,-42.12 221.75,-24.78"/>
<polygon fill="#63b8ff" stroke="#63b8ff" points="222.95,-28.1 230.22,-20.38 219.73,-21.88 222.95,-28.1"/>
</a>
</g>
</g>
<!-- Node5 -->
<g id="Node000005" class="node">
<title>Node5</title>
<g id="a_Node000005"><a xlink:href="aliro__uwb__session_8h.html" target="_top" xlink:title="— per&#45;session public interface.">
<polygon fill="white" stroke="#666666" points="386.75,-306.75 271,-306.75 271,-276.25 386.75,-276.25 386.75,-306.75"/>
<text xml:space="preserve" text-anchor="start" x="279" y="-293.25" font-family="Helvetica,sans-Serif" font-size="10.00">aliro_uwb_adapter/aliro</text>
<text xml:space="preserve" text-anchor="middle" x="328.88" y="-282" font-family="Helvetica,sans-Serif" font-size="10.00">_uwb_session.h</text>
</a>
</g>
</g>
<!-- Node2&#45;&gt;Node5 -->
<g id="edge4_Node000002_Node000005" class="edge">
<title>Node2&#45;&gt;Node5</title>
<g id="a_edge4_Node000002_Node000005"><a xlink:title=" ">
<path fill="none" stroke="#63b8ff" d="M243.21,-342.43C256.68,-334.58 276.78,-322.87 294.12,-312.76"/>
<polygon fill="#63b8ff" stroke="#63b8ff" points="295.76,-315.85 302.64,-307.79 292.24,-309.81 295.76,-315.85"/>
</a>
</g>
</g>
<!-- Node8 -->
<g id="Node000008" class="node">
<title>Node8</title>
<g id="a_Node000008"><a xlink:title=" ">
<polygon fill="#e0e0e0" stroke="#999999" points="581.75,-19.25 526,-19.25 526,0 581.75,0 581.75,-19.25"/>
<text xml:space="preserve" text-anchor="middle" x="553.88" y="-5.75" font-family="Helvetica,sans-Serif" font-size="10.00">stdbool.h</text>
</a>
</g>
</g>
<!-- Node2&#45;&gt;Node8 -->
<g id="edge25_Node000002_Node000008" class="edge">
<title>Node2&#45;&gt;Node8</title>
<g id="a_edge25_Node000002_Node000008"><a xlink:title=" ">
<path fill="none" stroke="#63b8ff" d="M279.93,-342.31C393.99,-321.72 655.88,-270.25 655.88,-231.62 655.88,-231.62 655.88,-231.62 655.88,-119.12 655.88,-75.92 612.41,-42.89 582.23,-25.16"/>
<polygon fill="#63b8ff" stroke="#63b8ff" points="584.34,-22.33 573.9,-20.48 580.91,-28.43 584.34,-22.33"/>
</a>
</g>
</g>
<!-- Node11 -->
<g id="Node000011" class="node">
<title>Node11</title>
<g id="a_Node000011"><a xlink:title=" ">
<polygon fill="#e0e0e0" stroke="#999999" points="261.5,-185 210.25,-185 210.25,-165.75 261.5,-165.75 261.5,-185"/>
<text xml:space="preserve" text-anchor="middle" x="235.88" y="-171.5" font-family="Helvetica,sans-Serif" font-size="10.00">stddef.h</text>
</a>
</g>
</g>
<!-- Node2&#45;&gt;Node11 -->
<g id="edge26_Node000002_Node000011" class="edge">
<title>Node2&#45;&gt;Node11</title>
<g id="a_edge26_Node000002_Node000011"><a xlink:title=" ">
<path fill="none" stroke="#63b8ff" d="M228.28,-342.46C229.51,-315.55 233.21,-234.69 234.95,-196.62"/>
<polygon fill="#63b8ff" stroke="#63b8ff" points="238.43,-197.15 235.39,-187 231.44,-196.83 238.43,-197.15"/>
</a>
</g>
</g>
<!-- Node3&#45;&gt;Node4 -->
<g id="edge3_Node000003_Node000004" class="edge">
<title>Node3&#45;&gt;Node4</title>
<g id="a_edge3_Node000003_Node000004"><a xlink:title=" ">
<path fill="none" stroke="#63b8ff" d="M59.03,-220.61C63.12,-192.19 79.55,-103.56 129.88,-55.25 153.4,-32.67 189.28,-21.36 216.04,-15.79"/>
<polygon fill="#63b8ff" stroke="#63b8ff" points="216.59,-19.25 225.77,-13.96 215.29,-12.37 216.59,-19.25"/>
</a>
</g>
</g>
<!-- Node5&#45;&gt;Node4 -->
<g id="edge24_Node000005_Node000004" class="edge">
<title>Node5&#45;&gt;Node4</title>
<g id="a_edge24_Node000005_Node000004"><a xlink:title=" ">
<path fill="none" stroke="#63b8ff" d="M281.55,-275.89C238.58,-259.33 181.88,-227.75 181.88,-176.38 181.88,-176.38 181.88,-176.38 181.88,-119.12 181.88,-81.63 211.75,-46.82 232.47,-27.19"/>
<polygon fill="#63b8ff" stroke="#63b8ff" points="234.76,-29.83 239.82,-20.52 230.06,-24.65 234.76,-29.83"/>
</a>
</g>
</g>
<!-- Node6 -->
<g id="Node000006" class="node">
<title>Node6</title>
<g id="a_Node000006"><a xlink:href="cherry_8h.html" target="_top" xlink:title="— Cherry core (context + device&#45;capabilities) interface.">
<polygon fill="white" stroke="#666666" points="551.75,-129.75 472,-129.75 472,-110.5 551.75,-110.5 551.75,-129.75"/>
<text xml:space="preserve" text-anchor="middle" x="511.88" y="-116.25" font-family="Helvetica,sans-Serif" font-size="10.00">cherry/cherry.h</text>
</a>
</g>
</g>
<!-- Node5&#45;&gt;Node6 -->
<g id="edge5_Node000005_Node000006" class="edge">
<title>Node5&#45;&gt;Node6</title>
<g id="a_edge5_Node000005_Node000006"><a xlink:title=" ">
<path fill="none" stroke="#63b8ff" d="M376.77,-275.78C418.37,-260.29 476.45,-231.57 505.88,-185 513.99,-172.16 515.16,-154.86 514.48,-141.51"/>
<polygon fill="#63b8ff" stroke="#63b8ff" points="517.98,-141.33 513.57,-131.7 511.01,-141.98 517.98,-141.33"/>
</a>
</g>
</g>
<!-- Node5&#45;&gt;Node8 -->
<g id="edge22_Node000005_Node000008" class="edge">
<title>Node5&#45;&gt;Node8</title>
<g id="a_edge22_Node000005_Node000008"><a xlink:title=" ">
<path fill="none" stroke="#63b8ff" d="M387.01,-279.78C471.4,-262.54 617.88,-225.53 617.88,-176.38 617.88,-176.38 617.88,-176.38 617.88,-119.12 617.88,-82.71 590.8,-47.77 571.87,-27.79"/>
<polygon fill="#63b8ff" stroke="#63b8ff" points="574.46,-25.43 564.94,-20.78 569.49,-30.35 574.46,-25.43"/>
</a>
</g>
</g>
<!-- Node9 -->
<g id="Node000009" class="node">
<title>Node9</title>
<g id="a_Node000009"><a xlink:href="cherry__ccc_8h.html" target="_top" xlink:title="— CCC/Aliro&#45;session interface (seam the adapter drives).">
<polygon fill="white" stroke="#666666" points="396,-240.25 293.75,-240.25 293.75,-221 396,-221 396,-240.25"/>
<text xml:space="preserve" text-anchor="middle" x="344.88" y="-226.75" font-family="Helvetica,sans-Serif" font-size="10.00">cherry/cherry_ccc.h</text>
</a>
</g>
</g>
<!-- Node5&#45;&gt;Node9 -->
<g id="edge11_Node000005_Node000009" class="edge">
<title>Node5&#45;&gt;Node9</title>
<g id="a_edge11_Node000005_Node000009"><a xlink:title=" ">
<path fill="none" stroke="#63b8ff" d="M332.83,-275.95C334.82,-268.62 337.27,-259.62 339.43,-251.66"/>
<polygon fill="#63b8ff" stroke="#63b8ff" points="342.77,-252.73 342.01,-242.16 336.01,-250.89 342.77,-252.73"/>
</a>
</g>
</g>
<!-- Node5&#45;&gt;Node11 -->
<g id="edge23_Node000005_Node000011" class="edge">
<title>Node5&#45;&gt;Node11</title>
<g id="a_edge23_Node000005_Node000011"><a xlink:title=" ">
<path fill="none" stroke="#63b8ff" d="M315.53,-275.77C306.67,-265.86 294.87,-252.44 284.88,-240.25 272.43,-225.07 258.89,-207.32 249.2,-194.39"/>
<polygon fill="#63b8ff" stroke="#63b8ff" points="252.04,-192.34 243.26,-186.41 246.43,-196.52 252.04,-192.34"/>
</a>
</g>
</g>
<!-- Node6&#45;&gt;Node4 -->
<g id="edge10_Node000006_Node000004" class="edge">
<title>Node6&#45;&gt;Node4</title>
<g id="a_edge10_Node000006_Node000004"><a xlink:title=" ">
<path fill="none" stroke="#63b8ff" d="M501.71,-110.14C485.64,-96.38 452.91,-70.14 420.88,-55.25 377.11,-34.91 322.51,-22.62 287.42,-16.23"/>
<polygon fill="#63b8ff" stroke="#63b8ff" points="288.25,-12.82 277.8,-14.54 287.05,-19.72 288.25,-12.82"/>
</a>
</g>
</g>
<!-- Node7 -->
<g id="Node000007" class="node">
<title>Node7</title>
<g id="a_Node000007"><a xlink:href="cherry__common_8h.html" target="_top" xlink:title="— diagnostics config struct and report forward decl.">
<polygon fill="white" stroke="#666666" points="411.88,-74.5 317.88,-74.5 317.88,-55.25 411.88,-55.25 411.88,-74.5"/>
<text xml:space="preserve" text-anchor="middle" x="364.88" y="-61" font-family="Helvetica,sans-Serif" font-size="10.00">cherry_common.h</text>
</a>
</g>
</g>
<!-- Node6&#45;&gt;Node7 -->
<g id="edge6_Node000006_Node000007" class="edge">
<title>Node6&#45;&gt;Node7</title>
<g id="a_edge6_Node000006_Node000007"><a xlink:title=" ">
<path fill="none" stroke="#63b8ff" d="M486.94,-110.09C463.18,-101.49 427.17,-88.44 400.41,-78.75"/>
<polygon fill="#63b8ff" stroke="#63b8ff" points="401.95,-75.58 391.36,-75.47 399.57,-82.16 401.95,-75.58"/>
</a>
</g>
</g>
<!-- Node6&#45;&gt;Node8 -->
<g id="edge9_Node000006_Node000008" class="edge">
<title>Node6&#45;&gt;Node8</title>
<g id="a_edge9_Node000006_Node000008"><a xlink:title=" ">
<path fill="none" stroke="#63b8ff" d="M515.31,-110.25C522.05,-92.84 537.13,-53.87 546.31,-30.16"/>
<polygon fill="#63b8ff" stroke="#63b8ff" points="549.5,-31.63 549.84,-21.04 542.97,-29.1 549.5,-31.63"/>
</a>
</g>
</g>
<!-- Node7&#45;&gt;Node4 -->
<g id="edge8_Node000007_Node000004" class="edge">
<title>Node7&#45;&gt;Node4</title>
<g id="a_edge8_Node000007_Node000004"><a xlink:title=" ">
<path fill="none" stroke="#63b8ff" d="M345.71,-54.84C328.09,-46.54 301.72,-34.11 281.41,-24.54"/>
<polygon fill="#63b8ff" stroke="#63b8ff" points="283.05,-21.44 272.51,-20.35 280.06,-27.78 283.05,-21.44"/>
</a>
</g>
</g>
<!-- Node7&#45;&gt;Node8 -->
<g id="edge7_Node000007_Node000008" class="edge">
<title>Node7&#45;&gt;Node8</title>
<g id="a_edge7_Node000007_Node000008"><a xlink:title=" ">
<path fill="none" stroke="#63b8ff" d="M396.94,-54.84C429.53,-45.66 480.07,-31.42 514.94,-21.59"/>
<polygon fill="#63b8ff" stroke="#63b8ff" points="515.54,-25.06 524.22,-18.98 513.64,-18.32 515.54,-25.06"/>
</a>
</g>
</g>
<!-- Node9&#45;&gt;Node4 -->
<g id="edge21_Node000009_Node000004" class="edge">
<title>Node9&#45;&gt;Node4</title>
<g id="a_edge21_Node000009_Node000004"><a xlink:title=" ">
<path fill="none" stroke="#63b8ff" d="M341.11,-220.77C327.33,-188.3 279.35,-75.32 260.03,-29.83"/>
<polygon fill="#63b8ff" stroke="#63b8ff" points="263.3,-28.58 256.17,-20.74 256.86,-31.32 263.3,-28.58"/>
</a>
</g>
</g>
<!-- Node9&#45;&gt;Node6 -->
<g id="edge12_Node000009_Node000006" class="edge">
<title>Node9&#45;&gt;Node6</title>
<g id="a_edge12_Node000009_Node000006"><a xlink:title=" ">
<path fill="none" stroke="#63b8ff" d="M396.45,-223.89C425.48,-218.25 460.66,-207.1 484.88,-185 497.53,-173.45 504.46,-155 508.12,-140.89"/>
<polygon fill="#63b8ff" stroke="#63b8ff" points="511.48,-141.9 510.23,-131.37 504.65,-140.38 511.48,-141.9"/>
</a>
</g>
</g>
<!-- Node9&#45;&gt;Node7 -->
<g id="edge13_Node000009_Node000007" class="edge">
<title>Node9&#45;&gt;Node7</title>
<g id="a_edge13_Node000009_Node000007"><a xlink:title=" ">
<path fill="none" stroke="#63b8ff" d="M344.74,-220.92C344.65,-208.6 344.81,-185.39 346.88,-165.75 349.81,-137.88 356.05,-106.08 360.35,-86"/>
<polygon fill="#63b8ff" stroke="#63b8ff" points="363.73,-86.9 362.46,-76.38 356.9,-85.39 363.73,-86.9"/>
</a>
</g>
</g>
<!-- Node9&#45;&gt;Node8 -->
<g id="edge19_Node000009_Node000008" class="edge">
<title>Node9&#45;&gt;Node8</title>
<g id="a_edge19_Node000009_Node000008"><a xlink:title=" ">
<path fill="none" stroke="#63b8ff" d="M396.49,-224.78C451.65,-216.32 534.7,-193.14 560.88,-129.75 574.34,-97.14 566.79,-55.19 560.23,-30.77"/>
<polygon fill="#63b8ff" stroke="#63b8ff" points="563.59,-29.8 557.43,-21.19 556.87,-31.77 563.59,-29.8"/>
</a>
</g>
</g>
<!-- Node10 -->
<g id="Node000010" class="node">
<title>Node10</title>
<g id="a_Node000010"><a xlink:href="cherry__session_8h.html" target="_top" xlink:title="— generic base&#45;session interface.">
<polygon fill="white" stroke="#666666" points="476,-185 355.75,-185 355.75,-165.75 476,-165.75 476,-185"/>
<text xml:space="preserve" text-anchor="middle" x="415.88" y="-171.5" font-family="Helvetica,sans-Serif" font-size="10.00">cherry/cherry_session.h</text>
</a>
</g>
</g>
<!-- Node9&#45;&gt;Node10 -->
<g id="edge14_Node000009_Node000010" class="edge">
<title>Node9&#45;&gt;Node10</title>
<g id="a_edge14_Node000009_Node000010"><a xlink:title=" ">
<path fill="none" stroke="#63b8ff" d="M356.92,-220.59C367.28,-212.82 382.48,-201.42 394.84,-192.15"/>
<polygon fill="#63b8ff" stroke="#63b8ff" points="396.9,-194.98 402.8,-186.18 392.7,-189.38 396.9,-194.98"/>
</a>
</g>
</g>
<!-- Node9&#45;&gt;Node11 -->
<g id="edge20_Node000009_Node000011" class="edge">
<title>Node9&#45;&gt;Node11</title>
<g id="a_edge20_Node000009_Node000011"><a xlink:title=" ">
<path fill="none" stroke="#63b8ff" d="M326.38,-220.59C309.47,-212.33 284.19,-199.98 264.64,-190.43"/>
<polygon fill="#63b8ff" stroke="#63b8ff" points="266.34,-187.36 255.82,-186.12 263.26,-193.65 266.34,-187.36"/>
</a>
</g>
</g>
<!-- Node10&#45;&gt;Node4 -->
<g id="edge18_Node000010_Node000004" class="edge">
<title>Node10&#45;&gt;Node4</title>
<g id="a_edge18_Node000010_Node000004"><a xlink:title=" ">
<path fill="none" stroke="#63b8ff" d="M405.55,-165.31C386.12,-148.12 342.99,-109.38 308.88,-74.5 293.99,-59.28 277.92,-41.09 266.65,-28.03"/>
<polygon fill="#63b8ff" stroke="#63b8ff" points="269.52,-26 260.36,-20.68 264.2,-30.56 269.52,-26"/>
</a>
</g>
</g>
<!-- Node10&#45;&gt;Node6 -->
<g id="edge15_Node000010_Node000006" class="edge">
<title>Node10&#45;&gt;Node6</title>
<g id="a_edge15_Node000010_Node000006"><a xlink:title=" ">
<path fill="none" stroke="#63b8ff" d="M432.16,-165.34C446.78,-157.23 468.5,-145.18 485.58,-135.71"/>
<polygon fill="#63b8ff" stroke="#63b8ff" points="487.14,-138.85 494.19,-130.94 483.74,-132.73 487.14,-138.85"/>
</a>
</g>
</g>
<!-- Node10&#45;&gt;Node7 -->
<g id="edge16_Node000010_Node000007" class="edge">
<title>Node10&#45;&gt;Node7</title>
<g id="a_edge16_Node000010_Node000007"><a xlink:title=" ">
<path fill="none" stroke="#63b8ff" d="M411.7,-165.5C403.48,-148.01 385.04,-108.77 373.91,-85.09"/>
<polygon fill="#63b8ff" stroke="#63b8ff" points="377.17,-83.81 369.75,-76.25 370.84,-86.79 377.17,-83.81"/>
</a>
</g>
</g>
<!-- Node10&#45;&gt;Node8 -->
<g id="edge17_Node000010_Node000008" class="edge">
<title>Node10&#45;&gt;Node8</title>
<g id="a_edge17_Node000010_Node000008"><a xlink:title=" ">
<path fill="none" stroke="#63b8ff" d="M421.98,-165.48C430.69,-152.93 447.34,-129.45 462.88,-110.5 487.52,-80.43 518.4,-47.43 537.11,-27.9"/>
<polygon fill="#63b8ff" stroke="#63b8ff" points="539.54,-30.42 543.96,-20.79 534.5,-25.56 539.54,-30.42"/>
</a>
</g>
</g>
</g>
</svg>
