<?xml version="1.0" encoding="UTF-8" standalone="no"?>
<!DOCTYPE svg PUBLIC "-//W3C//DTD SVG 1.1//EN"
 "http://www.w3.org/Graphics/SVG/1.1/DTD/svg11.dtd">
<!-- Generated by graphviz version 15.0.0 (20260523.1842)
 -->
<!-- Title: modules/woz_uwb/src/ccc/ccc_mac.h Pages: 1 -->
<svg width="218pt" height="149pt"
 viewBox="0.00 0.00 218.00 149.00" xmlns="http://www.w3.org/2000/svg" xmlns:xlink="http://www.w3.org/1999/xlink">
<g id="graph0" class="graph" transform="scale(1 1) rotate(0) translate(4 145)">
<title>modules/woz_uwb/src/ccc/ccc_mac.h</title>
<!-- Node1 -->
<g id="Node000001" class="node">
<title>Node1</title>
<g id="a_Node000001"><a xlink:title="— CCC UWB MAC layer: ranging&#45;round scheduling, SP0 frame codec, DS&#45;TWR.">
<polygon fill="#999999" stroke="#666666" points="168.62,-141 55.12,-141 55.12,-110.5 168.62,-110.5 168.62,-141"/>
<text xml:space="preserve" text-anchor="start" x="63.12" y="-127.5" font-family="Helvetica,sans-Serif" font-size="10.00">modules/woz_uwb/src</text>
<text xml:space="preserve" text-anchor="middle" x="111.88" y="-116.25" font-family="Helvetica,sans-Serif" font-size="10.00">/ccc/ccc_mac.h</text>
</a>
</g>
</g>
<!-- Node2 -->
<g id="Node000002" class="node">
<title>Node2</title>
<g id="a_Node000002"><a xlink:title=" ">
<polygon fill="#e0e0e0" stroke="#999999" points="55.75,-74.5 0,-74.5 0,-55.25 55.75,-55.25 55.75,-74.5"/>
<text xml:space="preserve" text-anchor="middle" x="27.88" y="-61" font-family="Helvetica,sans-Serif" font-size="10.00">stdbool.h</text>
</a>
</g>
</g>
<!-- Node1&#45;&gt;Node2 -->
<g id="edge1_Node000001_Node000002" class="edge">
<title>Node1&#45;&gt;Node2</title>
<g id="a_edge1_Node000001_Node000002"><a xlink:title=" ">
<path fill="none" stroke="#63b8ff" d="M91.11,-110.2C78.69,-101.49 62.91,-90.43 50.22,-81.53"/>
<polygon fill="#63b8ff" stroke="#63b8ff" points="52.26,-78.69 42.06,-75.82 48.24,-84.43 52.26,-78.69"/>
</a>
</g>
</g>
<!-- Node3 -->
<g id="Node000003" class="node">
<title>Node3</title>
<g id="a_Node000003"><a xlink:title=" ">
<polygon fill="#e0e0e0" stroke="#999999" points="132.5,-19.25 81.25,-19.25 81.25,0 132.5,0 132.5,-19.25"/>
<text xml:space="preserve" text-anchor="middle" x="106.88" y="-5.75" font-family="Helvetica,sans-Serif" font-size="10.00">stddef.h</text>
</a>
</g>
</g>
<!-- Node1&#45;&gt;Node3 -->
<g id="edge2_Node000001_Node000003" class="edge">
<title>Node1&#45;&gt;Node3</title>
<g id="a_edge2_Node000001_Node000003"><a xlink:title=" ">
<path fill="none" stroke="#63b8ff" d="M108.59,-110.33C106.49,-100.33 103.96,-86.68 102.88,-74.5 102.12,-65.98 102.49,-63.8 102.88,-55.25 103.23,-47.29 103.94,-38.54 104.67,-30.93"/>
<polygon fill="#63b8ff" stroke="#63b8ff" points="108.15,-31.31 105.69,-21.01 101.19,-30.59 108.15,-31.31"/>
</a>
</g>
</g>
<!-- Node4 -->
<g id="Node000004" class="node">
<title>Node4</title>
<g id="a_Node000004"><a xlink:title=" ">
<polygon fill="#e0e0e0" stroke="#999999" points="210,-19.25 161.75,-19.25 161.75,0 210,0 210,-19.25"/>
<text xml:space="preserve" text-anchor="middle" x="185.88" y="-5.75" font-family="Helvetica,sans-Serif" font-size="10.00">stdint.h</text>
</a>
</g>
</g>
<!-- Node1&#45;&gt;Node4 -->
<g id="edge3_Node000001_Node000004" class="edge">
<title>Node1&#45;&gt;Node4</title>
<g id="a_edge3_Node000001_Node000004"><a xlink:title=" ">
<path fill="none" stroke="#63b8ff" d="M141.19,-110.11C154.97,-101.65 170.23,-89.66 178.88,-74.5 186.41,-61.28 187.91,-44.01 187.65,-30.77"/>
<polygon fill="#63b8ff" stroke="#63b8ff" points="191.17,-30.86 187.11,-21.07 184.18,-31.25 191.17,-30.86"/>
</a>
</g>
</g>
<!-- Node5 -->
<g id="Node000005" class="node">
<title>Node5</title>
<g id="a_Node000005"><a xlink:href="ccc__kdf_8h.html" target="_top" xlink:title="UWB ranging key schedule + SP0 frame crypto (CONFIG_WOZ_ALIRO).">
<polygon fill="white" stroke="#666666" points="170.25,-74.5 111.5,-74.5 111.5,-55.25 170.25,-55.25 170.25,-74.5"/>
<text xml:space="preserve" text-anchor="middle" x="140.88" y="-61" font-family="Helvetica,sans-Serif" font-size="10.00">ccc_kdf.h</text>
</a>
</g>
</g>
<!-- Node1&#45;&gt;Node5 -->
<g id="edge4_Node000001_Node000005" class="edge">
<title>Node1&#45;&gt;Node5</title>
<g id="a_edge4_Node000001_Node000005"><a xlink:title=" ">
<path fill="none" stroke="#63b8ff" d="M119.04,-110.2C122.78,-102.61 127.4,-93.24 131.42,-85.07"/>
<polygon fill="#63b8ff" stroke="#63b8ff" points="134.46,-86.83 135.74,-76.31 128.18,-83.73 134.46,-86.83"/>
</a>
</g>
</g>
<!-- Node5&#45;&gt;Node3 -->
<g id="edge5_Node000005_Node000003" class="edge">
<title>Node5&#45;&gt;Node3</title>
<g id="a_edge5_Node000005_Node000003"><a xlink:title=" ">
<path fill="none" stroke="#63b8ff" d="M135.26,-55.08C130.76,-48.03 124.29,-37.9 118.66,-29.08"/>
<polygon fill="#63b8ff" stroke="#63b8ff" points="121.76,-27.43 113.43,-20.88 115.86,-31.2 121.76,-27.43"/>
</a>
</g>
</g>
<!-- Node5&#45;&gt;Node4 -->
<g id="edge6_Node000005_Node000004" class="edge">
<title>Node5&#45;&gt;Node4</title>
<g id="a_edge6_Node000005_Node000004"><a xlink:title=" ">
<path fill="none" stroke="#63b8ff" d="M148.31,-55.08C154.46,-47.8 163.39,-37.23 171,-28.23"/>
<polygon fill="#63b8ff" stroke="#63b8ff" points="173.52,-30.66 177.31,-20.77 168.18,-26.14 173.52,-30.66"/>
</a>
</g>
</g>
</g>
</svg>
