<?xml version="1.0" encoding="UTF-8" standalone="no"?>
<!DOCTYPE svg PUBLIC "-//W3C//DTD SVG 1.1//EN"
 "http://www.w3.org/Graphics/SVG/1.1/DTD/svg11.dtd">
<!-- Generated by graphviz version 15.0.0 (20260523.1842)
 -->
<!-- Title: modules/woz_uwb/src/ccc/ccc_kdf.c Pages: 1 -->
<svg width="227pt" height="149pt"
 viewBox="0.00 0.00 227.00 149.00" xmlns="http://www.w3.org/2000/svg" xmlns:xlink="http://www.w3.org/1999/xlink">
<g id="graph0" class="graph" transform="scale(1 1) rotate(0) translate(4 145)">
<title>modules/woz_uwb/src/ccc/ccc_kdf.c</title>
<!-- Node1 -->
<g id="Node000001" class="node">
<title>Node1</title>
<g id="a_Node000001"><a xlink:title="— UWB key schedule + SP0 Pre&#45;POLL frame codec.">
<polygon fill="#999999" stroke="#666666" points="186.38,-141 72.88,-141 72.88,-110.5 186.38,-110.5 186.38,-141"/>
<text xml:space="preserve" text-anchor="start" x="80.88" y="-127.5" font-family="Helvetica,sans-Serif" font-size="10.00">modules/woz_uwb/src</text>
<text xml:space="preserve" text-anchor="middle" x="129.62" y="-116.25" font-family="Helvetica,sans-Serif" font-size="10.00">/ccc/ccc_kdf.c</text>
</a>
</g>
</g>
<!-- Node2 -->
<g id="Node000002" class="node">
<title>Node2</title>
<g id="a_Node000002"><a xlink:href="ccc__kdf_8h.html" target="_top" xlink:title="UWB ranging key schedule + SP0 frame crypto (CONFIG_WOZ_ALIRO).">
<polygon fill="white" stroke="#666666" points="89,-74.5 30.25,-74.5 30.25,-55.25 89,-55.25 89,-74.5"/>
<text xml:space="preserve" text-anchor="middle" x="59.62" y="-61" font-family="Helvetica,sans-Serif" font-size="10.00">ccc_kdf.h</text>
</a>
</g>
</g>
<!-- Node1&#45;&gt;Node2 -->
<g id="edge1_Node000001_Node000002" class="edge">
<title>Node1&#45;&gt;Node2</title>
<g id="a_edge1_Node000001_Node000002"><a xlink:title=" ">
<path fill="none" stroke="#63b8ff" d="M112.32,-110.2C102.28,-101.75 89.6,-91.08 79.19,-82.33"/>
<polygon fill="#63b8ff" stroke="#63b8ff" points="81.48,-79.68 71.57,-75.93 76.97,-85.04 81.48,-79.68"/>
</a>
</g>
</g>
<!-- Node5 -->
<g id="Node000005" class="node">
<title>Node5</title>
<g id="a_Node000005"><a xlink:title=" ">
<polygon fill="#e0e0e0" stroke="#999999" points="152.62,-74.5 106.62,-74.5 106.62,-55.25 152.62,-55.25 152.62,-74.5"/>
<text xml:space="preserve" text-anchor="middle" x="129.62" y="-61" font-family="Helvetica,sans-Serif" font-size="10.00">errno.h</text>
</a>
</g>
</g>
<!-- Node1&#45;&gt;Node5 -->
<g id="edge4_Node000001_Node000005" class="edge">
<title>Node1&#45;&gt;Node5</title>
<g id="a_edge4_Node000001_Node000005"><a xlink:title=" ">
<path fill="none" stroke="#63b8ff" d="M129.62,-110.2C129.62,-102.96 129.62,-94.09 129.62,-86.19"/>
<polygon fill="#63b8ff" stroke="#63b8ff" points="133.13,-86.46 129.63,-76.46 126.13,-86.46 133.13,-86.46"/>
</a>
</g>
</g>
<!-- Node6 -->
<g id="Node000006" class="node">
<title>Node6</title>
<g id="a_Node000006"><a xlink:title=" ">
<polygon fill="#e0e0e0" stroke="#999999" points="218.75,-74.5 170.5,-74.5 170.5,-55.25 218.75,-55.25 218.75,-74.5"/>
<text xml:space="preserve" text-anchor="middle" x="194.62" y="-61" font-family="Helvetica,sans-Serif" font-size="10.00">string.h</text>
</a>
</g>
</g>
<!-- Node1&#45;&gt;Node6 -->
<g id="edge5_Node000001_Node000006" class="edge">
<title>Node1&#45;&gt;Node6</title>
<g id="a_edge5_Node000001_Node000006"><a xlink:title=" ">
<path fill="none" stroke="#63b8ff" d="M145.69,-110.2C154.92,-101.84 166.55,-91.3 176.16,-82.6"/>
<polygon fill="#63b8ff" stroke="#63b8ff" points="178.42,-85.27 183.48,-75.97 173.72,-80.09 178.42,-85.27"/>
</a>
</g>
</g>
<!-- Node3 -->
<g id="Node000003" class="node">
<title>Node3</title>
<g id="a_Node000003"><a xlink:title=" ">
<polygon fill="#e0e0e0" stroke="#999999" points="51.25,-19.25 0,-19.25 0,0 51.25,0 51.25,-19.25"/>
<text xml:space="preserve" text-anchor="middle" x="25.62" y="-5.75" font-family="Helvetica,sans-Serif" font-size="10.00">stddef.h</text>
</a>
</g>
</g>
<!-- Node2&#45;&gt;Node3 -->
<g id="edge2_Node000002_Node000003" class="edge">
<title>Node2&#45;&gt;Node3</title>
<g id="a_edge2_Node000002_Node000003"><a xlink:title=" ">
<path fill="none" stroke="#63b8ff" d="M54.01,-55.08C49.51,-48.03 43.04,-37.9 37.41,-29.08"/>
<polygon fill="#63b8ff" stroke="#63b8ff" points="40.51,-27.43 32.18,-20.88 34.61,-31.2 40.51,-27.43"/>
</a>
</g>
</g>
<!-- Node4 -->
<g id="Node000004" class="node">
<title>Node4</title>
<g id="a_Node000004"><a xlink:title=" ">
<polygon fill="#e0e0e0" stroke="#999999" points="117.75,-19.25 69.5,-19.25 69.5,0 117.75,0 117.75,-19.25"/>
<text xml:space="preserve" text-anchor="middle" x="93.62" y="-5.75" font-family="Helvetica,sans-Serif" font-size="10.00">stdint.h</text>
</a>
</g>
</g>
<!-- Node2&#45;&gt;Node4 -->
<g id="edge3_Node000002_Node000004" class="edge">
<title>Node2&#45;&gt;Node4</title>
<g id="a_edge3_Node000002_Node000004"><a xlink:title=" ">
<path fill="none" stroke="#63b8ff" d="M65.24,-55.08C69.74,-48.03 76.21,-37.9 81.84,-29.08"/>
<polygon fill="#63b8ff" stroke="#63b8ff" points="84.64,-31.2 87.07,-20.88 78.74,-27.43 84.64,-31.2"/>
</a>
</g>
</g>
</g>
</svg>
