<?xml version="1.0" encoding="UTF-8" standalone="no"?>
<!DOCTYPE svg PUBLIC "-//W3C//DTD SVG 1.1//EN"
 "http://www.w3.org/Graphics/SVG/1.1/DTD/svg11.dtd">
<!-- Generated by graphviz version 15.0.0 (20260523.1842)
 -->
<!-- Title: modules/woz_uwb/src/ccc/ccc_shim.c Pages: 1 -->
<svg width="283pt" height="204pt"
 viewBox="0.00 0.00 283.00 204.00" xmlns="http://www.w3.org/2000/svg" xmlns:xlink="http://www.w3.org/1999/xlink">
<g id="graph0" class="graph" transform="scale(1 1) rotate(0) translate(4 200.25)">
<title>modules/woz_uwb/src/ccc/ccc_shim.c</title>
<!-- Node1 -->
<g id="Node000001" class="node">
<title>Node1</title>
<g id="a_Node000001"><a xlink:title="— CCC STS substitution core (implementation).">
<polygon fill="#999999" stroke="#666666" points="242.62,-196.25 129.12,-196.25 129.12,-165.75 242.62,-165.75 242.62,-196.25"/>
<text xml:space="preserve" text-anchor="start" x="137.12" y="-182.75" font-family="Helvetica,sans-Serif" font-size="10.00">modules/woz_uwb/src</text>
<text xml:space="preserve" text-anchor="middle" x="185.88" y="-171.5" font-family="Helvetica,sans-Serif" font-size="10.00">/ccc/ccc_shim.c</text>
</a>
</g>
</g>
<!-- Node2 -->
<g id="Node000002" class="node">
<title>Node2</title>
<g id="a_Node000002"><a xlink:href="ccc__shim_8h.html" target="_top" xlink:title="— map a per&#45;frame STS index to the (dURSK, STS&#45;V) pair the DW3000 STS engine loads.">
<polygon fill="white" stroke="#666666" points="145,-129.75 78.75,-129.75 78.75,-110.5 145,-110.5 145,-129.75"/>
<text xml:space="preserve" text-anchor="middle" x="111.88" y="-116.25" font-family="Helvetica,sans-Serif" font-size="10.00">ccc_shim.h</text>
</a>
</g>
</g>
<!-- Node1&#45;&gt;Node2 -->
<g id="edge1_Node000001_Node000002" class="edge">
<title>Node1&#45;&gt;Node2</title>
<g id="a_edge1_Node000001_Node000002"><a xlink:title=" ">
<path fill="none" stroke="#63b8ff" d="M167.58,-165.45C156.86,-156.91 143.29,-146.12 132.22,-137.31"/>
<polygon fill="#63b8ff" stroke="#63b8ff" points="134.47,-134.63 124.47,-131.14 130.11,-140.11 134.47,-134.63"/>
</a>
</g>
</g>
<!-- Node7 -->
<g id="Node000007" class="node">
<title>Node7</title>
<g id="a_Node000007"><a xlink:title=" ">
<polygon fill="#e0e0e0" stroke="#999999" points="208.88,-129.75 162.88,-129.75 162.88,-110.5 208.88,-110.5 208.88,-129.75"/>
<text xml:space="preserve" text-anchor="middle" x="185.88" y="-116.25" font-family="Helvetica,sans-Serif" font-size="10.00">errno.h</text>
</a>
</g>
</g>
<!-- Node1&#45;&gt;Node7 -->
<g id="edge8_Node000001_Node000007" class="edge">
<title>Node1&#45;&gt;Node7</title>
<g id="a_edge8_Node000001_Node000007"><a xlink:title=" ">
<path fill="none" stroke="#63b8ff" d="M185.88,-165.45C185.88,-158.21 185.88,-149.34 185.88,-141.44"/>
<polygon fill="#63b8ff" stroke="#63b8ff" points="189.38,-141.71 185.88,-131.71 182.38,-141.71 189.38,-141.71"/>
</a>
</g>
</g>
<!-- Node8 -->
<g id="Node000008" class="node">
<title>Node8</title>
<g id="a_Node000008"><a xlink:title=" ">
<polygon fill="#e0e0e0" stroke="#999999" points="275,-129.75 226.75,-129.75 226.75,-110.5 275,-110.5 275,-129.75"/>
<text xml:space="preserve" text-anchor="middle" x="250.88" y="-116.25" font-family="Helvetica,sans-Serif" font-size="10.00">string.h</text>
</a>
</g>
</g>
<!-- Node1&#45;&gt;Node8 -->
<g id="edge9_Node000001_Node000008" class="edge">
<title>Node1&#45;&gt;Node8</title>
<g id="a_edge9_Node000001_Node000008"><a xlink:title=" ">
<path fill="none" stroke="#63b8ff" d="M201.94,-165.45C211.17,-157.09 222.8,-146.55 232.41,-137.85"/>
<polygon fill="#63b8ff" stroke="#63b8ff" points="234.67,-140.52 239.73,-131.22 229.97,-135.34 234.67,-140.52"/>
</a>
</g>
</g>
<!-- Node3 -->
<g id="Node000003" class="node">
<title>Node3</title>
<g id="a_Node000003"><a xlink:title=" ">
<polygon fill="#e0e0e0" stroke="#999999" points="55.75,-74.5 0,-74.5 0,-55.25 55.75,-55.25 55.75,-74.5"/>
<text xml:space="preserve" text-anchor="middle" x="27.88" y="-61" font-family="Helvetica,sans-Serif" font-size="10.00">stdbool.h</text>
</a>
</g>
</g>
<!-- Node2&#45;&gt;Node3 -->
<g id="edge2_Node000002_Node000003" class="edge">
<title>Node2&#45;&gt;Node3</title>
<g id="a_edge2_Node000002_Node000003"><a xlink:title=" ">
<path fill="none" stroke="#63b8ff" d="M97.63,-110.09C85.08,-102.14 66.54,-90.39 51.73,-81"/>
<polygon fill="#63b8ff" stroke="#63b8ff" points="53.79,-78.16 43.47,-75.76 50.04,-84.07 53.79,-78.16"/>
</a>
</g>
</g>
<!-- Node4 -->
<g id="Node000004" class="node">
<title>Node4</title>
<g id="a_Node000004"><a xlink:title=" ">
<polygon fill="#e0e0e0" stroke="#999999" points="132.5,-19.25 81.25,-19.25 81.25,0 132.5,0 132.5,-19.25"/>
<text xml:space="preserve" text-anchor="middle" x="106.88" y="-5.75" font-family="Helvetica,sans-Serif" font-size="10.00">stddef.h</text>
</a>
</g>
</g>
<!-- Node2&#45;&gt;Node4 -->
<g id="edge3_Node000002_Node000004" class="edge">
<title>Node2&#45;&gt;Node4</title>
<g id="a_edge3_Node000002_Node000004"><a xlink:title=" ">
<path fill="none" stroke="#63b8ff" d="M109.56,-110.31C107.33,-101.37 104.13,-87.08 102.88,-74.5 101.42,-59.91 102.53,-43.38 103.94,-30.79"/>
<polygon fill="#63b8ff" stroke="#63b8ff" points="107.37,-31.61 105.18,-21.24 100.43,-30.71 107.37,-31.61"/>
</a>
</g>
</g>
<!-- Node5 -->
<g id="Node000005" class="node">
<title>Node5</title>
<g id="a_Node000005"><a xlink:title=" ">
<polygon fill="#e0e0e0" stroke="#999999" points="210,-19.25 161.75,-19.25 161.75,0 210,0 210,-19.25"/>
<text xml:space="preserve" text-anchor="middle" x="185.88" y="-5.75" font-family="Helvetica,sans-Serif" font-size="10.00">stdint.h</text>
</a>
</g>
</g>
<!-- Node2&#45;&gt;Node5 -->
<g id="edge4_Node000002_Node000005" class="edge">
<title>Node2&#45;&gt;Node5</title>
<g id="a_edge4_Node000002_Node000005"><a xlink:title=" ">
<path fill="none" stroke="#63b8ff" d="M134.74,-110.08C149.9,-102.83 168.78,-91.1 178.88,-74.5 186.78,-61.5 188.25,-44.22 187.89,-30.91"/>
<polygon fill="#63b8ff" stroke="#63b8ff" points="191.4,-30.89 187.25,-21.14 184.42,-31.35 191.4,-30.89"/>
</a>
</g>
</g>
<!-- Node6 -->
<g id="Node000006" class="node">
<title>Node6</title>
<g id="a_Node000006"><a xlink:href="ccc__kdf_8h.html" target="_top" xlink:title="UWB ranging key schedule + SP0 frame crypto (CONFIG_WOZ_ALIRO).">
<polygon fill="white" stroke="#666666" points="170.25,-74.5 111.5,-74.5 111.5,-55.25 170.25,-55.25 170.25,-74.5"/>
<text xml:space="preserve" text-anchor="middle" x="140.88" y="-61" font-family="Helvetica,sans-Serif" font-size="10.00">ccc_kdf.h</text>
</a>
</g>
</g>
<!-- Node2&#45;&gt;Node6 -->
<g id="edge5_Node000002_Node000006" class="edge">
<title>Node2&#45;&gt;Node6</title>
<g id="a_edge5_Node000002_Node000006"><a xlink:title=" ">
<path fill="none" stroke="#63b8ff" d="M116.66,-110.33C120.42,-103.44 125.78,-93.59 130.51,-84.91"/>
<polygon fill="#63b8ff" stroke="#63b8ff" points="133.55,-86.64 135.26,-76.19 127.4,-83.3 133.55,-86.64"/>
</a>
</g>
</g>
<!-- Node6&#45;&gt;Node4 -->
<g id="edge6_Node000006_Node000004" class="edge">
<title>Node6&#45;&gt;Node4</title>
<g id="a_edge6_Node000006_Node000004"><a xlink:title=" ">
<path fill="none" stroke="#63b8ff" d="M135.26,-55.08C130.76,-48.03 124.29,-37.9 118.66,-29.08"/>
<polygon fill="#63b8ff" stroke="#63b8ff" points="121.76,-27.43 113.43,-20.88 115.86,-31.2 121.76,-27.43"/>
</a>
</g>
</g>
<!-- Node6&#45;&gt;Node5 -->
<g id="edge7_Node000006_Node000005" class="edge">
<title>Node6&#45;&gt;Node5</title>
<g id="a_edge7_Node000006_Node000005"><a xlink:title=" ">
<path fill="none" stroke="#63b8ff" d="M148.31,-55.08C154.46,-47.8 163.39,-37.23 171,-28.23"/>
<polygon fill="#63b8ff" stroke="#63b8ff" points="173.52,-30.66 177.31,-20.77 168.18,-26.14 173.52,-30.66"/>
</a>
</g>
</g>
</g>
</svg>
