<?xml version="1.0" encoding="UTF-8" standalone="no"?>
<!DOCTYPE svg PUBLIC "-//W3C//DTD SVG 1.1//EN"
 "http://www.w3.org/Graphics/SVG/1.1/DTD/svg11.dtd">
<!-- Generated by graphviz version 15.0.0 (20260523.1842)
 -->
<!-- Title: modules/woz_uwb/src/ccc/ccc_crypto_psa.c Pages: 1 -->
<svg width="269pt" height="149pt"
 viewBox="0.00 0.00 269.00 149.00" xmlns="http://www.w3.org/2000/svg" xmlns:xlink="http://www.w3.org/1999/xlink">
<g id="graph0" class="graph" transform="scale(1 1) rotate(0) translate(4 145)">
<title>modules/woz_uwb/src/ccc/ccc_crypto_psa.c</title>
<!-- Node1 -->
<g id="Node000001" class="node">
<title>Node1</title>
<g id="a_Node000001"><a xlink:title="— On&#45;target AES&#45;ECB block (PSA/CC312) backing the CCC key schedule.">
<polygon fill="#999999" stroke="#666666" points="188.5,-141 73.5,-141 73.5,-110.5 188.5,-110.5 188.5,-141"/>
<text xml:space="preserve" text-anchor="start" x="81.5" y="-127.5" font-family="Helvetica,sans-Serif" font-size="10.00">modules/woz_uwb/src</text>
<text xml:space="preserve" text-anchor="middle" x="131" y="-116.25" font-family="Helvetica,sans-Serif" font-size="10.00">/ccc/ccc_crypto_psa.c</text>
</a>
</g>
</g>
<!-- Node2 -->
<g id="Node000002" class="node">
<title>Node2</title>
<g id="a_Node000002"><a xlink:title=" ">
<polygon fill="#e0e0e0" stroke="#999999" points="46,-74.5 0,-74.5 0,-55.25 46,-55.25 46,-74.5"/>
<text xml:space="preserve" text-anchor="middle" x="23" y="-61" font-family="Helvetica,sans-Serif" font-size="10.00">errno.h</text>
</a>
</g>
</g>
<!-- Node1&#45;&gt;Node2 -->
<g id="edge1_Node000001_Node000002" class="edge">
<title>Node1&#45;&gt;Node2</title>
<g id="a_edge1_Node000001_Node000002"><a xlink:title=" ">
<path fill="none" stroke="#63b8ff" d="M104.03,-110.05C87.42,-100.99 66.22,-89.44 49.67,-80.41"/>
<polygon fill="#63b8ff" stroke="#63b8ff" points="51.35,-77.34 40.89,-75.63 48,-83.49 51.35,-77.34"/>
</a>
</g>
</g>
<!-- Node3 -->
<g id="Node000003" class="node">
<title>Node3</title>
<g id="a_Node000003"><a xlink:title=" ">
<polygon fill="#e0e0e0" stroke="#999999" points="127.62,-19.25 76.38,-19.25 76.38,0 127.62,0 127.62,-19.25"/>
<text xml:space="preserve" text-anchor="middle" x="102" y="-5.75" font-family="Helvetica,sans-Serif" font-size="10.00">stddef.h</text>
</a>
</g>
</g>
<!-- Node1&#45;&gt;Node3 -->
<g id="edge2_Node000001_Node000003" class="edge">
<title>Node1&#45;&gt;Node3</title>
<g id="a_edge2_Node000001_Node000003"><a xlink:title=" ">
<path fill="none" stroke="#63b8ff" d="M115.73,-110.01C107.25,-100.73 97.52,-87.98 93,-74.5 88.19,-60.18 90.95,-43.22 94.64,-30.37"/>
<polygon fill="#63b8ff" stroke="#63b8ff" points="97.93,-31.57 97.76,-20.97 91.28,-29.36 97.93,-31.57"/>
</a>
</g>
</g>
<!-- Node4 -->
<g id="Node000004" class="node">
<title>Node4</title>
<g id="a_Node000004"><a xlink:title=" ">
<polygon fill="#e0e0e0" stroke="#999999" points="247.12,-19.25 198.88,-19.25 198.88,0 247.12,0 247.12,-19.25"/>
<text xml:space="preserve" text-anchor="middle" x="223" y="-5.75" font-family="Helvetica,sans-Serif" font-size="10.00">stdint.h</text>
</a>
</g>
</g>
<!-- Node1&#45;&gt;Node4 -->
<g id="edge3_Node000001_Node000004" class="edge">
<title>Node1&#45;&gt;Node4</title>
<g id="a_edge3_Node000001_Node000004"><a xlink:title=" ">
<path fill="none" stroke="#63b8ff" d="M188.75,-116.48C214.13,-109.66 241.61,-97.21 257,-74.5 267.29,-59.32 254.78,-40.67 242.13,-27.46"/>
<polygon fill="#63b8ff" stroke="#63b8ff" points="244.76,-25.12 235.13,-20.7 239.89,-30.16 244.76,-25.12"/>
</a>
</g>
</g>
<!-- Node5 -->
<g id="Node000005" class="node">
<title>Node5</title>
<g id="a_Node000005"><a xlink:title=" ">
<polygon fill="#e0e0e0" stroke="#999999" points="248,-74.5 178,-74.5 178,-55.25 248,-55.25 248,-74.5"/>
<text xml:space="preserve" text-anchor="middle" x="213" y="-61" font-family="Helvetica,sans-Serif" font-size="10.00">psa/crypto.h</text>
</a>
</g>
</g>
<!-- Node1&#45;&gt;Node5 -->
<g id="edge4_Node000001_Node000005" class="edge">
<title>Node1&#45;&gt;Node5</title>
<g id="a_edge4_Node000001_Node000005"><a xlink:title=" ">
<path fill="none" stroke="#63b8ff" d="M151.27,-110.2C163.39,-101.49 178.8,-90.43 191.19,-81.53"/>
<polygon fill="#63b8ff" stroke="#63b8ff" points="193.05,-84.51 199.13,-75.83 188.96,-78.82 193.05,-84.51"/>
</a>
</g>
</g>
<!-- Node6 -->
<g id="Node000006" class="node">
<title>Node6</title>
<g id="a_Node000006"><a xlink:href="ccc__kdf_8h.html" target="_top" xlink:title="UWB ranging key schedule + SP0 frame crypto (CONFIG_WOZ_ALIRO).">
<polygon fill="white" stroke="#666666" points="160.38,-74.5 101.62,-74.5 101.62,-55.25 160.38,-55.25 160.38,-74.5"/>
<text xml:space="preserve" text-anchor="middle" x="131" y="-61" font-family="Helvetica,sans-Serif" font-size="10.00">ccc_kdf.h</text>
</a>
</g>
</g>
<!-- Node1&#45;&gt;Node6 -->
<g id="edge5_Node000001_Node000006" class="edge">
<title>Node1&#45;&gt;Node6</title>
<g id="a_edge5_Node000001_Node000006"><a xlink:title=" ">
<path fill="none" stroke="#63b8ff" d="M131,-110.2C131,-102.96 131,-94.09 131,-86.19"/>
<polygon fill="#63b8ff" stroke="#63b8ff" points="134.5,-86.46 131,-76.46 127.5,-86.46 134.5,-86.46"/>
</a>
</g>
</g>
<!-- Node6&#45;&gt;Node3 -->
<g id="edge6_Node000006_Node000003" class="edge">
<title>Node6&#45;&gt;Node3</title>
<g id="a_edge6_Node000006_Node000003"><a xlink:title=" ">
<path fill="none" stroke="#63b8ff" d="M126.21,-55.08C122.46,-48.19 117.09,-38.34 112.37,-29.66"/>
<polygon fill="#63b8ff" stroke="#63b8ff" points="115.47,-28.05 107.62,-20.94 109.33,-31.39 115.47,-28.05"/>
</a>
</g>
</g>
<!-- Node6&#45;&gt;Node4 -->
<g id="edge7_Node000006_Node000004" class="edge">
<title>Node6&#45;&gt;Node4</title>
<g id="a_edge7_Node000006_Node000004"><a xlink:title=" ">
<path fill="none" stroke="#63b8ff" d="M146.61,-54.84C160.62,-46.73 181.43,-34.68 197.8,-25.21"/>
<polygon fill="#63b8ff" stroke="#63b8ff" points="199.11,-28.5 206.01,-20.46 195.6,-22.44 199.11,-28.5"/>
</a>
</g>
</g>
</g>
</svg>
