<?xml version="1.0" encoding="UTF-8" standalone="no"?>
<!DOCTYPE svg PUBLIC "-//W3C//DTD SVG 1.1//EN"
 "http://www.w3.org/Graphics/SVG/1.1/DTD/svg11.dtd">
<!-- Generated by graphviz version 15.0.0 (20260523.1842)
 -->
<!-- Title: modules/woz_uwb/src/ccc/ccc_session.c Pages: 1 -->
<svg width="223pt" height="260pt"
 viewBox="0.00 0.00 223.00 260.00" xmlns="http://www.w3.org/2000/svg" xmlns:xlink="http://www.w3.org/1999/xlink">

<svg id="main" version="1.1" xmlns="http://www.w3.org/2000/svg" xmlns:xlink="http://www.w3.org/1999/xlink" xml:space="preserve">

<style type="text/css"><![CDATA[
.node, .edge {opacity: 0.7;}
.node.selected, .edge.selected {opacity: 1;}
.edge:hover path { stroke: red; }
.edge:hover polygon { stroke: red; fill: red; }
]]></style>
<script type="application/ecmascript" xlink:href="svg.min.js"/>
<svg id="graph" class="graph">
<g id="graph0" class="graph" transform="scale(1 1) rotate(0) translate(4 255.5)">
<title>modules/woz_uwb/src/ccc/ccc_session.c</title>
<!-- Node1 -->
<g id="Node000001" class="node">
<title>Node1</title>
<g id="a_Node000001"><a xlink:title="— Aliro/CCC ranging seam implementation.">
<polygon fill="#999999" stroke="#666666" points="136.25,-251.5 22.75,-251.5 22.75,-221 136.25,-221 136.25,-251.5"/>
<text xml:space="preserve" text-anchor="start" x="30.75" y="-238" font-family="Helvetica,sans-Serif" font-size="10.00">modules/woz_uwb/src</text>
<text xml:space="preserve" text-anchor="middle" x="79.5" y="-226.75" font-family="Helvetica,sans-Serif" font-size="10.00">/ccc/ccc_session.c</text>
</a>
</g>
</g>
<!-- Node2 -->
<g id="Node000002" class="node">
<title>Node2</title>
<g id="a_Node000002"><a xlink:href="ccc__session_8h.html" target="_top" xlink:title="— Aliro/CCC ranging seam: map an Aliro session&#39;s URSK + M1&#45;M4 setup to ccc_ran_params.">
<polygon fill="white" stroke="#666666" points="79,-185 0,-185 0,-165.75 79,-165.75 79,-185"/>
<text xml:space="preserve" text-anchor="middle" x="39.5" y="-171.5" font-family="Helvetica,sans-Serif" font-size="10.00">ccc_session.h</text>
</a>
</g>
</g>
<!-- Node1&#45;&gt;Node2 -->
<g id="edge1_Node000001_Node000002" class="edge">
<title>Node1&#45;&gt;Node2</title>
<g id="a_edge1_Node000001_Node000002"><a xlink:title=" ">
<path fill="none" stroke="#63b8ff" d="M69.61,-220.7C64.28,-212.85 57.65,-203.1 51.97,-194.74"/>
<polygon fill="#63b8ff" stroke="#63b8ff" points="55.03,-193.01 46.52,-186.7 49.24,-196.94 55.03,-193.01"/>
</a>
</g>
</g>
<!-- Node8 -->
<g id="Node000008" class="node">
<title>Node8</title>
<g id="a_Node000008"><a xlink:title=" ">
<polygon fill="#e0e0e0" stroke="#999999" points="143.5,-185 97.5,-185 97.5,-165.75 143.5,-165.75 143.5,-185"/>
<text xml:space="preserve" text-anchor="middle" x="120.5" y="-171.5" font-family="Helvetica,sans-Serif" font-size="10.00">errno.h</text>
</a>
</g>
</g>
<!-- Node1&#45;&gt;Node8 -->
<g id="edge10_Node000001_Node000008" class="edge">
<title>Node1&#45;&gt;Node8</title>
<g id="a_edge10_Node000001_Node000008"><a xlink:title=" ">
<path fill="none" stroke="#63b8ff" d="M89.63,-220.7C95.1,-212.85 101.89,-203.1 107.71,-194.74"/>
<polygon fill="#63b8ff" stroke="#63b8ff" points="110.47,-196.9 113.31,-186.69 104.73,-192.9 110.47,-196.9"/>
</a>
</g>
</g>
<!-- Node3 -->
<g id="Node000003" class="node">
<title>Node3</title>
<g id="a_Node000003"><a xlink:title=" ">
<polygon fill="#e0e0e0" stroke="#999999" points="54.62,-19.25 6.38,-19.25 6.38,0 54.62,0 54.62,-19.25"/>
<text xml:space="preserve" text-anchor="middle" x="30.5" y="-5.75" font-family="Helvetica,sans-Serif" font-size="10.00">stdint.h</text>
</a>
</g>
</g>
<!-- Node2&#45;&gt;Node3 -->
<g id="edge2_Node000002_Node000003" class="edge">
<title>Node2&#45;&gt;Node3</title>
<g id="a_edge2_Node000002_Node000003"><a xlink:title=" ">
<path fill="none" stroke="#63b8ff" d="M39.02,-165.57C37.62,-140.25 33.58,-66.75 31.61,-30.84"/>
<polygon fill="#63b8ff" stroke="#63b8ff" points="35.11,-30.78 31.07,-20.98 28.12,-31.16 35.11,-30.78"/>
</a>
</g>
</g>
<!-- Node4 -->
<g id="Node000004" class="node">
<title>Node4</title>
<g id="a_Node000004"><a xlink:href="ccc__mac_8h.html" target="_top" xlink:title="— CCC UWB MAC layer: ranging&#45;round scheduling, SP0 frame codec, DS&#45;TWR.">
<polygon fill="white" stroke="#666666" points="118.5,-129.75 54.5,-129.75 54.5,-110.5 118.5,-110.5 118.5,-129.75"/>
<text xml:space="preserve" text-anchor="middle" x="86.5" y="-116.25" font-family="Helvetica,sans-Serif" font-size="10.00">ccc_mac.h</text>
</a>
</g>
</g>
<!-- Node2&#45;&gt;Node4 -->
<g id="edge3_Node000002_Node000004" class="edge">
<title>Node2&#45;&gt;Node4</title>
<g id="a_edge3_Node000002_Node000004"><a xlink:title=" ">
<path fill="none" stroke="#63b8ff" d="M47.26,-165.58C53.69,-158.3 63.01,-147.73 70.96,-138.73"/>
<polygon fill="#63b8ff" stroke="#63b8ff" points="73.58,-141.06 77.57,-131.24 68.33,-136.43 73.58,-141.06"/>
</a>
</g>
</g>
<!-- Node4&#45;&gt;Node3 -->
<g id="edge6_Node000004_Node000003" class="edge">
<title>Node4&#45;&gt;Node3</title>
<g id="a_edge6_Node000004_Node000003"><a xlink:title=" ">
<path fill="none" stroke="#63b8ff" d="M77.04,-110.03C68.71,-101.54 56.8,-88.17 49.5,-74.5 42.15,-60.74 37.27,-43.74 34.3,-30.74"/>
<polygon fill="#63b8ff" stroke="#63b8ff" points="37.78,-30.3 32.32,-21.22 30.93,-31.73 37.78,-30.3"/>
</a>
</g>
</g>
<!-- Node5 -->
<g id="Node000005" class="node">
<title>Node5</title>
<g id="a_Node000005"><a xlink:title=" ">
<polygon fill="#e0e0e0" stroke="#999999" points="114.38,-74.5 58.62,-74.5 58.62,-55.25 114.38,-55.25 114.38,-74.5"/>
<text xml:space="preserve" text-anchor="middle" x="86.5" y="-61" font-family="Helvetica,sans-Serif" font-size="10.00">stdbool.h</text>
</a>
</g>
</g>
<!-- Node4&#45;&gt;Node5 -->
<g id="edge4_Node000004_Node000005" class="edge">
<title>Node4&#45;&gt;Node5</title>
<g id="a_edge4_Node000004_Node000005"><a xlink:title=" ">
<path fill="none" stroke="#63b8ff" d="M86.5,-110.33C86.5,-103.82 86.5,-94.67 86.5,-86.37"/>
<polygon fill="#63b8ff" stroke="#63b8ff" points="90,-86.37 86.5,-76.37 83,-86.37 90,-86.37"/>
</a>
</g>
</g>
<!-- Node6 -->
<g id="Node000006" class="node">
<title>Node6</title>
<g id="a_Node000006"><a xlink:title=" ">
<polygon fill="#e0e0e0" stroke="#999999" points="215.12,-19.25 163.88,-19.25 163.88,0 215.12,0 215.12,-19.25"/>
<text xml:space="preserve" text-anchor="middle" x="189.5" y="-5.75" font-family="Helvetica,sans-Serif" font-size="10.00">stddef.h</text>
</a>
</g>
</g>
<!-- Node4&#45;&gt;Node6 -->
<g id="edge5_Node000004_Node000006" class="edge">
<title>Node4&#45;&gt;Node6</title>
<g id="a_edge5_Node000004_Node000006"><a xlink:title=" ">
<path fill="none" stroke="#63b8ff" d="M118.89,-116.05C145.49,-111.63 181.59,-100.83 199.5,-74.5 208.48,-61.3 204.4,-43.06 198.99,-29.45"/>
<polygon fill="#63b8ff" stroke="#63b8ff" points="202.34,-28.36 195.03,-20.7 195.97,-31.25 202.34,-28.36"/>
</a>
</g>
</g>
<!-- Node7 -->
<g id="Node000007" class="node">
<title>Node7</title>
<g id="a_Node000007"><a xlink:href="ccc__kdf_8h.html" target="_top" xlink:title="UWB ranging key schedule + SP0 frame crypto (CONFIG_WOZ_ALIRO).">
<polygon fill="white" stroke="#666666" points="190.88,-74.5 132.12,-74.5 132.12,-55.25 190.88,-55.25 190.88,-74.5"/>
<text xml:space="preserve" text-anchor="middle" x="161.5" y="-61" font-family="Helvetica,sans-Serif" font-size="10.00">ccc_kdf.h</text>
</a>
</g>
</g>
<!-- Node4&#45;&gt;Node7 -->
<g id="edge7_Node000004_Node000007" class="edge">
<title>Node4&#45;&gt;Node7</title>
<g id="a_edge7_Node000004_Node000007"><a xlink:title=" ">
<path fill="none" stroke="#63b8ff" d="M99.22,-110.09C110.21,-102.29 126.34,-90.84 139.43,-81.54"/>
<polygon fill="#63b8ff" stroke="#63b8ff" points="141.35,-84.47 147.48,-75.83 137.3,-78.76 141.35,-84.47"/>
</a>
</g>
</g>
<!-- Node7&#45;&gt;Node3 -->
<g id="edge9_Node000007_Node000003" class="edge">
<title>Node7&#45;&gt;Node3</title>
<g id="a_edge9_Node000007_Node000003"><a xlink:title=" ">
<path fill="none" stroke="#63b8ff" d="M139.28,-54.84C118.48,-46.39 87.15,-33.65 63.45,-24.02"/>
<polygon fill="#63b8ff" stroke="#63b8ff" points="64.82,-20.8 54.23,-20.27 62.18,-27.28 64.82,-20.8"/>
</a>
</g>
</g>
<!-- Node7&#45;&gt;Node6 -->
<g id="edge8_Node000007_Node000006" class="edge">
<title>Node7&#45;&gt;Node6</title>
<g id="a_edge8_Node000007_Node000006"><a xlink:title=" ">
<path fill="none" stroke="#63b8ff" d="M166.12,-55.08C169.75,-48.19 174.93,-38.34 179.49,-29.66"/>
<polygon fill="#63b8ff" stroke="#63b8ff" points="182.52,-31.43 184.07,-20.95 176.32,-28.17 182.52,-31.43"/>
</a>
</g>
</g>
</g>
</svg>
</svg>

<style type='text/css'>
<![CDATA[
[data-mouse-over-selected='false'] { opacity: 0.7; }
[data-mouse-over-selected='true']  { opacity: 1.0; }
]]>
</style>
<script type="application/ecmascript"><![CDATA[
document.addEventListener('DOMContentLoaded', (event) => {
  highlightEdges();
  highlightAdjacentNodes();
});
]]></script>
</svg>
