<?xml version="1.0" encoding="UTF-8" standalone="no"?>
<!DOCTYPE svg PUBLIC "-//W3C//DTD SVG 1.1//EN"
 "http://www.w3.org/Graphics/SVG/1.1/DTD/svg11.dtd">
<!-- Generated by graphviz version 15.0.0 (20260523.1842)
 -->
<!-- Title: modules/woz_uwb/src/ccc/ccc_mac.c Pages: 1 -->
<svg width="267pt" height="204pt"
 viewBox="0.00 0.00 267.00 204.00" xmlns="http://www.w3.org/2000/svg" xmlns:xlink="http://www.w3.org/1999/xlink">
<g id="graph0" class="graph" transform="scale(1 1) rotate(0) translate(4 200.25)">
<title>modules/woz_uwb/src/ccc/ccc_mac.c</title>
<!-- Node1 -->
<g id="Node000001" class="node">
<title>Node1</title>
<g id="a_Node000001"><a xlink:title="— UWB MAC: hopping sequence, SP0 frame codec, ranging schedule.">
<polygon fill="#999999" stroke="#666666" points="144.75,-196.25 31.25,-196.25 31.25,-165.75 144.75,-165.75 144.75,-196.25"/>
<text xml:space="preserve" text-anchor="start" x="39.25" y="-182.75" font-family="Helvetica,sans-Serif" font-size="10.00">modules/woz_uwb/src</text>
<text xml:space="preserve" text-anchor="middle" x="88" y="-171.5" font-family="Helvetica,sans-Serif" font-size="10.00">/ccc/ccc_mac.c</text>
</a>
</g>
</g>
<!-- Node2 -->
<g id="Node000002" class="node">
<title>Node2</title>
<g id="a_Node000002"><a xlink:title=" ">
<polygon fill="#e0e0e0" stroke="#999999" points="46,-129.75 0,-129.75 0,-110.5 46,-110.5 46,-129.75"/>
<text xml:space="preserve" text-anchor="middle" x="23" y="-116.25" font-family="Helvetica,sans-Serif" font-size="10.00">errno.h</text>
</a>
</g>
</g>
<!-- Node1&#45;&gt;Node2 -->
<g id="edge1_Node000001_Node000002" class="edge">
<title>Node1&#45;&gt;Node2</title>
<g id="a_edge1_Node000001_Node000002"><a xlink:title=" ">
<path fill="none" stroke="#63b8ff" d="M71.93,-165.45C62.7,-157.09 51.07,-146.55 41.47,-137.85"/>
<polygon fill="#63b8ff" stroke="#63b8ff" points="43.9,-135.34 34.14,-131.22 39.2,-140.52 43.9,-135.34"/>
</a>
</g>
</g>
<!-- Node3 -->
<g id="Node000003" class="node">
<title>Node3</title>
<g id="a_Node000003"><a xlink:title=" ">
<polygon fill="#e0e0e0" stroke="#999999" points="112.12,-129.75 63.88,-129.75 63.88,-110.5 112.12,-110.5 112.12,-129.75"/>
<text xml:space="preserve" text-anchor="middle" x="88" y="-116.25" font-family="Helvetica,sans-Serif" font-size="10.00">string.h</text>
</a>
</g>
</g>
<!-- Node1&#45;&gt;Node3 -->
<g id="edge2_Node000001_Node000003" class="edge">
<title>Node1&#45;&gt;Node3</title>
<g id="a_edge2_Node000001_Node000003"><a xlink:title=" ">
<path fill="none" stroke="#63b8ff" d="M88,-165.45C88,-158.21 88,-149.34 88,-141.44"/>
<polygon fill="#63b8ff" stroke="#63b8ff" points="91.5,-141.71 88,-131.71 84.5,-141.71 91.5,-141.71"/>
</a>
</g>
</g>
<!-- Node4 -->
<g id="Node000004" class="node">
<title>Node4</title>
<g id="a_Node000004"><a xlink:href="ccc__mac_8h.html" target="_top" xlink:title="— CCC UWB MAC layer: ranging&#45;round scheduling, SP0 frame codec, DS&#45;TWR.">
<polygon fill="white" stroke="#666666" points="194,-129.75 130,-129.75 130,-110.5 194,-110.5 194,-129.75"/>
<text xml:space="preserve" text-anchor="middle" x="162" y="-116.25" font-family="Helvetica,sans-Serif" font-size="10.00">ccc_mac.h</text>
</a>
</g>
</g>
<!-- Node1&#45;&gt;Node4 -->
<g id="edge3_Node000001_Node000004" class="edge">
<title>Node1&#45;&gt;Node4</title>
<g id="a_edge3_Node000001_Node000004"><a xlink:title=" ">
<path fill="none" stroke="#63b8ff" d="M106.29,-165.45C117.02,-156.91 130.59,-146.12 141.65,-137.31"/>
<polygon fill="#63b8ff" stroke="#63b8ff" points="143.76,-140.11 149.41,-131.14 139.4,-134.63 143.76,-140.11"/>
</a>
</g>
</g>
<!-- Node5 -->
<g id="Node000005" class="node">
<title>Node5</title>
<g id="a_Node000005"><a xlink:title=" ">
<polygon fill="#e0e0e0" stroke="#999999" points="104.88,-74.5 49.12,-74.5 49.12,-55.25 104.88,-55.25 104.88,-74.5"/>
<text xml:space="preserve" text-anchor="middle" x="77" y="-61" font-family="Helvetica,sans-Serif" font-size="10.00">stdbool.h</text>
</a>
</g>
</g>
<!-- Node4&#45;&gt;Node5 -->
<g id="edge4_Node000004_Node000005" class="edge">
<title>Node4&#45;&gt;Node5</title>
<g id="a_edge4_Node000004_Node000005"><a xlink:title=" ">
<path fill="none" stroke="#63b8ff" d="M147.58,-110.09C134.88,-102.14 116.13,-90.39 101.14,-81"/>
<polygon fill="#63b8ff" stroke="#63b8ff" points="103.1,-78.1 92.77,-75.76 99.39,-84.03 103.1,-78.1"/>
</a>
</g>
</g>
<!-- Node6 -->
<g id="Node000006" class="node">
<title>Node6</title>
<g id="a_Node000006"><a xlink:title=" ">
<polygon fill="#e0e0e0" stroke="#999999" points="181.62,-19.25 130.38,-19.25 130.38,0 181.62,0 181.62,-19.25"/>
<text xml:space="preserve" text-anchor="middle" x="156" y="-5.75" font-family="Helvetica,sans-Serif" font-size="10.00">stddef.h</text>
</a>
</g>
</g>
<!-- Node4&#45;&gt;Node6 -->
<g id="edge5_Node000004_Node000006" class="edge">
<title>Node4&#45;&gt;Node6</title>
<g id="a_edge5_Node000004_Node000006"><a xlink:title=" ">
<path fill="none" stroke="#63b8ff" d="M159.43,-110.33C156.95,-101.4 153.4,-87.13 152,-74.5 150.39,-59.92 151.5,-43.4 152.96,-30.81"/>
<polygon fill="#63b8ff" stroke="#63b8ff" points="156.38,-31.62 154.24,-21.25 149.44,-30.69 156.38,-31.62"/>
</a>
</g>
</g>
<!-- Node7 -->
<g id="Node000007" class="node">
<title>Node7</title>
<g id="a_Node000007"><a xlink:title=" ">
<polygon fill="#e0e0e0" stroke="#999999" points="259.12,-19.25 210.88,-19.25 210.88,0 259.12,0 259.12,-19.25"/>
<text xml:space="preserve" text-anchor="middle" x="235" y="-5.75" font-family="Helvetica,sans-Serif" font-size="10.00">stdint.h</text>
</a>
</g>
</g>
<!-- Node4&#45;&gt;Node7 -->
<g id="edge6_Node000004_Node000007" class="edge">
<title>Node4&#45;&gt;Node7</title>
<g id="a_edge6_Node000004_Node000007"><a xlink:title=" ">
<path fill="none" stroke="#63b8ff" d="M184.21,-110.15C199.2,-102.87 218,-91.08 228,-74.5 235.86,-61.47 237.33,-44.19 236.99,-30.89"/>
<polygon fill="#63b8ff" stroke="#63b8ff" points="240.5,-30.89 236.36,-21.14 233.51,-31.34 240.5,-30.89"/>
</a>
</g>
</g>
<!-- Node8 -->
<g id="Node000008" class="node">
<title>Node8</title>
<g id="a_Node000008"><a xlink:href="ccc__kdf_8h.html" target="_top" xlink:title="UWB ranging key schedule + SP0 frame crypto (CONFIG_WOZ_ALIRO).">
<polygon fill="white" stroke="#666666" points="219.38,-74.5 160.62,-74.5 160.62,-55.25 219.38,-55.25 219.38,-74.5"/>
<text xml:space="preserve" text-anchor="middle" x="190" y="-61" font-family="Helvetica,sans-Serif" font-size="10.00">ccc_kdf.h</text>
</a>
</g>
</g>
<!-- Node4&#45;&gt;Node8 -->
<g id="edge7_Node000004_Node000008" class="edge">
<title>Node4&#45;&gt;Node8</title>
<g id="a_edge7_Node000004_Node000008"><a xlink:title=" ">
<path fill="none" stroke="#63b8ff" d="M166.62,-110.33C170.25,-103.44 175.43,-93.59 179.99,-84.91"/>
<polygon fill="#63b8ff" stroke="#63b8ff" points="183.02,-86.68 184.57,-76.2 176.82,-83.42 183.02,-86.68"/>
</a>
</g>
</g>
<!-- Node8&#45;&gt;Node6 -->
<g id="edge8_Node000008_Node000006" class="edge">
<title>Node8&#45;&gt;Node6</title>
<g id="a_edge8_Node000008_Node000006"><a xlink:title=" ">
<path fill="none" stroke="#63b8ff" d="M184.39,-55.08C179.88,-48.03 173.41,-37.9 167.79,-29.08"/>
<polygon fill="#63b8ff" stroke="#63b8ff" points="170.88,-27.43 162.55,-20.88 164.98,-31.2 170.88,-27.43"/>
</a>
</g>
</g>
<!-- Node8&#45;&gt;Node7 -->
<g id="edge9_Node000008_Node000007" class="edge">
<title>Node8&#45;&gt;Node7</title>
<g id="a_edge9_Node000008_Node000007"><a xlink:title=" ">
<path fill="none" stroke="#63b8ff" d="M197.43,-55.08C203.58,-47.8 212.51,-37.23 220.13,-28.23"/>
<polygon fill="#63b8ff" stroke="#63b8ff" points="222.65,-30.66 226.43,-20.77 217.3,-26.14 222.65,-30.66"/>
</a>
</g>
</g>
</g>
</svg>
