<?xml version="1.0" encoding="UTF-8" standalone="no"?>
<!DOCTYPE svg PUBLIC "-//W3C//DTD SVG 1.1//EN"
 "http://www.w3.org/Graphics/SVG/1.1/DTD/svg11.dtd">
<!-- Generated by graphviz version 15.0.0 (20260523.1842)
 -->
<!-- Title: modules/woz_uwb/src/ccc/ccc_crypto_mbedtls.c Pages: 1 -->
<svg width="277pt" height="149pt"
 viewBox="0.00 0.00 277.00 149.00" xmlns="http://www.w3.org/2000/svg" xmlns:xlink="http://www.w3.org/1999/xlink">
<g id="graph0" class="graph" transform="scale(1 1) rotate(0) translate(4 145)">
<title>modules/woz_uwb/src/ccc/ccc_crypto_mbedtls.c</title>
<!-- Node1 -->
<g id="Node000001" class="node">
<title>Node1</title>
<g id="a_Node000001"><a xlink:title="— AES&#45;ECB block via mbedTLS, backing the CCC key schedule on SoCs without a PSA provider (e....">
<polygon fill="#999999" stroke="#666666" points="197.88,-141 64.12,-141 64.12,-110.5 197.88,-110.5 197.88,-141"/>
<text xml:space="preserve" text-anchor="start" x="72.12" y="-127.5" font-family="Helvetica,sans-Serif" font-size="10.00">modules/woz_uwb/src</text>
<text xml:space="preserve" text-anchor="middle" x="131" y="-116.25" font-family="Helvetica,sans-Serif" font-size="10.00">/ccc/ccc_crypto_mbedtls.c</text>
</a>
</g>
</g>
<!-- Node2 -->
<g id="Node000002" class="node">
<title>Node2</title>
<g id="a_Node000002"><a xlink:title=" ">
<polygon fill="#e0e0e0" stroke="#999999" points="46,-74.5 0,-74.5 0,-55.25 46,-55.25 46,-74.5"/>
<text xml:space="preserve" text-anchor="middle" x="23" y="-61" font-family="Helvetica,sans-Serif" font-size="10.00">errno.h</text>
</a>
</g>
</g>
<!-- Node1&#45;&gt;Node2 -->
<g id="edge1_Node000001_Node000002" class="edge">
<title>Node1&#45;&gt;Node2</title>
<g id="a_edge1_Node000001_Node000002"><a xlink:title=" ">
<path fill="none" stroke="#63b8ff" d="M104.03,-110.05C87.42,-100.99 66.22,-89.44 49.67,-80.41"/>
<polygon fill="#63b8ff" stroke="#63b8ff" points="51.35,-77.34 40.89,-75.63 48,-83.49 51.35,-77.34"/>
</a>
</g>
</g>
<!-- Node3 -->
<g id="Node000003" class="node">
<title>Node3</title>
<g id="a_Node000003"><a xlink:title=" ">
<polygon fill="#e0e0e0" stroke="#999999" points="127.62,-19.25 76.38,-19.25 76.38,0 127.62,0 127.62,-19.25"/>
<text xml:space="preserve" text-anchor="middle" x="102" y="-5.75" font-family="Helvetica,sans-Serif" font-size="10.00">stddef.h</text>
</a>
</g>
</g>
<!-- Node1&#45;&gt;Node3 -->
<g id="edge2_Node000001_Node000003" class="edge">
<title>Node1&#45;&gt;Node3</title>
<g id="a_edge2_Node000001_Node000003"><a xlink:title=" ">
<path fill="none" stroke="#63b8ff" d="M115.73,-110.01C107.25,-100.73 97.52,-87.98 93,-74.5 88.19,-60.18 90.95,-43.22 94.64,-30.37"/>
<polygon fill="#63b8ff" stroke="#63b8ff" points="97.93,-31.57 97.76,-20.97 91.28,-29.36 97.93,-31.57"/>
</a>
</g>
</g>
<!-- Node4 -->
<g id="Node000004" class="node">
<title>Node4</title>
<g id="a_Node000004"><a xlink:title=" ">
<polygon fill="#e0e0e0" stroke="#999999" points="251.12,-19.25 202.88,-19.25 202.88,0 251.12,0 251.12,-19.25"/>
<text xml:space="preserve" text-anchor="middle" x="227" y="-5.75" font-family="Helvetica,sans-Serif" font-size="10.00">stdint.h</text>
</a>
</g>
</g>
<!-- Node1&#45;&gt;Node4 -->
<g id="edge3_Node000001_Node000004" class="edge">
<title>Node1&#45;&gt;Node4</title>
<g id="a_edge3_Node000001_Node000004"><a xlink:title=" ">
<path fill="none" stroke="#63b8ff" d="M198.25,-115.9C223.48,-108.94 249.72,-96.56 265,-74.5 275.83,-58.87 261.59,-40.06 247.56,-26.92"/>
<polygon fill="#63b8ff" stroke="#63b8ff" points="250.06,-24.45 240.22,-20.54 245.47,-29.74 250.06,-24.45"/>
</a>
</g>
</g>
<!-- Node5 -->
<g id="Node000005" class="node">
<title>Node5</title>
<g id="a_Node000005"><a xlink:title=" ">
<polygon fill="#e0e0e0" stroke="#999999" points="255.75,-74.5 178.25,-74.5 178.25,-55.25 255.75,-55.25 255.75,-74.5"/>
<text xml:space="preserve" text-anchor="middle" x="217" y="-61" font-family="Helvetica,sans-Serif" font-size="10.00">mbedtls/aes.h</text>
</a>
</g>
</g>
<!-- Node1&#45;&gt;Node5 -->
<g id="edge4_Node000001_Node000005" class="edge">
<title>Node1&#45;&gt;Node5</title>
<g id="a_edge4_Node000001_Node000005"><a xlink:title=" ">
<path fill="none" stroke="#63b8ff" d="M152.26,-110.2C165.1,-101.4 181.45,-90.21 194.51,-81.27"/>
<polygon fill="#63b8ff" stroke="#63b8ff" points="196.22,-84.34 202.49,-75.81 192.26,-78.57 196.22,-84.34"/>
</a>
</g>
</g>
<!-- Node6 -->
<g id="Node000006" class="node">
<title>Node6</title>
<g id="a_Node000006"><a xlink:href="ccc__kdf_8h.html" target="_top" xlink:title="UWB ranging key schedule + SP0 frame crypto (CONFIG_WOZ_ALIRO).">
<polygon fill="white" stroke="#666666" points="160.38,-74.5 101.62,-74.5 101.62,-55.25 160.38,-55.25 160.38,-74.5"/>
<text xml:space="preserve" text-anchor="middle" x="131" y="-61" font-family="Helvetica,sans-Serif" font-size="10.00">ccc_kdf.h</text>
</a>
</g>
</g>
<!-- Node1&#45;&gt;Node6 -->
<g id="edge5_Node000001_Node000006" class="edge">
<title>Node1&#45;&gt;Node6</title>
<g id="a_edge5_Node000001_Node000006"><a xlink:title=" ">
<path fill="none" stroke="#63b8ff" d="M131,-110.2C131,-102.96 131,-94.09 131,-86.19"/>
<polygon fill="#63b8ff" stroke="#63b8ff" points="134.5,-86.46 131,-76.46 127.5,-86.46 134.5,-86.46"/>
</a>
</g>
</g>
<!-- Node6&#45;&gt;Node3 -->
<g id="edge6_Node000006_Node000003" class="edge">
<title>Node6&#45;&gt;Node3</title>
<g id="a_edge6_Node000006_Node000003"><a xlink:title=" ">
<path fill="none" stroke="#63b8ff" d="M126.21,-55.08C122.46,-48.19 117.09,-38.34 112.37,-29.66"/>
<polygon fill="#63b8ff" stroke="#63b8ff" points="115.47,-28.05 107.62,-20.94 109.33,-31.39 115.47,-28.05"/>
</a>
</g>
</g>
<!-- Node6&#45;&gt;Node4 -->
<g id="edge7_Node000006_Node000004" class="edge">
<title>Node6&#45;&gt;Node4</title>
<g id="a_edge7_Node000006_Node000004"><a xlink:title=" ">
<path fill="none" stroke="#63b8ff" d="M147.29,-54.84C161.9,-46.73 183.63,-34.68 200.71,-25.21"/>
<polygon fill="#63b8ff" stroke="#63b8ff" points="202.26,-28.35 209.31,-20.44 198.87,-22.23 202.26,-28.35"/>
</a>
</g>
</g>
</g>
</svg>
