<?xml version="1.0" encoding="UTF-8" standalone="no"?>
<!DOCTYPE svg PUBLIC "-//W3C//DTD SVG 1.1//EN"
 "http://www.w3.org/Graphics/SVG/1.1/DTD/svg11.dtd">
<!-- Generated by graphviz version 15.0.0 (20260523.1842)
 -->
<!-- Title: modules/woz_uwb/src/ccc/ccc_shim_rx.c Pages: 1 -->
<svg width="1010pt" height="204pt"
 viewBox="0.00 0.00 1010.00 204.00" xmlns="http://www.w3.org/2000/svg" xmlns:xlink="http://www.w3.org/1999/xlink">
<g id="graph0" class="graph" transform="scale(1 1) rotate(0) translate(4 200.25)">
<title>modules/woz_uwb/src/ccc/ccc_shim_rx.c</title>
<!-- Node1 -->
<g id="Node000001" class="node">
<title>Node1</title>
<g id="a_Node000001"><a xlink:title="— responder&#45;RX CCC STS substitution (ld &#45;&#45;wrap=dwt_rxenable) programming the CCC STS on each RX&#45;arm; ...">
<polygon fill="#999999" stroke="#666666" points="429.74,-196.25 316.24,-196.25 316.24,-165.75 429.74,-165.75 429.74,-196.25"/>
<text xml:space="preserve" text-anchor="start" x="324.24" y="-182.75" font-family="Helvetica,sans-Serif" font-size="10.00">modules/woz_uwb/src</text>
<text xml:space="preserve" text-anchor="middle" x="372.99" y="-171.5" font-family="Helvetica,sans-Serif" font-size="10.00">/ccc/ccc_shim_rx.c</text>
</a>
</g>
</g>
<!-- Node2 -->
<g id="Node000002" class="node">
<title>Node2</title>
<g id="a_Node000002"><a xlink:title=" ">
<polygon fill="#e0e0e0" stroke="#999999" points="77.61,-19.25 26.36,-19.25 26.36,0 77.61,0 77.61,-19.25"/>
<text xml:space="preserve" text-anchor="middle" x="51.99" y="-5.75" font-family="Helvetica,sans-Serif" font-size="10.00">stddef.h</text>
</a>
</g>
</g>
<!-- Node1&#45;&gt;Node2 -->
<g id="edge1_Node000001_Node000002" class="edge">
<title>Node1&#45;&gt;Node2</title>
<g id="a_edge1_Node000001_Node000002"><a xlink:title=" ">
<path fill="none" stroke="#63b8ff" d="M315.8,-177.77C255.16,-173.71 157.6,-162.21 79.99,-129.75 41.13,-113.5 22.22,-111.97 2.99,-74.5 -6.24,-56.52 10.59,-38.47 26.99,-26.17"/>
<polygon fill="#63b8ff" stroke="#63b8ff" points="28.93,-29.08 35.15,-20.49 24.94,-23.33 28.93,-29.08"/>
</a>
</g>
</g>
<!-- Node3 -->
<g id="Node000003" class="node">
<title>Node3</title>
<g id="a_Node000003"><a xlink:title=" ">
<polygon fill="#e0e0e0" stroke="#999999" points="326.11,-19.25 277.86,-19.25 277.86,0 326.11,0 326.11,-19.25"/>
<text xml:space="preserve" text-anchor="middle" x="301.99" y="-5.75" font-family="Helvetica,sans-Serif" font-size="10.00">stdint.h</text>
</a>
</g>
</g>
<!-- Node1&#45;&gt;Node3 -->
<g id="edge2_Node000001_Node000003" class="edge">
<title>Node1&#45;&gt;Node3</title>
<g id="a_edge2_Node000001_Node000003"><a xlink:title=" ">
<path fill="none" stroke="#63b8ff" d="M364.77,-165.33C353.76,-145.28 334.1,-107.96 320.99,-74.5 315.29,-59.97 310.32,-43.02 306.9,-30.23"/>
<polygon fill="#63b8ff" stroke="#63b8ff" points="310.38,-29.73 304.49,-20.93 303.6,-31.48 310.38,-29.73"/>
</a>
</g>
</g>
<!-- Node4 -->
<g id="Node000004" class="node">
<title>Node4</title>
<g id="a_Node000004"><a xlink:title=" ">
<polygon fill="#e0e0e0" stroke="#999999" points="681.99,-129.75 635.99,-129.75 635.99,-110.5 681.99,-110.5 681.99,-129.75"/>
<text xml:space="preserve" text-anchor="middle" x="658.99" y="-116.25" font-family="Helvetica,sans-Serif" font-size="10.00">errno.h</text>
</a>
</g>
</g>
<!-- Node1&#45;&gt;Node4 -->
<g id="edge3_Node000001_Node000004" class="edge">
<title>Node1&#45;&gt;Node4</title>
<g id="a_edge3_Node000001_Node000004"><a xlink:title=" ">
<path fill="none" stroke="#63b8ff" d="M430.22,-169.83C479.33,-160.84 552.24,-146.88 624.49,-130.21"/>
<polygon fill="#63b8ff" stroke="#63b8ff" points="625.19,-133.64 634.14,-127.96 623.61,-126.82 625.19,-133.64"/>
</a>
</g>
</g>
<!-- Node5 -->
<g id="Node000005" class="node">
<title>Node5</title>
<g id="a_Node000005"><a xlink:href="woz__port_8h_source.html" target="_top" xlink:title=" ">
<polygon fill="white" stroke="#666666" points="83.99,-74.5 19.99,-74.5 19.99,-55.25 83.99,-55.25 83.99,-74.5"/>
<text xml:space="preserve" text-anchor="middle" x="51.99" y="-61" font-family="Helvetica,sans-Serif" font-size="10.00">woz_port.h</text>
</a>
</g>
</g>
<!-- Node1&#45;&gt;Node5 -->
<g id="edge4_Node000001_Node000005" class="edge">
<title>Node1&#45;&gt;Node5</title>
<g id="a_edge4_Node000001_Node000005"><a xlink:title=" ">
<path fill="none" stroke="#63b8ff" d="M315.77,-179.93C259.19,-177.5 171.91,-167.21 106.99,-129.75 88.22,-118.92 72.76,-99.25 63.06,-84.59"/>
<polygon fill="#63b8ff" stroke="#63b8ff" points="66.13,-82.9 57.86,-76.28 60.2,-86.61 66.13,-82.9"/>
</a>
</g>
</g>
<!-- Node6 -->
<g id="Node000006" class="node">
<title>Node6</title>
<g id="a_Node000006"><a xlink:href="woz__bytes_8h_source.html" target="_top" xlink:title=" ">
<polygon fill="white" stroke="#666666" points="401.74,-74.5 330.24,-74.5 330.24,-55.25 401.74,-55.25 401.74,-74.5"/>
<text xml:space="preserve" text-anchor="middle" x="365.99" y="-61" font-family="Helvetica,sans-Serif" font-size="10.00">woz_bytes.h</text>
</a>
</g>
</g>
<!-- Node1&#45;&gt;Node6 -->
<g id="edge7_Node000001_Node000006" class="edge">
<title>Node1&#45;&gt;Node6</title>
<g id="a_edge7_Node000001_Node000006"><a xlink:title=" ">
<path fill="none" stroke="#63b8ff" d="M367.74,-165.27C364.5,-155.37 360.65,-141.95 358.99,-129.75 357.83,-121.27 358.32,-119.03 358.99,-110.5 359.62,-102.39 360.89,-93.52 362.17,-85.85"/>
<polygon fill="#63b8ff" stroke="#63b8ff" points="365.58,-86.67 363.91,-76.21 358.69,-85.43 365.58,-86.67"/>
</a>
</g>
</g>
<!-- Node7 -->
<g id="Node000007" class="node">
<title>Node7</title>
<g id="a_Node000007"><a xlink:title=" ">
<polygon fill="#e0e0e0" stroke="#999999" points="797.49,-129.75 700.49,-129.75 700.49,-110.5 797.49,-110.5 797.49,-129.75"/>
<text xml:space="preserve" text-anchor="middle" x="748.99" y="-116.25" font-family="Helvetica,sans-Serif" font-size="10.00">deca_device_api.h</text>
</a>
</g>
</g>
<!-- Node1&#45;&gt;Node7 -->
<g id="edge9_Node000001_Node000007" class="edge">
<title>Node1&#45;&gt;Node7</title>
<g id="a_edge9_Node000001_Node000007"><a xlink:title=" ">
<path fill="none" stroke="#63b8ff" d="M430.09,-171.06C500,-160.11 617.85,-141.66 689.03,-130.51"/>
<polygon fill="#63b8ff" stroke="#63b8ff" points="689.21,-134.03 698.55,-129.02 688.13,-127.11 689.21,-134.03"/>
</a>
</g>
</g>
<!-- Node8 -->
<g id="Node000008" class="node">
<title>Node8</title>
<g id="a_Node000008"><a xlink:href="ccc__shim_8h.html" target="_top" xlink:title="— map a per&#45;frame STS index to the (dURSK, STS&#45;V) pair the DW3000 STS engine loads.">
<polygon fill="white" stroke="#666666" points="192.11,-129.75 125.86,-129.75 125.86,-110.5 192.11,-110.5 192.11,-129.75"/>
<text xml:space="preserve" text-anchor="middle" x="158.99" y="-116.25" font-family="Helvetica,sans-Serif" font-size="10.00">ccc_shim.h</text>
</a>
</g>
</g>
<!-- Node1&#45;&gt;Node8 -->
<g id="edge10_Node000001_Node000008" class="edge">
<title>Node1&#45;&gt;Node8</title>
<g id="a_edge10_Node000001_Node000008"><a xlink:title=" ">
<path fill="none" stroke="#63b8ff" d="M319.54,-165.3C283.61,-155.41 236.83,-142.54 203.05,-133.25"/>
<polygon fill="#63b8ff" stroke="#63b8ff" points="204.15,-129.92 193.58,-130.64 202.29,-136.67 204.15,-129.92"/>
</a>
</g>
</g>
<!-- Node10 -->
<g id="Node000010" class="node">
<title>Node10</title>
<g id="a_Node000010"><a xlink:href="ccc__kdf_8h.html" target="_top" xlink:title="UWB ranging key schedule + SP0 frame crypto (CONFIG_WOZ_ALIRO).">
<polygon fill="white" stroke="#666666" points="160.36,-74.5 101.61,-74.5 101.61,-55.25 160.36,-55.25 160.36,-74.5"/>
<text xml:space="preserve" text-anchor="middle" x="130.99" y="-61" font-family="Helvetica,sans-Serif" font-size="10.00">ccc_kdf.h</text>
</a>
</g>
</g>
<!-- Node1&#45;&gt;Node10 -->
<g id="edge18_Node000001_Node000010" class="edge">
<title>Node1&#45;&gt;Node10</title>
<g id="a_edge18_Node000001_Node000010"><a xlink:title=" ">
<path fill="none" stroke="#63b8ff" d="M315.79,-176.99C248.17,-172.1 141.66,-159.74 116.99,-129.75 106.63,-117.16 112.3,-98.59 119.27,-84.72"/>
<polygon fill="#63b8ff" stroke="#63b8ff" points="122.26,-86.55 124.12,-76.12 116.16,-83.11 122.26,-86.55"/>
</a>
</g>
</g>
<!-- Node11 -->
<g id="Node000011" class="node">
<title>Node11</title>
<g id="a_Node000011"><a xlink:href="aliro__round__config_8h.html" target="_top" xlink:title="— one knob for the CCC ranging round&#39;s responder count.">
<polygon fill="white" stroke="#666666" points="918.49,-129.75 815.49,-129.75 815.49,-110.5 918.49,-110.5 918.49,-129.75"/>
<text xml:space="preserve" text-anchor="middle" x="866.99" y="-116.25" font-family="Helvetica,sans-Serif" font-size="10.00">aliro_round_config.h</text>
</a>
</g>
</g>
<!-- Node1&#45;&gt;Node11 -->
<g id="edge17_Node000001_Node000011" class="edge">
<title>Node1&#45;&gt;Node11</title>
<g id="a_edge17_Node000001_Node000011"><a xlink:title=" ">
<path fill="none" stroke="#63b8ff" d="M429.92,-173.91C510.73,-165.16 663.63,-148.19 803.92,-130.12"/>
<polygon fill="#63b8ff" stroke="#63b8ff" points="804.32,-133.6 813.79,-128.84 803.42,-126.65 804.32,-133.6"/>
</a>
</g>
</g>
<!-- Node12 -->
<g id="Node000012" class="node">
<title>Node12</title>
<g id="a_Node000012"><a xlink:href="ccc__mac_8h.html" target="_top" xlink:title="— CCC UWB MAC layer: ranging&#45;round scheduling, SP0 frame codec, DS&#45;TWR.">
<polygon fill="white" stroke="#666666" points="273.99,-129.75 209.99,-129.75 209.99,-110.5 273.99,-110.5 273.99,-129.75"/>
<text xml:space="preserve" text-anchor="middle" x="241.99" y="-116.25" font-family="Helvetica,sans-Serif" font-size="10.00">ccc_mac.h</text>
</a>
</g>
</g>
<!-- Node1&#45;&gt;Node12 -->
<g id="edge19_Node000001_Node000012" class="edge">
<title>Node1&#45;&gt;Node12</title>
<g id="a_edge19_Node000001_Node000012"><a xlink:title=" ">
<path fill="none" stroke="#63b8ff" d="M340.27,-165.3C319.45,-155.94 292.69,-143.91 272.35,-134.77"/>
<polygon fill="#63b8ff" stroke="#63b8ff" points="274.01,-131.68 263.46,-130.77 271.14,-138.07 274.01,-131.68"/>
</a>
</g>
</g>
<!-- Node13 -->
<g id="Node000013" class="node">
<title>Node13</title>
<g id="a_Node000013"><a xlink:href="fira__session_8h.html" target="_top" xlink:title="— Range + URSK store for the CCC Pre&#45;POLL responder.">
<polygon fill="white" stroke="#666666" points="444.36,-129.75 367.61,-129.75 367.61,-110.5 444.36,-110.5 444.36,-129.75"/>
<text xml:space="preserve" text-anchor="middle" x="405.99" y="-116.25" font-family="Helvetica,sans-Serif" font-size="10.00">fira_session.h</text>
</a>
</g>
</g>
<!-- Node1&#45;&gt;Node13 -->
<g id="edge24_Node000001_Node000013" class="edge">
<title>Node1&#45;&gt;Node13</title>
<g id="a_edge24_Node000001_Node000013"><a xlink:title=" ">
<path fill="none" stroke="#63b8ff" d="M381.14,-165.45C385.44,-157.78 390.77,-148.27 395.38,-140.04"/>
<polygon fill="#63b8ff" stroke="#63b8ff" points="398.32,-141.96 400.16,-131.52 392.22,-138.53 398.32,-141.96"/>
</a>
</g>
</g>
<!-- Node14 -->
<g id="Node000014" class="node">
<title>Node14</title>
<g id="a_Node000014"><a xlink:href="uwb__min_8h.html" target="_top" xlink:title="— Minimal DW3110 (DWM3000EVB) hardware bring&#45;up driver.">
<polygon fill="white" stroke="#666666" points="525.61,-129.75 462.36,-129.75 462.36,-110.5 525.61,-110.5 525.61,-129.75"/>
<text xml:space="preserve" text-anchor="middle" x="493.99" y="-116.25" font-family="Helvetica,sans-Serif" font-size="10.00">uwb_min.h</text>
</a>
</g>
</g>
<!-- Node1&#45;&gt;Node14 -->
<g id="edge27_Node000001_Node000014" class="edge">
<title>Node1&#45;&gt;Node14</title>
<g id="a_edge27_Node000001_Node000014"><a xlink:title=" ">
<path fill="none" stroke="#63b8ff" d="M403.21,-165.3C422.17,-156.07 446.47,-144.25 465.16,-135.15"/>
<polygon fill="#63b8ff" stroke="#63b8ff" points="466.61,-138.34 474.07,-130.82 463.54,-132.04 466.61,-138.34"/>
</a>
</g>
</g>
<!-- Node15 -->
<g id="Node000015" class="node">
<title>Node15</title>
<g id="a_Node000015"><a xlink:href="woz__diag_8h.html" target="_top" xlink:title="— DIAGK(): compile&#45;time gate for verbose UWB bring&#45;up diagnostics.">
<polygon fill="white" stroke="#666666" points="1001.74,-129.75 936.24,-129.75 936.24,-110.5 1001.74,-110.5 1001.74,-129.75"/>
<text xml:space="preserve" text-anchor="middle" x="968.99" y="-116.25" font-family="Helvetica,sans-Serif" font-size="10.00">woz_diag.h</text>
</a>
</g>
</g>
<!-- Node1&#45;&gt;Node15 -->
<g id="edge30_Node000001_Node000015" class="edge">
<title>Node1&#45;&gt;Node15</title>
<g id="a_edge30_Node000001_Node000015"><a xlink:title=" ">
<path fill="none" stroke="#63b8ff" d="M429.97,-177.05C528.8,-171.44 738.54,-157.44 924.56,-130.12"/>
<polygon fill="#63b8ff" stroke="#63b8ff" points="925.05,-133.58 934.43,-128.65 924.02,-126.66 925.05,-133.58"/>
</a>
</g>
</g>
<!-- Node17 -->
<g id="Node000017" class="node">
<title>Node17</title>
<g id="a_Node000017"><a xlink:href="uwb__rxdiag_8h.html" target="_top" xlink:title="— Read&#45;side accessors for the RX event tallies + log stream.">
<polygon fill="white" stroke="#666666" points="617.86,-129.75 544.11,-129.75 544.11,-110.5 617.86,-110.5 617.86,-129.75"/>
<text xml:space="preserve" text-anchor="middle" x="580.99" y="-116.25" font-family="Helvetica,sans-Serif" font-size="10.00">uwb_rxdiag.h</text>
</a>
</g>
</g>
<!-- Node1&#45;&gt;Node17 -->
<g id="edge32_Node000001_Node000017" class="edge">
<title>Node1&#45;&gt;Node17</title>
<g id="a_edge32_Node000001_Node000017"><a xlink:title=" ">
<path fill="none" stroke="#63b8ff" d="M424.94,-165.3C459.7,-155.45 504.93,-142.65 537.73,-133.37"/>
<polygon fill="#63b8ff" stroke="#63b8ff" points="538.66,-136.74 547.32,-130.65 536.75,-130.01 538.66,-136.74"/>
</a>
</g>
</g>
<!-- Node5&#45;&gt;Node2 -->
<g id="edge5_Node000005_Node000002" class="edge">
<title>Node5&#45;&gt;Node2</title>
<g id="a_edge5_Node000005_Node000002"><a xlink:title=" ">
<path fill="none" stroke="#63b8ff" d="M51.99,-55.08C51.99,-48.57 51.99,-39.42 51.99,-31.12"/>
<polygon fill="#63b8ff" stroke="#63b8ff" points="55.49,-31.12 51.99,-21.12 48.49,-31.12 55.49,-31.12"/>
</a>
</g>
</g>
<!-- Node5&#45;&gt;Node3 -->
<g id="edge6_Node000005_Node000003" class="edge">
<title>Node5&#45;&gt;Node3</title>
<g id="a_edge6_Node000005_Node000003"><a xlink:title=" ">
<path fill="none" stroke="#63b8ff" d="M84.41,-56.97C131.28,-46.99 217.65,-28.59 266.29,-18.23"/>
<polygon fill="#63b8ff" stroke="#63b8ff" points="266.97,-21.66 276.02,-16.16 265.51,-14.82 266.97,-21.66"/>
</a>
</g>
</g>
<!-- Node6&#45;&gt;Node3 -->
<g id="edge8_Node000006_Node000003" class="edge">
<title>Node6&#45;&gt;Node3</title>
<g id="a_edge8_Node000006_Node000003"><a xlink:title=" ">
<path fill="none" stroke="#63b8ff" d="M355.13,-54.84C345.88,-47.15 332.36,-35.9 321.28,-26.68"/>
<polygon fill="#63b8ff" stroke="#63b8ff" points="323.77,-24.2 313.85,-20.49 319.29,-29.58 323.77,-24.2"/>
</a>
</g>
</g>
<!-- Node8&#45;&gt;Node2 -->
<g id="edge12_Node000008_Node000002" class="edge">
<title>Node8&#45;&gt;Node2</title>
<g id="a_edge12_Node000008_Node000002"><a xlink:title=" ">
<path fill="none" stroke="#63b8ff" d="M125.55,-119.67C90.59,-118.21 37.23,-109.83 10.99,-74.5 -0.71,-58.76 15.04,-39.74 30.29,-26.57"/>
<polygon fill="#63b8ff" stroke="#63b8ff" points="32.22,-29.5 37.81,-20.51 27.83,-24.05 32.22,-29.5"/>
</a>
</g>
</g>
<!-- Node8&#45;&gt;Node3 -->
<g id="edge13_Node000008_Node000003" class="edge">
<title>Node8&#45;&gt;Node3</title>
<g id="a_edge13_Node000008_Node000003"><a xlink:title=" ">
<path fill="none" stroke="#63b8ff" d="M170.69,-110.25C194.88,-91.89 250.7,-49.54 281.19,-26.41"/>
<polygon fill="#63b8ff" stroke="#63b8ff" points="283.07,-29.37 288.92,-20.54 278.83,-23.8 283.07,-29.37"/>
</a>
</g>
</g>
<!-- Node9 -->
<g id="Node000009" class="node">
<title>Node9</title>
<g id="a_Node000009"><a xlink:title=" ">
<polygon fill="#e0e0e0" stroke="#999999" points="475.86,-74.5 420.11,-74.5 420.11,-55.25 475.86,-55.25 475.86,-74.5"/>
<text xml:space="preserve" text-anchor="middle" x="447.99" y="-61" font-family="Helvetica,sans-Serif" font-size="10.00">stdbool.h</text>
</a>
</g>
</g>
<!-- Node8&#45;&gt;Node9 -->
<g id="edge11_Node000008_Node000009" class="edge">
<title>Node8&#45;&gt;Node9</title>
<g id="a_edge11_Node000008_Node000009"><a xlink:title=" ">
<path fill="none" stroke="#63b8ff" d="M192.44,-112.15C195.33,-111.58 198.21,-111.02 200.99,-110.5 290.5,-93.64 316.23,-93.26 408.46,-74.91"/>
<polygon fill="#63b8ff" stroke="#63b8ff" points="409.14,-78.34 418.26,-72.94 407.76,-71.48 409.14,-78.34"/>
</a>
</g>
</g>
<!-- Node8&#45;&gt;Node10 -->
<g id="edge14_Node000008_Node000010" class="edge">
<title>Node8&#45;&gt;Node10</title>
<g id="a_edge14_Node000008_Node000010"><a xlink:title=" ">
<path fill="none" stroke="#63b8ff" d="M154.36,-110.33C150.74,-103.44 145.56,-93.59 141,-84.91"/>
<polygon fill="#63b8ff" stroke="#63b8ff" points="144.17,-83.42 136.41,-76.2 137.97,-86.68 144.17,-83.42"/>
</a>
</g>
</g>
<!-- Node10&#45;&gt;Node2 -->
<g id="edge15_Node000010_Node000002" class="edge">
<title>Node10&#45;&gt;Node2</title>
<g id="a_edge15_Node000010_Node000002"><a xlink:title=" ">
<path fill="none" stroke="#63b8ff" d="M117.58,-54.84C105.89,-46.96 88.68,-35.36 74.83,-26.02"/>
<polygon fill="#63b8ff" stroke="#63b8ff" points="76.96,-23.24 66.71,-20.55 73.04,-29.04 76.96,-23.24"/>
</a>
</g>
</g>
<!-- Node10&#45;&gt;Node3 -->
<g id="edge16_Node000010_Node000003" class="edge">
<title>Node10&#45;&gt;Node3</title>
<g id="a_edge16_Node000010_Node000003"><a xlink:title=" ">
<path fill="none" stroke="#63b8ff" d="M159.99,-54.84C189.44,-45.67 235.07,-31.46 266.62,-21.64"/>
<polygon fill="#63b8ff" stroke="#63b8ff" points="267.6,-25 276.11,-18.68 265.52,-18.32 267.6,-25"/>
</a>
</g>
</g>
<!-- Node12&#45;&gt;Node2 -->
<g id="edge21_Node000012_Node000002" class="edge">
<title>Node12&#45;&gt;Node2</title>
<g id="a_edge21_Node000012_Node000002"><a xlink:title=" ">
<path fill="none" stroke="#63b8ff" d="M233.8,-110.16C221.07,-96.67 195.25,-71.05 168.99,-55.25 143.74,-40.06 112.43,-28.45 88.55,-20.88"/>
<polygon fill="#63b8ff" stroke="#63b8ff" points="89.86,-17.62 79.27,-18.03 87.81,-24.31 89.86,-17.62"/>
</a>
</g>
</g>
<!-- Node12&#45;&gt;Node3 -->
<g id="edge22_Node000012_Node000003" class="edge">
<title>Node12&#45;&gt;Node3</title>
<g id="a_edge22_Node000012_Node000003"><a xlink:title=" ">
<path fill="none" stroke="#63b8ff" d="M246.9,-110.25C256.61,-92.68 278.46,-53.16 291.54,-29.52"/>
<polygon fill="#63b8ff" stroke="#63b8ff" points="294.5,-31.4 296.28,-20.95 288.37,-28.01 294.5,-31.4"/>
</a>
</g>
</g>
<!-- Node12&#45;&gt;Node9 -->
<g id="edge20_Node000012_Node000009" class="edge">
<title>Node12&#45;&gt;Node9</title>
<g id="a_edge20_Node000012_Node000009"><a xlink:title=" ">
<path fill="none" stroke="#63b8ff" d="M274.17,-110.8C310.53,-101.41 369.7,-86.11 408.74,-76.02"/>
<polygon fill="#63b8ff" stroke="#63b8ff" points="409.4,-79.47 418.2,-73.57 407.64,-72.69 409.4,-79.47"/>
</a>
</g>
</g>
<!-- Node12&#45;&gt;Node10 -->
<g id="edge23_Node000012_Node000010" class="edge">
<title>Node12&#45;&gt;Node10</title>
<g id="a_edge23_Node000012_Node000010"><a xlink:title=" ">
<path fill="none" stroke="#63b8ff" d="M223.16,-110.09C205.93,-101.83 180.18,-89.48 160.28,-79.93"/>
<polygon fill="#63b8ff" stroke="#63b8ff" points="161.8,-76.78 151.27,-75.61 158.77,-83.09 161.8,-76.78"/>
</a>
</g>
</g>
<!-- Node13&#45;&gt;Node3 -->
<g id="edge26_Node000013_Node000003" class="edge">
<title>Node13&#45;&gt;Node3</title>
<g id="a_edge26_Node000013_Node000003"><a xlink:title=" ">
<path fill="none" stroke="#63b8ff" d="M433.8,-110.03C463.31,-98.9 503.34,-78.62 484.99,-55.25 467.06,-32.43 386.05,-19.8 338.03,-14.21"/>
<polygon fill="#63b8ff" stroke="#63b8ff" points="338.42,-10.73 328.09,-13.1 337.65,-17.68 338.42,-10.73"/>
</a>
</g>
</g>
<!-- Node13&#45;&gt;Node9 -->
<g id="edge25_Node000013_Node000009" class="edge">
<title>Node13&#45;&gt;Node9</title>
<g id="a_edge25_Node000013_Node000009"><a xlink:title=" ">
<path fill="none" stroke="#63b8ff" d="M412.92,-110.33C418.6,-103.13 426.82,-92.71 433.88,-83.76"/>
<polygon fill="#63b8ff" stroke="#63b8ff" points="436.52,-86.07 439.96,-76.05 431.02,-81.73 436.52,-86.07"/>
</a>
</g>
</g>
<!-- Node14&#45;&gt;Node3 -->
<g id="edge29_Node000014_Node000003" class="edge">
<title>Node14&#45;&gt;Node3</title>
<g id="a_edge29_Node000014_Node000003"><a xlink:title=" ">
<path fill="none" stroke="#63b8ff" d="M498.58,-110.17C504.78,-96.7 513.67,-71.1 500.99,-55.25 480.92,-30.18 389.4,-18.24 337.74,-13.4"/>
<polygon fill="#63b8ff" stroke="#63b8ff" points="338.23,-9.93 327.96,-12.53 337.61,-16.9 338.23,-9.93"/>
</a>
</g>
</g>
<!-- Node14&#45;&gt;Node9 -->
<g id="edge28_Node000014_Node000009" class="edge">
<title>Node14&#45;&gt;Node9</title>
<g id="a_edge28_Node000014_Node000009"><a xlink:title=" ">
<path fill="none" stroke="#63b8ff" d="M486.39,-110.33C480.1,-103.05 470.97,-92.48 463.19,-83.48"/>
<polygon fill="#63b8ff" stroke="#63b8ff" points="465.92,-81.28 456.74,-76 460.62,-85.86 465.92,-81.28"/>
</a>
</g>
</g>
<!-- Node16 -->
<g id="Node000016" class="node">
<title>Node16</title>
<g id="a_Node000016"><a xlink:href="woz__log_8h_source.html" target="_top" xlink:title=" ">
<polygon fill="white" stroke="#666666" points="999.11,-74.5 938.86,-74.5 938.86,-55.25 999.11,-55.25 999.11,-74.5"/>
<text xml:space="preserve" text-anchor="middle" x="968.99" y="-61" font-family="Helvetica,sans-Serif" font-size="10.00">woz_log.h</text>
</a>
</g>
</g>
<!-- Node15&#45;&gt;Node16 -->
<g id="edge31_Node000015_Node000016" class="edge">
<title>Node15&#45;&gt;Node16</title>
<g id="a_edge31_Node000015_Node000016"><a xlink:title=" ">
<path fill="none" stroke="#63b8ff" d="M968.99,-110.33C968.99,-103.82 968.99,-94.67 968.99,-86.37"/>
<polygon fill="#63b8ff" stroke="#63b8ff" points="972.49,-86.37 968.99,-76.37 965.49,-86.37 972.49,-86.37"/>
</a>
</g>
</g>
<!-- Node17&#45;&gt;Node3 -->
<g id="edge34_Node000017_Node000003" class="edge">
<title>Node17&#45;&gt;Node3</title>
<g id="a_edge34_Node000017_Node000003"><a xlink:title=" ">
<path fill="none" stroke="#63b8ff" d="M574.81,-110.06C564.69,-95.95 543.16,-68.94 517.99,-55.25 460.21,-23.83 382.73,-14.49 338,-11.74"/>
<polygon fill="#63b8ff" stroke="#63b8ff" points="338.24,-8.24 328.07,-11.21 337.87,-15.23 338.24,-8.24"/>
</a>
</g>
</g>
<!-- Node17&#45;&gt;Node9 -->
<g id="edge33_Node000017_Node000009" class="edge">
<title>Node17&#45;&gt;Node9</title>
<g id="a_edge33_Node000017_Node000009"><a xlink:title=" ">
<path fill="none" stroke="#63b8ff" d="M558.42,-110.09C537.22,-101.6 505.21,-88.79 481.11,-79.14"/>
<polygon fill="#63b8ff" stroke="#63b8ff" points="482.65,-75.98 472.06,-75.52 480.05,-82.48 482.65,-75.98"/>
</a>
</g>
</g>
</g>
</svg>
