<?xml version="1.0" encoding="UTF-8" standalone="no"?>
<!DOCTYPE svg PUBLIC "-//W3C//DTD SVG 1.1//EN"
 "http://www.w3.org/Graphics/SVG/1.1/DTD/svg11.dtd">
<!-- Generated by graphviz version 15.0.0 (20260523.1842)
 -->
<!-- Title: modules/woz_uwb/src/ccc/ccc_sts.c Pages: 1 -->
<svg width="285pt" height="204pt"
 viewBox="0.00 0.00 285.00 204.00" xmlns="http://www.w3.org/2000/svg" xmlns:xlink="http://www.w3.org/1999/xlink">

<svg id="main" version="1.1" xmlns="http://www.w3.org/2000/svg" xmlns:xlink="http://www.w3.org/1999/xlink" xml:space="preserve">

<style type="text/css"><![CDATA[
.node, .edge {opacity: 0.7;}
.node.selected, .edge.selected {opacity: 1;}
.edge:hover path { stroke: red; }
.edge:hover polygon { stroke: red; fill: red; }
]]></style>
<script type="application/ecmascript" xlink:href="svg.min.js"/>
<svg id="graph" class="graph">
<g id="graph0" class="graph" transform="scale(1 1) rotate(0) translate(4 200.25)">
<title>modules/woz_uwb/src/ccc/ccc_sts.c</title>
<!-- Node1 -->
<g id="Node000001" class="node">
<title>Node1</title>
<g id="a_Node000001"><a xlink:title="— DW3000 STS register load for the CCC ranging path.">
<polygon fill="#999999" stroke="#666666" points="182.38,-196.25 68.88,-196.25 68.88,-165.75 182.38,-165.75 182.38,-196.25"/>
<text xml:space="preserve" text-anchor="start" x="76.88" y="-182.75" font-family="Helvetica,sans-Serif" font-size="10.00">modules/woz_uwb/src</text>
<text xml:space="preserve" text-anchor="middle" x="125.62" y="-171.5" font-family="Helvetica,sans-Serif" font-size="10.00">/ccc/ccc_sts.c</text>
</a>
</g>
</g>
<!-- Node2 -->
<g id="Node000002" class="node">
<title>Node2</title>
<g id="a_Node000002"><a xlink:href="ccc__sts_8h.html" target="_top" xlink:title="— load a CCC ranging PPDU&#39;s STS key + IV into the DW3000 STS engine.">
<polygon fill="white" stroke="#666666" points="60,-129.75 1.25,-129.75 1.25,-110.5 60,-110.5 60,-129.75"/>
<text xml:space="preserve" text-anchor="middle" x="30.62" y="-116.25" font-family="Helvetica,sans-Serif" font-size="10.00">ccc_sts.h</text>
</a>
</g>
</g>
<!-- Node1&#45;&gt;Node2 -->
<g id="edge1_Node000001_Node000002" class="edge">
<title>Node1&#45;&gt;Node2</title>
<g id="a_edge1_Node000001_Node000002"><a xlink:title=" ">
<path fill="none" stroke="#63b8ff" d="M102.14,-165.45C87.82,-156.57 69.54,-145.24 55.04,-136.26"/>
<polygon fill="#63b8ff" stroke="#63b8ff" points="56.9,-133.29 46.56,-131 53.21,-139.24 56.9,-133.29"/>
</a>
</g>
</g>
<!-- Node6 -->
<g id="Node000006" class="node">
<title>Node6</title>
<g id="a_Node000006"><a xlink:title=" ">
<polygon fill="#e0e0e0" stroke="#999999" points="123.62,-129.75 77.62,-129.75 77.62,-110.5 123.62,-110.5 123.62,-129.75"/>
<text xml:space="preserve" text-anchor="middle" x="100.62" y="-116.25" font-family="Helvetica,sans-Serif" font-size="10.00">errno.h</text>
</a>
</g>
</g>
<!-- Node1&#45;&gt;Node6 -->
<g id="edge6_Node000001_Node000006" class="edge">
<title>Node1&#45;&gt;Node6</title>
<g id="a_edge6_Node000001_Node000006"><a xlink:title=" ">
<path fill="none" stroke="#63b8ff" d="M119.45,-165.45C116.26,-157.95 112.33,-148.7 108.89,-140.6"/>
<polygon fill="#63b8ff" stroke="#63b8ff" points="112.2,-139.43 105.07,-131.59 105.76,-142.17 112.2,-139.43"/>
</a>
</g>
</g>
<!-- Node7 -->
<g id="Node000007" class="node">
<title>Node7</title>
<g id="a_Node000007"><a xlink:href="woz__bytes_8h_source.html" target="_top" xlink:title=" ">
<polygon fill="white" stroke="#666666" points="187.38,-74.5 115.88,-74.5 115.88,-55.25 187.38,-55.25 187.38,-74.5"/>
<text xml:space="preserve" text-anchor="middle" x="151.62" y="-61" font-family="Helvetica,sans-Serif" font-size="10.00">woz_bytes.h</text>
</a>
</g>
</g>
<!-- Node1&#45;&gt;Node7 -->
<g id="edge7_Node000001_Node000007" class="edge">
<title>Node1&#45;&gt;Node7</title>
<g id="a_edge7_Node000001_Node000007"><a xlink:title=" ">
<path fill="none" stroke="#63b8ff" d="M128.92,-165.55C133.51,-145.4 141.84,-108.81 147.04,-86"/>
<polygon fill="#63b8ff" stroke="#63b8ff" points="150.41,-86.95 149.22,-76.42 143.59,-85.4 150.41,-86.95"/>
</a>
</g>
</g>
<!-- Node8 -->
<g id="Node000008" class="node">
<title>Node8</title>
<g id="a_Node000008"><a xlink:title=" ">
<polygon fill="#e0e0e0" stroke="#999999" points="277.12,-129.75 180.12,-129.75 180.12,-110.5 277.12,-110.5 277.12,-129.75"/>
<text xml:space="preserve" text-anchor="middle" x="228.62" y="-116.25" font-family="Helvetica,sans-Serif" font-size="10.00">deca_device_api.h</text>
</a>
</g>
</g>
<!-- Node1&#45;&gt;Node8 -->
<g id="edge9_Node000001_Node000008" class="edge">
<title>Node1&#45;&gt;Node8</title>
<g id="a_edge9_Node000001_Node000008"><a xlink:title=" ">
<path fill="none" stroke="#63b8ff" d="M151.35,-165.3C167.19,-156.24 187.41,-144.69 203.19,-135.66"/>
<polygon fill="#63b8ff" stroke="#63b8ff" points="204.57,-138.91 211.52,-130.91 201.1,-132.83 204.57,-138.91"/>
</a>
</g>
</g>
<!-- Node3 -->
<g id="Node000003" class="node">
<title>Node3</title>
<g id="a_Node000003"><a xlink:title=" ">
<polygon fill="#e0e0e0" stroke="#999999" points="117.75,-19.25 69.5,-19.25 69.5,0 117.75,0 117.75,-19.25"/>
<text xml:space="preserve" text-anchor="middle" x="93.62" y="-5.75" font-family="Helvetica,sans-Serif" font-size="10.00">stdint.h</text>
</a>
</g>
</g>
<!-- Node2&#45;&gt;Node3 -->
<g id="edge2_Node000002_Node000003" class="edge">
<title>Node2&#45;&gt;Node3</title>
<g id="a_edge2_Node000002_Node000003"><a xlink:title=" ">
<path fill="none" stroke="#63b8ff" d="M39.76,-110.25C48.15,-101.71 60.47,-88.12 68.62,-74.5 76.96,-60.57 83.5,-43.37 87.8,-30.33"/>
<polygon fill="#63b8ff" stroke="#63b8ff" points="91.02,-31.77 90.66,-21.18 84.34,-29.68 91.02,-31.77"/>
</a>
</g>
</g>
<!-- Node4 -->
<g id="Node000004" class="node">
<title>Node4</title>
<g id="a_Node000004"><a xlink:href="ccc__kdf_8h.html" target="_top" xlink:title="UWB ranging key schedule + SP0 frame crypto (CONFIG_WOZ_ALIRO).">
<polygon fill="white" stroke="#666666" points="60,-74.5 1.25,-74.5 1.25,-55.25 60,-55.25 60,-74.5"/>
<text xml:space="preserve" text-anchor="middle" x="30.62" y="-61" font-family="Helvetica,sans-Serif" font-size="10.00">ccc_kdf.h</text>
</a>
</g>
</g>
<!-- Node2&#45;&gt;Node4 -->
<g id="edge3_Node000002_Node000004" class="edge">
<title>Node2&#45;&gt;Node4</title>
<g id="a_edge3_Node000002_Node000004"><a xlink:title=" ">
<path fill="none" stroke="#63b8ff" d="M30.62,-110.33C30.62,-103.82 30.62,-94.67 30.62,-86.37"/>
<polygon fill="#63b8ff" stroke="#63b8ff" points="34.13,-86.37 30.63,-76.37 27.13,-86.37 34.13,-86.37"/>
</a>
</g>
</g>
<!-- Node4&#45;&gt;Node3 -->
<g id="edge5_Node000004_Node000003" class="edge">
<title>Node4&#45;&gt;Node3</title>
<g id="a_edge5_Node000004_Node000003"><a xlink:title=" ">
<path fill="none" stroke="#63b8ff" d="M41.31,-54.84C50.33,-47.22 63.46,-36.12 74.31,-26.95"/>
<polygon fill="#63b8ff" stroke="#63b8ff" points="76.56,-29.63 81.94,-20.5 72.04,-24.28 76.56,-29.63"/>
</a>
</g>
</g>
<!-- Node5 -->
<g id="Node000005" class="node">
<title>Node5</title>
<g id="a_Node000005"><a xlink:title=" ">
<polygon fill="#e0e0e0" stroke="#999999" points="51.25,-19.25 0,-19.25 0,0 51.25,0 51.25,-19.25"/>
<text xml:space="preserve" text-anchor="middle" x="25.62" y="-5.75" font-family="Helvetica,sans-Serif" font-size="10.00">stddef.h</text>
</a>
</g>
</g>
<!-- Node4&#45;&gt;Node5 -->
<g id="edge4_Node000004_Node000005" class="edge">
<title>Node4&#45;&gt;Node5</title>
<g id="a_edge4_Node000004_Node000005"><a xlink:title=" ">
<path fill="none" stroke="#63b8ff" d="M29.8,-55.08C29.18,-48.49 28.31,-39.21 27.52,-30.82"/>
<polygon fill="#63b8ff" stroke="#63b8ff" points="31.03,-30.75 26.61,-21.12 24.06,-31.4 31.03,-30.75"/>
</a>
</g>
</g>
<!-- Node7&#45;&gt;Node3 -->
<g id="edge8_Node000007_Node000003" class="edge">
<title>Node7&#45;&gt;Node3</title>
<g id="a_edge8_Node000007_Node000003"><a xlink:title=" ">
<path fill="none" stroke="#63b8ff" d="M141.79,-54.84C133.57,-47.3 121.64,-36.35 111.71,-27.23"/>
<polygon fill="#63b8ff" stroke="#63b8ff" points="114.17,-24.73 104.43,-20.55 109.43,-29.89 114.17,-24.73"/>
</a>
</g>
</g>
</g>
</svg>
</svg>

<style type='text/css'>
<![CDATA[
[data-mouse-over-selected='false'] { opacity: 0.7; }
[data-mouse-over-selected='true']  { opacity: 1.0; }
]]>
</style>
<script type="application/ecmascript"><![CDATA[
document.addEventListener('DOMContentLoaded', (event) => {
  highlightEdges();
  highlightAdjacentNodes();
});
]]></script>
</svg>
