<?xml version="1.0" encoding="UTF-8" standalone="no"?>
<!DOCTYPE svg PUBLIC "-//W3C//DTD SVG 1.1//EN"
 "http://www.w3.org/Graphics/SVG/1.1/DTD/svg11.dtd">
<!-- Generated by graphviz version 15.0.0 (20260523.1842)
 -->
<!-- Title: modules/woz_uwb/src/ccc/ccc_shim_wrap.c Pages: 1 -->
<svg width="342pt" height="204pt"
 viewBox="0.00 0.00 342.00 204.00" xmlns="http://www.w3.org/2000/svg" xmlns:xlink="http://www.w3.org/1999/xlink">

<svg id="main" version="1.1" xmlns="http://www.w3.org/2000/svg" xmlns:xlink="http://www.w3.org/1999/xlink" xml:space="preserve">

<style type="text/css"><![CDATA[
.node, .edge {opacity: 0.7;}
.node.selected, .edge.selected {opacity: 1;}
.edge:hover path { stroke: red; }
.edge:hover polygon { stroke: red; fill: red; }
]]></style>
<script type="application/ecmascript" xlink:href="svg.min.js"/>
<svg id="graph" class="graph">
<g id="graph0" class="graph" transform="scale(1 1) rotate(0) translate(4 200.25)">
<title>modules/woz_uwb/src/ccc/ccc_shim_wrap.c</title>
<!-- Node1 -->
<g id="Node000001" class="node">
<title>Node1</title>
<g id="a_Node000001"><a xlink:title="— per&#45;frame STS interception (ld &#45;&#45;wrap=dwt_configurestsiv) substituting CCC STS for the FiRa MAC; ta...">
<polygon fill="#999999" stroke="#666666" points="184.87,-196.25 70.62,-196.25 70.62,-165.75 184.87,-165.75 184.87,-196.25"/>
<text xml:space="preserve" text-anchor="start" x="78.62" y="-182.75" font-family="Helvetica,sans-Serif" font-size="10.00">modules/woz_uwb/src</text>
<text xml:space="preserve" text-anchor="middle" x="127.74" y="-171.5" font-family="Helvetica,sans-Serif" font-size="10.00">/ccc/ccc_shim_wrap.c</text>
</a>
</g>
</g>
<!-- Node2 -->
<g id="Node000002" class="node">
<title>Node2</title>
<g id="a_Node000002"><a xlink:title=" ">
<polygon fill="#e0e0e0" stroke="#999999" points="251.37,-19.25 200.12,-19.25 200.12,0 251.37,0 251.37,-19.25"/>
<text xml:space="preserve" text-anchor="middle" x="225.74" y="-5.75" font-family="Helvetica,sans-Serif" font-size="10.00">stddef.h</text>
</a>
</g>
</g>
<!-- Node1&#45;&gt;Node2 -->
<g id="edge1_Node000001_Node000002" class="edge">
<title>Node1&#45;&gt;Node2</title>
<g id="a_edge1_Node000001_Node000002"><a xlink:title=" ">
<path fill="none" stroke="#63b8ff" d="M185.3,-173.31C237.7,-165.89 309.45,-151.96 326.74,-129.75 337.23,-116.29 337.26,-80.46 318.74,-55.25 305.3,-36.95 282.35,-25.83 262.62,-19.26"/>
<polygon fill="#63b8ff" stroke="#63b8ff" points="263.8,-15.97 253.22,-16.43 261.78,-22.67 263.8,-15.97"/>
</a>
</g>
</g>
<!-- Node3 -->
<g id="Node000003" class="node">
<title>Node3</title>
<g id="a_Node000003"><a xlink:title=" ">
<polygon fill="#e0e0e0" stroke="#999999" points="103.87,-19.25 55.62,-19.25 55.62,0 103.87,0 103.87,-19.25"/>
<text xml:space="preserve" text-anchor="middle" x="79.74" y="-5.75" font-family="Helvetica,sans-Serif" font-size="10.00">stdint.h</text>
</a>
</g>
</g>
<!-- Node1&#45;&gt;Node3 -->
<g id="edge2_Node000001_Node000003" class="edge">
<title>Node1&#45;&gt;Node3</title>
<g id="a_edge2_Node000001_Node000003"><a xlink:title=" ">
<path fill="none" stroke="#63b8ff" d="M93.09,-165.29C75.48,-156.67 54.53,-144.56 38.74,-129.75 17.37,-109.69 11.09,-102.59 2.74,-74.5 0.31,-66.3 -1.53,-62.66 2.74,-55.25 11.83,-39.48 28.86,-28.77 44.6,-21.81"/>
<polygon fill="#63b8ff" stroke="#63b8ff" points="45.79,-25.1 53.77,-18.13 43.19,-18.6 45.79,-25.1"/>
</a>
</g>
</g>
<!-- Node4 -->
<g id="Node000004" class="node">
<title>Node4</title>
<g id="a_Node000004"><a xlink:href="woz__log_8h_source.html" target="_top" xlink:title=" ">
<polygon fill="white" stroke="#666666" points="117.87,-129.75 57.62,-129.75 57.62,-110.5 117.87,-110.5 117.87,-129.75"/>
<text xml:space="preserve" text-anchor="middle" x="87.74" y="-116.25" font-family="Helvetica,sans-Serif" font-size="10.00">woz_log.h</text>
</a>
</g>
</g>
<!-- Node1&#45;&gt;Node4 -->
<g id="edge3_Node000001_Node000004" class="edge">
<title>Node1&#45;&gt;Node4</title>
<g id="a_edge3_Node000001_Node000004"><a xlink:title=" ">
<path fill="none" stroke="#63b8ff" d="M117.86,-165.45C112.53,-157.6 105.9,-147.85 100.22,-139.49"/>
<polygon fill="#63b8ff" stroke="#63b8ff" points="103.28,-137.76 94.76,-131.45 97.49,-141.69 103.28,-137.76"/>
</a>
</g>
</g>
<!-- Node5 -->
<g id="Node000005" class="node">
<title>Node5</title>
<g id="a_Node000005"><a xlink:href="woz__bytes_8h_source.html" target="_top" xlink:title=" ">
<polygon fill="white" stroke="#666666" points="83.49,-74.5 11.99,-74.5 11.99,-55.25 83.49,-55.25 83.49,-74.5"/>
<text xml:space="preserve" text-anchor="middle" x="47.74" y="-61" font-family="Helvetica,sans-Serif" font-size="10.00">woz_bytes.h</text>
</a>
</g>
</g>
<!-- Node1&#45;&gt;Node5 -->
<g id="edge4_Node000001_Node000005" class="edge">
<title>Node1&#45;&gt;Node5</title>
<g id="a_edge4_Node000001_Node000005"><a xlink:title=" ">
<path fill="none" stroke="#63b8ff" d="M89.31,-165.27C73.86,-157.24 57.63,-145.64 48.74,-129.75 41.36,-116.55 41.56,-99.28 43.36,-86.03"/>
<polygon fill="#63b8ff" stroke="#63b8ff" points="46.78,-86.77 45.11,-76.3 39.89,-85.53 46.78,-86.77"/>
</a>
</g>
</g>
<!-- Node6 -->
<g id="Node000006" class="node">
<title>Node6</title>
<g id="a_Node000006"><a xlink:title=" ">
<polygon fill="#e0e0e0" stroke="#999999" points="317.24,-129.75 220.24,-129.75 220.24,-110.5 317.24,-110.5 317.24,-129.75"/>
<text xml:space="preserve" text-anchor="middle" x="268.74" y="-116.25" font-family="Helvetica,sans-Serif" font-size="10.00">deca_device_api.h</text>
</a>
</g>
</g>
<!-- Node1&#45;&gt;Node6 -->
<g id="edge6_Node000001_Node000006" class="edge">
<title>Node1&#45;&gt;Node6</title>
<g id="a_edge6_Node000001_Node000006"><a xlink:title=" ">
<path fill="none" stroke="#63b8ff" d="M162.96,-165.3C185.57,-155.85 214.7,-143.69 236.67,-134.52"/>
<polygon fill="#63b8ff" stroke="#63b8ff" points="237.85,-137.82 245.72,-130.74 235.15,-131.36 237.85,-137.82"/>
</a>
</g>
</g>
<!-- Node7 -->
<g id="Node000007" class="node">
<title>Node7</title>
<g id="a_Node000007"><a xlink:href="ccc__shim_8h.html" target="_top" xlink:title="— map a per&#45;frame STS index to the (dURSK, STS&#45;V) pair the DW3000 STS engine loads.">
<polygon fill="white" stroke="#666666" points="201.87,-129.75 135.62,-129.75 135.62,-110.5 201.87,-110.5 201.87,-129.75"/>
<text xml:space="preserve" text-anchor="middle" x="168.74" y="-116.25" font-family="Helvetica,sans-Serif" font-size="10.00">ccc_shim.h</text>
</a>
</g>
</g>
<!-- Node1&#45;&gt;Node7 -->
<g id="edge7_Node000001_Node000007" class="edge">
<title>Node1&#45;&gt;Node7</title>
<g id="a_edge7_Node000001_Node000007"><a xlink:title=" ">
<path fill="none" stroke="#63b8ff" d="M137.88,-165.45C143.34,-157.6 150.14,-147.85 155.96,-139.49"/>
<polygon fill="#63b8ff" stroke="#63b8ff" points="158.72,-141.65 161.56,-131.44 152.97,-137.65 158.72,-141.65"/>
</a>
</g>
</g>
<!-- Node5&#45;&gt;Node3 -->
<g id="edge5_Node000005_Node000003" class="edge">
<title>Node5&#45;&gt;Node3</title>
<g id="a_edge5_Node000005_Node000003"><a xlink:title=" ">
<path fill="none" stroke="#63b8ff" d="M53.03,-55.08C57.22,-48.11 63.22,-38.12 68.48,-29.37"/>
<polygon fill="#63b8ff" stroke="#63b8ff" points="71.42,-31.28 73.57,-20.91 65.42,-27.68 71.42,-31.28"/>
</a>
</g>
</g>
<!-- Node7&#45;&gt;Node2 -->
<g id="edge9_Node000007_Node000002" class="edge">
<title>Node7&#45;&gt;Node2</title>
<g id="a_edge9_Node000007_Node000002"><a xlink:title=" ">
<path fill="none" stroke="#63b8ff" d="M178.48,-110.08C187.04,-101.62 199.27,-88.27 206.74,-74.5 214.27,-60.63 219.17,-43.41 222.11,-30.34"/>
<polygon fill="#63b8ff" stroke="#63b8ff" points="225.48,-31.31 224.04,-20.82 218.62,-29.92 225.48,-31.31"/>
</a>
</g>
</g>
<!-- Node7&#45;&gt;Node3 -->
<g id="edge10_Node000007_Node000003" class="edge">
<title>Node7&#45;&gt;Node3</title>
<g id="a_edge10_Node000007_Node000003"><a xlink:title=" ">
<path fill="none" stroke="#63b8ff" d="M161.09,-110.3C153.36,-101.35 141.1,-87.06 130.74,-74.5 117.94,-58.97 103.67,-41.04 93.48,-28.14"/>
<polygon fill="#63b8ff" stroke="#63b8ff" points="96.46,-26.26 87.52,-20.56 90.96,-30.59 96.46,-26.26"/>
</a>
</g>
</g>
<!-- Node8 -->
<g id="Node000008" class="node">
<title>Node8</title>
<g id="a_Node000008"><a xlink:title=" ">
<polygon fill="#e0e0e0" stroke="#999999" points="309.62,-74.5 253.87,-74.5 253.87,-55.25 309.62,-55.25 309.62,-74.5"/>
<text xml:space="preserve" text-anchor="middle" x="281.74" y="-61" font-family="Helvetica,sans-Serif" font-size="10.00">stdbool.h</text>
</a>
</g>
</g>
<!-- Node7&#45;&gt;Node8 -->
<g id="edge8_Node000007_Node000008" class="edge">
<title>Node7&#45;&gt;Node8</title>
<g id="a_edge8_Node000007_Node000008"><a xlink:title=" ">
<path fill="none" stroke="#63b8ff" d="M187.91,-110.09C205.53,-101.79 231.9,-89.36 252.21,-79.79"/>
<polygon fill="#63b8ff" stroke="#63b8ff" points="253.56,-83.03 261.11,-75.6 250.57,-76.69 253.56,-83.03"/>
</a>
</g>
</g>
<!-- Node9 -->
<g id="Node000009" class="node">
<title>Node9</title>
<g id="a_Node000009"><a xlink:href="ccc__kdf_8h.html" target="_top" xlink:title="UWB ranging key schedule + SP0 frame crypto (CONFIG_WOZ_ALIRO).">
<polygon fill="white" stroke="#666666" points="198.12,-74.5 139.37,-74.5 139.37,-55.25 198.12,-55.25 198.12,-74.5"/>
<text xml:space="preserve" text-anchor="middle" x="168.74" y="-61" font-family="Helvetica,sans-Serif" font-size="10.00">ccc_kdf.h</text>
</a>
</g>
</g>
<!-- Node7&#45;&gt;Node9 -->
<g id="edge11_Node000007_Node000009" class="edge">
<title>Node7&#45;&gt;Node9</title>
<g id="a_edge11_Node000007_Node000009"><a xlink:title=" ">
<path fill="none" stroke="#63b8ff" d="M168.74,-110.33C168.74,-103.82 168.74,-94.67 168.74,-86.37"/>
<polygon fill="#63b8ff" stroke="#63b8ff" points="172.24,-86.37 168.74,-76.37 165.24,-86.37 172.24,-86.37"/>
</a>
</g>
</g>
<!-- Node9&#45;&gt;Node2 -->
<g id="edge12_Node000009_Node000002" class="edge">
<title>Node9&#45;&gt;Node2</title>
<g id="a_edge12_Node000009_Node000002"><a xlink:title=" ">
<path fill="none" stroke="#63b8ff" d="M178.41,-54.84C186.49,-47.3 198.21,-36.35 207.97,-27.23"/>
<polygon fill="#63b8ff" stroke="#63b8ff" points="210.19,-29.94 215.11,-20.56 205.42,-24.83 210.19,-29.94"/>
</a>
</g>
</g>
<!-- Node9&#45;&gt;Node3 -->
<g id="edge13_Node000009_Node000003" class="edge">
<title>Node9&#45;&gt;Node3</title>
<g id="a_edge13_Node000009_Node000003"><a xlink:title=" ">
<path fill="none" stroke="#63b8ff" d="M153.65,-54.84C140.22,-46.81 120.33,-34.91 104.57,-25.48"/>
<polygon fill="#63b8ff" stroke="#63b8ff" points="106.59,-22.61 96.22,-20.48 103,-28.62 106.59,-22.61"/>
</a>
</g>
</g>
</g>
</svg>
</svg>

<style type='text/css'>
<![CDATA[
[data-mouse-over-selected='false'] { opacity: 0.7; }
[data-mouse-over-selected='true']  { opacity: 1.0; }
]]>
</style>
<script type="application/ecmascript"><![CDATA[
document.addEventListener('DOMContentLoaded', (event) => {
  highlightEdges();
  highlightAdjacentNodes();
});
]]></script>
</svg>
