<?xml version="1.0" encoding="UTF-8" standalone="no"?>
<!DOCTYPE svg PUBLIC "-//W3C//DTD SVG 1.1//EN"
 "http://www.w3.org/Graphics/SVG/1.1/DTD/svg11.dtd">
<!-- Generated by graphviz version 15.0.0 (20260523.1842)
 -->
<!-- Title: modules/woz_uwb/src/ccc/ccc_session.h Pages: 1 -->
<svg width="240pt" height="204pt"
 viewBox="0.00 0.00 240.00 204.00" xmlns="http://www.w3.org/2000/svg" xmlns:xlink="http://www.w3.org/1999/xlink">
<g id="graph0" class="graph" transform="scale(1 1) rotate(0) translate(4 200.25)">
<title>modules/woz_uwb/src/ccc/ccc_session.h</title>
<!-- Node1 -->
<g id="Node000001" class="node">
<title>Node1</title>
<g id="a_Node000001"><a xlink:title="— Aliro/CCC ranging seam: map an Aliro session&#39;s URSK + M1&#45;M4 setup to ccc_ran_params.">
<polygon fill="#999999" stroke="#666666" points="113.5,-196.25 0,-196.25 0,-165.75 113.5,-165.75 113.5,-196.25"/>
<text xml:space="preserve" text-anchor="start" x="8" y="-182.75" font-family="Helvetica,sans-Serif" font-size="10.00">modules/woz_uwb/src</text>
<text xml:space="preserve" text-anchor="middle" x="56.75" y="-171.5" font-family="Helvetica,sans-Serif" font-size="10.00">/ccc/ccc_session.h</text>
</a>
</g>
</g>
<!-- Node2 -->
<g id="Node000002" class="node">
<title>Node2</title>
<g id="a_Node000002"><a xlink:title=" ">
<polygon fill="#e0e0e0" stroke="#999999" points="71.88,-19.25 23.62,-19.25 23.62,0 71.88,0 71.88,-19.25"/>
<text xml:space="preserve" text-anchor="middle" x="47.75" y="-5.75" font-family="Helvetica,sans-Serif" font-size="10.00">stdint.h</text>
</a>
</g>
</g>
<!-- Node1&#45;&gt;Node2 -->
<g id="edge1_Node000001_Node000002" class="edge">
<title>Node1&#45;&gt;Node2</title>
<g id="a_edge1_Node000001_Node000002"><a xlink:title=" ">
<path fill="none" stroke="#63b8ff" d="M55.97,-165.27C54.36,-135.01 50.68,-65.8 48.84,-31.16"/>
<polygon fill="#63b8ff" stroke="#63b8ff" points="52.34,-31.05 48.31,-21.25 45.35,-31.42 52.34,-31.05"/>
</a>
</g>
</g>
<!-- Node3 -->
<g id="Node000003" class="node">
<title>Node3</title>
<g id="a_Node000003"><a xlink:href="ccc__mac_8h.html" target="_top" xlink:title="— CCC UWB MAC layer: ranging&#45;round scheduling, SP0 frame codec, DS&#45;TWR.">
<polygon fill="white" stroke="#666666" points="135.75,-129.75 71.75,-129.75 71.75,-110.5 135.75,-110.5 135.75,-129.75"/>
<text xml:space="preserve" text-anchor="middle" x="103.75" y="-116.25" font-family="Helvetica,sans-Serif" font-size="10.00">ccc_mac.h</text>
</a>
</g>
</g>
<!-- Node1&#45;&gt;Node3 -->
<g id="edge2_Node000001_Node000003" class="edge">
<title>Node1&#45;&gt;Node3</title>
<g id="a_edge2_Node000001_Node000003"><a xlink:title=" ">
<path fill="none" stroke="#63b8ff" d="M68.37,-165.45C74.77,-157.43 82.76,-147.42 89.53,-138.94"/>
<polygon fill="#63b8ff" stroke="#63b8ff" points="92.06,-141.38 95.56,-131.38 86.59,-137.02 92.06,-141.38"/>
</a>
</g>
</g>
<!-- Node3&#45;&gt;Node2 -->
<g id="edge5_Node000003_Node000002" class="edge">
<title>Node3&#45;&gt;Node2</title>
<g id="a_edge5_Node000003_Node000002"><a xlink:title=" ">
<path fill="none" stroke="#63b8ff" d="M94.29,-110.03C85.96,-101.54 74.05,-88.17 66.75,-74.5 59.4,-60.74 54.52,-43.74 51.55,-30.74"/>
<polygon fill="#63b8ff" stroke="#63b8ff" points="55.03,-30.3 49.57,-21.22 48.18,-31.73 55.03,-30.3"/>
</a>
</g>
</g>
<!-- Node4 -->
<g id="Node000004" class="node">
<title>Node4</title>
<g id="a_Node000004"><a xlink:title=" ">
<polygon fill="#e0e0e0" stroke="#999999" points="131.62,-74.5 75.88,-74.5 75.88,-55.25 131.62,-55.25 131.62,-74.5"/>
<text xml:space="preserve" text-anchor="middle" x="103.75" y="-61" font-family="Helvetica,sans-Serif" font-size="10.00">stdbool.h</text>
</a>
</g>
</g>
<!-- Node3&#45;&gt;Node4 -->
<g id="edge3_Node000003_Node000004" class="edge">
<title>Node3&#45;&gt;Node4</title>
<g id="a_edge3_Node000003_Node000004"><a xlink:title=" ">
<path fill="none" stroke="#63b8ff" d="M103.75,-110.33C103.75,-103.82 103.75,-94.67 103.75,-86.37"/>
<polygon fill="#63b8ff" stroke="#63b8ff" points="107.25,-86.37 103.75,-76.37 100.25,-86.37 107.25,-86.37"/>
</a>
</g>
</g>
<!-- Node5 -->
<g id="Node000005" class="node">
<title>Node5</title>
<g id="a_Node000005"><a xlink:title=" ">
<polygon fill="#e0e0e0" stroke="#999999" points="232.38,-19.25 181.12,-19.25 181.12,0 232.38,0 232.38,-19.25"/>
<text xml:space="preserve" text-anchor="middle" x="206.75" y="-5.75" font-family="Helvetica,sans-Serif" font-size="10.00">stddef.h</text>
</a>
</g>
</g>
<!-- Node3&#45;&gt;Node5 -->
<g id="edge4_Node000003_Node000005" class="edge">
<title>Node3&#45;&gt;Node5</title>
<g id="a_edge4_Node000003_Node000005"><a xlink:title=" ">
<path fill="none" stroke="#63b8ff" d="M136.14,-116.05C162.74,-111.63 198.84,-100.83 216.75,-74.5 225.73,-61.3 221.65,-43.06 216.24,-29.45"/>
<polygon fill="#63b8ff" stroke="#63b8ff" points="219.59,-28.36 212.28,-20.7 213.22,-31.25 219.59,-28.36"/>
</a>
</g>
</g>
<!-- Node6 -->
<g id="Node000006" class="node">
<title>Node6</title>
<g id="a_Node000006"><a xlink:href="ccc__kdf_8h.html" target="_top" xlink:title="UWB ranging key schedule + SP0 frame crypto (CONFIG_WOZ_ALIRO).">
<polygon fill="white" stroke="#666666" points="208.12,-74.5 149.38,-74.5 149.38,-55.25 208.12,-55.25 208.12,-74.5"/>
<text xml:space="preserve" text-anchor="middle" x="178.75" y="-61" font-family="Helvetica,sans-Serif" font-size="10.00">ccc_kdf.h</text>
</a>
</g>
</g>
<!-- Node3&#45;&gt;Node6 -->
<g id="edge6_Node000003_Node000006" class="edge">
<title>Node3&#45;&gt;Node6</title>
<g id="a_edge6_Node000003_Node000006"><a xlink:title=" ">
<path fill="none" stroke="#63b8ff" d="M116.47,-110.09C127.46,-102.29 143.59,-90.84 156.68,-81.54"/>
<polygon fill="#63b8ff" stroke="#63b8ff" points="158.6,-84.47 164.73,-75.83 154.55,-78.76 158.6,-84.47"/>
</a>
</g>
</g>
<!-- Node6&#45;&gt;Node2 -->
<g id="edge8_Node000006_Node000002" class="edge">
<title>Node6&#45;&gt;Node2</title>
<g id="a_edge8_Node000006_Node000002"><a xlink:title=" ">
<path fill="none" stroke="#63b8ff" d="M156.53,-54.84C135.73,-46.39 104.4,-33.65 80.7,-24.02"/>
<polygon fill="#63b8ff" stroke="#63b8ff" points="82.07,-20.8 71.48,-20.27 79.43,-27.28 82.07,-20.8"/>
</a>
</g>
</g>
<!-- Node6&#45;&gt;Node5 -->
<g id="edge7_Node000006_Node000005" class="edge">
<title>Node6&#45;&gt;Node5</title>
<g id="a_edge7_Node000006_Node000005"><a xlink:title=" ">
<path fill="none" stroke="#63b8ff" d="M183.37,-55.08C187,-48.19 192.18,-38.34 196.74,-29.66"/>
<polygon fill="#63b8ff" stroke="#63b8ff" points="199.77,-31.43 201.32,-20.95 193.57,-28.17 199.77,-31.43"/>
</a>
</g>
</g>
</g>
</svg>
