<?xml version="1.0" encoding="UTF-8" standalone="no"?>
<!DOCTYPE svg PUBLIC "-//W3C//DTD SVG 1.1//EN"
 "http://www.w3.org/Graphics/SVG/1.1/DTD/svg11.dtd">
<!-- Generated by graphviz version 15.0.0 (20260523.1842)
 -->
<!-- Title: modules/woz_uwb/src/ccc/cherry_ccc_shim.c Pages: 1 -->
<svg width="856pt" height="315pt"
 viewBox="0.00 0.00 856.00 315.00" xmlns="http://www.w3.org/2000/svg" xmlns:xlink="http://www.w3.org/1999/xlink">
<g id="graph0" class="graph" transform="scale(1 1) rotate(0) translate(4 310.75)">
<title>modules/woz_uwb/src/ccc/cherry_ccc_shim.c</title>
<!-- Node1 -->
<g id="Node000001" class="node">
<title>Node1</title>
<g id="a_Node000001"><a xlink:title="— cherry_ccc_* seam (Aliro responder) implemented over the lock&#45;native FiRa MAC; maps each call onto ...">
<polygon fill="#999999" stroke="#666666" points="546.96,-306.75 426.71,-306.75 426.71,-276.25 546.96,-276.25 546.96,-306.75"/>
<text xml:space="preserve" text-anchor="start" x="434.71" y="-293.25" font-family="Helvetica,sans-Serif" font-size="10.00">modules/woz_uwb/src</text>
<text xml:space="preserve" text-anchor="middle" x="486.84" y="-282" font-family="Helvetica,sans-Serif" font-size="10.00">/ccc/cherry_ccc_shim.c</text>
</a>
</g>
</g>
<!-- Node2 -->
<g id="Node000002" class="node">
<title>Node2</title>
<g id="a_Node000002"><a xlink:href="cherry_8h.html" target="_top" xlink:title="— Cherry core (context + device&#45;capabilities) interface.">
<polygon fill="white" stroke="#666666" points="285.71,-129.75 205.96,-129.75 205.96,-110.5 285.71,-110.5 285.71,-129.75"/>
<text xml:space="preserve" text-anchor="middle" x="245.84" y="-116.25" font-family="Helvetica,sans-Serif" font-size="10.00">cherry/cherry.h</text>
</a>
</g>
</g>
<!-- Node1&#45;&gt;Node2 -->
<g id="edge1_Node000001_Node000002" class="edge">
<title>Node1&#45;&gt;Node2</title>
<g id="a_edge1_Node000001_Node000002"><a xlink:title=" ">
<path fill="none" stroke="#63b8ff" d="M461.17,-275.9C427.7,-256.5 367.78,-220.53 319.84,-185 299.51,-169.94 277.77,-150.76 263.15,-137.37"/>
<polygon fill="#63b8ff" stroke="#63b8ff" points="265.87,-135.12 256.15,-130.89 261.12,-140.25 265.87,-135.12"/>
</a>
</g>
</g>
<!-- Node6 -->
<g id="Node000006" class="node">
<title>Node6</title>
<g id="a_Node000006"><a xlink:href="cherry__ccc_8h.html" target="_top" xlink:title="— CCC/Aliro&#45;session interface (seam the adapter drives).">
<polygon fill="white" stroke="#666666" points="272.96,-240.25 170.71,-240.25 170.71,-221 272.96,-221 272.96,-240.25"/>
<text xml:space="preserve" text-anchor="middle" x="221.84" y="-226.75" font-family="Helvetica,sans-Serif" font-size="10.00">cherry/cherry_ccc.h</text>
</a>
</g>
</g>
<!-- Node1&#45;&gt;Node6 -->
<g id="edge7_Node000001_Node000006" class="edge">
<title>Node1&#45;&gt;Node6</title>
<g id="a_edge7_Node000001_Node000006"><a xlink:title=" ">
<path fill="none" stroke="#63b8ff" d="M426.38,-277.07C380.28,-266.83 317.48,-252.87 273.67,-243.14"/>
<polygon fill="#63b8ff" stroke="#63b8ff" points="274.69,-239.78 264.17,-241.03 273.17,-246.61 274.69,-239.78"/>
</a>
</g>
</g>
<!-- Node7 -->
<g id="Node000007" class="node">
<title>Node7</title>
<g id="a_Node000007"><a xlink:href="cherry__session_8h.html" target="_top" xlink:title="— generic base&#45;session interface.">
<polygon fill="white" stroke="#666666" points="158.96,-185 38.71,-185 38.71,-165.75 158.96,-165.75 158.96,-185"/>
<text xml:space="preserve" text-anchor="middle" x="98.84" y="-171.5" font-family="Helvetica,sans-Serif" font-size="10.00">cherry/cherry_session.h</text>
</a>
</g>
</g>
<!-- Node1&#45;&gt;Node7 -->
<g id="edge18_Node000001_Node000007" class="edge">
<title>Node1&#45;&gt;Node7</title>
<g id="a_edge18_Node000001_Node000007"><a xlink:title=" ">
<path fill="none" stroke="#63b8ff" d="M426.29,-285.7C345.36,-278.52 206.89,-263.29 161.84,-240.25 140.88,-229.53 122.71,-209.21 111.34,-194.35"/>
<polygon fill="#63b8ff" stroke="#63b8ff" points="114.23,-192.37 105.5,-186.35 108.57,-196.49 114.23,-192.37"/>
</a>
</g>
</g>
<!-- Node9 -->
<g id="Node000009" class="node">
<title>Node9</title>
<g id="a_Node000009"><a xlink:href="woz__alloc_8h_source.html" target="_top" xlink:title=" ">
<polygon fill="white" stroke="#666666" points="582.71,-240.25 514.96,-240.25 514.96,-221 582.71,-221 582.71,-240.25"/>
<text xml:space="preserve" text-anchor="middle" x="548.84" y="-226.75" font-family="Helvetica,sans-Serif" font-size="10.00">woz_alloc.h</text>
</a>
</g>
</g>
<!-- Node1&#45;&gt;Node9 -->
<g id="edge19_Node000001_Node000009" class="edge">
<title>Node1&#45;&gt;Node9</title>
<g id="a_edge19_Node000001_Node000009"><a xlink:title=" ">
<path fill="none" stroke="#63b8ff" d="M502.17,-275.95C510.88,-267.67 521.84,-257.27 530.94,-248.62"/>
<polygon fill="#63b8ff" stroke="#63b8ff" points="533.34,-251.17 538.18,-241.74 528.52,-246.09 533.34,-251.17"/>
</a>
</g>
</g>
<!-- Node11 -->
<g id="Node000011" class="node">
<title>Node11</title>
<g id="a_Node000011"><a xlink:title=" ">
<polygon fill="#e0e0e0" stroke="#999999" points="648.96,-240.25 600.71,-240.25 600.71,-221 648.96,-221 648.96,-240.25"/>
<text xml:space="preserve" text-anchor="middle" x="624.84" y="-226.75" font-family="Helvetica,sans-Serif" font-size="10.00">string.h</text>
</a>
</g>
</g>
<!-- Node1&#45;&gt;Node11 -->
<g id="edge25_Node000001_Node000011" class="edge">
<title>Node1&#45;&gt;Node11</title>
<g id="a_edge25_Node000001_Node000011"><a xlink:title=" ">
<path fill="none" stroke="#63b8ff" d="M521.31,-275.8C543.33,-266.4 571.69,-254.3 593.15,-245.14"/>
<polygon fill="#63b8ff" stroke="#63b8ff" points="594.46,-248.39 602.28,-241.25 591.71,-241.95 594.46,-248.39"/>
</a>
</g>
</g>
<!-- Node12 -->
<g id="Node000012" class="node">
<title>Node12</title>
<g id="a_Node000012"><a xlink:href="woz__log_8h_source.html" target="_top" xlink:title=" ">
<polygon fill="white" stroke="#666666" points="726.96,-240.25 666.71,-240.25 666.71,-221 726.96,-221 726.96,-240.25"/>
<text xml:space="preserve" text-anchor="middle" x="696.84" y="-226.75" font-family="Helvetica,sans-Serif" font-size="10.00">woz_log.h</text>
</a>
</g>
</g>
<!-- Node1&#45;&gt;Node12 -->
<g id="edge26_Node000001_Node000012" class="edge">
<title>Node1&#45;&gt;Node12</title>
<g id="a_edge26_Node000001_Node000012"><a xlink:title=" ">
<path fill="none" stroke="#63b8ff" d="M539.29,-275.8C575.31,-265.7 622.44,-252.48 655.74,-243.15"/>
<polygon fill="#63b8ff" stroke="#63b8ff" points="656.33,-246.62 665.01,-240.55 654.44,-239.88 656.33,-246.62"/>
</a>
</g>
</g>
<!-- Node13 -->
<g id="Node000013" class="node">
<title>Node13</title>
<g id="a_Node000013"><a xlink:href="woz__util_8h_source.html" target="_top" xlink:title=" ">
<polygon fill="white" stroke="#666666" points="544.96,-185 484.71,-185 484.71,-165.75 544.96,-165.75 544.96,-185"/>
<text xml:space="preserve" text-anchor="middle" x="514.84" y="-171.5" font-family="Helvetica,sans-Serif" font-size="10.00">woz_util.h</text>
</a>
</g>
</g>
<!-- Node1&#45;&gt;Node13 -->
<g id="edge27_Node000001_Node000013" class="edge">
<title>Node1&#45;&gt;Node13</title>
<g id="a_edge27_Node000001_Node000013"><a xlink:title=" ">
<path fill="none" stroke="#63b8ff" d="M490.39,-276.05C495.33,-255.9 504.31,-219.31 509.9,-196.5"/>
<polygon fill="#63b8ff" stroke="#63b8ff" points="513.27,-197.46 512.25,-186.92 506.47,-195.8 513.27,-197.46"/>
</a>
</g>
</g>
<!-- Node14 -->
<g id="Node000014" class="node">
<title>Node14</title>
<g id="a_Node000014"><a xlink:href="woz__uwb__facade_8h_source.html" target="_top" xlink:title=" ">
<polygon fill="white" stroke="#666666" points="428.84,-185 328.84,-185 328.84,-165.75 428.84,-165.75 428.84,-185"/>
<text xml:space="preserve" text-anchor="middle" x="378.84" y="-171.5" font-family="Helvetica,sans-Serif" font-size="10.00">woz_uwb_facade.h</text>
</a>
</g>
</g>
<!-- Node1&#45;&gt;Node14 -->
<g id="edge29_Node000001_Node000014" class="edge">
<title>Node1&#45;&gt;Node14</title>
<g id="a_edge29_Node000001_Node000014"><a xlink:title=" ">
<path fill="none" stroke="#63b8ff" d="M473.16,-276.05C453.31,-255.06 416.55,-216.23 395.26,-193.73"/>
<polygon fill="#63b8ff" stroke="#63b8ff" points="397.88,-191.4 388.47,-186.55 392.8,-196.22 397.88,-191.4"/>
</a>
</g>
</g>
<!-- Node15 -->
<g id="Node000015" class="node">
<title>Node15</title>
<g id="a_Node000015"><a xlink:href="aliro__round__config_8h.html" target="_top" xlink:title="— one knob for the CCC ranging round&#39;s responder count.">
<polygon fill="white" stroke="#666666" points="848.34,-240.25 745.34,-240.25 745.34,-221 848.34,-221 848.34,-240.25"/>
<text xml:space="preserve" text-anchor="middle" x="796.84" y="-226.75" font-family="Helvetica,sans-Serif" font-size="10.00">aliro_round_config.h</text>
</a>
</g>
</g>
<!-- Node1&#45;&gt;Node15 -->
<g id="edge33_Node000001_Node000015" class="edge">
<title>Node1&#45;&gt;Node15</title>
<g id="a_edge33_Node000001_Node000015"><a xlink:title=" ">
<path fill="none" stroke="#63b8ff" d="M547.35,-279.01C602.45,-268.54 683.33,-253.18 737.93,-242.81"/>
<polygon fill="#63b8ff" stroke="#63b8ff" points="738.51,-246.27 747.68,-240.96 737.2,-239.39 738.51,-246.27"/>
</a>
</g>
</g>
<!-- Node3 -->
<g id="Node000003" class="node">
<title>Node3</title>
<g id="a_Node000003"><a xlink:href="cherry__common_8h.html" target="_top" xlink:title="— diagnostics config struct and report forward decl.">
<polygon fill="white" stroke="#666666" points="220.84,-74.5 126.84,-74.5 126.84,-55.25 220.84,-55.25 220.84,-74.5"/>
<text xml:space="preserve" text-anchor="middle" x="173.84" y="-61" font-family="Helvetica,sans-Serif" font-size="10.00">cherry_common.h</text>
</a>
</g>
</g>
<!-- Node2&#45;&gt;Node3 -->
<g id="edge2_Node000002_Node000003" class="edge">
<title>Node2&#45;&gt;Node3</title>
<g id="a_edge2_Node000002_Node000003"><a xlink:title=" ">
<path fill="none" stroke="#63b8ff" d="M233.63,-110.09C223.01,-102.24 207.4,-90.7 194.8,-81.37"/>
<polygon fill="#63b8ff" stroke="#63b8ff" points="197.21,-78.81 187.09,-75.67 193.05,-84.44 197.21,-78.81"/>
</a>
</g>
</g>
<!-- Node4 -->
<g id="Node000004" class="node">
<title>Node4</title>
<g id="a_Node000004"><a xlink:title=" ">
<polygon fill="#e0e0e0" stroke="#999999" points="201.71,-19.25 145.96,-19.25 145.96,0 201.71,0 201.71,-19.25"/>
<text xml:space="preserve" text-anchor="middle" x="173.84" y="-5.75" font-family="Helvetica,sans-Serif" font-size="10.00">stdbool.h</text>
</a>
</g>
</g>
<!-- Node2&#45;&gt;Node4 -->
<g id="edge5_Node000002_Node000004" class="edge">
<title>Node2&#45;&gt;Node4</title>
<g id="a_edge5_Node000002_Node000004"><a xlink:title=" ">
<path fill="none" stroke="#63b8ff" d="M245.39,-110.15C244.36,-97.1 240.97,-72.56 229.84,-55.25 222.27,-43.48 210.53,-33.44 199.75,-25.87"/>
<polygon fill="#63b8ff" stroke="#63b8ff" points="201.82,-23.04 191.54,-20.48 197.98,-28.89 201.82,-23.04"/>
</a>
</g>
</g>
<!-- Node5 -->
<g id="Node000005" class="node">
<title>Node5</title>
<g id="a_Node000005"><a xlink:title=" ">
<polygon fill="#e0e0e0" stroke="#999999" points="386.96,-19.25 338.71,-19.25 338.71,0 386.96,0 386.96,-19.25"/>
<text xml:space="preserve" text-anchor="middle" x="362.84" y="-5.75" font-family="Helvetica,sans-Serif" font-size="10.00">stdint.h</text>
</a>
</g>
</g>
<!-- Node2&#45;&gt;Node5 -->
<g id="edge6_Node000002_Node000005" class="edge">
<title>Node2&#45;&gt;Node5</title>
<g id="a_edge6_Node000002_Node000005"><a xlink:title=" ">
<path fill="none" stroke="#63b8ff" d="M255.41,-110.25C274.95,-92.13 319.7,-50.63 344.84,-27.32"/>
<polygon fill="#63b8ff" stroke="#63b8ff" points="347.07,-30.02 352.02,-20.66 342.31,-24.89 347.07,-30.02"/>
</a>
</g>
</g>
<!-- Node3&#45;&gt;Node4 -->
<g id="edge3_Node000003_Node000004" class="edge">
<title>Node3&#45;&gt;Node4</title>
<g id="a_edge3_Node000003_Node000004"><a xlink:title=" ">
<path fill="none" stroke="#63b8ff" d="M173.84,-55.08C173.84,-48.57 173.84,-39.42 173.84,-31.12"/>
<polygon fill="#63b8ff" stroke="#63b8ff" points="177.34,-31.12 173.84,-21.12 170.34,-31.12 177.34,-31.12"/>
</a>
</g>
</g>
<!-- Node3&#45;&gt;Node5 -->
<g id="edge4_Node000003_Node000005" class="edge">
<title>Node3&#45;&gt;Node5</title>
<g id="a_edge4_Node000003_Node000005"><a xlink:title=" ">
<path fill="none" stroke="#63b8ff" d="M205.9,-54.84C239.73,-45.31 292.89,-30.33 327.8,-20.5"/>
<polygon fill="#63b8ff" stroke="#63b8ff" points="328.32,-23.99 336.99,-17.91 326.42,-17.25 328.32,-23.99"/>
</a>
</g>
</g>
<!-- Node6&#45;&gt;Node2 -->
<g id="edge8_Node000006_Node000002" class="edge">
<title>Node6&#45;&gt;Node2</title>
<g id="a_edge8_Node000006_Node000002"><a xlink:title=" ">
<path fill="none" stroke="#63b8ff" d="M223.8,-220.75C227.62,-203.5 236.12,-165.08 241.37,-141.31"/>
<polygon fill="#63b8ff" stroke="#63b8ff" points="244.78,-142.12 243.52,-131.6 237.94,-140.61 244.78,-142.12"/>
</a>
</g>
</g>
<!-- Node6&#45;&gt;Node3 -->
<g id="edge9_Node000006_Node000003" class="edge">
<title>Node6&#45;&gt;Node3</title>
<g id="a_edge9_Node000006_Node000003"><a xlink:title=" ">
<path fill="none" stroke="#63b8ff" d="M219.26,-220.82C211.8,-195.39 190.1,-121.35 179.63,-85.62"/>
<polygon fill="#63b8ff" stroke="#63b8ff" points="183.03,-84.79 176.86,-76.17 176.31,-86.76 183.03,-84.79"/>
</a>
</g>
</g>
<!-- Node6&#45;&gt;Node4 -->
<g id="edge15_Node000006_Node000004" class="edge">
<title>Node6&#45;&gt;Node4</title>
<g id="a_edge15_Node000006_Node000004"><a xlink:title=" ">
<path fill="none" stroke="#63b8ff" d="M170.63,-224.83C119.83,-218.89 47.13,-206.77 29.84,-185 2.33,-150.36 -36.18,-169.28 72.84,-55.25 89.46,-37.87 114.04,-26.8 134.8,-20.04"/>
<polygon fill="#63b8ff" stroke="#63b8ff" points="135.53,-23.48 144.1,-17.24 133.51,-16.77 135.53,-23.48"/>
</a>
</g>
</g>
<!-- Node6&#45;&gt;Node5 -->
<g id="edge17_Node000006_Node000005" class="edge">
<title>Node6&#45;&gt;Node5</title>
<g id="a_edge17_Node000006_Node000005"><a xlink:title=" ">
<path fill="none" stroke="#63b8ff" d="M229.04,-220.51C242.57,-203.23 272.42,-164.36 294.84,-129.75 317.1,-95.4 340.12,-53.48 352.85,-29.63"/>
<polygon fill="#63b8ff" stroke="#63b8ff" points="355.92,-31.31 357.51,-20.83 349.74,-28.03 355.92,-31.31"/>
</a>
</g>
</g>
<!-- Node6&#45;&gt;Node7 -->
<g id="edge10_Node000006_Node000007" class="edge">
<title>Node6&#45;&gt;Node7</title>
<g id="a_edge10_Node000006_Node000007"><a xlink:title=" ">
<path fill="none" stroke="#63b8ff" d="M200.97,-220.59C181.54,-212.18 152.3,-199.52 130.08,-189.9"/>
<polygon fill="#63b8ff" stroke="#63b8ff" points="131.76,-186.81 121.2,-186.05 128.98,-193.24 131.76,-186.81"/>
</a>
</g>
</g>
<!-- Node8 -->
<g id="Node000008" class="node">
<title>Node8</title>
<g id="a_Node000008"><a xlink:title=" ">
<polygon fill="#e0e0e0" stroke="#999999" points="540.46,-129.75 489.21,-129.75 489.21,-110.5 540.46,-110.5 540.46,-129.75"/>
<text xml:space="preserve" text-anchor="middle" x="514.84" y="-116.25" font-family="Helvetica,sans-Serif" font-size="10.00">stddef.h</text>
</a>
</g>
</g>
<!-- Node6&#45;&gt;Node8 -->
<g id="edge16_Node000006_Node000008" class="edge">
<title>Node6&#45;&gt;Node8</title>
<g id="a_edge16_Node000006_Node000008"><a xlink:title=" ">
<path fill="none" stroke="#63b8ff" d="M273.4,-226.05C318.63,-221.29 385.21,-210.3 437.84,-185 461.69,-173.53 484.43,-153.09 498.93,-138.41"/>
<polygon fill="#63b8ff" stroke="#63b8ff" points="501.4,-140.89 505.78,-131.25 496.34,-136.06 501.4,-140.89"/>
</a>
</g>
</g>
<!-- Node7&#45;&gt;Node2 -->
<g id="edge11_Node000007_Node000002" class="edge">
<title>Node7&#45;&gt;Node2</title>
<g id="a_edge11_Node000007_Node000002"><a xlink:title=" ">
<path fill="none" stroke="#63b8ff" d="M123.78,-165.34C147.53,-156.74 183.55,-143.69 210.3,-134"/>
<polygon fill="#63b8ff" stroke="#63b8ff" points="211.15,-137.41 219.36,-130.72 208.76,-130.83 211.15,-137.41"/>
</a>
</g>
</g>
<!-- Node7&#45;&gt;Node3 -->
<g id="edge12_Node000007_Node000003" class="edge">
<title>Node7&#45;&gt;Node3</title>
<g id="a_edge12_Node000007_Node000003"><a xlink:title=" ">
<path fill="none" stroke="#63b8ff" d="M104.98,-165.5C117.23,-147.77 144.93,-107.69 161.22,-84.13"/>
<polygon fill="#63b8ff" stroke="#63b8ff" points="163.95,-86.34 166.76,-76.12 158.19,-82.36 163.95,-86.34"/>
</a>
</g>
</g>
<!-- Node7&#45;&gt;Node4 -->
<g id="edge13_Node000007_Node000004" class="edge">
<title>Node7&#45;&gt;Node4</title>
<g id="a_edge13_Node000007_Node000004"><a xlink:title=" ">
<path fill="none" stroke="#63b8ff" d="M94.28,-165.49C84.24,-144.52 62.75,-91.04 84.84,-55.25 95.79,-37.5 116.19,-26.57 134.69,-19.98"/>
<polygon fill="#63b8ff" stroke="#63b8ff" points="135.68,-23.34 144.14,-16.95 133.54,-16.67 135.68,-23.34"/>
</a>
</g>
</g>
<!-- Node7&#45;&gt;Node5 -->
<g id="edge14_Node000007_Node000005" class="edge">
<title>Node7&#45;&gt;Node5</title>
<g id="a_edge14_Node000007_Node000005"><a xlink:title=" ">
<path fill="none" stroke="#63b8ff" d="M97.17,-165.41C93.64,-143.3 87.96,-85.79 117.84,-55.25 146.4,-26.06 266.21,-15.65 327.06,-12.2"/>
<polygon fill="#63b8ff" stroke="#63b8ff" points="327.08,-15.7 336.89,-11.68 326.71,-8.71 327.08,-15.7"/>
</a>
</g>
</g>
<!-- Node9&#45;&gt;Node5 -->
<g id="edge21_Node000009_Node000005" class="edge">
<title>Node9&#45;&gt;Node5</title>
<g id="a_edge21_Node000009_Node000005"><a xlink:title=" ">
<path fill="none" stroke="#63b8ff" d="M582.98,-222.09C616.18,-213.99 663.12,-200.21 673.84,-185 678.77,-178.01 678.08,-173.18 673.84,-165.75 615.75,-63.95 466.74,-27.32 398.24,-15.58"/>
<polygon fill="#63b8ff" stroke="#63b8ff" points="399.12,-12.17 388.69,-14.02 398,-19.08 399.12,-12.17"/>
</a>
</g>
</g>
<!-- Node9&#45;&gt;Node8 -->
<g id="edge20_Node000009_Node000008" class="edge">
<title>Node9&#45;&gt;Node8</title>
<g id="a_edge20_Node000009_Node000008"><a xlink:title=" ">
<path fill="none" stroke="#63b8ff" d="M551.89,-220.61C555.66,-207.93 560.8,-184.29 553.84,-165.75 549.8,-155 541.87,-145.14 534.21,-137.44"/>
<polygon fill="#63b8ff" stroke="#63b8ff" points="537.01,-135.26 527.31,-131.02 532.25,-140.39 537.01,-135.26"/>
</a>
</g>
</g>
<!-- Node10 -->
<g id="Node000010" class="node">
<title>Node10</title>
<g id="a_Node000010"><a xlink:href="woz__port_8h_source.html" target="_top" xlink:title=" ">
<polygon fill="white" stroke="#666666" points="664.84,-185 600.84,-185 600.84,-165.75 664.84,-165.75 664.84,-185"/>
<text xml:space="preserve" text-anchor="middle" x="632.84" y="-171.5" font-family="Helvetica,sans-Serif" font-size="10.00">woz_port.h</text>
</a>
</g>
</g>
<!-- Node9&#45;&gt;Node10 -->
<g id="edge22_Node000009_Node000010" class="edge">
<title>Node9&#45;&gt;Node10</title>
<g id="a_edge22_Node000009_Node000010"><a xlink:title=" ">
<path fill="none" stroke="#63b8ff" d="M563.09,-220.59C575.64,-212.64 594.17,-200.89 608.98,-191.5"/>
<polygon fill="#63b8ff" stroke="#63b8ff" points="610.67,-194.57 617.24,-186.26 606.92,-188.66 610.67,-194.57"/>
</a>
</g>
</g>
<!-- Node10&#45;&gt;Node5 -->
<g id="edge24_Node000010_Node000005" class="edge">
<title>Node10&#45;&gt;Node5</title>
<g id="a_edge24_Node000010_Node000005"><a xlink:title=" ">
<path fill="none" stroke="#63b8ff" d="M622.25,-165.31C606.87,-152.35 577.18,-128.15 549.84,-110.5 496.51,-76.07 430.16,-42.7 392.54,-24.59"/>
<polygon fill="#63b8ff" stroke="#63b8ff" points="394.17,-21.49 383.64,-20.34 391.16,-27.81 394.17,-21.49"/>
</a>
</g>
</g>
<!-- Node10&#45;&gt;Node8 -->
<g id="edge23_Node000010_Node000008" class="edge">
<title>Node10&#45;&gt;Node8</title>
<g id="a_edge23_Node000010_Node000008"><a xlink:title=" ">
<path fill="none" stroke="#63b8ff" d="M612.82,-165.34C594.34,-157 566.63,-144.5 545.39,-134.91"/>
<polygon fill="#63b8ff" stroke="#63b8ff" points="546.89,-131.75 536.33,-130.83 544.01,-138.13 546.89,-131.75"/>
</a>
</g>
</g>
<!-- Node13&#45;&gt;Node8 -->
<g id="edge28_Node000013_Node000008" class="edge">
<title>Node13&#45;&gt;Node8</title>
<g id="a_edge28_Node000013_Node000008"><a xlink:title=" ">
<path fill="none" stroke="#63b8ff" d="M514.84,-165.58C514.84,-159.07 514.84,-149.92 514.84,-141.62"/>
<polygon fill="#63b8ff" stroke="#63b8ff" points="518.34,-141.62 514.84,-131.62 511.34,-141.62 518.34,-141.62"/>
</a>
</g>
</g>
<!-- Node14&#45;&gt;Node4 -->
<g id="edge32_Node000014_Node000004" class="edge">
<title>Node14&#45;&gt;Node4</title>
<g id="a_edge32_Node000014_Node000004"><a xlink:title=" ">
<path fill="none" stroke="#63b8ff" d="M370.16,-165.35C349.89,-144.55 297.39,-92.16 247.84,-55.25 232.93,-44.14 215.12,-33.33 200.7,-25.13"/>
<polygon fill="#63b8ff" stroke="#63b8ff" points="202.66,-22.22 192.22,-20.4 199.24,-28.33 202.66,-22.22"/>
</a>
</g>
</g>
<!-- Node14&#45;&gt;Node5 -->
<g id="edge31_Node000014_Node000005" class="edge">
<title>Node14&#45;&gt;Node5</title>
<g id="a_edge31_Node000014_Node000005"><a xlink:title=" ">
<path fill="none" stroke="#63b8ff" d="M379.56,-165.33C380.98,-145.33 383.41,-95.88 376.84,-55.25 375.49,-46.94 372.94,-38.04 370.38,-30.39"/>
<polygon fill="#63b8ff" stroke="#63b8ff" points="373.71,-29.32 367.04,-21.09 367.13,-31.69 373.71,-29.32"/>
</a>
</g>
</g>
<!-- Node14&#45;&gt;Node8 -->
<g id="edge30_Node000014_Node000008" class="edge">
<title>Node14&#45;&gt;Node8</title>
<g id="a_edge30_Node000014_Node000008"><a xlink:title=" ">
<path fill="none" stroke="#63b8ff" d="M401.91,-165.34C423.6,-156.85 456.32,-144.04 480.97,-134.39"/>
<polygon fill="#63b8ff" stroke="#63b8ff" points="482.21,-137.66 490.25,-130.75 479.66,-131.14 482.21,-137.66"/>
</a>
</g>
</g>
</g>
</svg>
