<?xml version="1.0" encoding="UTF-8" standalone="no"?>
<!DOCTYPE svg PUBLIC "-//W3C//DTD SVG 1.1//EN"
 "http://www.w3.org/Graphics/SVG/1.1/DTD/svg11.dtd">
<!-- Generated by graphviz version 15.0.0 (20260523.1842)
 -->
<!-- Title: modules/woz_uwb/src/aliro/include/cherry/cherry.h Pages: 1 -->
<svg width="170pt" height="160pt"
 viewBox="0.00 0.00 170.00 160.00" xmlns="http://www.w3.org/2000/svg" xmlns:xlink="http://www.w3.org/1999/xlink">
<g id="graph0" class="graph" transform="scale(1 1) rotate(0) translate(4 156.25)">
<title>modules/woz_uwb/src/aliro/include/cherry/cherry.h</title>
<!-- Node1 -->
<g id="Node000001" class="node">
<title>Node1</title>
<g id="a_Node000001"><a xlink:title="— Cherry core (context + device&#45;capabilities) interface.">
<polygon fill="#999999" stroke="#666666" points="157.62,-152.25 44.12,-152.25 44.12,-110.5 157.62,-110.5 157.62,-152.25"/>
<text xml:space="preserve" text-anchor="start" x="52.12" y="-138.75" font-family="Helvetica,sans-Serif" font-size="10.00">modules/woz_uwb/src</text>
<text xml:space="preserve" text-anchor="start" x="52.12" y="-127.5" font-family="Helvetica,sans-Serif" font-size="10.00">/aliro/include/cherry</text>
<text xml:space="preserve" text-anchor="middle" x="100.88" y="-116.25" font-family="Helvetica,sans-Serif" font-size="10.00">/cherry.h</text>
</a>
</g>
</g>
<!-- Node2 -->
<g id="Node000002" class="node">
<title>Node2</title>
<g id="a_Node000002"><a xlink:href="cherry__common_8h.html" target="_top" xlink:title="— diagnostics config struct and report forward decl.">
<polygon fill="white" stroke="#666666" points="147.88,-74.5 53.87,-74.5 53.87,-55.25 147.88,-55.25 147.88,-74.5"/>
<text xml:space="preserve" text-anchor="middle" x="100.88" y="-61" font-family="Helvetica,sans-Serif" font-size="10.00">cherry_common.h</text>
</a>
</g>
</g>
<!-- Node1&#45;&gt;Node2 -->
<g id="edge1_Node000001_Node000002" class="edge">
<title>Node1&#45;&gt;Node2</title>
<g id="a_edge1_Node000001_Node000002"><a xlink:title=" ">
<path fill="none" stroke="#63b8ff" d="M100.88,-110.32C100.88,-102.65 100.88,-93.89 100.88,-86.2"/>
<polygon fill="#63b8ff" stroke="#63b8ff" points="104.38,-86.46 100.88,-76.46 97.38,-86.46 104.38,-86.46"/>
</a>
</g>
</g>
<!-- Node3 -->
<g id="Node000003" class="node">
<title>Node3</title>
<g id="a_Node000003"><a xlink:title=" ">
<polygon fill="#e0e0e0" stroke="#999999" points="55.75,-19.25 0,-19.25 0,0 55.75,0 55.75,-19.25"/>
<text xml:space="preserve" text-anchor="middle" x="27.88" y="-5.75" font-family="Helvetica,sans-Serif" font-size="10.00">stdbool.h</text>
</a>
</g>
</g>
<!-- Node1&#45;&gt;Node3 -->
<g id="edge4_Node000001_Node000003" class="edge">
<title>Node1&#45;&gt;Node3</title>
<g id="a_edge4_Node000001_Node000003"><a xlink:title=" ">
<path fill="none" stroke="#63b8ff" d="M75.24,-110.13C64.45,-100.4 52.63,-87.94 44.88,-74.5 37.05,-60.94 32.74,-43.7 30.42,-30.54"/>
<polygon fill="#63b8ff" stroke="#63b8ff" points="33.92,-30.31 28.98,-20.94 27,-31.35 33.92,-30.31"/>
</a>
</g>
</g>
<!-- Node4 -->
<g id="Node000004" class="node">
<title>Node4</title>
<g id="a_Node000004"><a xlink:title=" ">
<polygon fill="#e0e0e0" stroke="#999999" points="162,-19.25 113.75,-19.25 113.75,0 162,0 162,-19.25"/>
<text xml:space="preserve" text-anchor="middle" x="137.88" y="-5.75" font-family="Helvetica,sans-Serif" font-size="10.00">stdint.h</text>
</a>
</g>
</g>
<!-- Node1&#45;&gt;Node4 -->
<g id="edge5_Node000001_Node000004" class="edge">
<title>Node1&#45;&gt;Node4</title>
<g id="a_edge5_Node000001_Node000004"><a xlink:title=" ">
<path fill="none" stroke="#63b8ff" d="M129.09,-110.2C139.93,-100.73 151.09,-88.45 156.88,-74.5 163.04,-59.64 156.9,-42.08 150.01,-29.13"/>
<polygon fill="#63b8ff" stroke="#63b8ff" points="153.18,-27.62 145.06,-20.8 147.16,-31.19 153.18,-27.62"/>
</a>
</g>
</g>
<!-- Node2&#45;&gt;Node3 -->
<g id="edge2_Node000002_Node000003" class="edge">
<title>Node2&#45;&gt;Node3</title>
<g id="a_edge2_Node000002_Node000003"><a xlink:title=" ">
<path fill="none" stroke="#63b8ff" d="M88.49,-54.84C77.73,-46.99 61.9,-35.45 49.12,-26.12"/>
<polygon fill="#63b8ff" stroke="#63b8ff" points="51.44,-23.48 41.3,-20.42 47.31,-29.14 51.44,-23.48"/>
</a>
</g>
</g>
<!-- Node2&#45;&gt;Node4 -->
<g id="edge3_Node000002_Node000004" class="edge">
<title>Node2&#45;&gt;Node4</title>
<g id="a_edge3_Node000002_Node000004"><a xlink:title=" ">
<path fill="none" stroke="#63b8ff" d="M106.98,-55.08C111.94,-47.96 119.08,-37.68 125.25,-28.8"/>
<polygon fill="#63b8ff" stroke="#63b8ff" points="127.94,-31.06 130.77,-20.85 122.19,-27.07 127.94,-31.06"/>
</a>
</g>
</g>
</g>
</svg>
