<?xml version="1.0" encoding="UTF-8" standalone="no"?>
<!DOCTYPE svg PUBLIC "-//W3C//DTD SVG 1.1//EN"
 "http://www.w3.org/Graphics/SVG/1.1/DTD/svg11.dtd">
<!-- Generated by graphviz version 15.0.0 (20260523.1842)
 -->
<!-- Title: modules/woz_uwb/src/aliro/include/cherry/cherry_ccc.h Pages: 1 -->
<svg width="374pt" height="271pt"
 viewBox="0.00 0.00 374.00 271.00" xmlns="http://www.w3.org/2000/svg" xmlns:xlink="http://www.w3.org/1999/xlink">
<g id="graph0" class="graph" transform="scale(1 1) rotate(0) translate(4 266.75)">
<title>modules/woz_uwb/src/aliro/include/cherry/cherry_ccc.h</title>
<!-- Node1 -->
<g id="Node000001" class="node">
<title>Node1</title>
<g id="a_Node000001"><a xlink:title="— CCC/Aliro&#45;session interface (seam the adapter drives).">
<polygon fill="#999999" stroke="#666666" points="260.62,-262.75 147.12,-262.75 147.12,-221 260.62,-221 260.62,-262.75"/>
<text xml:space="preserve" text-anchor="start" x="155.12" y="-249.25" font-family="Helvetica,sans-Serif" font-size="10.00">modules/woz_uwb/src</text>
<text xml:space="preserve" text-anchor="start" x="155.12" y="-238" font-family="Helvetica,sans-Serif" font-size="10.00">/aliro/include/cherry</text>
<text xml:space="preserve" text-anchor="middle" x="203.88" y="-226.75" font-family="Helvetica,sans-Serif" font-size="10.00">/cherry_ccc.h</text>
</a>
</g>
</g>
<!-- Node2 -->
<g id="Node000002" class="node">
<title>Node2</title>
<g id="a_Node000002"><a xlink:href="cherry_8h.html" target="_top" xlink:title="— Cherry core (context + device&#45;capabilities) interface.">
<polygon fill="white" stroke="#666666" points="124.75,-129.75 45,-129.75 45,-110.5 124.75,-110.5 124.75,-129.75"/>
<text xml:space="preserve" text-anchor="middle" x="84.88" y="-116.25" font-family="Helvetica,sans-Serif" font-size="10.00">cherry/cherry.h</text>
</a>
</g>
</g>
<!-- Node1&#45;&gt;Node2 -->
<g id="edge1_Node000001_Node000002" class="edge">
<title>Node1&#45;&gt;Node2</title>
<g id="a_edge1_Node000001_Node000002"><a xlink:title=" ">
<path fill="none" stroke="#63b8ff" d="M146.79,-225.61C125.86,-217.1 104.09,-204.2 90.88,-185 82.17,-172.34 81.1,-154.78 81.97,-141.28"/>
<polygon fill="#63b8ff" stroke="#63b8ff" points="85.45,-141.69 83.05,-131.37 78.49,-140.93 85.45,-141.69"/>
</a>
</g>
</g>
<!-- Node3 -->
<g id="Node000003" class="node">
<title>Node3</title>
<g id="a_Node000003"><a xlink:href="cherry__common_8h.html" target="_top" xlink:title="— diagnostics config struct and report forward decl.">
<polygon fill="white" stroke="#666666" points="206.88,-74.5 112.88,-74.5 112.88,-55.25 206.88,-55.25 206.88,-74.5"/>
<text xml:space="preserve" text-anchor="middle" x="159.88" y="-61" font-family="Helvetica,sans-Serif" font-size="10.00">cherry_common.h</text>
</a>
</g>
</g>
<!-- Node1&#45;&gt;Node3 -->
<g id="edge7_Node000001_Node000003" class="edge">
<title>Node1&#45;&gt;Node3</title>
<g id="a_edge7_Node000001_Node000003"><a xlink:title=" ">
<path fill="none" stroke="#63b8ff" d="M217.79,-220.54C226.36,-205.46 234.69,-184.38 228.88,-165.75 218.68,-133.05 193.61,-101.61 176.67,-83.01"/>
<polygon fill="#63b8ff" stroke="#63b8ff" points="179.33,-80.73 169.93,-75.85 174.23,-85.53 179.33,-80.73"/>
</a>
</g>
</g>
<!-- Node4 -->
<g id="Node000004" class="node">
<title>Node4</title>
<g id="a_Node000004"><a xlink:title=" ">
<polygon fill="#e0e0e0" stroke="#999999" points="55.75,-19.25 0,-19.25 0,0 55.75,0 55.75,-19.25"/>
<text xml:space="preserve" text-anchor="middle" x="27.88" y="-5.75" font-family="Helvetica,sans-Serif" font-size="10.00">stdbool.h</text>
</a>
</g>
</g>
<!-- Node1&#45;&gt;Node4 -->
<g id="edge13_Node000001_Node000004" class="edge">
<title>Node1&#45;&gt;Node4</title>
<g id="a_edge13_Node000001_Node000004"><a xlink:title=" ">
<path fill="none" stroke="#63b8ff" d="M146.67,-224.23C102.99,-208.04 46.29,-178.6 21.88,-129.75 7.01,-100 10.18,-88.17 14.88,-55.25 16.06,-46.97 18.41,-38.07 20.8,-30.42"/>
<polygon fill="#63b8ff" stroke="#63b8ff" points="24.06,-31.72 23.93,-21.12 17.42,-29.49 24.06,-31.72"/>
</a>
</g>
</g>
<!-- Node5 -->
<g id="Node000005" class="node">
<title>Node5</title>
<g id="a_Node000005"><a xlink:title=" ">
<polygon fill="#e0e0e0" stroke="#999999" points="221,-19.25 172.75,-19.25 172.75,0 221,0 221,-19.25"/>
<text xml:space="preserve" text-anchor="middle" x="196.88" y="-5.75" font-family="Helvetica,sans-Serif" font-size="10.00">stdint.h</text>
</a>
</g>
</g>
<!-- Node1&#45;&gt;Node5 -->
<g id="edge15_Node000001_Node000005" class="edge">
<title>Node1&#45;&gt;Node5</title>
<g id="a_edge15_Node000001_Node000005"><a xlink:title=" ">
<path fill="none" stroke="#63b8ff" d="M223.09,-220.58C231.18,-210.66 239.68,-198.06 243.88,-185 253.9,-153.79 270.46,-153.19 230.88,-55.25 226.88,-45.36 220.08,-35.77 213.61,-28.03"/>
<polygon fill="#63b8ff" stroke="#63b8ff" points="216.37,-25.86 207.1,-20.74 211.15,-30.53 216.37,-25.86"/>
</a>
</g>
</g>
<!-- Node6 -->
<g id="Node000006" class="node">
<title>Node6</title>
<g id="a_Node000006"><a xlink:href="cherry__session_8h.html" target="_top" xlink:title="— generic base&#45;session interface.">
<polygon fill="white" stroke="#666666" points="220,-185 99.75,-185 99.75,-165.75 220,-165.75 220,-185"/>
<text xml:space="preserve" text-anchor="middle" x="159.88" y="-171.5" font-family="Helvetica,sans-Serif" font-size="10.00">cherry/cherry_session.h</text>
</a>
</g>
</g>
<!-- Node1&#45;&gt;Node6 -->
<g id="edge8_Node000001_Node000006" class="edge">
<title>Node1&#45;&gt;Node6</title>
<g id="a_edge8_Node000001_Node000006"><a xlink:title=" ">
<path fill="none" stroke="#63b8ff" d="M190.19,-220.82C184.52,-212.5 177.98,-202.91 172.42,-194.77"/>
<polygon fill="#63b8ff" stroke="#63b8ff" points="175.44,-192.98 166.92,-186.7 169.66,-196.93 175.44,-192.98"/>
</a>
</g>
</g>
<!-- Node7 -->
<g id="Node000007" class="node">
<title>Node7</title>
<g id="a_Node000007"><a xlink:title=" ">
<polygon fill="#e0e0e0" stroke="#999999" points="365.5,-185 314.25,-185 314.25,-165.75 365.5,-165.75 365.5,-185"/>
<text xml:space="preserve" text-anchor="middle" x="339.88" y="-171.5" font-family="Helvetica,sans-Serif" font-size="10.00">stddef.h</text>
</a>
</g>
</g>
<!-- Node1&#45;&gt;Node7 -->
<g id="edge14_Node000001_Node000007" class="edge">
<title>Node1&#45;&gt;Node7</title>
<g id="a_edge14_Node000001_Node000007"><a xlink:title=" ">
<path fill="none" stroke="#63b8ff" d="M246.53,-220.64C267.37,-210.76 291.91,-199.12 310.6,-190.26"/>
<polygon fill="#63b8ff" stroke="#63b8ff" points="311.95,-193.49 319.49,-186.04 308.95,-187.17 311.95,-193.49"/>
</a>
</g>
</g>
<!-- Node2&#45;&gt;Node3 -->
<g id="edge2_Node000002_Node000003" class="edge">
<title>Node2&#45;&gt;Node3</title>
<g id="a_edge2_Node000002_Node000003"><a xlink:title=" ">
<path fill="none" stroke="#63b8ff" d="M97.6,-110.09C108.59,-102.29 124.72,-90.84 137.81,-81.54"/>
<polygon fill="#63b8ff" stroke="#63b8ff" points="139.73,-84.47 145.86,-75.83 135.68,-78.76 139.73,-84.47"/>
</a>
</g>
</g>
<!-- Node2&#45;&gt;Node4 -->
<g id="edge5_Node000002_Node000004" class="edge">
<title>Node2&#45;&gt;Node4</title>
<g id="a_edge5_Node000002_Node000004"><a xlink:title=" ">
<path fill="none" stroke="#63b8ff" d="M80.21,-110.25C70.98,-92.68 50.22,-53.16 37.8,-29.52"/>
<polygon fill="#63b8ff" stroke="#63b8ff" points="41.06,-28.19 33.31,-20.97 34.86,-31.45 41.06,-28.19"/>
</a>
</g>
</g>
<!-- Node2&#45;&gt;Node5 -->
<g id="edge6_Node000002_Node000005" class="edge">
<title>Node2&#45;&gt;Node5</title>
<g id="a_edge6_Node000002_Node000005"><a xlink:title=" ">
<path fill="none" stroke="#63b8ff" d="M85.29,-110.21C86.37,-96.8 90.21,-71.27 103.88,-55.25 118.81,-37.74 142.18,-26.57 161.76,-19.78"/>
<polygon fill="#63b8ff" stroke="#63b8ff" points="162.56,-23.2 171.02,-16.82 160.43,-16.53 162.56,-23.2"/>
</a>
</g>
</g>
<!-- Node3&#45;&gt;Node4 -->
<g id="edge3_Node000003_Node000004" class="edge">
<title>Node3&#45;&gt;Node4</title>
<g id="a_edge3_Node000003_Node000004"><a xlink:title=" ">
<path fill="none" stroke="#63b8ff" d="M137.48,-54.84C116.43,-46.35 84.67,-33.54 60.75,-23.89"/>
<polygon fill="#63b8ff" stroke="#63b8ff" points="62.36,-20.76 51.78,-20.27 59.74,-27.26 62.36,-20.76"/>
</a>
</g>
</g>
<!-- Node3&#45;&gt;Node5 -->
<g id="edge4_Node000003_Node000005" class="edge">
<title>Node3&#45;&gt;Node5</title>
<g id="a_edge4_Node000003_Node000005"><a xlink:title=" ">
<path fill="none" stroke="#63b8ff" d="M165.98,-55.08C170.94,-47.96 178.08,-37.68 184.25,-28.8"/>
<polygon fill="#63b8ff" stroke="#63b8ff" points="186.94,-31.06 189.77,-20.85 181.19,-27.07 186.94,-31.06"/>
</a>
</g>
</g>
<!-- Node6&#45;&gt;Node2 -->
<g id="edge9_Node000006_Node000002" class="edge">
<title>Node6&#45;&gt;Node2</title>
<g id="a_edge9_Node000006_Node000002"><a xlink:title=" ">
<path fill="none" stroke="#63b8ff" d="M147.15,-165.34C136.16,-157.54 120.03,-146.09 106.94,-136.79"/>
<polygon fill="#63b8ff" stroke="#63b8ff" points="109.07,-134.01 98.89,-131.08 105.02,-139.72 109.07,-134.01"/>
</a>
</g>
</g>
<!-- Node6&#45;&gt;Node3 -->
<g id="edge10_Node000006_Node000003" class="edge">
<title>Node6&#45;&gt;Node3</title>
<g id="a_edge10_Node000006_Node000003"><a xlink:title=" ">
<path fill="none" stroke="#63b8ff" d="M159.88,-165.5C159.88,-148.25 159.88,-109.83 159.88,-86.06"/>
<polygon fill="#63b8ff" stroke="#63b8ff" points="163.38,-86.39 159.88,-76.39 156.38,-86.39 163.38,-86.39"/>
</a>
</g>
</g>
<!-- Node6&#45;&gt;Node4 -->
<g id="edge11_Node000006_Node000004" class="edge">
<title>Node6&#45;&gt;Node4</title>
<g id="a_edge11_Node000006_Node000004"><a xlink:title=" ">
<path fill="none" stroke="#63b8ff" d="M99.35,-166.91C75.83,-160.81 50.96,-149.75 35.88,-129.75 14.2,-101.01 18.25,-56.45 23.1,-30.75"/>
<polygon fill="#63b8ff" stroke="#63b8ff" points="26.52,-31.5 25.19,-20.99 19.67,-30.04 26.52,-31.5"/>
</a>
</g>
</g>
<!-- Node6&#45;&gt;Node5 -->
<g id="edge12_Node000006_Node000005" class="edge">
<title>Node6&#45;&gt;Node5</title>
<g id="a_edge12_Node000006_Node000005"><a xlink:title=" ">
<path fill="none" stroke="#63b8ff" d="M167.02,-165.43C179.83,-148.75 206.28,-111.24 215.88,-74.5 219.86,-59.26 214.23,-42.17 208.09,-29.5"/>
<polygon fill="#63b8ff" stroke="#63b8ff" points="211.33,-28.14 203.51,-21 205.17,-31.46 211.33,-28.14"/>
</a>
</g>
</g>
</g>
</svg>
