<?xml version="1.0" encoding="UTF-8" standalone="no"?>
<!DOCTYPE svg PUBLIC "-//W3C//DTD SVG 1.1//EN"
 "http://www.w3.org/Graphics/SVG/1.1/DTD/svg11.dtd">
<!-- Generated by graphviz version 15.0.0 (20260523.1842)
 -->
<!-- Title: modules/woz_uwb/src/aliro/include/cherry/cherry_session.h Pages: 1 -->
<svg width="204pt" height="216pt"
 viewBox="0.00 0.00 204.00 216.00" xmlns="http://www.w3.org/2000/svg" xmlns:xlink="http://www.w3.org/1999/xlink">
<g id="graph0" class="graph" transform="scale(1 1) rotate(0) translate(4 211.5)">
<title>modules/woz_uwb/src/aliro/include/cherry/cherry_session.h</title>
<!-- Node1 -->
<g id="Node000001" class="node">
<title>Node1</title>
<g id="a_Node000001"><a xlink:title="— generic base&#45;session interface.">
<polygon fill="#999999" stroke="#666666" points="154.35,-207.5 40.85,-207.5 40.85,-165.75 154.35,-165.75 154.35,-207.5"/>
<text xml:space="preserve" text-anchor="start" x="48.85" y="-194" font-family="Helvetica,sans-Serif" font-size="10.00">modules/woz_uwb/src</text>
<text xml:space="preserve" text-anchor="start" x="48.85" y="-182.75" font-family="Helvetica,sans-Serif" font-size="10.00">/aliro/include/cherry</text>
<text xml:space="preserve" text-anchor="middle" x="97.6" y="-171.5" font-family="Helvetica,sans-Serif" font-size="10.00">/cherry_session.h</text>
</a>
</g>
</g>
<!-- Node2 -->
<g id="Node000002" class="node">
<title>Node2</title>
<g id="a_Node000002"><a xlink:href="cherry_8h.html" target="_top" xlink:title="— Cherry core (context + device&#45;capabilities) interface.">
<polygon fill="white" stroke="#666666" points="170.47,-129.75 90.72,-129.75 90.72,-110.5 170.47,-110.5 170.47,-129.75"/>
<text xml:space="preserve" text-anchor="middle" x="130.6" y="-116.25" font-family="Helvetica,sans-Serif" font-size="10.00">cherry/cherry.h</text>
</a>
</g>
</g>
<!-- Node1&#45;&gt;Node2 -->
<g id="edge1_Node000001_Node000002" class="edge">
<title>Node1&#45;&gt;Node2</title>
<g id="a_edge1_Node000001_Node000002"><a xlink:title=" ">
<path fill="none" stroke="#63b8ff" d="M107.86,-165.57C111.97,-157.53 116.7,-148.3 120.77,-140.34"/>
<polygon fill="#63b8ff" stroke="#63b8ff" points="123.83,-142.04 125.27,-131.54 117.6,-138.85 123.83,-142.04"/>
</a>
</g>
</g>
<!-- Node3 -->
<g id="Node000003" class="node">
<title>Node3</title>
<g id="a_Node000003"><a xlink:href="cherry__common_8h.html" target="_top" xlink:title="— diagnostics config struct and report forward decl.">
<polygon fill="white" stroke="#666666" points="105.6,-74.5 11.6,-74.5 11.6,-55.25 105.6,-55.25 105.6,-74.5"/>
<text xml:space="preserve" text-anchor="middle" x="58.6" y="-61" font-family="Helvetica,sans-Serif" font-size="10.00">cherry_common.h</text>
</a>
</g>
</g>
<!-- Node1&#45;&gt;Node3 -->
<g id="edge7_Node000001_Node000003" class="edge">
<title>Node1&#45;&gt;Node3</title>
<g id="a_edge7_Node000001_Node000003"><a xlink:title=" ">
<path fill="none" stroke="#63b8ff" d="M90.98,-165.31C83.72,-143.02 72.14,-107.47 64.98,-85.47"/>
<polygon fill="#63b8ff" stroke="#63b8ff" points="68.4,-84.67 61.97,-76.24 61.74,-86.84 68.4,-84.67"/>
</a>
</g>
</g>
<!-- Node4 -->
<g id="Node000004" class="node">
<title>Node4</title>
<g id="a_Node000004"><a xlink:title=" ">
<polygon fill="#e0e0e0" stroke="#999999" points="86.47,-19.25 30.72,-19.25 30.72,0 86.47,0 86.47,-19.25"/>
<text xml:space="preserve" text-anchor="middle" x="58.6" y="-5.75" font-family="Helvetica,sans-Serif" font-size="10.00">stdbool.h</text>
</a>
</g>
</g>
<!-- Node1&#45;&gt;Node4 -->
<g id="edge8_Node000001_Node000004" class="edge">
<title>Node1&#45;&gt;Node4</title>
<g id="a_edge8_Node000001_Node000004"><a xlink:title=" ">
<path fill="none" stroke="#63b8ff" d="M72.16,-165.39C49,-145.21 16.4,-111.88 2.6,-74.5 -0.37,-66.47 -1.12,-62.96 2.6,-55.25 8.51,-42.99 19.6,-33.05 30.37,-25.7"/>
<polygon fill="#63b8ff" stroke="#63b8ff" points="32.1,-28.74 38.72,-20.47 28.39,-22.81 32.1,-28.74"/>
</a>
</g>
</g>
<!-- Node5 -->
<g id="Node000005" class="node">
<title>Node5</title>
<g id="a_Node000005"><a xlink:title=" ">
<polygon fill="#e0e0e0" stroke="#999999" points="195.72,-19.25 147.47,-19.25 147.47,0 195.72,0 195.72,-19.25"/>
<text xml:space="preserve" text-anchor="middle" x="171.6" y="-5.75" font-family="Helvetica,sans-Serif" font-size="10.00">stdint.h</text>
</a>
</g>
</g>
<!-- Node1&#45;&gt;Node5 -->
<g id="edge9_Node000001_Node000005" class="edge">
<title>Node1&#45;&gt;Node5</title>
<g id="a_edge9_Node000001_Node000005"><a xlink:title=" ">
<path fill="none" stroke="#63b8ff" d="M143.3,-165.37C157.56,-156.6 171.63,-144.83 179.6,-129.75 196.26,-98.24 186.93,-55.32 179.01,-30.53"/>
<polygon fill="#63b8ff" stroke="#63b8ff" points="182.32,-29.39 175.74,-21.09 175.7,-31.68 182.32,-29.39"/>
</a>
</g>
</g>
<!-- Node2&#45;&gt;Node3 -->
<g id="edge2_Node000002_Node000003" class="edge">
<title>Node2&#45;&gt;Node3</title>
<g id="a_edge2_Node000002_Node000003"><a xlink:title=" ">
<path fill="none" stroke="#63b8ff" d="M118.38,-110.09C107.77,-102.24 92.16,-90.7 79.55,-81.37"/>
<polygon fill="#63b8ff" stroke="#63b8ff" points="81.97,-78.81 71.85,-75.67 77.81,-84.44 81.97,-78.81"/>
</a>
</g>
</g>
<!-- Node2&#45;&gt;Node4 -->
<g id="edge5_Node000002_Node000004" class="edge">
<title>Node2&#45;&gt;Node4</title>
<g id="a_edge5_Node000002_Node000004"><a xlink:title=" ">
<path fill="none" stroke="#63b8ff" d="M130.15,-110.15C129.12,-97.1 125.73,-72.56 114.6,-55.25 107.03,-43.48 95.29,-33.44 84.51,-25.87"/>
<polygon fill="#63b8ff" stroke="#63b8ff" points="86.58,-23.04 76.3,-20.48 82.73,-28.89 86.58,-23.04"/>
</a>
</g>
</g>
<!-- Node2&#45;&gt;Node5 -->
<g id="edge6_Node000002_Node000005" class="edge">
<title>Node2&#45;&gt;Node5</title>
<g id="a_edge6_Node000002_Node000005"><a xlink:title=" ">
<path fill="none" stroke="#63b8ff" d="M134,-110.24C137.44,-101.24 142.9,-86.91 147.6,-74.5 153.19,-59.72 159.47,-43 164.2,-30.38"/>
<polygon fill="#63b8ff" stroke="#63b8ff" points="167.43,-31.74 167.66,-21.14 160.88,-29.28 167.43,-31.74"/>
</a>
</g>
</g>
<!-- Node3&#45;&gt;Node4 -->
<g id="edge3_Node000003_Node000004" class="edge">
<title>Node3&#45;&gt;Node4</title>
<g id="a_edge3_Node000003_Node000004"><a xlink:title=" ">
<path fill="none" stroke="#63b8ff" d="M58.6,-55.08C58.6,-48.57 58.6,-39.42 58.6,-31.12"/>
<polygon fill="#63b8ff" stroke="#63b8ff" points="62.1,-31.12 58.6,-21.12 55.1,-31.12 62.1,-31.12"/>
</a>
</g>
</g>
<!-- Node3&#45;&gt;Node5 -->
<g id="edge4_Node000003_Node000005" class="edge">
<title>Node3&#45;&gt;Node5</title>
<g id="a_edge4_Node000003_Node000005"><a xlink:title=" ">
<path fill="none" stroke="#63b8ff" d="M77.77,-54.84C95.38,-46.54 121.76,-34.11 142.06,-24.54"/>
<polygon fill="#63b8ff" stroke="#63b8ff" points="143.41,-27.78 150.97,-20.35 140.43,-21.44 143.41,-27.78"/>
</a>
</g>
</g>
</g>
</svg>
