<?xml version="1.0" encoding="UTF-8" standalone="no"?>
<!DOCTYPE svg PUBLIC "-//W3C//DTD SVG 1.1//EN"
 "http://www.w3.org/Graphics/SVG/1.1/DTD/svg11.dtd">
<!-- Generated by graphviz version 15.0.0 (20260523.1842)
 -->
<!-- Title: modules/woz_uwb/src/fira/fira_session.c Pages: 1 -->
<svg width="294pt" height="149pt"
 viewBox="0.00 0.00 294.00 149.00" xmlns="http://www.w3.org/2000/svg" xmlns:xlink="http://www.w3.org/1999/xlink">
<g id="graph0" class="graph" transform="scale(1 1) rotate(0) translate(4 145)">
<title>modules/woz_uwb/src/fira/fira_session.c</title>
<!-- Node1 -->
<g id="Node000001" class="node">
<title>Node1</title>
<g id="a_Node000001"><a xlink:title="— Range + URSK store for the CCC Pre&#45;POLL responder.">
<polygon fill="#999999" stroke="#666666" points="198.62,-141 85.12,-141 85.12,-110.5 198.62,-110.5 198.62,-141"/>
<text xml:space="preserve" text-anchor="start" x="93.12" y="-127.5" font-family="Helvetica,sans-Serif" font-size="10.00">modules/woz_uwb/src</text>
<text xml:space="preserve" text-anchor="middle" x="141.88" y="-116.25" font-family="Helvetica,sans-Serif" font-size="10.00">/fira/fira_session.c</text>
</a>
</g>
</g>
<!-- Node2 -->
<g id="Node000002" class="node">
<title>Node2</title>
<g id="a_Node000002"><a xlink:title=" ">
<polygon fill="#e0e0e0" stroke="#999999" points="55.75,-19.25 0,-19.25 0,0 55.75,0 55.75,-19.25"/>
<text xml:space="preserve" text-anchor="middle" x="27.88" y="-5.75" font-family="Helvetica,sans-Serif" font-size="10.00">stdbool.h</text>
</a>
</g>
</g>
<!-- Node1&#45;&gt;Node2 -->
<g id="edge1_Node000001_Node000002" class="edge">
<title>Node1&#45;&gt;Node2</title>
<g id="a_edge1_Node000001_Node000002"><a xlink:title=" ">
<path fill="none" stroke="#63b8ff" d="M84.89,-117.15C58.66,-110.48 29.88,-97.97 13.88,-74.5 4.88,-61.31 9.99,-43.34 16.43,-29.81"/>
<polygon fill="#63b8ff" stroke="#63b8ff" points="19.49,-31.51 21.15,-21.04 13.33,-28.19 19.49,-31.51"/>
</a>
</g>
</g>
<!-- Node3 -->
<g id="Node000003" class="node">
<title>Node3</title>
<g id="a_Node000003"><a xlink:title=" ">
<polygon fill="#e0e0e0" stroke="#999999" points="214,-19.25 165.75,-19.25 165.75,0 214,0 214,-19.25"/>
<text xml:space="preserve" text-anchor="middle" x="189.88" y="-5.75" font-family="Helvetica,sans-Serif" font-size="10.00">stdint.h</text>
</a>
</g>
</g>
<!-- Node1&#45;&gt;Node3 -->
<g id="edge2_Node000001_Node000003" class="edge">
<title>Node1&#45;&gt;Node3</title>
<g id="a_edge2_Node000001_Node000003"><a xlink:title=" ">
<path fill="none" stroke="#63b8ff" d="M153.45,-110.15C160.57,-100.51 169.35,-87.35 174.88,-74.5 180.88,-60.53 184.7,-43.76 186.98,-30.91"/>
<polygon fill="#63b8ff" stroke="#63b8ff" points="190.43,-31.53 188.54,-21.11 183.51,-30.44 190.43,-31.53"/>
</a>
</g>
</g>
<!-- Node4 -->
<g id="Node000004" class="node">
<title>Node4</title>
<g id="a_Node000004"><a xlink:title=" ">
<polygon fill="#e0e0e0" stroke="#999999" points="166,-74.5 117.75,-74.5 117.75,-55.25 166,-55.25 166,-74.5"/>
<text xml:space="preserve" text-anchor="middle" x="141.88" y="-61" font-family="Helvetica,sans-Serif" font-size="10.00">string.h</text>
</a>
</g>
</g>
<!-- Node1&#45;&gt;Node4 -->
<g id="edge3_Node000001_Node000004" class="edge">
<title>Node1&#45;&gt;Node4</title>
<g id="a_edge3_Node000001_Node000004"><a xlink:title=" ">
<path fill="none" stroke="#63b8ff" d="M141.88,-110.2C141.88,-102.96 141.88,-94.09 141.88,-86.19"/>
<polygon fill="#63b8ff" stroke="#63b8ff" points="145.38,-86.46 141.88,-76.46 138.38,-86.46 145.38,-86.46"/>
</a>
</g>
</g>
<!-- Node5 -->
<g id="Node000005" class="node">
<title>Node5</title>
<g id="a_Node000005"><a xlink:href="woz__port_8h_source.html" target="_top" xlink:title=" ">
<polygon fill="white" stroke="#666666" points="285.88,-74.5 221.88,-74.5 221.88,-55.25 285.88,-55.25 285.88,-74.5"/>
<text xml:space="preserve" text-anchor="middle" x="253.88" y="-61" font-family="Helvetica,sans-Serif" font-size="10.00">woz_port.h</text>
</a>
</g>
</g>
<!-- Node1&#45;&gt;Node5 -->
<g id="edge4_Node000001_Node000005" class="edge">
<title>Node1&#45;&gt;Node5</title>
<g id="a_edge4_Node000001_Node000005"><a xlink:title=" ">
<path fill="none" stroke="#63b8ff" d="M169.85,-110.05C187.23,-100.91 209.47,-89.22 226.7,-80.16"/>
<polygon fill="#63b8ff" stroke="#63b8ff" points="228.14,-83.36 235.36,-75.61 224.88,-77.16 228.14,-83.36"/>
</a>
</g>
</g>
<!-- Node7 -->
<g id="Node000007" class="node">
<title>Node7</title>
<g id="a_Node000007"><a xlink:href="fira__session_8h.html" target="_top" xlink:title="— Range + URSK store for the CCC Pre&#45;POLL responder.">
<polygon fill="white" stroke="#666666" points="99.25,-74.5 22.5,-74.5 22.5,-55.25 99.25,-55.25 99.25,-74.5"/>
<text xml:space="preserve" text-anchor="middle" x="60.88" y="-61" font-family="Helvetica,sans-Serif" font-size="10.00">fira_session.h</text>
</a>
</g>
</g>
<!-- Node1&#45;&gt;Node7 -->
<g id="edge7_Node000001_Node000007" class="edge">
<title>Node1&#45;&gt;Node7</title>
<g id="a_edge7_Node000001_Node000007"><a xlink:title=" ">
<path fill="none" stroke="#63b8ff" d="M121.85,-110.2C109.88,-101.49 94.66,-90.43 82.42,-81.53"/>
<polygon fill="#63b8ff" stroke="#63b8ff" points="84.73,-78.89 74.59,-75.84 80.62,-84.55 84.73,-78.89"/>
</a>
</g>
</g>
<!-- Node5&#45;&gt;Node3 -->
<g id="edge6_Node000005_Node000003" class="edge">
<title>Node5&#45;&gt;Node3</title>
<g id="a_edge6_Node000005_Node000003"><a xlink:title=" ">
<path fill="none" stroke="#63b8ff" d="M243.02,-54.84C233.77,-47.15 220.25,-35.9 209.17,-26.68"/>
<polygon fill="#63b8ff" stroke="#63b8ff" points="211.66,-24.2 201.73,-20.49 207.18,-29.58 211.66,-24.2"/>
</a>
</g>
</g>
<!-- Node6 -->
<g id="Node000006" class="node">
<title>Node6</title>
<g id="a_Node000006"><a xlink:title=" ">
<polygon fill="#e0e0e0" stroke="#999999" points="283.5,-19.25 232.25,-19.25 232.25,0 283.5,0 283.5,-19.25"/>
<text xml:space="preserve" text-anchor="middle" x="257.88" y="-5.75" font-family="Helvetica,sans-Serif" font-size="10.00">stddef.h</text>
</a>
</g>
</g>
<!-- Node5&#45;&gt;Node6 -->
<g id="edge5_Node000005_Node000006" class="edge">
<title>Node5&#45;&gt;Node6</title>
<g id="a_edge5_Node000005_Node000006"><a xlink:title=" ">
<path fill="none" stroke="#63b8ff" d="M254.54,-55.08C255.03,-48.49 255.73,-39.21 256.36,-30.82"/>
<polygon fill="#63b8ff" stroke="#63b8ff" points="259.83,-31.35 257.09,-21.12 252.85,-30.83 259.83,-31.35"/>
</a>
</g>
</g>
<!-- Node7&#45;&gt;Node2 -->
<g id="edge8_Node000007_Node000002" class="edge">
<title>Node7&#45;&gt;Node2</title>
<g id="a_edge8_Node000007_Node000002"><a xlink:title=" ">
<path fill="none" stroke="#63b8ff" d="M55.43,-55.08C51.1,-48.11 44.91,-38.12 39.49,-29.37"/>
<polygon fill="#63b8ff" stroke="#63b8ff" points="42.48,-27.55 34.24,-20.9 36.53,-31.24 42.48,-27.55"/>
</a>
</g>
</g>
<!-- Node7&#45;&gt;Node3 -->
<g id="edge9_Node000007_Node000003" class="edge">
<title>Node7&#45;&gt;Node3</title>
<g id="a_edge9_Node000007_Node000003"><a xlink:title=" ">
<path fill="none" stroke="#63b8ff" d="M82.76,-54.84C103.24,-46.39 134.09,-33.65 157.43,-24.02"/>
<polygon fill="#63b8ff" stroke="#63b8ff" points="158.58,-27.33 166.49,-20.28 155.91,-20.86 158.58,-27.33"/>
</a>
</g>
</g>
</g>
</svg>
