<?xml version="1.0" encoding="UTF-8" standalone="no"?>
<!DOCTYPE svg PUBLIC "-//W3C//DTD SVG 1.1//EN"
 "http://www.w3.org/Graphics/SVG/1.1/DTD/svg11.dtd">
<!-- Generated by graphviz version 15.0.0 (20260523.1842)
 -->
<!-- Title: cherry_ccc_session Pages: 1 -->
<svg width="378pt" height="267pt"
 viewBox="0.00 0.00 378.00 267.00" xmlns="http://www.w3.org/2000/svg" xmlns:xlink="http://www.w3.org/1999/xlink">
<g id="graph0" class="graph" transform="scale(1 1) rotate(0) translate(4 263.25)">
<title>cherry_ccc_session</title>
<!-- Node1 -->
<g id="Node000001" class="node">
<title>Node1</title>
<g id="a_Node000001"><a xlink:title="CCC ranging session bound to FiRa MAC.">
<polygon fill="#999999" stroke="#666666" points="358.75,-169.88 255.75,-169.88 255.75,-150.62 358.75,-150.62 358.75,-169.88"/>
<text xml:space="preserve" text-anchor="middle" x="307.25" y="-156.38" font-family="Helvetica,sans-Serif" font-size="10.00">cherry_ccc_session</text>
</a>
</g>
</g>
<!-- Node3 -->
<g id="Node000003" class="node">
<title>Node3</title>
<g id="a_Node000003"><a xlink:href="structcherry__ccc__event.html" target="_top" xlink:title="CCC notification delivered to the adapter.">
<polygon fill="white" stroke="#666666" points="249.88,-91.75 156.62,-91.75 156.62,-72.5 249.88,-72.5 249.88,-91.75"/>
<text xml:space="preserve" text-anchor="middle" x="203.25" y="-78.25" font-family="Helvetica,sans-Serif" font-size="10.00">cherry_ccc_event</text>
</a>
</g>
</g>
<!-- Node1&#45;&gt;Node3 -->
<g id="edge3_Node000003_Node000001" class="edge">
<title>Node1&#45;&gt;Node3</title>
<g id="a_edge3_Node000003_Node000001"><a xlink:title=" ">
<path fill="none" stroke="#9a32cd" stroke-dasharray="5,2" d="M277.68,-145.01C268.04,-139.85 257.5,-133.65 248.5,-127 234.06,-116.34 219.55,-101.33 210.99,-91.92"/>
<polygon fill="#9a32cd" stroke="#9a32cd" points="275.84,-148 286.33,-149.47 279.05,-141.78 275.84,-148"/>
</a>
</g>
<text xml:space="preserve" text-anchor="start" x="251.5" y="-115.75" font-family="Helvetica,sans-Serif" font-size="10.00" fill="grey">session</text>
</g>
<!-- Node2 -->
<g id="Node000002" class="node">
<title>Node2</title>
<g id="a_Node000002"><a xlink:href="structcherry__session.html" target="_top" xlink:title="Base session object; first member of cherry_ccc_session for up&#45;casting.">
<polygon fill="white" stroke="#666666" points="302.25,-19.25 220.25,-19.25 220.25,0 302.25,0 302.25,-19.25"/>
<text xml:space="preserve" text-anchor="middle" x="261.25" y="-5.75" font-family="Helvetica,sans-Serif" font-size="10.00">cherry_session</text>
</a>
</g>
</g>
<!-- Node2&#45;&gt;Node1 -->
<g id="edge1_Node000001_Node000002" class="edge">
<title>Node2&#45;&gt;Node1</title>
<g id="a_edge1_Node000001_Node000002"><a xlink:title=" ">
<path fill="none" stroke="#9a32cd" stroke-dasharray="5,2" d="M267.39,-30.47C277.51,-63.15 297.27,-127.01 304.51,-150.4"/>
<polygon fill="#9a32cd" stroke="#9a32cd" points="270.78,-29.58 264.48,-21.06 264.09,-31.65 270.78,-29.58"/>
</a>
</g>
<text xml:space="preserve" text-anchor="start" x="288.78" y="-79.5" font-family="Helvetica,sans-Serif" font-size="10.00" fill="grey">base</text>
</g>
<!-- Node3&#45;&gt;Node2 -->
<g id="edge2_Node000002_Node000003" class="edge">
<title>Node3&#45;&gt;Node2</title>
<g id="a_edge2_Node000002_Node000003"><a xlink:title=" ">
<path fill="none" stroke="#9a32cd" stroke-dasharray="5,2" d="M217.74,-63.51C229.19,-49.59 244.71,-30.73 253.78,-19.7"/>
<polygon fill="#9a32cd" stroke="#9a32cd" points="215.21,-61.08 211.56,-71.03 220.61,-65.53 215.21,-61.08"/>
</a>
</g>
<text xml:space="preserve" text-anchor="start" x="242.15" y="-43.25" font-family="Helvetica,sans-Serif" font-size="10.00" fill="grey">cb</text>
</g>
<!-- Node4 -->
<g id="Node000004" class="node">
<title>Node4</title>
<g id="a_Node000004"><a xlink:href="structcherry__ccc__session__event__session__status.html" target="_top" xlink:title="Payload of a SESSION_STATUS event, giving the new session state and the reason for the change.">
<polygon fill="white" stroke="#666666" points="116.5,-175.5 0,-175.5 0,-145 116.5,-145 116.5,-175.5"/>
<text xml:space="preserve" text-anchor="start" x="8" y="-162" font-family="Helvetica,sans-Serif" font-size="10.00">cherry_ccc_session</text>
<text xml:space="preserve" text-anchor="middle" x="58.25" y="-150.75" font-family="Helvetica,sans-Serif" font-size="10.00">_event_session_status</text>
</a>
</g>
</g>
<!-- Node4&#45;&gt;Node3 -->
<g id="edge4_Node000003_Node000004" class="edge">
<title>Node4&#45;&gt;Node3</title>
<g id="a_edge4_Node000003_Node000004"><a xlink:title=" ">
<path fill="none" stroke="#9a32cd" stroke-dasharray="5,2" d="M96.08,-139.39C125.26,-124.07 164.26,-103.6 186.26,-92.04"/>
<polygon fill="#9a32cd" stroke="#9a32cd" points="94.77,-136.12 87.55,-143.87 98.03,-142.32 94.77,-136.12"/>
</a>
</g>
<text xml:space="preserve" text-anchor="start" x="155.21" y="-115.75" font-family="Helvetica,sans-Serif" font-size="10.00" fill="grey">status</text>
</g>
<!-- Node5 -->
<g id="Node000005" class="node">
<title>Node5</title>
<g id="a_Node000005"><a xlink:href="structcherry__ccc__session__event__error.html" target="_top" xlink:title="Payload of a SESSION_ERROR event, giving the error status that triggered it.">
<polygon fill="white" stroke="#666666" points="237.75,-175.5 134.75,-175.5 134.75,-145 237.75,-145 237.75,-175.5"/>
<text xml:space="preserve" text-anchor="start" x="142.75" y="-162" font-family="Helvetica,sans-Serif" font-size="10.00">cherry_ccc_session</text>
<text xml:space="preserve" text-anchor="middle" x="186.25" y="-150.75" font-family="Helvetica,sans-Serif" font-size="10.00">_event_error</text>
</a>
</g>
</g>
<!-- Node5&#45;&gt;Node3 -->
<g id="edge5_Node000003_Node000005" class="edge">
<title>Node5&#45;&gt;Node3</title>
<g id="a_edge5_Node000003_Node000005"><a xlink:title=" ">
<path fill="none" stroke="#9a32cd" stroke-dasharray="5,2" d="M190.74,-133.61C192.21,-125.91 193.93,-117.46 195.75,-109.75 197.16,-103.77 199.04,-97.11 200.56,-91.95"/>
<polygon fill="#9a32cd" stroke="#9a32cd" points="187.31,-132.93 188.95,-143.4 194.19,-134.19 187.31,-132.93"/>
</a>
</g>
<text xml:space="preserve" text-anchor="start" x="198.75" y="-115.75" font-family="Helvetica,sans-Serif" font-size="10.00" fill="grey">error</text>
</g>
<!-- Node6 -->
<g id="Node000006" class="node">
<title>Node6</title>
<g id="a_Node000006"><a xlink:href="structcherry__ccc__aliro__session__config.html" target="_top" xlink:title="Negotiated Aliro ranging params (filled in&#45;place across M1&#45;M4).">
<polygon fill="white" stroke="#666666" points="370.38,-259.25 244.12,-259.25 244.12,-228.75 370.38,-228.75 370.38,-259.25"/>
<text xml:space="preserve" text-anchor="start" x="252.12" y="-245.75" font-family="Helvetica,sans-Serif" font-size="10.00">cherry_ccc_aliro_session</text>
<text xml:space="preserve" text-anchor="middle" x="307.25" y="-234.5" font-family="Helvetica,sans-Serif" font-size="10.00">_config</text>
</a>
</g>
</g>
<!-- Node6&#45;&gt;Node1 -->
<g id="edge6_Node000001_Node000006" class="edge">
<title>Node6&#45;&gt;Node1</title>
<g id="a_edge6_Node000001_Node000006"><a xlink:title=" ">
<path fill="none" stroke="#9a32cd" stroke-dasharray="5,2" d="M307.25,-217C307.25,-200.95 307.25,-181.35 307.25,-170.18"/>
<polygon fill="#9a32cd" stroke="#9a32cd" points="303.75,-216.87 307.25,-226.87 310.75,-216.87 303.75,-216.87"/>
</a>
</g>
<text xml:space="preserve" text-anchor="start" x="310.25" y="-199.5" font-family="Helvetica,sans-Serif" font-size="10.00" fill="grey">config</text>
</g>
</g>
</svg>
