<?xml version="1.0" encoding="UTF-8" standalone="no"?>
<!DOCTYPE svg PUBLIC "-//W3C//DTD SVG 1.1//EN"
 "http://www.w3.org/Graphics/SVG/1.1/DTD/svg11.dtd">
<!-- Generated by graphviz version 15.0.0 (20260523.1842)
 -->
<!-- Title: cherry_ccc_event Pages: 1 -->
<svg width="637pt" height="135pt"
 viewBox="0.00 0.00 637.00 135.00" xmlns="http://www.w3.org/2000/svg" xmlns:xlink="http://www.w3.org/1999/xlink">
<g id="graph0" class="graph" transform="scale(1 1) rotate(0) translate(4 130.5)">
<title>cherry_ccc_event</title>
<!-- Node1 -->
<g id="Node000001" class="node">
<title>Node1</title>
<g id="a_Node000001"><a xlink:title="CCC notification delivered to the adapter.">
<polygon fill="#999999" stroke="#666666" points="278.75,-48.88 185.5,-48.88 185.5,-29.62 278.75,-29.62 278.75,-48.88"/>
<text xml:space="preserve" text-anchor="middle" x="232.12" y="-35.38" font-family="Helvetica,sans-Serif" font-size="10.00">cherry_ccc_event</text>
</a>
</g>
</g>
<!-- Node3 -->
<g id="Node000003" class="node">
<title>Node3</title>
<g id="a_Node000003"><a xlink:href="structcherry__session.html" target="_top" xlink:title="Base session object; first member of cherry_ccc_session for up&#45;casting.">
<polygon fill="white" stroke="#666666" points="435.38,-77.88 353.38,-77.88 353.38,-58.62 435.38,-58.62 435.38,-77.88"/>
<text xml:space="preserve" text-anchor="middle" x="394.38" y="-64.38" font-family="Helvetica,sans-Serif" font-size="10.00">cherry_session</text>
</a>
</g>
</g>
<!-- Node1&#45;&gt;Node3 -->
<g id="edge3_Node000003_Node000001" class="edge">
<title>Node1&#45;&gt;Node3</title>
<g id="a_edge3_Node000003_Node000001"><a xlink:title=" ">
<path fill="none" stroke="#9a32cd" stroke-dasharray="5,2" d="M290.28,-49.59C310.99,-53.34 333.93,-57.49 352.9,-60.93"/>
<polygon fill="#9a32cd" stroke="#9a32cd" points="291,-46.17 280.54,-47.83 289.75,-53.05 291,-46.17"/>
</a>
</g>
<text xml:space="preserve" text-anchor="start" x="299.75" y="-59.75" font-family="Helvetica,sans-Serif" font-size="10.00" fill="grey">cb</text>
</g>
<!-- Node2 -->
<g id="Node000002" class="node">
<title>Node2</title>
<g id="a_Node000002"><a xlink:href="structcherry__ccc__session.html" target="_top" xlink:title="CCC ranging session bound to FiRa MAC.">
<polygon fill="white" stroke="#666666" points="628.75,-77.88 525.75,-77.88 525.75,-58.62 628.75,-58.62 628.75,-77.88"/>
<text xml:space="preserve" text-anchor="middle" x="577.25" y="-64.38" font-family="Helvetica,sans-Serif" font-size="10.00">cherry_ccc_session</text>
</a>
</g>
</g>
<!-- Node2&#45;&gt;Node1 -->
<g id="edge1_Node000001_Node000002" class="edge">
<title>Node2&#45;&gt;Node1</title>
<g id="a_edge1_Node000001_Node000002"><a xlink:title=" ">
<path fill="none" stroke="#9a32cd" stroke-dasharray="5,2" d="M540.54,-54.31C517.29,-46 486.08,-36.27 457.5,-32 402,-23.72 387.32,-29.93 331.25,-32 314.18,-32.63 295.47,-33.87 279.01,-35.16"/>
<polygon fill="#9a32cd" stroke="#9a32cd" points="539.26,-57.57 549.85,-57.73 541.67,-51 539.26,-57.57"/>
</a>
</g>
<text xml:space="preserve" text-anchor="start" x="377.5" y="-38" font-family="Helvetica,sans-Serif" font-size="10.00" fill="grey">session</text>
</g>
<!-- Node3&#45;&gt;Node2 -->
<g id="edge2_Node000002_Node000003" class="edge">
<title>Node3&#45;&gt;Node2</title>
<g id="a_edge2_Node000002_Node000003"><a xlink:title=" ">
<path fill="none" stroke="#9a32cd" stroke-dasharray="5,2" d="M446.84,-68.25C471.51,-68.25 500.96,-68.25 525.53,-68.25"/>
<polygon fill="#9a32cd" stroke="#9a32cd" points="447.03,-64.75 437.03,-68.25 447.03,-71.75 447.03,-64.75"/>
</a>
</g>
<text xml:space="preserve" text-anchor="start" x="481.12" y="-74.25" font-family="Helvetica,sans-Serif" font-size="10.00" fill="grey">base</text>
</g>
<!-- Node4 -->
<g id="Node000004" class="node">
<title>Node4</title>
<g id="a_Node000004"><a xlink:href="structcherry__ccc__aliro__session__config.html" target="_top" xlink:title="Negotiated Aliro ranging params (filled in&#45;place across M1&#45;M4).">
<polygon fill="white" stroke="#666666" points="457.5,-126.5 331.25,-126.5 331.25,-96 457.5,-96 457.5,-126.5"/>
<text xml:space="preserve" text-anchor="start" x="339.25" y="-113" font-family="Helvetica,sans-Serif" font-size="10.00">cherry_ccc_aliro_session</text>
<text xml:space="preserve" text-anchor="middle" x="394.38" y="-101.75" font-family="Helvetica,sans-Serif" font-size="10.00">_config</text>
</a>
</g>
</g>
<!-- Node4&#45;&gt;Node2 -->
<g id="edge4_Node000002_Node000004" class="edge">
<title>Node4&#45;&gt;Node2</title>
<g id="a_edge4_Node000002_Node000004"><a xlink:title=" ">
<path fill="none" stroke="#9a32cd" stroke-dasharray="5,2" d="M469.01,-97.98C481.97,-95.31 495.3,-92.37 507.75,-89.25 520.3,-86.11 533.96,-82.05 545.75,-78.34"/>
<polygon fill="#9a32cd" stroke="#9a32cd" points="468.35,-94.54 459.23,-99.94 469.73,-101.4 468.35,-94.54"/>
</a>
</g>
<text xml:space="preserve" text-anchor="start" x="478.5" y="-102.29" font-family="Helvetica,sans-Serif" font-size="10.00" fill="grey">config</text>
</g>
<!-- Node5 -->
<g id="Node000005" class="node">
<title>Node5</title>
<g id="a_Node000005"><a xlink:href="structcherry__ccc__session__event__session__status.html" target="_top" xlink:title="Payload of a SESSION_STATUS event, giving the new session state and the reason for the change.">
<polygon fill="white" stroke="#666666" points="116.5,-79.5 0,-79.5 0,-49 116.5,-49 116.5,-79.5"/>
<text xml:space="preserve" text-anchor="start" x="8" y="-66" font-family="Helvetica,sans-Serif" font-size="10.00">cherry_ccc_session</text>
<text xml:space="preserve" text-anchor="middle" x="58.25" y="-54.75" font-family="Helvetica,sans-Serif" font-size="10.00">_event_session_status</text>
</a>
</g>
</g>
<!-- Node5&#45;&gt;Node1 -->
<g id="edge5_Node000001_Node000005" class="edge">
<title>Node5&#45;&gt;Node1</title>
<g id="a_edge5_Node000001_Node000005"><a xlink:title=" ">
<path fill="none" stroke="#9a32cd" stroke-dasharray="5,2" d="M128.1,-54.24C147.31,-51.44 167.71,-48.47 185.24,-45.92"/>
<polygon fill="#9a32cd" stroke="#9a32cd" points="127.85,-50.73 118.46,-55.64 128.86,-57.66 127.85,-50.73"/>
</a>
</g>
<text xml:space="preserve" text-anchor="start" x="137.5" y="-59.25" font-family="Helvetica,sans-Serif" font-size="10.00" fill="grey">status</text>
</g>
<!-- Node6 -->
<g id="Node000006" class="node">
<title>Node6</title>
<g id="a_Node000006"><a xlink:href="structcherry__ccc__session__event__error.html" target="_top" xlink:title="Payload of a SESSION_ERROR event, giving the error status that triggered it.">
<polygon fill="white" stroke="#666666" points="109.75,-30.5 6.75,-30.5 6.75,0 109.75,0 109.75,-30.5"/>
<text xml:space="preserve" text-anchor="start" x="14.75" y="-17" font-family="Helvetica,sans-Serif" font-size="10.00">cherry_ccc_session</text>
<text xml:space="preserve" text-anchor="middle" x="58.25" y="-5.75" font-family="Helvetica,sans-Serif" font-size="10.00">_event_error</text>
</a>
</g>
</g>
<!-- Node6&#45;&gt;Node1 -->
<g id="edge6_Node000001_Node000006" class="edge">
<title>Node6&#45;&gt;Node1</title>
<g id="a_edge6_Node000001_Node000006"><a xlink:title=" ">
<path fill="none" stroke="#9a32cd" stroke-dasharray="5,2" d="M121.42,-19.45C136.55,-20.86 152.64,-22.68 167.5,-25 174.77,-26.14 182.45,-27.61 189.86,-29.19"/>
<polygon fill="#9a32cd" stroke="#9a32cd" points="121.86,-15.97 111.59,-18.58 121.25,-22.95 121.86,-15.97"/>
</a>
</g>
<text xml:space="preserve" text-anchor="start" x="141.25" y="-31" font-family="Helvetica,sans-Serif" font-size="10.00" fill="grey">error</text>
</g>
</g>
</svg>
