<?xml version="1.0" encoding="UTF-8" standalone="no"?>
<!DOCTYPE svg PUBLIC "-//W3C//DTD SVG 1.1//EN"
 "http://www.w3.org/Graphics/SVG/1.1/DTD/svg11.dtd">
<!-- Generated by graphviz version 15.0.0 (20260523.1842)
 -->
<!-- Title: aliro_uwb_session_event Pages: 1 -->
<!--zoomable 465 -->

<svg id="main" version="1.1" xmlns="http://www.w3.org/2000/svg" xmlns:xlink="http://www.w3.org/1999/xlink" xml:space="preserve" onload="init(evt)">

<style type="text/css"><![CDATA[
.node, .edge {opacity: 0.7;}
.node.selected, .edge.selected {opacity: 1;}
.edge:hover path { stroke: red; }
.edge:hover polygon { stroke: red; fill: red; }
]]></style>

<defs>
  <circle id="rim" cx="0" cy="0" r="7"/>
  <circle id="rim2" cx="0" cy="0" r="3.5"/>
  <g id="zoomPlus">
    <use xlink:href="#rim" fill="#404040"><set attributeName="fill" to="#808080" begin="zoomplus.mouseover" end="zoomplus.mouseout"/></use>
    <path d="M-4,0h8M0,-4v8" fill="none" stroke="white" stroke-width="1.5" pointer-events="none"/>
  </g>
  <g id="zoomMin">
    <use xlink:href="#rim" fill="#404040"><set attributeName="fill" to="#808080" begin="zoomminus.mouseover" end="zoomminus.mouseout"/></use>
    <path d="M-4,0h8" fill="none" stroke="white" stroke-width="1.5" pointer-events="none"/>
  </g>
  <g id="arrowUp" transform="translate(30 24)">
    <use xlink:href="#rim"/>
    <path pointer-events="none" fill="none" stroke="white" stroke-width="1.5" d="M0,-3.0v7 M-2.5,-0.5L0,-3.0L2.5,-0.5"/>
  </g>
  <g id="arrowRight" transform="rotate(90) translate(36 -43)">
    <use xlink:href="#rim"/>
    <path pointer-events="none" fill="none" stroke="white" stroke-width="1.5" d="M0,-3.0v7 M-2.5,-0.5L0,-3.0L2.5,-0.5"/>
  </g>
  <g id="arrowDown" transform="rotate(180) translate(-30 -48)">
    <use xlink:href="#rim"/>
    <path pointer-events="none" fill="none" stroke="white" stroke-width="1.5" d="M0,-3.0v7 M-2.5,-0.5L0,-3.0L2.5,-0.5"/>
  </g>
  <g id="arrowLeft" transform="rotate(270) translate(-36 17)">
    <use xlink:href="#rim"/>
    <path pointer-events="none" fill="none" stroke="white" stroke-width="1.5" d="M0,-3.0v7 M-2.5,-0.5L0,-3.0L2.5,-0.5"/>
  </g>
  <g id="resetDef">
    <use xlink:href="#rim2" fill="#404040"><set attributeName="fill" to="#808080" begin="reset.mouseover" end="reset.mouseout"/></use>
  </g>
</defs>
<script type="application/ecmascript">
var viewWidth = 831;
var viewHeight = 465;
var sectionId = 'dynsection-0';
</script>
<script type="application/ecmascript" xlink:href="svg.min.js"/>
<svg id="graph" class="graph">
<g id="viewport">
<title>aliro_uwb_session_event</title>
<!-- Node1 -->
<g id="Node000001" class="node">
<title>Node1</title>
<g id="a_Node000001"><a xlink:title="Session event handed to the client, carrying status, error, or distance reports.">
<polygon fill="#999999" stroke="#666666" points="648,-230.56 522.5,-230.56 522.5,-211.31 648,-211.31 648,-230.56"/>
<text xml:space="preserve" text-anchor="middle" x="585.25" y="-217.06" font-family="Helvetica,sans-Serif" font-size="10.00">aliro_uwb_session_event</text>
</a>
</g>
</g>
<!-- Node2 -->
<g id="Node000002" class="node">
<title>Node2</title>
<g id="a_Node000002"><a xlink:href="structaliro__uwb__session.html" target="_top" xlink:title="Per&#45;approach ranging&#45;setup session record holding the CCC state machine and derived keys for one Alir...">
<polygon fill="white" stroke="#666666" points="823,-234.56 726.75,-234.56 726.75,-215.31 823,-215.31 823,-234.56"/>
<text xml:space="preserve" text-anchor="middle" x="774.88" y="-221.06" font-family="Helvetica,sans-Serif" font-size="10.00">aliro_uwb_session</text>
</a>
</g>
</g>
<!-- Node1&#45;&gt;Node2 -->
<g id="edge8_Node000002_Node000001" class="edge">
<title>Node1&#45;&gt;Node2</title>
<g id="a_edge8_Node000002_Node000001"><a xlink:title=" ">
<path fill="none" stroke="#9a32cd" stroke-dasharray="5,2" d="M659.37,-222.79C661.6,-222.84 663.82,-222.89 666,-222.94 685.76,-223.37 707.55,-223.78 726.35,-224.12"/>
<polygon fill="#9a32cd" stroke="#9a32cd" points="659.66,-219.3 649.59,-222.56 659.5,-226.29 659.66,-219.3"/>
</a>
</g>
<text xml:space="preserve" text-anchor="start" x="669.38" y="-229.78" font-family="Helvetica,sans-Serif" font-size="10.00" fill="grey">callback</text>
</g>
<!-- Node2&#45;&gt;Node1 -->
<g id="edge1_Node000001_Node000002" class="edge">
<title>Node2&#45;&gt;Node1</title>
<g id="a_edge1_Node000001_Node000002"><a xlink:title=" ">
<path fill="none" stroke="#9a32cd" stroke-dasharray="5,2" d="M735.4,-211.58C726.74,-209.14 717.51,-206.96 708.75,-205.69 680.75,-201.64 649.06,-205.82 624.92,-210.82"/>
<polygon fill="#9a32cd" stroke="#9a32cd" points="734.34,-214.92 744.93,-214.47 736.37,-208.22 734.34,-214.92"/>
</a>
</g>
<text xml:space="preserve" text-anchor="start" x="670.5" y="-211.69" font-family="Helvetica,sans-Serif" font-size="10.00" fill="grey">session</text>
</g>
<!-- Node3 -->
<g id="Node000003" class="node">
<title>Node3</title>
<g id="a_Node000003"><a xlink:href="structaliro__uwb__adapter.html" target="_top" xlink:title="Session&#45;independent reader state shared across all ranging sessions for an Aliro UWB adapter.">
<polygon fill="white" stroke="#666666" points="632.62,-366.56 537.88,-366.56 537.88,-347.31 632.62,-347.31 632.62,-366.56"/>
<text xml:space="preserve" text-anchor="middle" x="585.25" y="-353.06" font-family="Helvetica,sans-Serif" font-size="10.00">aliro_uwb_adapter</text>
</a>
</g>
</g>
<!-- Node3&#45;&gt;Node2 -->
<g id="edge2_Node000002_Node000003" class="edge">
<title>Node3&#45;&gt;Node2</title>
<g id="a_edge2_Node000002_Node000003"><a xlink:title=" ">
<path fill="none" stroke="#9a32cd" stroke-dasharray="5,2" d="M619.89,-342.17C645.45,-330.17 680.84,-311.85 708.75,-290.94 731.68,-273.75 754.21,-248.56 765.81,-234.8"/>
<polygon fill="#9a32cd" stroke="#9a32cd" points="618.58,-338.91 610.97,-346.28 621.51,-345.27 618.58,-338.91"/>
</a>
</g>
<text xml:space="preserve" text-anchor="start" x="669" y="-323.84" font-family="Helvetica,sans-Serif" font-size="10.00" fill="grey">aliro_ctx</text>
</g>
<!-- Node4 -->
<g id="Node000004" class="node">
<title>Node4</title>
<g id="a_Node000004"><a xlink:href="structcherry.html" target="_top" xlink:title="Opaque Cherry context holder.">
<polygon fill="white" stroke="#666666" points="367.62,-326.56 324.62,-326.56 324.62,-307.31 367.62,-307.31 367.62,-326.56"/>
<text xml:space="preserve" text-anchor="middle" x="346.12" y="-313.06" font-family="Helvetica,sans-Serif" font-size="10.00">cherry</text>
</a>
</g>
</g>
<!-- Node4&#45;&gt;Node3 -->
<g id="edge3_Node000003_Node000004" class="edge">
<title>Node4&#45;&gt;Node3</title>
<g id="a_edge3_Node000003_Node000004"><a xlink:title=" ">
<path fill="none" stroke="#9a32cd" stroke-dasharray="5,2" d="M379.18,-319.42C411.13,-322.2 461.49,-327.44 504.5,-335.69 519.84,-338.63 536.57,-342.92 550.73,-346.87"/>
<polygon fill="#9a32cd" stroke="#9a32cd" points="379.66,-315.94 369.4,-318.59 379.07,-322.92 379.66,-315.94"/>
</a>
</g>
<text xml:space="preserve" text-anchor="start" x="443.38" y="-341.69" font-family="Helvetica,sans-Serif" font-size="10.00" fill="grey">cherry_ctx</text>
</g>
<!-- Node5 -->
<g id="Node000005" class="node">
<title>Node5</title>
<g id="a_Node000005"><a xlink:href="structaliro__uwb__adapter__reader__config.html" target="_top" xlink:title="Reader&#45;side selection preferences (borrowed for the adapter&#39;s lifetime).">
<polygon fill="white" stroke="#666666" points="409.62,-455.19 282.62,-455.19 282.62,-424.69 409.62,-424.69 409.62,-455.19"/>
<text xml:space="preserve" text-anchor="start" x="290.62" y="-441.69" font-family="Helvetica,sans-Serif" font-size="10.00">aliro_uwb_adapter_reader</text>
<text xml:space="preserve" text-anchor="middle" x="346.12" y="-430.44" font-family="Helvetica,sans-Serif" font-size="10.00">_config</text>
</a>
</g>
</g>
<!-- Node5&#45;&gt;Node3 -->
<g id="edge4_Node000003_Node000005" class="edge">
<title>Node5&#45;&gt;Node3</title>
<g id="a_edge4_Node000003_Node000005"><a xlink:title=" ">
<path fill="none" stroke="#9a32cd" stroke-dasharray="5,2" d="M421.24,-430.65C448.1,-425.79 478.27,-418.56 504.5,-407.94 530.24,-397.51 556.75,-378.63 571.8,-366.99"/>
<polygon fill="#9a32cd" stroke="#9a32cd" points="420.7,-427.19 411.44,-432.33 421.89,-434.09 420.7,-427.19"/>
</a>
</g>
<text xml:space="preserve" text-anchor="start" x="453.12" y="-435.24" font-family="Helvetica,sans-Serif" font-size="10.00" fill="grey">config</text>
</g>
<!-- Node6 -->
<g id="Node000006" class="node">
<title>Node6</title>
<g id="a_Node000006"><a xlink:href="structaliro__uwb__preferred__hopping__configs.html" target="_top" xlink:title="Ordered hopping preferences (at least one default sequence required).">
<polygon fill="white" stroke="#666666" points="113.5,-455.19 12.75,-455.19 12.75,-424.69 113.5,-424.69 113.5,-455.19"/>
<text xml:space="preserve" text-anchor="start" x="20.75" y="-441.69" font-family="Helvetica,sans-Serif" font-size="10.00">aliro_uwb_preferred</text>
<text xml:space="preserve" text-anchor="middle" x="63.12" y="-430.44" font-family="Helvetica,sans-Serif" font-size="10.00">_hopping_configs</text>
</a>
</g>
</g>
<!-- Node6&#45;&gt;Node5 -->
<g id="edge5_Node000005_Node000006" class="edge">
<title>Node6&#45;&gt;Node5</title>
<g id="a_edge5_Node000005_Node000006"><a xlink:title=" ">
<path fill="none" stroke="#9a32cd" stroke-dasharray="5,2" d="M125.13,-439.94C171.59,-439.94 235.33,-439.94 282.25,-439.94"/>
<polygon fill="#9a32cd" stroke="#9a32cd" points="125.23,-436.44 115.23,-439.94 125.23,-443.44 125.23,-436.44"/>
</a>
</g>
<text xml:space="preserve" text-anchor="start" x="147.25" y="-445.94" font-family="Helvetica,sans-Serif" font-size="10.00" fill="grey">preferred_hopping_configs</text>
</g>
<!-- Node7 -->
<g id="Node000007" class="node">
<title>Node7</title>
<g id="a_Node000007"><a xlink:href="structcherry__ccc__capabilities.html" target="_top" xlink:title="Device CCC/Aliro capability set advertised to the peer.">
<polygon fill="white" stroke="#666666" points="405.12,-406.56 287.12,-406.56 287.12,-387.31 405.12,-387.31 405.12,-406.56"/>
<text xml:space="preserve" text-anchor="middle" x="346.12" y="-393.06" font-family="Helvetica,sans-Serif" font-size="10.00">cherry_ccc_capabilities</text>
</a>
</g>
</g>
<!-- Node7&#45;&gt;Node3 -->
<g id="edge6_Node000003_Node000007" class="edge">
<title>Node7&#45;&gt;Node3</title>
<g id="a_edge6_Node000003_Node000007"><a xlink:title=" ">
<path fill="none" stroke="#9a32cd" stroke-dasharray="5,2" d="M416.68,-388.48C444.13,-384.81 475.88,-380.16 504.5,-374.94 516.93,-372.67 530.35,-369.8 542.58,-367.03"/>
<polygon fill="#9a32cd" stroke="#9a32cd" points="416.56,-384.96 407.11,-389.74 417.48,-391.91 416.56,-384.96"/>
</a>
</g>
<text xml:space="preserve" text-anchor="start" x="445.25" y="-392.47" font-family="Helvetica,sans-Serif" font-size="10.00" fill="grey">ccc_caps</text>
</g>
<!-- Node8 -->
<g id="Node000008" class="node">
<title>Node8</title>
<g id="a_Node000008"><a xlink:href="structcherry__common__diag__cfg.html" target="_top" xlink:title="Per&#45;session diagnostics selection flags and CIR window parameters, passed by value.">
<polygon fill="white" stroke="#666666" points="410,-366.56 282.25,-366.56 282.25,-347.31 410,-347.31 410,-366.56"/>
<text xml:space="preserve" text-anchor="middle" x="346.12" y="-353.06" font-family="Helvetica,sans-Serif" font-size="10.00">cherry_common_diag_cfg</text>
</a>
</g>
</g>
<!-- Node8&#45;&gt;Node3 -->
<g id="edge7_Node000003_Node000008" class="edge">
<title>Node8&#45;&gt;Node3</title>
<g id="a_edge7_Node000003_Node000008"><a xlink:title=" ">
<path fill="none" stroke="#9a32cd" stroke-dasharray="5,2" d="M421.4,-356.94C459.45,-356.94 504.61,-356.94 537.71,-356.94"/>
<polygon fill="#9a32cd" stroke="#9a32cd" points="421.87,-353.44 411.87,-356.94 421.87,-360.44 421.87,-353.44"/>
</a>
</g>
<text xml:space="preserve" text-anchor="start" x="441.5" y="-362.94" font-family="Helvetica,sans-Serif" font-size="10.00" fill="grey">diag_config</text>
</g>
<!-- Node9 -->
<g id="Node000009" class="node">
<title>Node9</title>
<g id="a_Node000009"><a xlink:href="structaliro__uwb__message.html" target="_top" xlink:title="Framed Aliro BLE message with 4&#45;byte header followed by TLV payload.">
<polygon fill="white" stroke="#666666" points="636.38,-174.56 534.12,-174.56 534.12,-155.31 636.38,-155.31 636.38,-174.56"/>
<text xml:space="preserve" text-anchor="middle" x="585.25" y="-161.06" font-family="Helvetica,sans-Serif" font-size="10.00">aliro_uwb_message</text>
</a>
</g>
</g>
<!-- Node9&#45;&gt;Node2 -->
<g id="edge9_Node000002_Node000009" class="edge">
<title>Node9&#45;&gt;Node2</title>
<g id="a_edge9_Node000002_Node000009"><a xlink:title=" ">
<path fill="none" stroke="#9a32cd" stroke-dasharray="5,2" d="M648.06,-168.65C667.9,-171.22 689.67,-175.51 708.75,-182.69 729.19,-190.37 749.84,-205.25 762.25,-215.14"/>
<polygon fill="#9a32cd" stroke="#9a32cd" points="648.48,-165.18 638.15,-167.51 647.68,-172.13 648.48,-165.18"/>
</a>
</g>
<text xml:space="preserve" text-anchor="start" x="669.75" y="-188.69" font-family="Helvetica,sans-Serif" font-size="10.00" fill="grey">transmit</text>
</g>
<!-- Node10 -->
<g id="Node000010" class="node">
<title>Node10</title>
<g id="a_Node000010"><a xlink:href="structcherry__ccc__session.html" target="_top" xlink:title="CCC ranging session bound to FiRa MAC.">
<polygon fill="white" stroke="#666666" points="397.62,-70.56 294.62,-70.56 294.62,-51.31 397.62,-51.31 397.62,-70.56"/>
<text xml:space="preserve" text-anchor="middle" x="346.12" y="-57.06" font-family="Helvetica,sans-Serif" font-size="10.00">cherry_ccc_session</text>
</a>
</g>
</g>
<!-- Node10&#45;&gt;Node2 -->
<g id="edge10_Node000002_Node000010" class="edge">
<title>Node10&#45;&gt;Node2</title>
<g id="a_edge10_Node000002_Node000010"><a xlink:title=" ">
<path fill="none" stroke="#9a32cd" stroke-dasharray="5,2" d="M409.24,-52.15C499.62,-40.73 661.71,-25.79 708.75,-57.94 763.22,-95.16 772.14,-185.26 773.59,-215.13"/>
<polygon fill="#9a32cd" stroke="#9a32cd" points="409.03,-48.65 399.56,-53.4 409.92,-55.59 409.03,-48.65"/>
</a>
</g>
<text xml:space="preserve" text-anchor="start" x="557.88" y="-46.87" font-family="Helvetica,sans-Serif" font-size="10.00" fill="grey">ccc_session</text>
</g>
<!-- Node12 -->
<g id="Node000012" class="node">
<title>Node12</title>
<g id="a_Node000012"><a xlink:href="structcherry__ccc__event.html" target="_top" xlink:title="CCC notification delivered to the adapter.">
<polygon fill="white" stroke="#666666" points="631.88,-116.56 538.62,-116.56 538.62,-97.31 631.88,-97.31 631.88,-116.56"/>
<text xml:space="preserve" text-anchor="middle" x="585.25" y="-103.06" font-family="Helvetica,sans-Serif" font-size="10.00">cherry_ccc_event</text>
</a>
</g>
</g>
<!-- Node10&#45;&gt;Node12 -->
<g id="edge13_Node000012_Node000010" class="edge">
<title>Node10&#45;&gt;Node12</title>
<g id="a_edge13_Node000012_Node000010"><a xlink:title=" ">
<path fill="none" stroke="#9a32cd" stroke-dasharray="5,2" d="M409.14,-71.13C438.17,-76.09 473.17,-82.35 504.5,-88.69 516.75,-91.17 530,-94.1 542.12,-96.88"/>
<polygon fill="#9a32cd" stroke="#9a32cd" points="409.86,-67.7 399.42,-69.48 408.69,-74.6 409.86,-67.7"/>
</a>
</g>
<text xml:space="preserve" text-anchor="start" x="449.38" y="-94.69" font-family="Helvetica,sans-Serif" font-size="10.00" fill="grey">session</text>
</g>
<!-- Node11 -->
<g id="Node000011" class="node">
<title>Node11</title>
<g id="a_Node000011"><a xlink:href="structcherry__session.html" target="_top" xlink:title="Base session object; first member of cherry_ccc_session for up&#45;casting.">
<polygon fill="white" stroke="#666666" points="815.88,-33.56 733.88,-33.56 733.88,-14.31 815.88,-14.31 815.88,-33.56"/>
<text xml:space="preserve" text-anchor="middle" x="774.88" y="-20.06" font-family="Helvetica,sans-Serif" font-size="10.00">cherry_session</text>
</a>
</g>
</g>
<!-- Node11&#45;&gt;Node10 -->
<g id="edge11_Node000010_Node000011" class="edge">
<title>Node11&#45;&gt;Node10</title>
<g id="a_edge11_Node000010_Node000011"><a xlink:title=" ">
<path fill="none" stroke="#9a32cd" stroke-dasharray="5,2" d="M722.41,-14.26C699.69,-10.46 672.61,-6.56 648,-4.69 592.38,-0.46 577.8,2.57 522.5,-4.69 479.4,-10.35 469.35,-16.53 428,-29.94 408.69,-36.2 387.26,-44.48 371.31,-50.9"/>
<polygon fill="#9a32cd" stroke="#9a32cd" points="721.58,-17.67 732.03,-15.91 722.77,-10.77 721.58,-17.67"/>
</a>
</g>
<text xml:space="preserve" text-anchor="start" x="574.75" y="-10.69" font-family="Helvetica,sans-Serif" font-size="10.00" fill="grey">base</text>
</g>
<!-- Node12&#45;&gt;Node11 -->
<g id="edge12_Node000011_Node000012" class="edge">
<title>Node12&#45;&gt;Node11</title>
<g id="a_edge12_Node000011_Node000012"><a xlink:title=" ">
<path fill="none" stroke="#9a32cd" stroke-dasharray="5,2" d="M619.38,-92.28C657.27,-75.52 718.29,-48.52 751.16,-33.98"/>
<polygon fill="#9a32cd" stroke="#9a32cd" points="618,-89.07 610.27,-96.31 620.83,-95.47 618,-89.07"/>
</a>
</g>
<text xml:space="preserve" text-anchor="start" x="682.12" y="-76.41" font-family="Helvetica,sans-Serif" font-size="10.00" fill="grey">cb</text>
</g>
<!-- Node13 -->
<g id="Node000013" class="node">
<title>Node13</title>
<g id="a_Node000013"><a xlink:href="structcherry__ccc__session__event__session__status.html" target="_top" xlink:title="Payload of a SESSION_STATUS event, giving the new session state and the reason for the change.">
<polygon fill="white" stroke="#666666" points="404.38,-235.19 287.88,-235.19 287.88,-204.69 404.38,-204.69 404.38,-235.19"/>
<text xml:space="preserve" text-anchor="start" x="295.88" y="-221.69" font-family="Helvetica,sans-Serif" font-size="10.00">cherry_ccc_session</text>
<text xml:space="preserve" text-anchor="middle" x="346.12" y="-210.44" font-family="Helvetica,sans-Serif" font-size="10.00">_event_session_status</text>
</a>
</g>
</g>
<!-- Node13&#45;&gt;Node1 -->
<g id="edge18_Node000001_Node000013" class="edge">
<title>Node13&#45;&gt;Node1</title>
<g id="a_edge18_Node000001_Node000013"><a xlink:title=" ">
<path fill="none" stroke="#9a32cd" stroke-dasharray="5,2" d="M415.94,-220.23C449.48,-220.37 489.52,-220.54 522.13,-220.68"/>
<polygon fill="#9a32cd" stroke="#9a32cd" points="416.36,-216.73 406.34,-220.19 416.33,-223.73 416.36,-216.73"/>
</a>
</g>
<text xml:space="preserve" text-anchor="start" x="452.75" y="-226.59" font-family="Helvetica,sans-Serif" font-size="10.00" fill="grey">status</text>
</g>
<!-- Node13&#45;&gt;Node12 -->
<g id="edge14_Node000012_Node000013" class="edge">
<title>Node13&#45;&gt;Node12</title>
<g id="a_edge14_Node000012_Node000013"><a xlink:title=" ">
<path fill="none" stroke="#9a32cd" stroke-dasharray="5,2" d="M415.88,-201.47C456.45,-190.37 500.64,-177.85 504.5,-174.94 516.6,-165.79 511.82,-156.71 522.5,-145.94 534.38,-133.97 550.58,-123.91 563.41,-117"/>
<polygon fill="#9a32cd" stroke="#9a32cd" points="415.03,-198.07 406.3,-204.08 416.87,-204.83 415.03,-198.07"/>
</a>
</g>
<text xml:space="preserve" text-anchor="start" x="452.75" y="-202.95" font-family="Helvetica,sans-Serif" font-size="10.00" fill="grey">status</text>
</g>
<!-- Node14 -->
<g id="Node000014" class="node">
<title>Node14</title>
<g id="a_Node000014"><a xlink:href="structcherry__ccc__session__event__error.html" target="_top" xlink:title="Payload of a SESSION_ERROR event, giving the error status that triggered it.">
<polygon fill="white" stroke="#666666" points="397.62,-152.19 294.62,-152.19 294.62,-121.69 397.62,-121.69 397.62,-152.19"/>
<text xml:space="preserve" text-anchor="start" x="302.62" y="-138.69" font-family="Helvetica,sans-Serif" font-size="10.00">cherry_ccc_session</text>
<text xml:space="preserve" text-anchor="middle" x="346.12" y="-127.44" font-family="Helvetica,sans-Serif" font-size="10.00">_event_error</text>
</a>
</g>
</g>
<!-- Node14&#45;&gt;Node1 -->
<g id="edge19_Node000001_Node000014" class="edge">
<title>Node14&#45;&gt;Node1</title>
<g id="a_edge19_Node000001_Node000014"><a xlink:title=" ">
<path fill="none" stroke="#9a32cd" stroke-dasharray="5,2" d="M409.09,-139.97C446.02,-142.75 488.69,-147.99 504.5,-157.69 516.56,-165.09 512.2,-174.25 522.5,-183.94 534.33,-195.07 550.07,-204.44 562.7,-210.96"/>
<polygon fill="#9a32cd" stroke="#9a32cd" points="409.57,-136.49 399.35,-139.29 409.09,-143.48 409.57,-136.49"/>
</a>
</g>
<text xml:space="preserve" text-anchor="start" x="456.5" y="-163.69" font-family="Helvetica,sans-Serif" font-size="10.00" fill="grey">error</text>
</g>
<!-- Node14&#45;&gt;Node12 -->
<g id="edge15_Node000012_Node000014" class="edge">
<title>Node14&#45;&gt;Node12</title>
<g id="a_edge15_Node000012_Node000014"><a xlink:title=" ">
<path fill="none" stroke="#9a32cd" stroke-dasharray="5,2" d="M408.65,-121.18C415.15,-119.85 421.69,-118.65 428,-117.69 464.83,-112.08 506.99,-109.39 538.22,-108.11"/>
<polygon fill="#9a32cd" stroke="#9a32cd" points="408.3,-117.68 399.26,-123.21 409.77,-124.52 408.3,-117.68"/>
</a>
</g>
<text xml:space="preserve" text-anchor="start" x="456.5" y="-123.69" font-family="Helvetica,sans-Serif" font-size="10.00" fill="grey">error</text>
</g>
<!-- Node15 -->
<g id="Node000015" class="node">
<title>Node15</title>
<g id="a_Node000015"><a xlink:href="structcherry__ccc__aliro__session__config.html" target="_top" xlink:title="Negotiated Aliro ranging params (filled in&#45;place across M1&#45;M4).">
<polygon fill="white" stroke="#666666" points="126.25,-234.19 0,-234.19 0,-203.69 126.25,-203.69 126.25,-234.19"/>
<text xml:space="preserve" text-anchor="start" x="8" y="-220.69" font-family="Helvetica,sans-Serif" font-size="10.00">cherry_ccc_aliro_session</text>
<text xml:space="preserve" text-anchor="middle" x="63.12" y="-209.44" font-family="Helvetica,sans-Serif" font-size="10.00">_config</text>
</a>
</g>
</g>
<!-- Node15&#45;&gt;Node2 -->
<g id="edge17_Node000002_Node000015" class="edge">
<title>Node15&#45;&gt;Node2</title>
<g id="a_edge17_Node000002_Node000015"><a xlink:title=" ">
<path fill="none" stroke="#9a32cd" stroke-dasharray="5,2" d="M137.78,-229.45C179.98,-234.95 233.97,-241.12 282.25,-243.94 452.52,-253.89 495.44,-244.72 666,-244.94 685,-244.96 689.96,-247.76 708.75,-244.94 721.73,-242.99 735.7,-238.97 747.36,-235.04"/>
<polygon fill="#9a32cd" stroke="#9a32cd" points="138.36,-226 127.99,-228.16 137.45,-232.94 138.36,-226"/>
</a>
</g>
<text xml:space="preserve" text-anchor="start" x="431" y="-254.58" font-family="Helvetica,sans-Serif" font-size="10.00" fill="grey">ccc_aliro_config</text>
</g>
<!-- Node15&#45;&gt;Node10 -->
<g id="edge16_Node000010_Node000015" class="edge">
<title>Node15&#45;&gt;Node10</title>
<g id="a_edge16_Node000010_Node000015"><a xlink:title=" ">
<path fill="none" stroke="#9a32cd" stroke-dasharray="5,2" d="M101.77,-197.77C163.05,-163.32 282.05,-96.41 327.18,-71.03"/>
<polygon fill="#9a32cd" stroke="#9a32cd" points="100.42,-194.52 93.41,-202.47 103.85,-200.62 100.42,-194.52"/>
</a>
</g>
<text xml:space="preserve" text-anchor="start" x="191.12" y="-178.25" font-family="Helvetica,sans-Serif" font-size="10.00" fill="grey">config</text>
</g>
</g>
</svg>

<g id="navigator" transform="translate(0 0)" fill="#404254">
  <rect fill="#f2f5e9" fill-opacity="0.5" stroke="#606060" stroke-width=".5" x="0" y="0" width="60" height="60"/>
  <use id="zoomplus" xlink:href="#zoomPlus" x="17" y="9" onmousedown="handleZoom(evt,'in')"/>
  <use id="zoomminus" xlink:href="#zoomMin" x="42" y="9" onmousedown="handleZoom(evt,'out')"/>
  <use id="reset" xlink:href="#resetDef" x="30" y="36" onmousedown="handleReset()"/>
   <use id="arrowup" xlink:href="#arrowUp" x="0" y="0" onmousedown="handlePan(0,-1)"/>
  <use id="arrowright" xlink:href="#arrowRight" x="0" y="0" onmousedown="handlePan(1,0)"/>
  <use id="arrowdown" xlink:href="#arrowDown" x="0" y="0" onmousedown="handlePan(0,1)"/>
  <use id="arrowleft" xlink:href="#arrowLeft" x="0" y="0" onmousedown="handlePan(-1,0)"/>
</g>
<svg viewBox="0 0 15 15" width="100%" height="30px" preserveAspectRatio="xMaxYMin meet">
 <g id="arrow_out" transform="scale(0.3 0.3)">
  <a xlink:href="structaliro__uwb__session__event__coll__graph_org.svg" target="_base">
   <rect id="button" ry="5" rx="5" y="6" x="6" height="38" width="38"
        fill="#f2f5e9" fill-opacity="0.5" stroke="#606060" stroke-width="1.0"/>
   <path id="arrow"
     d="M 11.500037,31.436501 C 11.940474,20.09759 22.043105,11.32322 32.158766,21.979434 L 37.068811,17.246167 C 37.068811,17.246167 37.088388,32 37.088388,32 L 22.160133,31.978069 C 22.160133,31.978069 26.997745,27.140456 26.997745,27.140456 C 18.528582,18.264221 13.291696,25.230495 11.500037,31.436501 z"
     style="fill:#404040;"/>
  </a>
 </g>
</svg>

<style type='text/css'>
<![CDATA[
[data-mouse-over-selected='false'] { opacity: 0.7; }
[data-mouse-over-selected='true']  { opacity: 1.0; }
]]>
</style>
<script type="application/ecmascript"><![CDATA[
document.addEventListener('DOMContentLoaded', (event) => {
  highlightEdges();
  highlightAdjacentNodes();
});
]]></script>
</svg>
