<?xml version="1.0" encoding="UTF-8" standalone="no"?>
<!DOCTYPE svg PUBLIC "-//W3C//DTD SVG 1.1//EN"
 "http://www.w3.org/Graphics/SVG/1.1/DTD/svg11.dtd">
<!-- Generated by graphviz version 15.0.0 (20260523.1842)
 -->
<!-- Title: aliro_uwb_session Pages: 1 -->
<!--zoomable 368 -->

<svg id="main" version="1.1" xmlns="http://www.w3.org/2000/svg" xmlns:xlink="http://www.w3.org/1999/xlink" xml:space="preserve" onload="init(evt)">

<style type="text/css"><![CDATA[
.node, .edge {opacity: 0.7;}
.node.selected, .edge.selected {opacity: 1;}
.edge:hover path { stroke: red; }
.edge:hover polygon { stroke: red; fill: red; }
]]></style>

<defs>
  <circle id="rim" cx="0" cy="0" r="7"/>
  <circle id="rim2" cx="0" cy="0" r="3.5"/>
  <g id="zoomPlus">
    <use xlink:href="#rim" fill="#404040"><set attributeName="fill" to="#808080" begin="zoomplus.mouseover" end="zoomplus.mouseout"/></use>
    <path d="M-4,0h8M0,-4v8" fill="none" stroke="white" stroke-width="1.5" pointer-events="none"/>
  </g>
  <g id="zoomMin">
    <use xlink:href="#rim" fill="#404040"><set attributeName="fill" to="#808080" begin="zoomminus.mouseover" end="zoomminus.mouseout"/></use>
    <path d="M-4,0h8" fill="none" stroke="white" stroke-width="1.5" pointer-events="none"/>
  </g>
  <g id="arrowUp" transform="translate(30 24)">
    <use xlink:href="#rim"/>
    <path pointer-events="none" fill="none" stroke="white" stroke-width="1.5" d="M0,-3.0v7 M-2.5,-0.5L0,-3.0L2.5,-0.5"/>
  </g>
  <g id="arrowRight" transform="rotate(90) translate(36 -43)">
    <use xlink:href="#rim"/>
    <path pointer-events="none" fill="none" stroke="white" stroke-width="1.5" d="M0,-3.0v7 M-2.5,-0.5L0,-3.0L2.5,-0.5"/>
  </g>
  <g id="arrowDown" transform="rotate(180) translate(-30 -48)">
    <use xlink:href="#rim"/>
    <path pointer-events="none" fill="none" stroke="white" stroke-width="1.5" d="M0,-3.0v7 M-2.5,-0.5L0,-3.0L2.5,-0.5"/>
  </g>
  <g id="arrowLeft" transform="rotate(270) translate(-36 17)">
    <use xlink:href="#rim"/>
    <path pointer-events="none" fill="none" stroke="white" stroke-width="1.5" d="M0,-3.0v7 M-2.5,-0.5L0,-3.0L2.5,-0.5"/>
  </g>
  <g id="resetDef">
    <use xlink:href="#rim2" fill="#404040"><set attributeName="fill" to="#808080" begin="reset.mouseover" end="reset.mouseout"/></use>
  </g>
</defs>
<script type="application/ecmascript">
var viewWidth = 1169;
var viewHeight = 368;
var sectionId = 'dynsection-0';
</script>
<script type="application/ecmascript" xlink:href="svg.min.js"/>
<svg id="graph" class="graph">
<g id="viewport">
<title>aliro_uwb_session</title>
<!-- Node1 -->
<g id="Node000001" class="node">
<title>Node1</title>
<g id="a_Node000001"><a xlink:title="Per&#45;approach ranging&#45;setup session record holding the CCC state machine and derived keys for one Alir...">
<polygon fill="#999999" stroke="#666666" points="957.5,-136.62 861.25,-136.62 861.25,-117.38 957.5,-117.38 957.5,-136.62"/>
<text xml:space="preserve" text-anchor="middle" x="909.38" y="-123.12" font-family="Helvetica,sans-Serif" font-size="10.00">aliro_uwb_session</text>
</a>
</g>
</g>
<!-- Node8 -->
<g id="Node000008" class="node">
<title>Node8</title>
<g id="a_Node000008"><a xlink:href="structaliro__uwb__session__event.html" target="_top" xlink:title="Session event handed to the client, carrying status, error, or distance reports.">
<polygon fill="white" stroke="#666666" points="1161,-136.62 1035.5,-136.62 1035.5,-117.38 1161,-117.38 1161,-136.62"/>
<text xml:space="preserve" text-anchor="middle" x="1098.25" y="-123.12" font-family="Helvetica,sans-Serif" font-size="10.00">aliro_uwb_session_event</text>
</a>
</g>
</g>
<!-- Node1&#45;&gt;Node8 -->
<g id="edge8_Node000008_Node000001" class="edge">
<title>Node1&#45;&gt;Node8</title>
<g id="a_edge8_Node000008_Node000001"><a xlink:title=" ">
<path fill="none" stroke="#9a32cd" stroke-dasharray="5,2" d="M945.67,-113.25C955.21,-110.15 965.62,-107.32 975.5,-105.75 1007.92,-100.59 1045.08,-109.19 1069.73,-116.94"/>
<polygon fill="#9a32cd" stroke="#9a32cd" points="944.71,-109.88 936.4,-116.45 947,-116.49 944.71,-109.88"/>
</a>
</g>
<text xml:space="preserve" text-anchor="start" x="979.62" y="-111.75" font-family="Helvetica,sans-Serif" font-size="10.00" fill="grey">session</text>
</g>
<!-- Node2 -->
<g id="Node000002" class="node">
<title>Node2</title>
<g id="a_Node000002"><a xlink:href="structaliro__uwb__adapter.html" target="_top" xlink:title="Session&#45;independent reader state shared across all ranging sessions for an Aliro UWB adapter.">
<polygon fill="white" stroke="#666666" points="760.38,-231.62 665.62,-231.62 665.62,-212.38 760.38,-212.38 760.38,-231.62"/>
<text xml:space="preserve" text-anchor="middle" x="713" y="-218.12" font-family="Helvetica,sans-Serif" font-size="10.00">aliro_uwb_adapter</text>
</a>
</g>
</g>
<!-- Node2&#45;&gt;Node1 -->
<g id="edge1_Node000001_Node000002" class="edge">
<title>Node2&#45;&gt;Node1</title>
<g id="a_edge1_Node000001_Node000002"><a xlink:title=" ">
<path fill="none" stroke="#9a32cd" stroke-dasharray="5,2" d="M748.15,-207.27C774.4,-195.74 811.44,-179.02 843.25,-163 859.75,-154.69 878.14,-144.43 891.15,-136.99"/>
<polygon fill="#9a32cd" stroke="#9a32cd" points="746.75,-204.06 738.99,-211.27 749.56,-210.47 746.75,-204.06"/>
</a>
</g>
<text xml:space="preserve" text-anchor="start" x="794.5" y="-197.44" font-family="Helvetica,sans-Serif" font-size="10.00" fill="grey">aliro_ctx</text>
</g>
<!-- Node3 -->
<g id="Node000003" class="node">
<title>Node3</title>
<g id="a_Node000003"><a xlink:href="structcherry.html" target="_top" xlink:title="Opaque Cherry context holder.">
<polygon fill="white" stroke="#666666" points="527.62,-314.62 484.62,-314.62 484.62,-295.38 527.62,-295.38 527.62,-314.62"/>
<text xml:space="preserve" text-anchor="middle" x="506.12" y="-301.12" font-family="Helvetica,sans-Serif" font-size="10.00">cherry</text>
</a>
</g>
</g>
<!-- Node3&#45;&gt;Node2 -->
<g id="edge2_Node000002_Node000003" class="edge">
<title>Node3&#45;&gt;Node2</title>
<g id="a_edge2_Node000002_Node000003"><a xlink:title=" ">
<path fill="none" stroke="#9a32cd" stroke-dasharray="5,2" d="M539.06,-300.53C567.45,-295.75 609.58,-286.67 643.5,-271 665.8,-260.7 688.33,-242.82 701.19,-231.74"/>
<polygon fill="#9a32cd" stroke="#9a32cd" points="538.62,-297.06 529.3,-302.08 539.72,-303.97 538.62,-297.06"/>
</a>
</g>
<text xml:space="preserve" text-anchor="start" x="592.88" y="-295.89" font-family="Helvetica,sans-Serif" font-size="10.00" fill="grey">cherry_ctx</text>
</g>
<!-- Node4 -->
<g id="Node000004" class="node">
<title>Node4</title>
<g id="a_Node000004"><a xlink:href="structaliro__uwb__adapter__reader__config.html" target="_top" xlink:title="Reader&#45;side selection preferences (borrowed for the adapter&#39;s lifetime).">
<polygon fill="white" stroke="#666666" points="569.62,-277.25 442.62,-277.25 442.62,-246.75 569.62,-246.75 569.62,-277.25"/>
<text xml:space="preserve" text-anchor="start" x="450.62" y="-263.75" font-family="Helvetica,sans-Serif" font-size="10.00">aliro_uwb_adapter_reader</text>
<text xml:space="preserve" text-anchor="middle" x="506.12" y="-252.5" font-family="Helvetica,sans-Serif" font-size="10.00">_config</text>
</a>
</g>
</g>
<!-- Node4&#45;&gt;Node2 -->
<g id="edge3_Node000002_Node000004" class="edge">
<title>Node4&#45;&gt;Node2</title>
<g id="a_edge3_Node000002_Node000004"><a xlink:title=" ">
<path fill="none" stroke="#9a32cd" stroke-dasharray="5,2" d="M580.93,-251.43C601.28,-248.16 623.31,-244.27 643.5,-240 654.21,-237.74 665.75,-234.87 676.25,-232.09"/>
<polygon fill="#9a32cd" stroke="#9a32cd" points="580.65,-247.94 571.32,-252.95 581.74,-254.85 580.65,-247.94"/>
</a>
</g>
<text xml:space="preserve" text-anchor="start" x="602.62" y="-255.74" font-family="Helvetica,sans-Serif" font-size="10.00" fill="grey">config</text>
</g>
<!-- Node5 -->
<g id="Node000005" class="node">
<title>Node5</title>
<g id="a_Node000005"><a xlink:href="structaliro__uwb__preferred__hopping__configs.html" target="_top" xlink:title="Ordered hopping preferences (at least one default sequence required).">
<polygon fill="white" stroke="#666666" points="286.25,-277.25 185.5,-277.25 185.5,-246.75 286.25,-246.75 286.25,-277.25"/>
<text xml:space="preserve" text-anchor="start" x="193.5" y="-263.75" font-family="Helvetica,sans-Serif" font-size="10.00">aliro_uwb_preferred</text>
<text xml:space="preserve" text-anchor="middle" x="235.88" y="-252.5" font-family="Helvetica,sans-Serif" font-size="10.00">_hopping_configs</text>
</a>
</g>
</g>
<!-- Node5&#45;&gt;Node4 -->
<g id="edge4_Node000004_Node000005" class="edge">
<title>Node5&#45;&gt;Node4</title>
<g id="a_edge4_Node000004_Node000005"><a xlink:title=" ">
<path fill="none" stroke="#9a32cd" stroke-dasharray="5,2" d="M298.18,-262C341.31,-262 398.86,-262 442.32,-262"/>
<polygon fill="#9a32cd" stroke="#9a32cd" points="298.22,-258.5 288.22,-262 298.22,-265.5 298.22,-258.5"/>
</a>
</g>
<text xml:space="preserve" text-anchor="start" x="307.25" y="-268" font-family="Helvetica,sans-Serif" font-size="10.00" fill="grey">preferred_hopping_configs</text>
</g>
<!-- Node6 -->
<g id="Node000006" class="node">
<title>Node6</title>
<g id="a_Node000006"><a xlink:href="structcherry__ccc__capabilities.html" target="_top" xlink:title="Device CCC/Aliro capability set advertised to the peer.">
<polygon fill="white" stroke="#666666" points="565.12,-228.62 447.12,-228.62 447.12,-209.38 565.12,-209.38 565.12,-228.62"/>
<text xml:space="preserve" text-anchor="middle" x="506.12" y="-215.12" font-family="Helvetica,sans-Serif" font-size="10.00">cherry_ccc_capabilities</text>
</a>
</g>
</g>
<!-- Node6&#45;&gt;Node2 -->
<g id="edge5_Node000002_Node000006" class="edge">
<title>Node6&#45;&gt;Node2</title>
<g id="a_edge5_Node000002_Node000006"><a xlink:title=" ">
<path fill="none" stroke="#9a32cd" stroke-dasharray="5,2" d="M576.92,-220.02C606.03,-220.45 639.07,-220.93 665.19,-221.31"/>
<polygon fill="#9a32cd" stroke="#9a32cd" points="577.12,-216.52 567.07,-219.88 577.02,-223.52 577.12,-216.52"/>
</a>
</g>
<text xml:space="preserve" text-anchor="start" x="594.75" y="-226.94" font-family="Helvetica,sans-Serif" font-size="10.00" fill="grey">ccc_caps</text>
</g>
<!-- Node7 -->
<g id="Node000007" class="node">
<title>Node7</title>
<g id="a_Node000007"><a xlink:href="structcherry__common__diag__cfg.html" target="_top" xlink:title="Per&#45;session diagnostics selection flags and CIR window parameters, passed by value.">
<polygon fill="white" stroke="#666666" points="570,-191.62 442.25,-191.62 442.25,-172.38 570,-172.38 570,-191.62"/>
<text xml:space="preserve" text-anchor="middle" x="506.12" y="-178.12" font-family="Helvetica,sans-Serif" font-size="10.00">cherry_common_diag_cfg</text>
</a>
</g>
</g>
<!-- Node7&#45;&gt;Node2 -->
<g id="edge6_Node000002_Node000007" class="edge">
<title>Node7&#45;&gt;Node2</title>
<g id="a_edge6_Node000002_Node000007"><a xlink:title=" ">
<path fill="none" stroke="#9a32cd" stroke-dasharray="5,2" d="M581.75,-188.37C601.93,-190.85 623.68,-194.22 643.5,-198.75 657.95,-202.05 673.63,-207.25 686.34,-211.89"/>
<polygon fill="#9a32cd" stroke="#9a32cd" points="582.24,-184.9 571.9,-187.22 581.42,-191.85 582.24,-184.9"/>
</a>
</g>
<text xml:space="preserve" text-anchor="start" x="591" y="-204.75" font-family="Helvetica,sans-Serif" font-size="10.00" fill="grey">diag_config</text>
</g>
<!-- Node8&#45;&gt;Node1 -->
<g id="edge7_Node000001_Node000008" class="edge">
<title>Node8&#45;&gt;Node1</title>
<g id="a_edge7_Node000001_Node000008"><a xlink:title=" ">
<path fill="none" stroke="#9a32cd" stroke-dasharray="5,2" d="M1023.78,-127C1001.49,-127 977.6,-127 957.53,-127"/>
<polygon fill="#9a32cd" stroke="#9a32cd" points="1023.75,-130.5 1033.75,-127 1023.75,-123.5 1023.75,-130.5"/>
</a>
</g>
<text xml:space="preserve" text-anchor="start" x="978.5" y="-133" font-family="Helvetica,sans-Serif" font-size="10.00" fill="grey">callback</text>
</g>
<!-- Node9 -->
<g id="Node000009" class="node">
<title>Node9</title>
<g id="a_Node000009"><a xlink:href="structcherry__ccc__session__event__session__status.html" target="_top" xlink:title="Payload of a SESSION_STATUS event, giving the new session state and the reason for the change.">
<polygon fill="white" stroke="#666666" points="116.5,-105.25 0,-105.25 0,-74.75 116.5,-74.75 116.5,-105.25"/>
<text xml:space="preserve" text-anchor="start" x="8" y="-91.75" font-family="Helvetica,sans-Serif" font-size="10.00">cherry_ccc_session</text>
<text xml:space="preserve" text-anchor="middle" x="58.25" y="-80.5" font-family="Helvetica,sans-Serif" font-size="10.00">_event_session_status</text>
</a>
</g>
</g>
<!-- Node9&#45;&gt;Node8 -->
<g id="edge9_Node000008_Node000009" class="edge">
<title>Node9&#45;&gt;Node8</title>
<g id="a_edge9_Node000008_Node000009"><a xlink:title=" ">
<path fill="none" stroke="#9a32cd" stroke-dasharray="5,2" d="M64.38,-116.35C78.69,-181.15 125.39,-343 234.88,-343 234.88,-343 234.88,-343 910.38,-343 1020.95,-343 1080.69,-179.1 1094.25,-136.84"/>
<polygon fill="#9a32cd" stroke="#9a32cd" points="67.88,-115.99 62.39,-106.93 61.03,-117.43 67.88,-115.99"/>
</a>
</g>
<text xml:space="preserve" text-anchor="start" x="602.25" y="-349" font-family="Helvetica,sans-Serif" font-size="10.00" fill="grey">status</text>
</g>
<!-- Node14 -->
<g id="Node000014" class="node">
<title>Node14</title>
<g id="a_Node000014"><a xlink:href="structcherry__ccc__event.html" target="_top" xlink:title="CCC notification delivered to the adapter.">
<polygon fill="white" stroke="#666666" points="282.5,-76.62 189.25,-76.62 189.25,-57.38 282.5,-57.38 282.5,-76.62"/>
<text xml:space="preserve" text-anchor="middle" x="235.88" y="-63.12" font-family="Helvetica,sans-Serif" font-size="10.00">cherry_ccc_event</text>
</a>
</g>
</g>
<!-- Node9&#45;&gt;Node14 -->
<g id="edge16_Node000014_Node000009" class="edge">
<title>Node9&#45;&gt;Node14</title>
<g id="a_edge16_Node000014_Node000009"><a xlink:title=" ">
<path fill="none" stroke="#9a32cd" stroke-dasharray="5,2" d="M127.94,-81C148.39,-78.33 170.3,-75.46 188.93,-73.02"/>
<polygon fill="#9a32cd" stroke="#9a32cd" points="127.72,-77.5 118.26,-82.27 128.63,-84.44 127.72,-77.5"/>
</a>
</g>
<text xml:space="preserve" text-anchor="start" x="137.5" y="-85.88" font-family="Helvetica,sans-Serif" font-size="10.00" fill="grey">status</text>
</g>
<!-- Node10 -->
<g id="Node000010" class="node">
<title>Node10</title>
<g id="a_Node000010"><a xlink:href="structcherry__ccc__session__event__error.html" target="_top" xlink:title="Payload of a SESSION_ERROR event, giving the error status that triggered it.">
<polygon fill="white" stroke="#666666" points="109.75,-44.25 6.75,-44.25 6.75,-13.75 109.75,-13.75 109.75,-44.25"/>
<text xml:space="preserve" text-anchor="start" x="14.75" y="-30.75" font-family="Helvetica,sans-Serif" font-size="10.00">cherry_ccc_session</text>
<text xml:space="preserve" text-anchor="middle" x="58.25" y="-19.5" font-family="Helvetica,sans-Serif" font-size="10.00">_event_error</text>
</a>
</g>
</g>
<!-- Node10&#45;&gt;Node8 -->
<g id="edge10_Node000008_Node000010" class="edge">
<title>Node10&#45;&gt;Node8</title>
<g id="a_edge10_Node000008_Node000010"><a xlink:title=" ">
<path fill="none" stroke="#9a32cd" stroke-dasharray="5,2" d="M120.99,-13.74C154.47,-6.75 196.7,0 234.88,0 234.88,0 234.88,0 910.38,0 993.54,0 1067.12,-87.1 1089.96,-117.03"/>
<polygon fill="#9a32cd" stroke="#9a32cd" points="120.51,-10.27 111.47,-15.79 121.98,-17.11 120.51,-10.27"/>
</a>
</g>
<text xml:space="preserve" text-anchor="start" x="606" y="-6" font-family="Helvetica,sans-Serif" font-size="10.00" fill="grey">error</text>
</g>
<!-- Node10&#45;&gt;Node14 -->
<g id="edge17_Node000014_Node000010" class="edge">
<title>Node10&#45;&gt;Node14</title>
<g id="a_edge17_Node000014_Node000010"><a xlink:title=" ">
<path fill="none" stroke="#9a32cd" stroke-dasharray="5,2" d="M121.13,-42.39C143.46,-47.22 168.26,-52.59 188.99,-57.07"/>
<polygon fill="#9a32cd" stroke="#9a32cd" points="122.04,-39.01 111.53,-40.31 120.56,-45.85 122.04,-39.01"/>
</a>
</g>
<text xml:space="preserve" text-anchor="start" x="141.25" y="-57.4" font-family="Helvetica,sans-Serif" font-size="10.00" fill="grey">error</text>
</g>
<!-- Node11 -->
<g id="Node000011" class="node">
<title>Node11</title>
<g id="a_Node000011"><a xlink:href="structaliro__uwb__message.html" target="_top" xlink:title="Framed Aliro BLE message with 4&#45;byte header followed by TLV payload.">
<polygon fill="white" stroke="#666666" points="764.12,-112.62 661.88,-112.62 661.88,-93.38 764.12,-93.38 764.12,-112.62"/>
<text xml:space="preserve" text-anchor="middle" x="713" y="-99.12" font-family="Helvetica,sans-Serif" font-size="10.00">aliro_uwb_message</text>
</a>
</g>
</g>
<!-- Node11&#45;&gt;Node1 -->
<g id="edge11_Node000001_Node000011" class="edge">
<title>Node11&#45;&gt;Node1</title>
<g id="a_edge11_Node000001_Node000011"><a xlink:title=" ">
<path fill="none" stroke="#9a32cd" stroke-dasharray="5,2" d="M775.63,-109.68C797.05,-112.1 821.22,-114.93 843.25,-117.75 849.03,-118.49 855.09,-119.3 861.09,-120.13"/>
<polygon fill="#9a32cd" stroke="#9a32cd" points="776.2,-106.23 765.88,-108.59 775.42,-113.18 776.2,-106.23"/>
</a>
</g>
<text xml:space="preserve" text-anchor="start" x="795.25" y="-123.75" font-family="Helvetica,sans-Serif" font-size="10.00" fill="grey">transmit</text>
</g>
<!-- Node12 -->
<g id="Node000012" class="node">
<title>Node12</title>
<g id="a_Node000012"><a xlink:href="structcherry__ccc__session.html" target="_top" xlink:title="CCC ranging session bound to FiRa MAC.">
<polygon fill="white" stroke="#666666" points="764.5,-75.62 661.5,-75.62 661.5,-56.38 764.5,-56.38 764.5,-75.62"/>
<text xml:space="preserve" text-anchor="middle" x="713" y="-62.12" font-family="Helvetica,sans-Serif" font-size="10.00">cherry_ccc_session</text>
</a>
</g>
</g>
<!-- Node12&#45;&gt;Node1 -->
<g id="edge12_Node000001_Node000012" class="edge">
<title>Node12&#45;&gt;Node1</title>
<g id="a_edge12_Node000001_Node000012"><a xlink:title=" ">
<path fill="none" stroke="#9a32cd" stroke-dasharray="5,2" d="M775.86,-73.02C797.59,-76.61 821.9,-81.94 843.25,-89.75 861.84,-96.55 881.32,-108.41 894.07,-116.92"/>
<polygon fill="#9a32cd" stroke="#9a32cd" points="776.68,-69.6 766.26,-71.52 775.6,-76.52 776.68,-69.6"/>
</a>
</g>
<text xml:space="preserve" text-anchor="start" x="785.5" y="-95.75" font-family="Helvetica,sans-Serif" font-size="10.00" fill="grey">ccc_session</text>
</g>
<!-- Node12&#45;&gt;Node14 -->
<g id="edge15_Node000014_Node000012" class="edge">
<title>Node12&#45;&gt;Node14</title>
<g id="a_edge15_Node000014_Node000012"><a xlink:title=" ">
<path fill="none" stroke="#9a32cd" stroke-dasharray="5,2" d="M649.75,-69.79C647.64,-69.87 645.55,-69.94 643.5,-70 492.79,-74.4 454.99,-73.35 304.25,-70 297.34,-69.85 290.04,-69.6 282.89,-69.32"/>
<polygon fill="#9a32cd" stroke="#9a32cd" points="649.79,-73.29 659.63,-69.37 649.49,-66.3 649.79,-73.29"/>
</a>
</g>
<text xml:space="preserve" text-anchor="start" x="489.25" y="-78.92" font-family="Helvetica,sans-Serif" font-size="10.00" fill="grey">session</text>
</g>
<!-- Node13 -->
<g id="Node000013" class="node">
<title>Node13</title>
<g id="a_Node000013"><a xlink:href="structcherry__session.html" target="_top" xlink:title="Base session object; first member of cherry_ccc_session for up&#45;casting.">
<polygon fill="white" stroke="#666666" points="547.12,-47.62 465.12,-47.62 465.12,-28.38 547.12,-28.38 547.12,-47.62"/>
<text xml:space="preserve" text-anchor="middle" x="506.12" y="-34.12" font-family="Helvetica,sans-Serif" font-size="10.00">cherry_session</text>
</a>
</g>
</g>
<!-- Node13&#45;&gt;Node12 -->
<g id="edge13_Node000012_Node000013" class="edge">
<title>Node13&#45;&gt;Node12</title>
<g id="a_edge13_Node000012_Node000013"><a xlink:title=" ">
<path fill="none" stroke="#9a32cd" stroke-dasharray="5,2" d="M558.82,-42.57C584.37,-45.08 615.62,-48.55 643.5,-52.75 649.61,-53.67 656,-54.75 662.32,-55.89"/>
<polygon fill="#9a32cd" stroke="#9a32cd" points="559.31,-39.1 549.02,-41.62 558.64,-46.07 559.31,-39.1"/>
</a>
</g>
<text xml:space="preserve" text-anchor="start" x="605.25" y="-58.75" font-family="Helvetica,sans-Serif" font-size="10.00" fill="grey">base</text>
</g>
<!-- Node14&#45;&gt;Node13 -->
<g id="edge14_Node000013_Node000014" class="edge">
<title>Node14&#45;&gt;Node13</title>
<g id="a_edge14_Node000013_Node000014"><a xlink:title=" ">
<path fill="none" stroke="#9a32cd" stroke-dasharray="5,2" d="M291.15,-54.86C295.57,-54.07 299.98,-53.36 304.25,-52.75 359.64,-44.89 424.26,-41.1 464.94,-39.35"/>
<polygon fill="#9a32cd" stroke="#9a32cd" points="290.87,-51.35 281.7,-56.65 292.18,-58.23 290.87,-51.35"/>
</a>
</g>
<text xml:space="preserve" text-anchor="start" x="359" y="-58.75" font-family="Helvetica,sans-Serif" font-size="10.00" fill="grey">cb</text>
</g>
<!-- Node15 -->
<g id="Node000015" class="node">
<title>Node15</title>
<g id="a_Node000015"><a xlink:href="structcherry__ccc__aliro__session__config.html" target="_top" xlink:title="Negotiated Aliro ranging params (filled in&#45;place across M1&#45;M4).">
<polygon fill="white" stroke="#666666" points="569.25,-152.25 443,-152.25 443,-121.75 569.25,-121.75 569.25,-152.25"/>
<text xml:space="preserve" text-anchor="start" x="451" y="-138.75" font-family="Helvetica,sans-Serif" font-size="10.00">cherry_ccc_aliro_session</text>
<text xml:space="preserve" text-anchor="middle" x="506.12" y="-127.5" font-family="Helvetica,sans-Serif" font-size="10.00">_config</text>
</a>
</g>
</g>
<!-- Node15&#45;&gt;Node1 -->
<g id="edge19_Node000001_Node000015" class="edge">
<title>Node15&#45;&gt;Node1</title>
<g id="a_edge19_Node000001_Node000015"><a xlink:title=" ">
<path fill="none" stroke="#9a32cd" stroke-dasharray="5,2" d="M580.92,-139.02C649.08,-140.31 753.1,-140.79 843.25,-135 848.93,-134.64 854.88,-134.11 860.77,-133.5"/>
<polygon fill="#9a32cd" stroke="#9a32cd" points="581.04,-135.52 570.97,-138.82 580.9,-142.52 581.04,-135.52"/>
</a>
</g>
<text xml:space="preserve" text-anchor="start" x="677.75" y="-145.84" font-family="Helvetica,sans-Serif" font-size="10.00" fill="grey">ccc_aliro_config</text>
</g>
<!-- Node15&#45;&gt;Node12 -->
<g id="edge18_Node000012_Node000015" class="edge">
<title>Node15&#45;&gt;Node12</title>
<g id="a_edge18_Node000012_Node000015"><a xlink:title=" ">
<path fill="none" stroke="#9a32cd" stroke-dasharray="5,2" d="M580.45,-118.09C601.22,-111.75 623.59,-103.98 643.5,-95 652.05,-91.15 653.04,-88.04 661.5,-84 667.55,-81.11 674.19,-78.43 680.61,-76.05"/>
<polygon fill="#9a32cd" stroke="#9a32cd" points="579.47,-114.73 570.88,-120.93 581.46,-121.44 579.47,-114.73"/>
</a>
</g>
<text xml:space="preserve" text-anchor="start" x="602.62" y="-121.57" font-family="Helvetica,sans-Serif" font-size="10.00" fill="grey">config</text>
</g>
</g>
</svg>

<g id="navigator" transform="translate(0 0)" fill="#404254">
  <rect fill="#f2f5e9" fill-opacity="0.5" stroke="#606060" stroke-width=".5" x="0" y="0" width="60" height="60"/>
  <use id="zoomplus" xlink:href="#zoomPlus" x="17" y="9" onmousedown="handleZoom(evt,'in')"/>
  <use id="zoomminus" xlink:href="#zoomMin" x="42" y="9" onmousedown="handleZoom(evt,'out')"/>
  <use id="reset" xlink:href="#resetDef" x="30" y="36" onmousedown="handleReset()"/>
   <use id="arrowup" xlink:href="#arrowUp" x="0" y="0" onmousedown="handlePan(0,-1)"/>
  <use id="arrowright" xlink:href="#arrowRight" x="0" y="0" onmousedown="handlePan(1,0)"/>
  <use id="arrowdown" xlink:href="#arrowDown" x="0" y="0" onmousedown="handlePan(0,1)"/>
  <use id="arrowleft" xlink:href="#arrowLeft" x="0" y="0" onmousedown="handlePan(-1,0)"/>
</g>
<svg viewBox="0 0 15 15" width="100%" height="30px" preserveAspectRatio="xMaxYMin meet">
 <g id="arrow_out" transform="scale(0.3 0.3)">
  <a xlink:href="structaliro__uwb__session__coll__graph_org.svg" target="_base">
   <rect id="button" ry="5" rx="5" y="6" x="6" height="38" width="38"
        fill="#f2f5e9" fill-opacity="0.5" stroke="#606060" stroke-width="1.0"/>
   <path id="arrow"
     d="M 11.500037,31.436501 C 11.940474,20.09759 22.043105,11.32322 32.158766,21.979434 L 37.068811,17.246167 C 37.068811,17.246167 37.088388,32 37.088388,32 L 22.160133,31.978069 C 22.160133,31.978069 26.997745,27.140456 26.997745,27.140456 C 18.528582,18.264221 13.291696,25.230495 11.500037,31.436501 z"
     style="fill:#404040;"/>
  </a>
 </g>
</svg>

<style type='text/css'>
<![CDATA[
[data-mouse-over-selected='false'] { opacity: 0.7; }
[data-mouse-over-selected='true']  { opacity: 1.0; }
]]>
</style>
<script type="application/ecmascript"><![CDATA[
document.addEventListener('DOMContentLoaded', (event) => {
  highlightEdges();
  highlightAdjacentNodes();
});
]]></script>
</svg>
