<?xml version="1.0" encoding="UTF-8" standalone="no"?>
<!DOCTYPE svg PUBLIC "-//W3C//DTD SVG 1.1//EN"
 "http://www.w3.org/Graphics/SVG/1.1/DTD/svg11.dtd">
<!-- Generated by graphviz version 15.0.0 (20260523.1842)
 -->
<!-- Title: cherry_session Pages: 1 -->
<svg width="488pt" height="169pt"
 viewBox="0.00 0.00 488.00 169.00" xmlns="http://www.w3.org/2000/svg" xmlns:xlink="http://www.w3.org/1999/xlink">
<g id="graph0" class="graph" transform="scale(1 1) rotate(0) translate(4 165.06)">
<title>cherry_session</title>
<!-- Node1 -->
<g id="Node000001" class="node">
<title>Node1</title>
<g id="a_Node000001"><a xlink:title="Base session object; first member of cherry_ccc_session for up&#45;casting.">
<polygon fill="#999999" stroke="#666666" points="104.12,-147.88 22.12,-147.88 22.12,-128.62 104.12,-128.62 104.12,-147.88"/>
<text xml:space="preserve" text-anchor="middle" x="63.12" y="-134.38" font-family="Helvetica,sans-Serif" font-size="10.00">cherry_session</text>
</a>
</g>
</g>
<!-- Node3 -->
<g id="Node000003" class="node">
<title>Node3</title>
<g id="a_Node000003"><a xlink:href="structcherry__ccc__session.html" target="_top" xlink:title="CCC ranging session bound to FiRa MAC.">
<polygon fill="white" stroke="#666666" points="304.25,-116.88 201.25,-116.88 201.25,-97.62 304.25,-97.62 304.25,-116.88"/>
<text xml:space="preserve" text-anchor="middle" x="252.75" y="-103.38" font-family="Helvetica,sans-Serif" font-size="10.00">cherry_ccc_session</text>
</a>
</g>
</g>
<!-- Node1&#45;&gt;Node3 -->
<g id="edge3_Node000003_Node000001" class="edge">
<title>Node1&#45;&gt;Node3</title>
<g id="a_edge3_Node000003_Node000001"><a xlink:title=" ">
<path fill="none" stroke="#9a32cd" stroke-dasharray="5,2" d="M115.39,-127.35C124.96,-125.46 134.9,-123.59 144.25,-122 162.64,-118.88 182.88,-115.96 200.79,-113.57"/>
<polygon fill="#9a32cd" stroke="#9a32cd" points="114.98,-123.86 105.87,-129.26 116.36,-130.72 114.98,-123.86"/>
</a>
</g>
<text xml:space="preserve" text-anchor="start" x="149.88" y="-128" font-family="Helvetica,sans-Serif" font-size="10.00" fill="grey">base</text>
</g>
<!-- Node2 -->
<g id="Node000002" class="node">
<title>Node2</title>
<g id="a_Node000002"><a xlink:href="structcherry__ccc__event.html" target="_top" xlink:title="CCC notification delivered to the adapter.">
<polygon fill="white" stroke="#666666" points="480,-94.88 386.75,-94.88 386.75,-75.62 480,-75.62 480,-94.88"/>
<text xml:space="preserve" text-anchor="middle" x="433.38" y="-81.38" font-family="Helvetica,sans-Serif" font-size="10.00">cherry_ccc_event</text>
</a>
</g>
</g>
<!-- Node2&#45;&gt;Node1 -->
<g id="edge1_Node000001_Node000002" class="edge">
<title>Node2&#45;&gt;Node1</title>
<g id="a_edge1_Node000001_Node000002"><a xlink:title=" ">
<path fill="none" stroke="#9a32cd" stroke-dasharray="5,2" d="M407.72,-101.18C396.3,-107.83 382.28,-114.98 368.75,-119.25 277.54,-148.04 163.51,-145.67 104.18,-141.78"/>
<polygon fill="#9a32cd" stroke="#9a32cd" points="409.36,-104.28 416.1,-96.1 405.74,-98.3 409.36,-104.28"/>
</a>
</g>
<text xml:space="preserve" text-anchor="start" x="247.5" y="-149.81" font-family="Helvetica,sans-Serif" font-size="10.00" fill="grey">cb</text>
</g>
<!-- Node3&#45;&gt;Node2 -->
<g id="edge2_Node000002_Node000003" class="edge">
<title>Node3&#45;&gt;Node2</title>
<g id="a_edge2_Node000002_Node000003"><a xlink:title=" ">
<path fill="none" stroke="#9a32cd" stroke-dasharray="5,2" d="M315.62,-99.63C338.87,-96.77 364.87,-93.56 386.43,-90.91"/>
<polygon fill="#9a32cd" stroke="#9a32cd" points="315.46,-96.12 305.96,-100.82 316.31,-103.07 315.46,-96.12"/>
</a>
</g>
<text xml:space="preserve" text-anchor="start" x="332" y="-103.57" font-family="Helvetica,sans-Serif" font-size="10.00" fill="grey">session</text>
</g>
<!-- Node4 -->
<g id="Node000004" class="node">
<title>Node4</title>
<g id="a_Node000004"><a xlink:href="structcherry__ccc__aliro__session__config.html" target="_top" xlink:title="Negotiated Aliro ranging params (filled in&#45;place across M1&#45;M4).">
<polygon fill="white" stroke="#666666" points="126.25,-96.5 0,-96.5 0,-66 126.25,-66 126.25,-96.5"/>
<text xml:space="preserve" text-anchor="start" x="8" y="-83" font-family="Helvetica,sans-Serif" font-size="10.00">cherry_ccc_aliro_session</text>
<text xml:space="preserve" text-anchor="middle" x="63.12" y="-71.75" font-family="Helvetica,sans-Serif" font-size="10.00">_config</text>
</a>
</g>
</g>
<!-- Node4&#45;&gt;Node3 -->
<g id="edge4_Node000003_Node000004" class="edge">
<title>Node4&#45;&gt;Node3</title>
<g id="a_edge4_Node000003_Node000004"><a xlink:title=" ">
<path fill="none" stroke="#9a32cd" stroke-dasharray="5,2" d="M137.83,-78.3C150.78,-78.76 164.08,-79.86 176.5,-82 184.85,-83.44 186.48,-85.53 194.5,-88.25 203.13,-91.18 212.5,-94.31 221.12,-97.17"/>
<polygon fill="#9a32cd" stroke="#9a32cd" points="138.15,-74.8 128.08,-78.08 138,-81.8 138.15,-74.8"/>
</a>
</g>
<text xml:space="preserve" text-anchor="start" x="147.25" y="-88" font-family="Helvetica,sans-Serif" font-size="10.00" fill="grey">config</text>
</g>
<!-- Node5 -->
<g id="Node000005" class="node">
<title>Node5</title>
<g id="a_Node000005"><a xlink:href="structcherry__ccc__session__event__session__status.html" target="_top" xlink:title="Payload of a SESSION_STATUS event, giving the new session state and the reason for the change.">
<polygon fill="white" stroke="#666666" points="311,-79.5 194.5,-79.5 194.5,-49 311,-49 311,-79.5"/>
<text xml:space="preserve" text-anchor="start" x="202.5" y="-66" font-family="Helvetica,sans-Serif" font-size="10.00">cherry_ccc_session</text>
<text xml:space="preserve" text-anchor="middle" x="252.75" y="-54.75" font-family="Helvetica,sans-Serif" font-size="10.00">_event_session_status</text>
</a>
</g>
</g>
<!-- Node5&#45;&gt;Node2 -->
<g id="edge5_Node000002_Node000005" class="edge">
<title>Node5&#45;&gt;Node2</title>
<g id="a_edge5_Node000002_Node000005"><a xlink:title=" ">
<path fill="none" stroke="#9a32cd" stroke-dasharray="5,2" d="M322.77,-63.04C337.98,-63.57 353.96,-64.74 368.75,-67 380.22,-68.75 392.55,-71.96 403.26,-75.21"/>
<polygon fill="#9a32cd" stroke="#9a32cd" points="322.92,-59.54 312.84,-62.79 322.75,-66.54 322.92,-59.54"/>
</a>
</g>
<text xml:space="preserve" text-anchor="start" x="335.38" y="-73" font-family="Helvetica,sans-Serif" font-size="10.00" fill="grey">status</text>
</g>
<!-- Node6 -->
<g id="Node000006" class="node">
<title>Node6</title>
<g id="a_Node000006"><a xlink:href="structcherry__ccc__session__event__error.html" target="_top" xlink:title="Payload of a SESSION_ERROR event, giving the error status that triggered it.">
<polygon fill="white" stroke="#666666" points="304.25,-30.5 201.25,-30.5 201.25,0 304.25,0 304.25,-30.5"/>
<text xml:space="preserve" text-anchor="start" x="209.25" y="-17" font-family="Helvetica,sans-Serif" font-size="10.00">cherry_ccc_session</text>
<text xml:space="preserve" text-anchor="middle" x="252.75" y="-5.75" font-family="Helvetica,sans-Serif" font-size="10.00">_event_error</text>
</a>
</g>
</g>
<!-- Node6&#45;&gt;Node2 -->
<g id="edge6_Node000002_Node000006" class="edge">
<title>Node6&#45;&gt;Node2</title>
<g id="a_edge6_Node000002_Node000006"><a xlink:title=" ">
<path fill="none" stroke="#9a32cd" stroke-dasharray="5,2" d="M315.62,-25.26C333.22,-29.27 352.11,-34.71 368.75,-42 388.33,-50.57 408.29,-65.32 420.5,-75.18"/>
<polygon fill="#9a32cd" stroke="#9a32cd" points="316.56,-21.88 306.05,-23.2 315.09,-28.73 316.56,-21.88"/>
</a>
</g>
<text xml:space="preserve" text-anchor="start" x="339.12" y="-48" font-family="Helvetica,sans-Serif" font-size="10.00" fill="grey">error</text>
</g>
</g>
</svg>
