<?xml version="1.0" encoding="UTF-8" standalone="no"?>
<!DOCTYPE svg PUBLIC "-//W3C//DTD SVG 1.1//EN"
 "http://www.w3.org/Graphics/SVG/1.1/DTD/svg11.dtd">
<!-- Generated by graphviz version 15.0.0 (20260523.1842)
 -->
<!-- Title: aliro_uwb_adapter Pages: 1 -->
<!--zoomable 152 -->

<svg id="main" version="1.1" xmlns="http://www.w3.org/2000/svg" xmlns:xlink="http://www.w3.org/1999/xlink" xml:space="preserve" onload="init(evt)">

<style type="text/css"><![CDATA[
.node, .edge {opacity: 0.7;}
.node.selected, .edge.selected {opacity: 1;}
.edge:hover path { stroke: red; }
.edge:hover polygon { stroke: red; fill: red; }
]]></style>

<defs>
  <circle id="rim" cx="0" cy="0" r="7"/>
  <circle id="rim2" cx="0" cy="0" r="3.5"/>
  <g id="zoomPlus">
    <use xlink:href="#rim" fill="#404040"><set attributeName="fill" to="#808080" begin="zoomplus.mouseover" end="zoomplus.mouseout"/></use>
    <path d="M-4,0h8M0,-4v8" fill="none" stroke="white" stroke-width="1.5" pointer-events="none"/>
  </g>
  <g id="zoomMin">
    <use xlink:href="#rim" fill="#404040"><set attributeName="fill" to="#808080" begin="zoomminus.mouseover" end="zoomminus.mouseout"/></use>
    <path d="M-4,0h8" fill="none" stroke="white" stroke-width="1.5" pointer-events="none"/>
  </g>
  <g id="arrowUp" transform="translate(30 24)">
    <use xlink:href="#rim"/>
    <path pointer-events="none" fill="none" stroke="white" stroke-width="1.5" d="M0,-3.0v7 M-2.5,-0.5L0,-3.0L2.5,-0.5"/>
  </g>
  <g id="arrowRight" transform="rotate(90) translate(36 -43)">
    <use xlink:href="#rim"/>
    <path pointer-events="none" fill="none" stroke="white" stroke-width="1.5" d="M0,-3.0v7 M-2.5,-0.5L0,-3.0L2.5,-0.5"/>
  </g>
  <g id="arrowDown" transform="rotate(180) translate(-30 -48)">
    <use xlink:href="#rim"/>
    <path pointer-events="none" fill="none" stroke="white" stroke-width="1.5" d="M0,-3.0v7 M-2.5,-0.5L0,-3.0L2.5,-0.5"/>
  </g>
  <g id="arrowLeft" transform="rotate(270) translate(-36 17)">
    <use xlink:href="#rim"/>
    <path pointer-events="none" fill="none" stroke="white" stroke-width="1.5" d="M0,-3.0v7 M-2.5,-0.5L0,-3.0L2.5,-0.5"/>
  </g>
  <g id="resetDef">
    <use xlink:href="#rim2" fill="#404040"><set attributeName="fill" to="#808080" begin="reset.mouseover" end="reset.mouseout"/></use>
  </g>
</defs>
<script type="application/ecmascript">
var viewWidth = 579;
var viewHeight = 152;
var sectionId = 'dynsection-0';
</script>
<script type="application/ecmascript" xlink:href="svg.min.js"/>
<svg id="graph" class="graph">
<g id="viewport">
<title>aliro_uwb_adapter</title>
<!-- Node1 -->
<g id="Node000001" class="node">
<title>Node1</title>
<g id="a_Node000001"><a xlink:title="Session&#45;independent reader state shared across all ranging sessions for an Aliro UWB adapter.">
<polygon fill="#999999" stroke="#666666" points="570.75,-79.25 476,-79.25 476,-60 570.75,-60 570.75,-79.25"/>
<text xml:space="preserve" text-anchor="middle" x="523.38" y="-65.75" font-family="Helvetica,sans-Serif" font-size="10.00">aliro_uwb_adapter</text>
</a>
</g>
</g>
<!-- Node2 -->
<g id="Node000002" class="node">
<title>Node2</title>
<g id="a_Node000002"><a xlink:href="structcherry.html" target="_top" xlink:title="Opaque Cherry context holder.">
<polygon fill="white" stroke="#666666" points="342.12,-144.25 299.12,-144.25 299.12,-125 342.12,-125 342.12,-144.25"/>
<text xml:space="preserve" text-anchor="middle" x="320.62" y="-130.75" font-family="Helvetica,sans-Serif" font-size="10.00">cherry</text>
</a>
</g>
</g>
<!-- Node2&#45;&gt;Node1 -->
<g id="edge1_Node000001_Node000002" class="edge">
<title>Node2&#45;&gt;Node1</title>
<g id="a_edge1_Node000001_Node000002"><a xlink:title=" ">
<path fill="none" stroke="#9a32cd" stroke-dasharray="5,2" d="M353.59,-129.8C381.67,-125 423.33,-116.46 458,-103.62 475.19,-97.26 493.56,-87.2 506.26,-79.67"/>
<polygon fill="#9a32cd" stroke="#9a32cd" points="353.24,-126.31 343.94,-131.39 354.37,-133.22 353.24,-126.31"/>
</a>
</g>
<text xml:space="preserve" text-anchor="start" x="407.38" y="-125.84" font-family="Helvetica,sans-Serif" font-size="10.00" fill="grey">cherry_ctx</text>
</g>
<!-- Node3 -->
<g id="Node000003" class="node">
<title>Node3</title>
<g id="a_Node000003"><a xlink:href="structaliro__uwb__adapter__reader__config.html" target="_top" xlink:title="Reader&#45;side selection preferences (borrowed for the adapter&#39;s lifetime).">
<polygon fill="white" stroke="#666666" points="384.12,-106.88 257.12,-106.88 257.12,-76.38 384.12,-76.38 384.12,-106.88"/>
<text xml:space="preserve" text-anchor="start" x="265.12" y="-93.38" font-family="Helvetica,sans-Serif" font-size="10.00">aliro_uwb_adapter_reader</text>
<text xml:space="preserve" text-anchor="middle" x="320.62" y="-82.12" font-family="Helvetica,sans-Serif" font-size="10.00">_config</text>
</a>
</g>
</g>
<!-- Node3&#45;&gt;Node1 -->
<g id="edge2_Node000001_Node000003" class="edge">
<title>Node3&#45;&gt;Node1</title>
<g id="a_edge2_Node000001_Node000003"><a xlink:title=" ">
<path fill="none" stroke="#9a32cd" stroke-dasharray="5,2" d="M395.84,-83.49C422.53,-80.57 451.86,-77.35 475.56,-74.76"/>
<polygon fill="#9a32cd" stroke="#9a32cd" points="395.66,-79.99 386.1,-84.56 396.42,-86.95 395.66,-79.99"/>
</a>
</g>
<text xml:space="preserve" text-anchor="start" x="417.12" y="-88.6" font-family="Helvetica,sans-Serif" font-size="10.00" fill="grey">config</text>
</g>
<!-- Node4 -->
<g id="Node000004" class="node">
<title>Node4</title>
<g id="a_Node000004"><a xlink:href="structaliro__uwb__preferred__hopping__configs.html" target="_top" xlink:title="Ordered hopping preferences (at least one default sequence required).">
<polygon fill="white" stroke="#666666" points="100.75,-106.88 0,-106.88 0,-76.38 100.75,-76.38 100.75,-106.88"/>
<text xml:space="preserve" text-anchor="start" x="8" y="-93.38" font-family="Helvetica,sans-Serif" font-size="10.00">aliro_uwb_preferred</text>
<text xml:space="preserve" text-anchor="middle" x="50.38" y="-82.12" font-family="Helvetica,sans-Serif" font-size="10.00">_hopping_configs</text>
</a>
</g>
</g>
<!-- Node4&#45;&gt;Node3 -->
<g id="edge3_Node000003_Node000004" class="edge">
<title>Node4&#45;&gt;Node3</title>
<g id="a_edge3_Node000003_Node000004"><a xlink:title=" ">
<path fill="none" stroke="#9a32cd" stroke-dasharray="5,2" d="M112.68,-91.62C155.81,-91.62 213.36,-91.62 256.82,-91.62"/>
<polygon fill="#9a32cd" stroke="#9a32cd" points="112.72,-88.13 102.72,-91.63 112.72,-95.13 112.72,-88.13"/>
</a>
</g>
<text xml:space="preserve" text-anchor="start" x="121.75" y="-97.62" font-family="Helvetica,sans-Serif" font-size="10.00" fill="grey">preferred_hopping_configs</text>
</g>
<!-- Node5 -->
<g id="Node000005" class="node">
<title>Node5</title>
<g id="a_Node000005"><a xlink:href="structcherry__ccc__capabilities.html" target="_top" xlink:title="Device CCC/Aliro capability set advertised to the peer.">
<polygon fill="white" stroke="#666666" points="379.62,-58.25 261.62,-58.25 261.62,-39 379.62,-39 379.62,-58.25"/>
<text xml:space="preserve" text-anchor="middle" x="320.62" y="-44.75" font-family="Helvetica,sans-Serif" font-size="10.00">cherry_ccc_capabilities</text>
</a>
</g>
</g>
<!-- Node5&#45;&gt;Node1 -->
<g id="edge4_Node000001_Node000005" class="edge">
<title>Node5&#45;&gt;Node1</title>
<g id="a_edge4_Node000001_Node000005"><a xlink:title=" ">
<path fill="none" stroke="#9a32cd" stroke-dasharray="5,2" d="M391.31,-46.6C412.79,-46.9 436.46,-48.16 458,-51.38 469.6,-53.11 482.07,-56.31 492.92,-59.56"/>
<polygon fill="#9a32cd" stroke="#9a32cd" points="391.5,-43.11 381.48,-46.54 391.46,-50.11 391.5,-43.11"/>
</a>
</g>
<text xml:space="preserve" text-anchor="start" x="409.25" y="-57.38" font-family="Helvetica,sans-Serif" font-size="10.00" fill="grey">ccc_caps</text>
</g>
<!-- Node6 -->
<g id="Node000006" class="node">
<title>Node6</title>
<g id="a_Node000006"><a xlink:href="structcherry__common__diag__cfg.html" target="_top" xlink:title="Per&#45;session diagnostics selection flags and CIR window parameters, passed by value.">
<polygon fill="white" stroke="#666666" points="384.5,-19.25 256.75,-19.25 256.75,0 384.5,0 384.5,-19.25"/>
<text xml:space="preserve" text-anchor="middle" x="320.62" y="-5.75" font-family="Helvetica,sans-Serif" font-size="10.00">cherry_common_diag_cfg</text>
</a>
</g>
</g>
<!-- Node6&#45;&gt;Node1 -->
<g id="edge5_Node000001_Node000006" class="edge">
<title>Node6&#45;&gt;Node1</title>
<g id="a_edge5_Node000001_Node000006"><a xlink:title=" ">
<path fill="none" stroke="#9a32cd" stroke-dasharray="5,2" d="M396.14,-11.65C416.66,-13.96 438.6,-18.11 458,-25.38 478.83,-33.18 499.39,-49.15 511.48,-59.61"/>
<polygon fill="#9a32cd" stroke="#9a32cd" points="396.7,-8.19 386.41,-10.69 396.02,-15.15 396.7,-8.19"/>
</a>
</g>
<text xml:space="preserve" text-anchor="start" x="405.5" y="-31.38" font-family="Helvetica,sans-Serif" font-size="10.00" fill="grey">diag_config</text>
</g>
</g>
</svg>

<g id="navigator" transform="translate(0 0)" fill="#404254">
  <rect fill="#f2f5e9" fill-opacity="0.5" stroke="#606060" stroke-width=".5" x="0" y="0" width="60" height="60"/>
  <use id="zoomplus" xlink:href="#zoomPlus" x="17" y="9" onmousedown="handleZoom(evt,'in')"/>
  <use id="zoomminus" xlink:href="#zoomMin" x="42" y="9" onmousedown="handleZoom(evt,'out')"/>
  <use id="reset" xlink:href="#resetDef" x="30" y="36" onmousedown="handleReset()"/>
   <use id="arrowup" xlink:href="#arrowUp" x="0" y="0" onmousedown="handlePan(0,-1)"/>
  <use id="arrowright" xlink:href="#arrowRight" x="0" y="0" onmousedown="handlePan(1,0)"/>
  <use id="arrowdown" xlink:href="#arrowDown" x="0" y="0" onmousedown="handlePan(0,1)"/>
  <use id="arrowleft" xlink:href="#arrowLeft" x="0" y="0" onmousedown="handlePan(-1,0)"/>
</g>
<svg viewBox="0 0 15 15" width="100%" height="30px" preserveAspectRatio="xMaxYMin meet">
 <g id="arrow_out" transform="scale(0.3 0.3)">
  <a xlink:href="structaliro__uwb__adapter__coll__graph_org.svg" target="_base">
   <rect id="button" ry="5" rx="5" y="6" x="6" height="38" width="38"
        fill="#f2f5e9" fill-opacity="0.5" stroke="#606060" stroke-width="1.0"/>
   <path id="arrow"
     d="M 11.500037,31.436501 C 11.940474,20.09759 22.043105,11.32322 32.158766,21.979434 L 37.068811,17.246167 C 37.068811,17.246167 37.088388,32 37.088388,32 L 22.160133,31.978069 C 22.160133,31.978069 26.997745,27.140456 26.997745,27.140456 C 18.528582,18.264221 13.291696,25.230495 11.500037,31.436501 z"
     style="fill:#404040;"/>
  </a>
 </g>
</svg>

<style type='text/css'>
<![CDATA[
[data-mouse-over-selected='false'] { opacity: 0.7; }
[data-mouse-over-selected='true']  { opacity: 1.0; }
]]>
</style>
<script type="application/ecmascript"><![CDATA[
document.addEventListener('DOMContentLoaded', (event) => {
  highlightEdges();
  highlightAdjacentNodes();
});
]]></script>
</svg>
