<?xml version="1.0" encoding="UTF-8" standalone="no"?>
<!DOCTYPE svg PUBLIC "-//W3C//DTD SVG 1.1//EN"
 "http://www.w3.org/Graphics/SVG/1.1/DTD/svg11.dtd">
<!-- Generated by graphviz version 15.0.0 (20260523.1842)
 -->
<!-- Title: modules/woz_uwb/src/driver/uwb_selftest.c Pages: 1 -->
<!--zoomable 204 -->

<svg id="main" version="1.1" xmlns="http://www.w3.org/2000/svg" xmlns:xlink="http://www.w3.org/1999/xlink" xml:space="preserve" onload="init(evt)">

<style type="text/css"><![CDATA[
.node, .edge {opacity: 0.7;}
.node.selected, .edge.selected {opacity: 1;}
.edge:hover path { stroke: red; }
.edge:hover polygon { stroke: red; fill: red; }
]]></style>

<defs>
  <circle id="rim" cx="0" cy="0" r="7"/>
  <circle id="rim2" cx="0" cy="0" r="3.5"/>
  <g id="zoomPlus">
    <use xlink:href="#rim" fill="#404040"><set attributeName="fill" to="#808080" begin="zoomplus.mouseover" end="zoomplus.mouseout"/></use>
    <path d="M-4,0h8M0,-4v8" fill="none" stroke="white" stroke-width="1.5" pointer-events="none"/>
  </g>
  <g id="zoomMin">
    <use xlink:href="#rim" fill="#404040"><set attributeName="fill" to="#808080" begin="zoomminus.mouseover" end="zoomminus.mouseout"/></use>
    <path d="M-4,0h8" fill="none" stroke="white" stroke-width="1.5" pointer-events="none"/>
  </g>
  <g id="arrowUp" transform="translate(30 24)">
    <use xlink:href="#rim"/>
    <path pointer-events="none" fill="none" stroke="white" stroke-width="1.5" d="M0,-3.0v7 M-2.5,-0.5L0,-3.0L2.5,-0.5"/>
  </g>
  <g id="arrowRight" transform="rotate(90) translate(36 -43)">
    <use xlink:href="#rim"/>
    <path pointer-events="none" fill="none" stroke="white" stroke-width="1.5" d="M0,-3.0v7 M-2.5,-0.5L0,-3.0L2.5,-0.5"/>
  </g>
  <g id="arrowDown" transform="rotate(180) translate(-30 -48)">
    <use xlink:href="#rim"/>
    <path pointer-events="none" fill="none" stroke="white" stroke-width="1.5" d="M0,-3.0v7 M-2.5,-0.5L0,-3.0L2.5,-0.5"/>
  </g>
  <g id="arrowLeft" transform="rotate(270) translate(-36 17)">
    <use xlink:href="#rim"/>
    <path pointer-events="none" fill="none" stroke="white" stroke-width="1.5" d="M0,-3.0v7 M-2.5,-0.5L0,-3.0L2.5,-0.5"/>
  </g>
  <g id="resetDef">
    <use xlink:href="#rim2" fill="#404040"><set attributeName="fill" to="#808080" begin="reset.mouseover" end="reset.mouseout"/></use>
  </g>
</defs>
<script type="application/ecmascript">
var viewWidth = 572;
var viewHeight = 204;
var sectionId = 'dynsection-0';
</script>
<script type="application/ecmascript" xlink:href="svg.min.js"/>
<svg id="graph" class="graph">
<g id="viewport">
<title>modules/woz_uwb/src/driver/uwb_selftest.c</title>
<!-- Node1 -->
<g id="Node000001" class="node">
<title>Node1</title>
<g id="a_Node000001"><a xlink:title="— Kconfig&#45;gated one&#45;shot UWB init self&#45;test (no iPhone).">
<polygon fill="#999999" stroke="#666666" points="296.38,-196.25 182.88,-196.25 182.88,-165.75 296.38,-165.75 296.38,-196.25"/>
<text xml:space="preserve" text-anchor="start" x="190.88" y="-182.75" font-family="Helvetica,sans-Serif" font-size="10.00">modules/woz_uwb/src</text>
<text xml:space="preserve" text-anchor="middle" x="239.62" y="-171.5" font-family="Helvetica,sans-Serif" font-size="10.00">/driver/uwb_selftest.c</text>
</a>
</g>
</g>
<!-- Node2 -->
<g id="Node000002" class="node">
<title>Node2</title>
<g id="a_Node000002"><a xlink:title=" ">
<polygon fill="#e0e0e0" stroke="#999999" points="69.25,-129.75 0,-129.75 0,-110.5 69.25,-110.5 69.25,-129.75"/>
<text xml:space="preserve" text-anchor="middle" x="34.62" y="-116.25" font-family="Helvetica,sans-Serif" font-size="10.00">zephyr/init.h</text>
</a>
</g>
</g>
<!-- Node1&#45;&gt;Node2 -->
<g id="edge1_Node000001_Node000002" class="edge">
<title>Node1&#45;&gt;Node2</title>
<g id="a_edge1_Node000001_Node000002"><a xlink:title=" ">
<path fill="none" stroke="#63b8ff" d="M188.42,-165.3C154.16,-155.45 109.59,-142.65 77.25,-133.37"/>
<polygon fill="#63b8ff" stroke="#63b8ff" points="78.4,-130.05 67.82,-130.66 76.47,-136.78 78.4,-130.05"/>
</a>
</g>
</g>
<!-- Node3 -->
<g id="Node000003" class="node">
<title>Node3</title>
<g id="a_Node000003"><a xlink:title=" ">
<polygon fill="#e0e0e0" stroke="#999999" points="170,-129.75 87.25,-129.75 87.25,-110.5 170,-110.5 170,-129.75"/>
<text xml:space="preserve" text-anchor="middle" x="128.62" y="-116.25" font-family="Helvetica,sans-Serif" font-size="10.00">zephyr/kernel.h</text>
</a>
</g>
</g>
<!-- Node1&#45;&gt;Node3 -->
<g id="edge2_Node000001_Node000003" class="edge">
<title>Node1&#45;&gt;Node3</title>
<g id="a_edge2_Node000001_Node000003"><a xlink:title=" ">
<path fill="none" stroke="#63b8ff" d="M211.9,-165.3C194.67,-156.16 172.63,-144.47 155.55,-135.41"/>
<polygon fill="#63b8ff" stroke="#63b8ff" points="157.46,-132.46 146.98,-130.86 154.18,-138.64 157.46,-132.46"/>
</a>
</g>
</g>
<!-- Node4 -->
<g id="Node000004" class="node">
<title>Node4</title>
<g id="a_Node000004"><a xlink:title=" ">
<polygon fill="#e0e0e0" stroke="#999999" points="291.12,-129.75 188.12,-129.75 188.12,-110.5 291.12,-110.5 291.12,-129.75"/>
<text xml:space="preserve" text-anchor="middle" x="239.62" y="-116.25" font-family="Helvetica,sans-Serif" font-size="10.00">zephyr/logging/log.h</text>
</a>
</g>
</g>
<!-- Node1&#45;&gt;Node4 -->
<g id="edge3_Node000001_Node000004" class="edge">
<title>Node1&#45;&gt;Node4</title>
<g id="a_edge3_Node000001_Node000004"><a xlink:title=" ">
<path fill="none" stroke="#63b8ff" d="M239.62,-165.45C239.62,-158.21 239.62,-149.34 239.62,-141.44"/>
<polygon fill="#63b8ff" stroke="#63b8ff" points="243.13,-141.71 239.63,-131.71 236.13,-141.71 243.13,-141.71"/>
</a>
</g>
</g>
<!-- Node5 -->
<g id="Node000005" class="node">
<title>Node5</title>
<g id="a_Node000005"><a xlink:href="woz__uwb__facade_8h_source.html" target="_top" xlink:title=" ">
<polygon fill="white" stroke="#666666" points="409.62,-129.75 309.62,-129.75 309.62,-110.5 409.62,-110.5 409.62,-129.75"/>
<text xml:space="preserve" text-anchor="middle" x="359.62" y="-116.25" font-family="Helvetica,sans-Serif" font-size="10.00">woz_uwb_facade.h</text>
</a>
</g>
</g>
<!-- Node1&#45;&gt;Node5 -->
<g id="edge4_Node000001_Node000005" class="edge">
<title>Node1&#45;&gt;Node5</title>
<g id="a_edge4_Node000001_Node000005"><a xlink:title=" ">
<path fill="none" stroke="#63b8ff" d="M269.6,-165.3C288.4,-156.07 312.5,-144.25 331.04,-135.15"/>
<polygon fill="#63b8ff" stroke="#63b8ff" points="332.43,-138.37 339.86,-130.82 329.34,-132.08 332.43,-138.37"/>
</a>
</g>
</g>
<!-- Node9 -->
<g id="Node000009" class="node">
<title>Node9</title>
<g id="a_Node000009"><a xlink:href="ccc__shim_8h.html" target="_top" xlink:title="— map a per&#45;frame STS index to the (dURSK, STS&#45;V) pair the DW3000 STS engine loads.">
<polygon fill="white" stroke="#666666" points="498.75,-129.75 432.5,-129.75 432.5,-110.5 498.75,-110.5 498.75,-129.75"/>
<text xml:space="preserve" text-anchor="middle" x="465.62" y="-116.25" font-family="Helvetica,sans-Serif" font-size="10.00">ccc_shim.h</text>
</a>
</g>
</g>
<!-- Node1&#45;&gt;Node9 -->
<g id="edge8_Node000001_Node000009" class="edge">
<title>Node1&#45;&gt;Node9</title>
<g id="a_edge8_Node000001_Node000009"><a xlink:title=" ">
<path fill="none" stroke="#63b8ff" d="M296.07,-165.3C334.77,-155.21 385.38,-142.03 421.21,-132.7"/>
<polygon fill="#63b8ff" stroke="#63b8ff" points="422.03,-136.1 430.82,-130.19 420.26,-129.33 422.03,-136.1"/>
</a>
</g>
</g>
<!-- Node6 -->
<g id="Node000006" class="node">
<title>Node6</title>
<g id="a_Node000006"><a xlink:title=" ">
<polygon fill="#e0e0e0" stroke="#999999" points="485.25,-19.25 434,-19.25 434,0 485.25,0 485.25,-19.25"/>
<text xml:space="preserve" text-anchor="middle" x="459.62" y="-5.75" font-family="Helvetica,sans-Serif" font-size="10.00">stddef.h</text>
</a>
</g>
</g>
<!-- Node5&#45;&gt;Node6 -->
<g id="edge5_Node000005_Node000006" class="edge">
<title>Node5&#45;&gt;Node6</title>
<g id="a_edge5_Node000005_Node000006"><a xlink:title=" ">
<path fill="none" stroke="#63b8ff" d="M352.23,-110.12C342.42,-97.03 327.69,-72.43 339.62,-55.25 358.11,-28.66 394.42,-17.88 422.28,-13.53"/>
<polygon fill="#63b8ff" stroke="#63b8ff" points="422.67,-17.01 432.12,-12.23 421.75,-10.07 422.67,-17.01"/>
</a>
</g>
</g>
<!-- Node7 -->
<g id="Node000007" class="node">
<title>Node7</title>
<g id="a_Node000007"><a xlink:title=" ">
<polygon fill="#e0e0e0" stroke="#999999" points="551.75,-19.25 503.5,-19.25 503.5,0 551.75,0 551.75,-19.25"/>
<text xml:space="preserve" text-anchor="middle" x="527.62" y="-5.75" font-family="Helvetica,sans-Serif" font-size="10.00">stdint.h</text>
</a>
</g>
</g>
<!-- Node5&#45;&gt;Node7 -->
<g id="edge6_Node000005_Node000007" class="edge">
<title>Node5&#45;&gt;Node7</title>
<g id="a_edge6_Node000005_Node000007"><a xlink:title=" ">
<path fill="none" stroke="#63b8ff" d="M358.78,-110.44C357.96,-96.85 358.5,-70.55 372.62,-55.25 374.71,-52.99 446.95,-32.81 492.06,-20.37"/>
<polygon fill="#63b8ff" stroke="#63b8ff" points="492.99,-23.75 501.7,-17.72 491.13,-17 492.99,-23.75"/>
</a>
</g>
</g>
<!-- Node8 -->
<g id="Node000008" class="node">
<title>Node8</title>
<g id="a_Node000008"><a xlink:title=" ">
<polygon fill="#e0e0e0" stroke="#999999" points="437.5,-74.5 381.75,-74.5 381.75,-55.25 437.5,-55.25 437.5,-74.5"/>
<text xml:space="preserve" text-anchor="middle" x="409.62" y="-61" font-family="Helvetica,sans-Serif" font-size="10.00">stdbool.h</text>
</a>
</g>
</g>
<!-- Node5&#45;&gt;Node8 -->
<g id="edge7_Node000005_Node000008" class="edge">
<title>Node5&#45;&gt;Node8</title>
<g id="a_edge7_Node000005_Node000008"><a xlink:title=" ">
<path fill="none" stroke="#63b8ff" d="M367.88,-110.33C374.79,-102.98 384.85,-92.26 393.36,-83.19"/>
<polygon fill="#63b8ff" stroke="#63b8ff" points="395.86,-85.65 400.15,-75.96 390.76,-80.86 395.86,-85.65"/>
</a>
</g>
</g>
<!-- Node9&#45;&gt;Node6 -->
<g id="edge10_Node000009_Node000006" class="edge">
<title>Node9&#45;&gt;Node6</title>
<g id="a_edge10_Node000009_Node000006"><a xlink:title=" ">
<path fill="none" stroke="#63b8ff" d="M465.13,-110.25C464.18,-93 462.06,-54.58 460.74,-30.81"/>
<polygon fill="#63b8ff" stroke="#63b8ff" points="464.25,-30.93 460.21,-21.14 457.26,-31.32 464.25,-30.93"/>
</a>
</g>
</g>
<!-- Node9&#45;&gt;Node7 -->
<g id="edge11_Node000009_Node000007" class="edge">
<title>Node9&#45;&gt;Node7</title>
<g id="a_edge11_Node000009_Node000007"><a xlink:title=" ">
<path fill="none" stroke="#63b8ff" d="M498.98,-112.95C520.59,-107.04 547.14,-95.73 560.62,-74.5 570.4,-59.11 558.28,-40.5 546.08,-27.35"/>
<polygon fill="#63b8ff" stroke="#63b8ff" points="548.9,-25.22 539.34,-20.64 543.96,-30.18 548.9,-25.22"/>
</a>
</g>
</g>
<!-- Node9&#45;&gt;Node8 -->
<g id="edge9_Node000009_Node000008" class="edge">
<title>Node9&#45;&gt;Node8</title>
<g id="a_edge9_Node000009_Node000008"><a xlink:title=" ">
<path fill="none" stroke="#63b8ff" d="M456.13,-110.09C448.19,-102.55 436.68,-91.6 427.09,-82.48"/>
<polygon fill="#63b8ff" stroke="#63b8ff" points="429.74,-80.17 420.08,-75.82 424.92,-85.24 429.74,-80.17"/>
</a>
</g>
</g>
<!-- Node10 -->
<g id="Node000010" class="node">
<title>Node10</title>
<g id="a_Node000010"><a xlink:href="ccc__kdf_8h.html" target="_top" xlink:title="UWB ranging key schedule + SP0 frame crypto (CONFIG_WOZ_ALIRO).">
<polygon fill="white" stroke="#666666" points="552,-74.5 493.25,-74.5 493.25,-55.25 552,-55.25 552,-74.5"/>
<text xml:space="preserve" text-anchor="middle" x="522.62" y="-61" font-family="Helvetica,sans-Serif" font-size="10.00">ccc_kdf.h</text>
</a>
</g>
</g>
<!-- Node9&#45;&gt;Node10 -->
<g id="edge12_Node000009_Node000010" class="edge">
<title>Node9&#45;&gt;Node10</title>
<g id="a_edge12_Node000009_Node000010"><a xlink:title=" ">
<path fill="none" stroke="#63b8ff" d="M475.29,-110.09C483.37,-102.55 495.09,-91.6 504.85,-82.48"/>
<polygon fill="#63b8ff" stroke="#63b8ff" points="507.07,-85.19 511.99,-75.81 502.3,-80.08 507.07,-85.19"/>
</a>
</g>
</g>
<!-- Node10&#45;&gt;Node6 -->
<g id="edge13_Node000010_Node000006" class="edge">
<title>Node10&#45;&gt;Node6</title>
<g id="a_edge13_Node000010_Node000006"><a xlink:title=" ">
<path fill="none" stroke="#63b8ff" d="M511.94,-54.84C502.92,-47.22 489.79,-36.12 478.94,-26.95"/>
<polygon fill="#63b8ff" stroke="#63b8ff" points="481.21,-24.28 471.31,-20.5 476.69,-29.63 481.21,-24.28"/>
</a>
</g>
</g>
<!-- Node10&#45;&gt;Node7 -->
<g id="edge14_Node000010_Node000007" class="edge">
<title>Node10&#45;&gt;Node7</title>
<g id="a_edge14_Node000010_Node000007"><a xlink:title=" ">
<path fill="none" stroke="#63b8ff" d="M523.45,-55.08C524.07,-48.49 524.94,-39.21 525.73,-30.82"/>
<polygon fill="#63b8ff" stroke="#63b8ff" points="529.19,-31.4 526.64,-21.12 522.22,-30.75 529.19,-31.4"/>
</a>
</g>
</g>
</g>
</svg>

<g id="navigator" transform="translate(0 0)" fill="#404254">
  <rect fill="#f2f5e9" fill-opacity="0.5" stroke="#606060" stroke-width=".5" x="0" y="0" width="60" height="60"/>
  <use id="zoomplus" xlink:href="#zoomPlus" x="17" y="9" onmousedown="handleZoom(evt,'in')"/>
  <use id="zoomminus" xlink:href="#zoomMin" x="42" y="9" onmousedown="handleZoom(evt,'out')"/>
  <use id="reset" xlink:href="#resetDef" x="30" y="36" onmousedown="handleReset()"/>
   <use id="arrowup" xlink:href="#arrowUp" x="0" y="0" onmousedown="handlePan(0,-1)"/>
  <use id="arrowright" xlink:href="#arrowRight" x="0" y="0" onmousedown="handlePan(1,0)"/>
  <use id="arrowdown" xlink:href="#arrowDown" x="0" y="0" onmousedown="handlePan(0,1)"/>
  <use id="arrowleft" xlink:href="#arrowLeft" x="0" y="0" onmousedown="handlePan(-1,0)"/>
</g>
<svg viewBox="0 0 15 15" width="100%" height="30px" preserveAspectRatio="xMaxYMin meet">
 <g id="arrow_out" transform="scale(0.3 0.3)">
  <a xlink:href="uwb__selftest_8c__incl_org.svg" target="_base">
   <rect id="button" ry="5" rx="5" y="6" x="6" height="38" width="38"
        fill="#f2f5e9" fill-opacity="0.5" stroke="#606060" stroke-width="1.0"/>
   <path id="arrow"
     d="M 11.500037,31.436501 C 11.940474,20.09759 22.043105,11.32322 32.158766,21.979434 L 37.068811,17.246167 C 37.068811,17.246167 37.088388,32 37.088388,32 L 22.160133,31.978069 C 22.160133,31.978069 26.997745,27.140456 26.997745,27.140456 C 18.528582,18.264221 13.291696,25.230495 11.500037,31.436501 z"
     style="fill:#404040;"/>
  </a>
 </g>
</svg>

<style type='text/css'>
<![CDATA[
[data-mouse-over-selected='false'] { opacity: 0.7; }
[data-mouse-over-selected='true']  { opacity: 1.0; }
]]>
</style>
<script type="application/ecmascript"><![CDATA[
document.addEventListener('DOMContentLoaded', (event) => {
  highlightEdges();
  highlightAdjacentNodes();
});
]]></script>
</svg>
