<?xml version="1.0" encoding="UTF-8" standalone="no"?>
<!DOCTYPE svg PUBLIC "-//W3C//DTD SVG 1.1//EN"
 "http://www.w3.org/Graphics/SVG/1.1/DTD/svg11.dtd">
<!-- Generated by graphviz version 15.0.0 (20260523.1842)
 -->
<!-- Title: modules/woz_uwb/src/driver/uwb_isr.c Pages: 1 -->
<svg width="403pt" height="149pt"
 viewBox="0.00 0.00 403.00 149.00" xmlns="http://www.w3.org/2000/svg" xmlns:xlink="http://www.w3.org/1999/xlink">

<svg id="main" version="1.1" xmlns="http://www.w3.org/2000/svg" xmlns:xlink="http://www.w3.org/1999/xlink" xml:space="preserve">

<style type="text/css"><![CDATA[
.node, .edge {opacity: 0.7;}
.node.selected, .edge.selected {opacity: 1;}
.edge:hover path { stroke: red; }
.edge:hover polygon { stroke: red; fill: red; }
]]></style>
<script type="application/ecmascript" xlink:href="svg.min.js"/>
<svg id="graph" class="graph">
<g id="graph0" class="graph" transform="scale(1 1) rotate(0) translate(4 145)">
<title>modules/woz_uwb/src/driver/uwb_isr.c</title>
<!-- Node1 -->
<g id="Node000001" class="node">
<title>Node1</title>
<g id="a_Node000001"><a xlink:title="— DW3000 interrupt&#45;callback registration (implementation).">
<polygon fill="#999999" stroke="#666666" points="238.38,-141 124.88,-141 124.88,-110.5 238.38,-110.5 238.38,-141"/>
<text xml:space="preserve" text-anchor="start" x="132.88" y="-127.5" font-family="Helvetica,sans-Serif" font-size="10.00">modules/woz_uwb/src</text>
<text xml:space="preserve" text-anchor="middle" x="181.62" y="-116.25" font-family="Helvetica,sans-Serif" font-size="10.00">/driver/uwb_isr.c</text>
</a>
</g>
</g>
<!-- Node2 -->
<g id="Node000002" class="node">
<title>Node2</title>
<g id="a_Node000002"><a xlink:href="uwb__isr_8h.html" target="_top" xlink:title="— DW3000 interrupt&#45;callback registration (public surface).">
<polygon fill="white" stroke="#666666" points="57.25,-74.5 0,-74.5 0,-55.25 57.25,-55.25 57.25,-74.5"/>
<text xml:space="preserve" text-anchor="middle" x="28.62" y="-61" font-family="Helvetica,sans-Serif" font-size="10.00">uwb_isr.h</text>
</a>
</g>
</g>
<!-- Node1&#45;&gt;Node2 -->
<g id="edge1_Node000001_Node000002" class="edge">
<title>Node1&#45;&gt;Node2</title>
<g id="a_edge1_Node000001_Node000002"><a xlink:title=" ">
<path fill="none" stroke="#63b8ff" d="M143.41,-110.05C118.65,-100.52 86.69,-88.22 62.78,-79.02"/>
<polygon fill="#63b8ff" stroke="#63b8ff" points="64.09,-75.77 53.5,-75.45 61.58,-82.31 64.09,-75.77"/>
</a>
</g>
</g>
<!-- Node3 -->
<g id="Node000003" class="node">
<title>Node3</title>
<g id="a_Node000003"><a xlink:title=" ">
<polygon fill="#e0e0e0" stroke="#999999" points="151.75,-19.25 103.5,-19.25 103.5,0 151.75,0 151.75,-19.25"/>
<text xml:space="preserve" text-anchor="middle" x="127.62" y="-5.75" font-family="Helvetica,sans-Serif" font-size="10.00">stdint.h</text>
</a>
</g>
</g>
<!-- Node1&#45;&gt;Node3 -->
<g id="edge2_Node000001_Node000003" class="edge">
<title>Node1&#45;&gt;Node3</title>
<g id="a_edge2_Node000001_Node000003"><a xlink:title=" ">
<path fill="none" stroke="#63b8ff" d="M144.43,-110.08C129.22,-102.01 113.21,-90.36 104.62,-74.5 96.66,-59.8 104.59,-41.78 113.23,-28.63"/>
<polygon fill="#63b8ff" stroke="#63b8ff" points="115.81,-31.04 118.85,-20.89 110.15,-26.93 115.81,-31.04"/>
</a>
</g>
</g>
<!-- Node4 -->
<g id="Node000004" class="node">
<title>Node4</title>
<g id="a_Node000004"><a xlink:href="woz__port_8h_source.html" target="_top" xlink:title=" ">
<polygon fill="white" stroke="#666666" points="177.62,-74.5 113.62,-74.5 113.62,-55.25 177.62,-55.25 177.62,-74.5"/>
<text xml:space="preserve" text-anchor="middle" x="145.62" y="-61" font-family="Helvetica,sans-Serif" font-size="10.00">woz_port.h</text>
</a>
</g>
</g>
<!-- Node1&#45;&gt;Node4 -->
<g id="edge3_Node000001_Node000004" class="edge">
<title>Node1&#45;&gt;Node4</title>
<g id="a_edge3_Node000001_Node000004"><a xlink:title=" ">
<path fill="none" stroke="#63b8ff" d="M172.73,-110.2C167.98,-102.44 162.1,-92.81 157.02,-84.51"/>
<polygon fill="#63b8ff" stroke="#63b8ff" points="160.17,-82.95 151.96,-76.24 154.2,-86.6 160.17,-82.95"/>
</a>
</g>
</g>
<!-- Node6 -->
<g id="Node000006" class="node">
<title>Node6</title>
<g id="a_Node000006"><a xlink:href="woz__log_8h_source.html" target="_top" xlink:title=" ">
<polygon fill="white" stroke="#666666" points="299.75,-19.25 239.5,-19.25 239.5,0 299.75,0 299.75,-19.25"/>
<text xml:space="preserve" text-anchor="middle" x="269.62" y="-5.75" font-family="Helvetica,sans-Serif" font-size="10.00">woz_log.h</text>
</a>
</g>
</g>
<!-- Node1&#45;&gt;Node6 -->
<g id="edge6_Node000001_Node000006" class="edge">
<title>Node1&#45;&gt;Node6</title>
<g id="a_edge6_Node000001_Node000006"><a xlink:title=" ">
<path fill="none" stroke="#63b8ff" d="M209.63,-110.21C223.77,-101.57 240.1,-89.39 250.62,-74.5 259.73,-61.61 264.53,-44.32 267.02,-30.98"/>
<polygon fill="#63b8ff" stroke="#63b8ff" points="270.47,-31.59 268.54,-21.17 263.55,-30.52 270.47,-31.59"/>
</a>
</g>
</g>
<!-- Node7 -->
<g id="Node000007" class="node">
<title>Node7</title>
<g id="a_Node000007"><a xlink:title=" ">
<polygon fill="#e0e0e0" stroke="#999999" points="395.12,-74.5 298.12,-74.5 298.12,-55.25 395.12,-55.25 395.12,-74.5"/>
<text xml:space="preserve" text-anchor="middle" x="346.62" y="-61" font-family="Helvetica,sans-Serif" font-size="10.00">deca_device_api.h</text>
</a>
</g>
</g>
<!-- Node1&#45;&gt;Node7 -->
<g id="edge7_Node000001_Node000007" class="edge">
<title>Node1&#45;&gt;Node7</title>
<g id="a_edge7_Node000001_Node000007"><a xlink:title=" ">
<path fill="none" stroke="#63b8ff" d="M222.84,-110.05C249.78,-100.43 284.63,-88 310.49,-78.77"/>
<polygon fill="#63b8ff" stroke="#63b8ff" points="311.65,-82.07 319.9,-75.41 309.3,-75.48 311.65,-82.07"/>
</a>
</g>
</g>
<!-- Node8 -->
<g id="Node000008" class="node">
<title>Node8</title>
<g id="a_Node000008"><a xlink:href="trace_8h.html" target="_top" xlink:title="— Structured [WOZ_TRACE] emit helpers, gated on CONFIG_WOZ_E2E_TRACE.">
<polygon fill="white" stroke="#666666" points="241.62,-74.5 195.62,-74.5 195.62,-55.25 241.62,-55.25 241.62,-74.5"/>
<text xml:space="preserve" text-anchor="middle" x="218.62" y="-61" font-family="Helvetica,sans-Serif" font-size="10.00">trace.h</text>
</a>
</g>
</g>
<!-- Node1&#45;&gt;Node8 -->
<g id="edge8_Node000001_Node000008" class="edge">
<title>Node1&#45;&gt;Node8</title>
<g id="a_edge8_Node000001_Node000008"><a xlink:title=" ">
<path fill="none" stroke="#63b8ff" d="M190.77,-110.2C195.65,-102.44 201.7,-92.81 206.91,-84.51"/>
<polygon fill="#63b8ff" stroke="#63b8ff" points="209.76,-86.56 212.12,-76.23 203.83,-82.84 209.76,-86.56"/>
</a>
</g>
</g>
<!-- Node4&#45;&gt;Node3 -->
<g id="edge5_Node000004_Node000003" class="edge">
<title>Node4&#45;&gt;Node3</title>
<g id="a_edge5_Node000004_Node000003"><a xlink:title=" ">
<path fill="none" stroke="#63b8ff" d="M142.65,-55.08C140.37,-48.34 137.14,-38.77 134.26,-30.24"/>
<polygon fill="#63b8ff" stroke="#63b8ff" points="137.66,-29.4 131.15,-21.04 131.03,-31.64 137.66,-29.4"/>
</a>
</g>
</g>
<!-- Node5 -->
<g id="Node000005" class="node">
<title>Node5</title>
<g id="a_Node000005"><a xlink:title=" ">
<polygon fill="#e0e0e0" stroke="#999999" points="221.25,-19.25 170,-19.25 170,0 221.25,0 221.25,-19.25"/>
<text xml:space="preserve" text-anchor="middle" x="195.62" y="-5.75" font-family="Helvetica,sans-Serif" font-size="10.00">stddef.h</text>
</a>
</g>
</g>
<!-- Node4&#45;&gt;Node5 -->
<g id="edge4_Node000004_Node000005" class="edge">
<title>Node4&#45;&gt;Node5</title>
<g id="a_edge4_Node000004_Node000005"><a xlink:title=" ">
<path fill="none" stroke="#63b8ff" d="M153.88,-55.08C160.79,-47.73 170.85,-37.01 179.36,-27.94"/>
<polygon fill="#63b8ff" stroke="#63b8ff" points="181.86,-30.4 186.15,-20.71 176.76,-25.61 181.86,-30.4"/>
</a>
</g>
</g>
<!-- Node8&#45;&gt;Node3 -->
<g id="edge10_Node000008_Node000003" class="edge">
<title>Node8&#45;&gt;Node3</title>
<g id="a_edge10_Node000008_Node000003"><a xlink:title=" ">
<path fill="none" stroke="#63b8ff" d="M203.19,-54.84C189.46,-46.81 169.13,-34.91 153.01,-25.48"/>
<polygon fill="#63b8ff" stroke="#63b8ff" points="154.84,-22.5 144.44,-20.47 151.31,-28.54 154.84,-22.5"/>
</a>
</g>
</g>
<!-- Node8&#45;&gt;Node5 -->
<g id="edge9_Node000008_Node000005" class="edge">
<title>Node8&#45;&gt;Node5</title>
<g id="a_edge9_Node000008_Node000005"><a xlink:title=" ">
<path fill="none" stroke="#63b8ff" d="M214.83,-55.08C211.88,-48.26 207.69,-38.56 203.97,-29.95"/>
<polygon fill="#63b8ff" stroke="#63b8ff" points="207.28,-28.79 200.11,-21 200.86,-31.57 207.28,-28.79"/>
</a>
</g>
</g>
<!-- Node8&#45;&gt;Node6 -->
<g id="edge11_Node000008_Node000006" class="edge">
<title>Node8&#45;&gt;Node6</title>
<g id="a_edge11_Node000008_Node000006"><a xlink:title=" ">
<path fill="none" stroke="#63b8ff" d="M227.05,-55.08C234.16,-47.65 244.57,-36.79 253.31,-27.66"/>
<polygon fill="#63b8ff" stroke="#63b8ff" points="255.58,-30.35 259.97,-20.7 250.53,-25.5 255.58,-30.35"/>
</a>
</g>
</g>
</g>
</svg>
</svg>

<style type='text/css'>
<![CDATA[
[data-mouse-over-selected='false'] { opacity: 0.7; }
[data-mouse-over-selected='true']  { opacity: 1.0; }
]]>
</style>
<script type="application/ecmascript"><![CDATA[
document.addEventListener('DOMContentLoaded', (event) => {
  highlightEdges();
  highlightAdjacentNodes();
});
]]></script>
</svg>
