<?xml version="1.0" encoding="UTF-8" standalone="no"?>
<!DOCTYPE svg PUBLIC "-//W3C//DTD SVG 1.1//EN"
 "http://www.w3.org/Graphics/SVG/1.1/DTD/svg11.dtd">
<!-- Generated by graphviz version 15.0.0 (20260523.1842)
 -->
<!-- Title: modules/woz_uwb/src/driver/uwb_rxdiag.c Pages: 1 -->
<svg width="871pt" height="204pt"
 viewBox="0.00 0.00 871.00 204.00" xmlns="http://www.w3.org/2000/svg" xmlns:xlink="http://www.w3.org/1999/xlink">
<g id="graph0" class="graph" transform="scale(1 1) rotate(0) translate(4 200.25)">
<title>modules/woz_uwb/src/driver/uwb_rxdiag.c</title>
<!-- Node1 -->
<g id="Node000001" class="node">
<title>Node1</title>
<g id="a_Node000001"><a xlink:title="— Diagnostic RX/TX event tallies + ranging heartbeat.">
<polygon fill="#999999" stroke="#666666" points="420.99,-196.25 307.49,-196.25 307.49,-165.75 420.99,-165.75 420.99,-196.25"/>
<text xml:space="preserve" text-anchor="start" x="315.49" y="-182.75" font-family="Helvetica,sans-Serif" font-size="10.00">modules/woz_uwb/src</text>
<text xml:space="preserve" text-anchor="middle" x="364.24" y="-171.5" font-family="Helvetica,sans-Serif" font-size="10.00">/driver/uwb_rxdiag.c</text>
</a>
</g>
</g>
<!-- Node2 -->
<g id="Node000002" class="node">
<title>Node2</title>
<g id="a_Node000002"><a xlink:title=" ">
<polygon fill="#e0e0e0" stroke="#999999" points="205.37,-19.25 157.12,-19.25 157.12,0 205.37,0 205.37,-19.25"/>
<text xml:space="preserve" text-anchor="middle" x="181.24" y="-5.75" font-family="Helvetica,sans-Serif" font-size="10.00">stdint.h</text>
</a>
</g>
</g>
<!-- Node1&#45;&gt;Node2 -->
<g id="edge1_Node000001_Node000002" class="edge">
<title>Node1&#45;&gt;Node2</title>
<g id="a_edge1_Node000001_Node000002"><a xlink:title=" ">
<path fill="none" stroke="#63b8ff" d="M307.33,-180.64C216.58,-180.3 45.43,-173.68 7.24,-129.75 -14.12,-105.17 17.2,-73.48 40.24,-55.25 70.95,-30.95 115.12,-19.76 145.8,-14.69"/>
<polygon fill="#63b8ff" stroke="#63b8ff" points="145.98,-18.21 155.35,-13.26 144.94,-11.28 145.98,-18.21"/>
</a>
</g>
</g>
<!-- Node3 -->
<g id="Node000003" class="node">
<title>Node3</title>
<g id="a_Node000003"><a xlink:title=" ">
<polygon fill="#e0e0e0" stroke="#999999" points="442.87,-129.75 373.62,-129.75 373.62,-110.5 442.87,-110.5 442.87,-129.75"/>
<text xml:space="preserve" text-anchor="middle" x="408.24" y="-116.25" font-family="Helvetica,sans-Serif" font-size="10.00">zephyr/init.h</text>
</a>
</g>
</g>
<!-- Node1&#45;&gt;Node3 -->
<g id="edge2_Node000001_Node000003" class="edge">
<title>Node1&#45;&gt;Node3</title>
<g id="a_edge2_Node000001_Node000003"><a xlink:title=" ">
<path fill="none" stroke="#63b8ff" d="M375.12,-165.45C381.05,-157.52 388.43,-147.63 394.73,-139.21"/>
<polygon fill="#63b8ff" stroke="#63b8ff" points="397.37,-141.52 400.55,-131.41 391.76,-137.33 397.37,-141.52"/>
</a>
</g>
</g>
<!-- Node4 -->
<g id="Node000004" class="node">
<title>Node4</title>
<g id="a_Node000004"><a xlink:title=" ">
<polygon fill="#e0e0e0" stroke="#999999" points="543.62,-129.75 460.87,-129.75 460.87,-110.5 543.62,-110.5 543.62,-129.75"/>
<text xml:space="preserve" text-anchor="middle" x="502.24" y="-116.25" font-family="Helvetica,sans-Serif" font-size="10.00">zephyr/kernel.h</text>
</a>
</g>
</g>
<!-- Node1&#45;&gt;Node4 -->
<g id="edge3_Node000001_Node000004" class="edge">
<title>Node1&#45;&gt;Node4</title>
<g id="a_edge3_Node000001_Node000004"><a xlink:title=" ">
<path fill="none" stroke="#63b8ff" d="M398.71,-165.3C420.74,-155.9 449.09,-143.8 470.55,-134.64"/>
<polygon fill="#63b8ff" stroke="#63b8ff" points="471.86,-137.89 479.69,-130.75 469.12,-131.45 471.86,-137.89"/>
</a>
</g>
</g>
<!-- Node5 -->
<g id="Node000005" class="node">
<title>Node5</title>
<g id="a_Node000005"><a xlink:title=" ">
<polygon fill="#e0e0e0" stroke="#999999" points="664.74,-129.75 561.74,-129.75 561.74,-110.5 664.74,-110.5 664.74,-129.75"/>
<text xml:space="preserve" text-anchor="middle" x="613.24" y="-116.25" font-family="Helvetica,sans-Serif" font-size="10.00">zephyr/logging/log.h</text>
</a>
</g>
</g>
<!-- Node1&#45;&gt;Node5 -->
<g id="edge4_Node000001_Node000005" class="edge">
<title>Node1&#45;&gt;Node5</title>
<g id="a_edge4_Node000001_Node000005"><a xlink:title=" ">
<path fill="none" stroke="#63b8ff" d="M421.37,-166.49C464.42,-156.31 522.84,-142.5 563.87,-132.8"/>
<polygon fill="#63b8ff" stroke="#63b8ff" points="564.56,-136.23 573.49,-130.53 562.95,-129.42 564.56,-136.23"/>
</a>
</g>
</g>
<!-- Node6 -->
<g id="Node000006" class="node">
<title>Node6</title>
<g id="a_Node000006"><a xlink:title=" ">
<polygon fill="#e0e0e0" stroke="#999999" points="779.74,-129.75 682.74,-129.75 682.74,-110.5 779.74,-110.5 779.74,-129.75"/>
<text xml:space="preserve" text-anchor="middle" x="731.24" y="-116.25" font-family="Helvetica,sans-Serif" font-size="10.00">deca_device_api.h</text>
</a>
</g>
</g>
<!-- Node1&#45;&gt;Node6 -->
<g id="edge5_Node000001_Node000006" class="edge">
<title>Node1&#45;&gt;Node6</title>
<g id="a_edge5_Node000001_Node000006"><a xlink:title=" ">
<path fill="none" stroke="#63b8ff" d="M421.18,-170.87C489.08,-159.97 602.04,-141.85 671.26,-130.75"/>
<polygon fill="#63b8ff" stroke="#63b8ff" points="671.58,-134.24 680.9,-129.2 670.47,-127.33 671.58,-134.24"/>
</a>
</g>
</g>
<!-- Node7 -->
<g id="Node000007" class="node">
<title>Node7</title>
<g id="a_Node000007"><a xlink:href="ccc__shim_8h.html" target="_top" xlink:title="— map a per&#45;frame STS index to the (dURSK, STS&#45;V) pair the DW3000 STS engine loads.">
<polygon fill="white" stroke="#666666" points="269.37,-129.75 203.12,-129.75 203.12,-110.5 269.37,-110.5 269.37,-129.75"/>
<text xml:space="preserve" text-anchor="middle" x="236.24" y="-116.25" font-family="Helvetica,sans-Serif" font-size="10.00">ccc_shim.h</text>
</a>
</g>
</g>
<!-- Node1&#45;&gt;Node7 -->
<g id="edge6_Node000001_Node000007" class="edge">
<title>Node1&#45;&gt;Node7</title>
<g id="a_edge6_Node000001_Node000007"><a xlink:title=" ">
<path fill="none" stroke="#63b8ff" d="M332.27,-165.3C312.03,-155.98 286.03,-144.02 266.19,-134.9"/>
<polygon fill="#63b8ff" stroke="#63b8ff" points="267.8,-131.79 257.25,-130.79 264.87,-138.15 267.8,-131.79"/>
</a>
</g>
</g>
<!-- Node11 -->
<g id="Node000011" class="node">
<title>Node11</title>
<g id="a_Node000011"><a xlink:href="fira__session_8h.html" target="_top" xlink:title="— Range + URSK store for the CCC Pre&#45;POLL responder.">
<polygon fill="white" stroke="#666666" points="184.62,-129.75 107.87,-129.75 107.87,-110.5 184.62,-110.5 184.62,-129.75"/>
<text xml:space="preserve" text-anchor="middle" x="146.24" y="-116.25" font-family="Helvetica,sans-Serif" font-size="10.00">fira_session.h</text>
</a>
</g>
</g>
<!-- Node1&#45;&gt;Node11 -->
<g id="edge13_Node000001_Node000011" class="edge">
<title>Node1&#45;&gt;Node11</title>
<g id="a_edge13_Node000001_Node000011"><a xlink:title=" ">
<path fill="none" stroke="#63b8ff" d="M309.79,-165.3C273.04,-155.37 225.13,-142.43 190.68,-133.13"/>
<polygon fill="#63b8ff" stroke="#63b8ff" points="192.02,-129.86 181.46,-130.64 190.2,-136.62 192.02,-129.86"/>
</a>
</g>
</g>
<!-- Node12 -->
<g id="Node000012" class="node">
<title>Node12</title>
<g id="a_Node000012"><a xlink:href="uwb__rxdiag_8h.html" target="_top" xlink:title="— Read&#45;side accessors for the RX event tallies + log stream.">
<polygon fill="white" stroke="#666666" points="90.12,-129.75 16.37,-129.75 16.37,-110.5 90.12,-110.5 90.12,-129.75"/>
<text xml:space="preserve" text-anchor="middle" x="53.24" y="-116.25" font-family="Helvetica,sans-Serif" font-size="10.00">uwb_rxdiag.h</text>
</a>
</g>
</g>
<!-- Node1&#45;&gt;Node12 -->
<g id="edge16_Node000001_Node000012" class="edge">
<title>Node1&#45;&gt;Node12</title>
<g id="a_edge16_Node000001_Node000012"><a xlink:title=" ">
<path fill="none" stroke="#63b8ff" d="M307.2,-169.2C248.26,-158.04 157.27,-140.82 101.7,-130.3"/>
<polygon fill="#63b8ff" stroke="#63b8ff" points="102.37,-126.86 91.9,-128.44 101.07,-133.74 102.37,-126.86"/>
</a>
</g>
</g>
<!-- Node13 -->
<g id="Node000013" class="node">
<title>Node13</title>
<g id="a_Node000013"><a xlink:href="woz__diag_8h.html" target="_top" xlink:title="— DIAGK(): gate for verbose UWB bring&#45;up diagnostics.">
<polygon fill="white" stroke="#666666" points="862.99,-129.75 797.49,-129.75 797.49,-110.5 862.99,-110.5 862.99,-129.75"/>
<text xml:space="preserve" text-anchor="middle" x="830.24" y="-116.25" font-family="Helvetica,sans-Serif" font-size="10.00">woz_diag.h</text>
</a>
</g>
</g>
<!-- Node1&#45;&gt;Node13 -->
<g id="edge19_Node000001_Node000013" class="edge">
<title>Node1&#45;&gt;Node13</title>
<g id="a_edge19_Node000001_Node000013"><a xlink:title=" ">
<path fill="none" stroke="#63b8ff" d="M421.18,-174.9C500.79,-167.42 650.05,-152.08 786.15,-130.14"/>
<polygon fill="#63b8ff" stroke="#63b8ff" points="786.37,-133.65 795.68,-128.59 785.25,-126.74 786.37,-133.65"/>
</a>
</g>
</g>
<!-- Node15 -->
<g id="Node000015" class="node">
<title>Node15</title>
<g id="a_Node000015"><a xlink:href="woz__alloc_8h_source.html" target="_top" xlink:title=" ">
<polygon fill="white" stroke="#666666" points="355.12,-129.75 287.37,-129.75 287.37,-110.5 355.12,-110.5 355.12,-129.75"/>
<text xml:space="preserve" text-anchor="middle" x="321.24" y="-116.25" font-family="Helvetica,sans-Serif" font-size="10.00">woz_alloc.h</text>
</a>
</g>
</g>
<!-- Node1&#45;&gt;Node15 -->
<g id="edge21_Node000001_Node000015" class="edge">
<title>Node1&#45;&gt;Node15</title>
<g id="a_edge21_Node000001_Node000015"><a xlink:title=" ">
<path fill="none" stroke="#63b8ff" d="M353.61,-165.45C347.89,-157.6 340.76,-147.85 334.65,-139.49"/>
<polygon fill="#63b8ff" stroke="#63b8ff" points="337.49,-137.43 328.76,-131.42 331.84,-141.56 337.49,-137.43"/>
</a>
</g>
</g>
<!-- Node7&#45;&gt;Node2 -->
<g id="edge9_Node000007_Node000002" class="edge">
<title>Node7&#45;&gt;Node2</title>
<g id="a_edge9_Node000007_Node000002"><a xlink:title=" ">
<path fill="none" stroke="#63b8ff" d="M227.36,-110.31C219.26,-101.81 207.47,-88.25 200.24,-74.5 192.98,-60.69 188.1,-43.7 185.1,-30.71"/>
<polygon fill="#63b8ff" stroke="#63b8ff" points="188.59,-30.27 183.1,-21.21 181.74,-31.71 188.59,-30.27"/>
</a>
</g>
</g>
<!-- Node8 -->
<g id="Node000008" class="node">
<title>Node8</title>
<g id="a_Node000008"><a xlink:title=" ">
<polygon fill="#e0e0e0" stroke="#999999" points="115.12,-74.5 59.37,-74.5 59.37,-55.25 115.12,-55.25 115.12,-74.5"/>
<text xml:space="preserve" text-anchor="middle" x="87.24" y="-61" font-family="Helvetica,sans-Serif" font-size="10.00">stdbool.h</text>
</a>
</g>
</g>
<!-- Node7&#45;&gt;Node8 -->
<g id="edge7_Node000007_Node000008" class="edge">
<title>Node7&#45;&gt;Node8</title>
<g id="a_edge7_Node000007_Node000008"><a xlink:title=" ">
<path fill="none" stroke="#63b8ff" d="M210.97,-110.09C186.89,-101.49 150.38,-88.44 123.26,-78.75"/>
<polygon fill="#63b8ff" stroke="#63b8ff" points="124.66,-75.53 114.07,-75.46 122.31,-82.12 124.66,-75.53"/>
</a>
</g>
</g>
<!-- Node9 -->
<g id="Node000009" class="node">
<title>Node9</title>
<g id="a_Node000009"><a xlink:title=" ">
<polygon fill="#e0e0e0" stroke="#999999" points="388.87,-19.25 337.62,-19.25 337.62,0 388.87,0 388.87,-19.25"/>
<text xml:space="preserve" text-anchor="middle" x="363.24" y="-5.75" font-family="Helvetica,sans-Serif" font-size="10.00">stddef.h</text>
</a>
</g>
</g>
<!-- Node7&#45;&gt;Node9 -->
<g id="edge8_Node000007_Node000009" class="edge">
<title>Node7&#45;&gt;Node9</title>
<g id="a_edge8_Node000007_Node000009"><a xlink:title=" ">
<path fill="none" stroke="#63b8ff" d="M246.64,-110.25C267.94,-92.05 316.84,-50.27 344.06,-27.01"/>
<polygon fill="#63b8ff" stroke="#63b8ff" points="346.23,-29.77 351.56,-20.61 341.68,-24.44 346.23,-29.77"/>
</a>
</g>
</g>
<!-- Node10 -->
<g id="Node000010" class="node">
<title>Node10</title>
<g id="a_Node000010"><a xlink:href="ccc__kdf_8h.html" target="_top" xlink:title="UWB ranging key schedule + SP0 frame crypto (CONFIG_WOZ_ALIRO).">
<polygon fill="white" stroke="#666666" points="267.62,-74.5 208.87,-74.5 208.87,-55.25 267.62,-55.25 267.62,-74.5"/>
<text xml:space="preserve" text-anchor="middle" x="238.24" y="-61" font-family="Helvetica,sans-Serif" font-size="10.00">ccc_kdf.h</text>
</a>
</g>
</g>
<!-- Node7&#45;&gt;Node10 -->
<g id="edge10_Node000007_Node000010" class="edge">
<title>Node7&#45;&gt;Node10</title>
<g id="a_edge10_Node000007_Node000010"><a xlink:title=" ">
<path fill="none" stroke="#63b8ff" d="M236.57,-110.33C236.82,-103.74 237.17,-94.46 237.48,-86.07"/>
<polygon fill="#63b8ff" stroke="#63b8ff" points="240.97,-86.5 237.85,-76.37 233.98,-86.23 240.97,-86.5"/>
</a>
</g>
</g>
<!-- Node10&#45;&gt;Node2 -->
<g id="edge12_Node000010_Node000002" class="edge">
<title>Node10&#45;&gt;Node2</title>
<g id="a_edge12_Node000010_Node000002"><a xlink:title=" ">
<path fill="none" stroke="#63b8ff" d="M228.57,-54.84C220.5,-47.3 208.78,-36.35 199.02,-27.23"/>
<polygon fill="#63b8ff" stroke="#63b8ff" points="201.57,-24.83 191.88,-20.56 196.79,-29.94 201.57,-24.83"/>
</a>
</g>
</g>
<!-- Node10&#45;&gt;Node9 -->
<g id="edge11_Node000010_Node000009" class="edge">
<title>Node10&#45;&gt;Node9</title>
<g id="a_edge11_Node000010_Node000009"><a xlink:title=" ">
<path fill="none" stroke="#63b8ff" d="M259.45,-54.84C279.2,-46.43 308.92,-33.77 331.5,-24.15"/>
<polygon fill="#63b8ff" stroke="#63b8ff" points="332.71,-27.43 340.54,-20.3 329.97,-20.99 332.71,-27.43"/>
</a>
</g>
</g>
<!-- Node11&#45;&gt;Node2 -->
<g id="edge15_Node000011_Node000002" class="edge">
<title>Node11&#45;&gt;Node2</title>
<g id="a_edge15_Node000011_Node000002"><a xlink:title=" ">
<path fill="none" stroke="#63b8ff" d="M149.11,-110.25C154.7,-92.92 167.18,-54.23 174.84,-30.49"/>
<polygon fill="#63b8ff" stroke="#63b8ff" points="178.14,-31.66 177.87,-21.07 171.47,-29.51 178.14,-31.66"/>
</a>
</g>
</g>
<!-- Node11&#45;&gt;Node8 -->
<g id="edge14_Node000011_Node000008" class="edge">
<title>Node11&#45;&gt;Node8</title>
<g id="a_edge14_Node000011_Node000008"><a xlink:title=" ">
<path fill="none" stroke="#63b8ff" d="M136.23,-110.09C127.88,-102.55 115.74,-91.6 105.64,-82.48"/>
<polygon fill="#63b8ff" stroke="#63b8ff" points="108,-79.89 98.23,-75.79 103.31,-85.09 108,-79.89"/>
</a>
</g>
</g>
<!-- Node12&#45;&gt;Node2 -->
<g id="edge18_Node000012_Node000002" class="edge">
<title>Node12&#45;&gt;Node2</title>
<g id="a_edge18_Node000012_Node000002"><a xlink:title=" ">
<path fill="none" stroke="#63b8ff" d="M49.69,-110.32C44.96,-97.03 38.48,-71.68 50.24,-55.25 71.76,-25.19 114.72,-15.15 145.59,-11.91"/>
<polygon fill="#63b8ff" stroke="#63b8ff" points="145.57,-15.43 155.25,-11.11 144.99,-8.45 145.57,-15.43"/>
</a>
</g>
</g>
<!-- Node12&#45;&gt;Node8 -->
<g id="edge17_Node000012_Node000008" class="edge">
<title>Node12&#45;&gt;Node8</title>
<g id="a_edge17_Node000012_Node000008"><a xlink:title=" ">
<path fill="none" stroke="#63b8ff" d="M58.86,-110.33C63.36,-103.28 69.83,-93.15 75.46,-84.33"/>
<polygon fill="#63b8ff" stroke="#63b8ff" points="78.26,-86.45 80.69,-76.13 72.36,-82.68 78.26,-86.45"/>
</a>
</g>
</g>
<!-- Node14 -->
<g id="Node000014" class="node">
<title>Node14</title>
<g id="a_Node000014"><a xlink:href="woz__log_8h_source.html" target="_top" xlink:title=" ">
<polygon fill="white" stroke="#666666" points="860.37,-74.5 800.12,-74.5 800.12,-55.25 860.37,-55.25 860.37,-74.5"/>
<text xml:space="preserve" text-anchor="middle" x="830.24" y="-61" font-family="Helvetica,sans-Serif" font-size="10.00">woz_log.h</text>
</a>
</g>
</g>
<!-- Node13&#45;&gt;Node14 -->
<g id="edge20_Node000013_Node000014" class="edge">
<title>Node13&#45;&gt;Node14</title>
<g id="a_edge20_Node000013_Node000014"><a xlink:title=" ">
<path fill="none" stroke="#63b8ff" d="M830.24,-110.33C830.24,-103.82 830.24,-94.67 830.24,-86.37"/>
<polygon fill="#63b8ff" stroke="#63b8ff" points="833.74,-86.37 830.24,-76.37 826.74,-86.37 833.74,-86.37"/>
</a>
</g>
</g>
<!-- Node15&#45;&gt;Node2 -->
<g id="edge23_Node000015_Node000002" class="edge">
<title>Node15&#45;&gt;Node2</title>
<g id="a_edge23_Node000015_Node000002"><a xlink:title=" ">
<path fill="none" stroke="#63b8ff" d="M316.88,-110.18C309.92,-96.71 295.16,-71.12 276.24,-55.25 258.74,-40.56 235.59,-29.56 216.53,-22.15"/>
<polygon fill="#63b8ff" stroke="#63b8ff" points="217.86,-18.91 207.27,-18.73 215.43,-25.48 217.86,-18.91"/>
</a>
</g>
</g>
<!-- Node15&#45;&gt;Node9 -->
<g id="edge22_Node000015_Node000009" class="edge">
<title>Node15&#45;&gt;Node9</title>
<g id="a_edge22_Node000015_Node000009"><a xlink:title=" ">
<path fill="none" stroke="#63b8ff" d="M355.55,-110.16C385.31,-101.61 425.02,-88.06 434.24,-74.5 448.03,-54.23 422.2,-36.06 397.92,-24.33"/>
<polygon fill="#63b8ff" stroke="#63b8ff" points="399.66,-21.28 389.11,-20.34 396.77,-27.66 399.66,-21.28"/>
</a>
</g>
</g>
<!-- Node16 -->
<g id="Node000016" class="node">
<title>Node16</title>
<g id="a_Node000016"><a xlink:href="woz__port_8h_source.html" target="_top" xlink:title=" ">
<polygon fill="white" stroke="#666666" points="425.24,-74.5 361.24,-74.5 361.24,-55.25 425.24,-55.25 425.24,-74.5"/>
<text xml:space="preserve" text-anchor="middle" x="393.24" y="-61" font-family="Helvetica,sans-Serif" font-size="10.00">woz_port.h</text>
</a>
</g>
</g>
<!-- Node15&#45;&gt;Node16 -->
<g id="edge24_Node000015_Node000016" class="edge">
<title>Node15&#45;&gt;Node16</title>
<g id="a_edge24_Node000015_Node000016"><a xlink:title=" ">
<path fill="none" stroke="#63b8ff" d="M333.46,-110.09C344.07,-102.24 359.68,-90.7 372.29,-81.37"/>
<polygon fill="#63b8ff" stroke="#63b8ff" points="374.03,-84.44 379.99,-75.67 369.87,-78.81 374.03,-84.44"/>
</a>
</g>
</g>
<!-- Node16&#45;&gt;Node2 -->
<g id="edge26_Node000016_Node000002" class="edge">
<title>Node16&#45;&gt;Node2</title>
<g id="a_edge26_Node000016_Node000002"><a xlink:title=" ">
<path fill="none" stroke="#63b8ff" d="M361.04,-55.79C322.25,-46.04 257.27,-29.72 216.96,-19.6"/>
<polygon fill="#63b8ff" stroke="#63b8ff" points="217.81,-16.2 207.26,-17.16 216.11,-22.99 217.81,-16.2"/>
</a>
</g>
</g>
<!-- Node16&#45;&gt;Node9 -->
<g id="edge25_Node000016_Node000009" class="edge">
<title>Node16&#45;&gt;Node9</title>
<g id="a_edge25_Node000016_Node000009"><a xlink:title=" ">
<path fill="none" stroke="#63b8ff" d="M388.29,-55.08C384.36,-48.11 378.73,-38.12 373.8,-29.37"/>
<polygon fill="#63b8ff" stroke="#63b8ff" points="377.01,-27.92 369.05,-20.93 370.91,-31.36 377.01,-27.92"/>
</a>
</g>
</g>
</g>
</svg>
