<?xml version="1.0" encoding="UTF-8" standalone="no"?>
<!DOCTYPE svg PUBLIC "-//W3C//DTD SVG 1.1//EN"
 "http://www.w3.org/Graphics/SVG/1.1/DTD/svg11.dtd">
<!-- Generated by graphviz version 15.0.0 (20260523.1842)
 -->
<!-- Title: modules/woz_uwb/src/driver/uwb_min.c Pages: 1 -->
<svg width="799pt" height="149pt"
 viewBox="0.00 0.00 799.00 149.00" xmlns="http://www.w3.org/2000/svg" xmlns:xlink="http://www.w3.org/1999/xlink">
<g id="graph0" class="graph" transform="scale(1 1) rotate(0) translate(4 145)">
<title>modules/woz_uwb/src/driver/uwb_min.c</title>
<!-- Node1 -->
<g id="Node000001" class="node">
<title>Node1</title>
<g id="a_Node000001"><a xlink:title="— DW3110 bring&#45;up driver (implementation).">
<polygon fill="#999999" stroke="#666666" points="380.38,-141 266.88,-141 266.88,-110.5 380.38,-110.5 380.38,-141"/>
<text xml:space="preserve" text-anchor="start" x="274.88" y="-127.5" font-family="Helvetica,sans-Serif" font-size="10.00">modules/woz_uwb/src</text>
<text xml:space="preserve" text-anchor="middle" x="323.62" y="-116.25" font-family="Helvetica,sans-Serif" font-size="10.00">/driver/uwb_min.c</text>
</a>
</g>
</g>
<!-- Node2 -->
<g id="Node000002" class="node">
<title>Node2</title>
<g id="a_Node000002"><a xlink:href="uwb__min_8h.html" target="_top" xlink:title="— Minimal DW3110 (DWM3000EVB) hardware bring&#45;up driver.">
<polygon fill="white" stroke="#666666" points="63.25,-74.5 0,-74.5 0,-55.25 63.25,-55.25 63.25,-74.5"/>
<text xml:space="preserve" text-anchor="middle" x="31.62" y="-61" font-family="Helvetica,sans-Serif" font-size="10.00">uwb_min.h</text>
</a>
</g>
</g>
<!-- Node1&#45;&gt;Node2 -->
<g id="edge1_Node000001_Node000002" class="edge">
<title>Node1&#45;&gt;Node2</title>
<g id="a_edge1_Node000001_Node000002"><a xlink:title=" ">
<path fill="none" stroke="#63b8ff" d="M266.77,-113.53C218.36,-103.94 146.65,-89.65 74.51,-74.87"/>
<polygon fill="#63b8ff" stroke="#63b8ff" points="75.38,-71.48 64.89,-72.9 73.98,-78.33 75.38,-71.48"/>
</a>
</g>
</g>
<!-- Node5 -->
<g id="Node000005" class="node">
<title>Node5</title>
<g id="a_Node000005"><a xlink:title=" ">
<polygon fill="#e0e0e0" stroke="#999999" points="127.62,-74.5 81.62,-74.5 81.62,-55.25 127.62,-55.25 127.62,-74.5"/>
<text xml:space="preserve" text-anchor="middle" x="104.62" y="-61" font-family="Helvetica,sans-Serif" font-size="10.00">errno.h</text>
</a>
</g>
</g>
<!-- Node1&#45;&gt;Node5 -->
<g id="edge4_Node000001_Node000005" class="edge">
<title>Node1&#45;&gt;Node5</title>
<g id="a_edge4_Node000001_Node000005"><a xlink:title=" ">
<path fill="none" stroke="#63b8ff" d="M268.8,-110.03C234.07,-100.7 187.93,-88.3 138.88,-75.11"/>
<polygon fill="#63b8ff" stroke="#63b8ff" points="140.07,-71.8 129.5,-72.58 138.25,-78.56 140.07,-71.8"/>
</a>
</g>
</g>
<!-- Node6 -->
<g id="Node000006" class="node">
<title>Node6</title>
<g id="a_Node000006"><a xlink:title=" ">
<polygon fill="#e0e0e0" stroke="#999999" points="193.75,-74.5 145.5,-74.5 145.5,-55.25 193.75,-55.25 193.75,-74.5"/>
<text xml:space="preserve" text-anchor="middle" x="169.62" y="-61" font-family="Helvetica,sans-Serif" font-size="10.00">string.h</text>
</a>
</g>
</g>
<!-- Node1&#45;&gt;Node6 -->
<g id="edge5_Node000001_Node000006" class="edge">
<title>Node1&#45;&gt;Node6</title>
<g id="a_edge5_Node000001_Node000006"><a xlink:title=" ">
<path fill="none" stroke="#63b8ff" d="M285.16,-110.05C260.13,-100.48 227.78,-88.11 203.68,-78.89"/>
<polygon fill="#63b8ff" stroke="#63b8ff" points="205.25,-75.75 194.66,-75.44 202.75,-82.28 205.25,-75.75"/>
</a>
</g>
</g>
<!-- Node7 -->
<g id="Node000007" class="node">
<title>Node7</title>
<g id="a_Node000007"><a xlink:href="woz__port_8h_source.html" target="_top" xlink:title=" ">
<polygon fill="white" stroke="#666666" points="275.62,-74.5 211.62,-74.5 211.62,-55.25 275.62,-55.25 275.62,-74.5"/>
<text xml:space="preserve" text-anchor="middle" x="243.62" y="-61" font-family="Helvetica,sans-Serif" font-size="10.00">woz_port.h</text>
</a>
</g>
</g>
<!-- Node1&#45;&gt;Node7 -->
<g id="edge6_Node000001_Node000007" class="edge">
<title>Node1&#45;&gt;Node7</title>
<g id="a_edge6_Node000001_Node000007"><a xlink:title=" ">
<path fill="none" stroke="#63b8ff" d="M303.85,-110.2C292.02,-101.49 276.99,-90.43 264.9,-81.53"/>
<polygon fill="#63b8ff" stroke="#63b8ff" points="267.31,-78.96 257.18,-75.85 263.16,-84.59 267.31,-78.96"/>
</a>
</g>
</g>
<!-- Node9 -->
<g id="Node000009" class="node">
<title>Node9</title>
<g id="a_Node000009"><a xlink:href="woz__log_8h_source.html" target="_top" xlink:title=" ">
<polygon fill="white" stroke="#666666" points="353.75,-74.5 293.5,-74.5 293.5,-55.25 353.75,-55.25 353.75,-74.5"/>
<text xml:space="preserve" text-anchor="middle" x="323.62" y="-61" font-family="Helvetica,sans-Serif" font-size="10.00">woz_log.h</text>
</a>
</g>
</g>
<!-- Node1&#45;&gt;Node9 -->
<g id="edge9_Node000001_Node000009" class="edge">
<title>Node1&#45;&gt;Node9</title>
<g id="a_edge9_Node000001_Node000009"><a xlink:title=" ">
<path fill="none" stroke="#63b8ff" d="M323.62,-110.2C323.62,-102.96 323.62,-94.09 323.62,-86.19"/>
<polygon fill="#63b8ff" stroke="#63b8ff" points="327.13,-86.46 323.63,-76.46 320.13,-86.46 327.13,-86.46"/>
</a>
</g>
</g>
<!-- Node10 -->
<g id="Node000010" class="node">
<title>Node10</title>
<g id="a_Node000010"><a xlink:title=" ">
<polygon fill="#e0e0e0" stroke="#999999" points="469.12,-74.5 372.12,-74.5 372.12,-55.25 469.12,-55.25 469.12,-74.5"/>
<text xml:space="preserve" text-anchor="middle" x="420.62" y="-61" font-family="Helvetica,sans-Serif" font-size="10.00">deca_device_api.h</text>
</a>
</g>
</g>
<!-- Node1&#45;&gt;Node10 -->
<g id="edge10_Node000001_Node000010" class="edge">
<title>Node1&#45;&gt;Node10</title>
<g id="a_edge10_Node000001_Node000010"><a xlink:title=" ">
<path fill="none" stroke="#63b8ff" d="M347.6,-110.2C362.37,-101.23 381.26,-89.77 396.12,-80.75"/>
<polygon fill="#63b8ff" stroke="#63b8ff" points="397.64,-83.92 404.38,-75.74 394.01,-77.93 397.64,-83.92"/>
</a>
</g>
</g>
<!-- Node11 -->
<g id="Node000011" class="node">
<title>Node11</title>
<g id="a_Node000011"><a xlink:title=" ">
<polygon fill="#e0e0e0" stroke="#999999" points="604.25,-74.5 487,-74.5 487,-55.25 604.25,-55.25 604.25,-74.5"/>
<text xml:space="preserve" text-anchor="middle" x="545.62" y="-61" font-family="Helvetica,sans-Serif" font-size="10.00">deca_probe_interface.h</text>
</a>
</g>
</g>
<!-- Node1&#45;&gt;Node11 -->
<g id="edge11_Node000001_Node000011" class="edge">
<title>Node1&#45;&gt;Node11</title>
<g id="a_edge11_Node000001_Node000011"><a xlink:title=" ">
<path fill="none" stroke="#63b8ff" d="M379.07,-110.05C416.5,-100.12 465.29,-87.18 500.37,-77.88"/>
<polygon fill="#63b8ff" stroke="#63b8ff" points="501.02,-81.33 509.79,-75.38 499.23,-74.56 501.02,-81.33"/>
</a>
</g>
</g>
<!-- Node12 -->
<g id="Node000012" class="node">
<title>Node12</title>
<g id="a_Node000012"><a xlink:title=" ">
<polygon fill="#e0e0e0" stroke="#999999" points="696.88,-74.5 622.38,-74.5 622.38,-55.25 696.88,-55.25 696.88,-74.5"/>
<text xml:space="preserve" text-anchor="middle" x="659.62" y="-61" font-family="Helvetica,sans-Serif" font-size="10.00">dw3000_hw.h</text>
</a>
</g>
</g>
<!-- Node1&#45;&gt;Node12 -->
<g id="edge12_Node000001_Node000012" class="edge">
<title>Node1&#45;&gt;Node12</title>
<g id="a_edge12_Node000001_Node000012"><a xlink:title=" ">
<path fill="none" stroke="#63b8ff" d="M380.62,-115.11C436.67,-105.58 524.99,-90.42 610.72,-75.01"/>
<polygon fill="#63b8ff" stroke="#63b8ff" points="611.27,-78.46 620.49,-73.25 610.03,-71.57 611.27,-78.46"/>
</a>
</g>
</g>
<!-- Node13 -->
<g id="Node000013" class="node">
<title>Node13</title>
<g id="a_Node000013"><a xlink:title=" ">
<polygon fill="#e0e0e0" stroke="#999999" points="790.62,-74.5 714.62,-74.5 714.62,-55.25 790.62,-55.25 790.62,-74.5"/>
<text xml:space="preserve" text-anchor="middle" x="752.62" y="-61" font-family="Helvetica,sans-Serif" font-size="10.00">dw3000_spi.h</text>
</a>
</g>
</g>
<!-- Node1&#45;&gt;Node13 -->
<g id="edge13_Node000001_Node000013" class="edge">
<title>Node1&#45;&gt;Node13</title>
<g id="a_edge13_Node000001_Node000013"><a xlink:title=" ">
<path fill="none" stroke="#63b8ff" d="M380.71,-118.16C453.23,-109.58 582.52,-93.6 702.93,-74.86"/>
<polygon fill="#63b8ff" stroke="#63b8ff" points="703.35,-78.34 712.68,-73.33 702.26,-71.42 703.35,-78.34"/>
</a>
</g>
</g>
<!-- Node3 -->
<g id="Node000003" class="node">
<title>Node3</title>
<g id="a_Node000003"><a xlink:title=" ">
<polygon fill="#e0e0e0" stroke="#999999" points="59.5,-19.25 3.75,-19.25 3.75,0 59.5,0 59.5,-19.25"/>
<text xml:space="preserve" text-anchor="middle" x="31.62" y="-5.75" font-family="Helvetica,sans-Serif" font-size="10.00">stdbool.h</text>
</a>
</g>
</g>
<!-- Node2&#45;&gt;Node3 -->
<g id="edge2_Node000002_Node000003" class="edge">
<title>Node2&#45;&gt;Node3</title>
<g id="a_edge2_Node000002_Node000003"><a xlink:title=" ">
<path fill="none" stroke="#63b8ff" d="M31.62,-55.08C31.62,-48.57 31.62,-39.42 31.62,-31.12"/>
<polygon fill="#63b8ff" stroke="#63b8ff" points="35.13,-31.12 31.63,-21.12 28.13,-31.12 35.13,-31.12"/>
</a>
</g>
</g>
<!-- Node4 -->
<g id="Node000004" class="node">
<title>Node4</title>
<g id="a_Node000004"><a xlink:title=" ">
<polygon fill="#e0e0e0" stroke="#999999" points="162.75,-19.25 114.5,-19.25 114.5,0 162.75,0 162.75,-19.25"/>
<text xml:space="preserve" text-anchor="middle" x="138.62" y="-5.75" font-family="Helvetica,sans-Serif" font-size="10.00">stdint.h</text>
</a>
</g>
</g>
<!-- Node2&#45;&gt;Node4 -->
<g id="edge3_Node000002_Node000004" class="edge">
<title>Node2&#45;&gt;Node4</title>
<g id="a_edge3_Node000002_Node000004"><a xlink:title=" ">
<path fill="none" stroke="#63b8ff" d="M49.78,-54.84C66.3,-46.62 90.97,-34.34 110.12,-24.81"/>
<polygon fill="#63b8ff" stroke="#63b8ff" points="111.64,-27.97 119.03,-20.38 108.52,-21.7 111.64,-27.97"/>
</a>
</g>
</g>
<!-- Node7&#45;&gt;Node4 -->
<g id="edge8_Node000007_Node000004" class="edge">
<title>Node7&#45;&gt;Node4</title>
<g id="a_edge8_Node000007_Node000004"><a xlink:title=" ">
<path fill="none" stroke="#63b8ff" d="M225.81,-54.84C209.6,-46.62 185.39,-34.34 166.59,-24.81"/>
<polygon fill="#63b8ff" stroke="#63b8ff" points="168.38,-21.79 157.87,-20.39 165.21,-28.03 168.38,-21.79"/>
</a>
</g>
</g>
<!-- Node8 -->
<g id="Node000008" class="node">
<title>Node8</title>
<g id="a_Node000008"><a xlink:title=" ">
<polygon fill="#e0e0e0" stroke="#999999" points="269.25,-19.25 218,-19.25 218,0 269.25,0 269.25,-19.25"/>
<text xml:space="preserve" text-anchor="middle" x="243.62" y="-5.75" font-family="Helvetica,sans-Serif" font-size="10.00">stddef.h</text>
</a>
</g>
</g>
<!-- Node7&#45;&gt;Node8 -->
<g id="edge7_Node000007_Node000008" class="edge">
<title>Node7&#45;&gt;Node8</title>
<g id="a_edge7_Node000007_Node000008"><a xlink:title=" ">
<path fill="none" stroke="#63b8ff" d="M243.62,-55.08C243.62,-48.57 243.62,-39.42 243.62,-31.12"/>
<polygon fill="#63b8ff" stroke="#63b8ff" points="247.13,-31.12 243.63,-21.12 240.13,-31.12 247.13,-31.12"/>
</a>
</g>
</g>
</g>
</svg>
