<?xml version="1.0" encoding="UTF-8" standalone="no"?>
<!DOCTYPE svg PUBLIC "-//W3C//DTD SVG 1.1//EN"
 "http://www.w3.org/Graphics/SVG/1.1/DTD/svg11.dtd">
<!-- Generated by graphviz version 15.0.0 (20260523.1842)
 -->
<!-- Title: modules/woz_uwb/src/facade/woz_logquiet.c Pages: 1 -->
<svg width="311pt" height="105pt"
 viewBox="0.00 0.00 311.00 105.00" xmlns="http://www.w3.org/2000/svg" xmlns:xlink="http://www.w3.org/1999/xlink">
<g id="graph0" class="graph" transform="scale(1 1) rotate(0) translate(4 101)">
<title>modules/woz_uwb/src/facade/woz_logquiet.c</title>
<!-- Node1 -->
<g id="Node000001" class="node">
<title>Node1</title>
<g id="a_Node000001"><a xlink:title="— PRETTY&#45;gated runtime muting of benign upstream error spam.">
<polygon fill="#999999" stroke="#666666" points="196.88,-97 80.38,-97 80.38,-66.5 196.88,-66.5 196.88,-97"/>
<text xml:space="preserve" text-anchor="start" x="88.38" y="-83.5" font-family="Helvetica,sans-Serif" font-size="10.00">modules/woz_uwb/src</text>
<text xml:space="preserve" text-anchor="middle" x="138.62" y="-72.25" font-family="Helvetica,sans-Serif" font-size="10.00">/facade/woz_logquiet.c</text>
</a>
</g>
</g>
<!-- Node2 -->
<g id="Node000002" class="node">
<title>Node2</title>
<g id="a_Node000002"><a xlink:title=" ">
<polygon fill="#e0e0e0" stroke="#999999" points="69.25,-24.88 0,-24.88 0,-5.63 69.25,-5.63 69.25,-24.88"/>
<text xml:space="preserve" text-anchor="middle" x="34.62" y="-11.38" font-family="Helvetica,sans-Serif" font-size="10.00">zephyr/init.h</text>
</a>
</g>
</g>
<!-- Node1&#45;&gt;Node2 -->
<g id="edge1_Node000001_Node000002" class="edge">
<title>Node1&#45;&gt;Node2</title>
<g id="a_edge1_Node000001_Node000002"><a xlink:title=" ">
<path fill="none" stroke="#63b8ff" d="M115.03,-66.11C98.25,-55.71 75.79,-41.78 58.87,-31.29"/>
<polygon fill="#63b8ff" stroke="#63b8ff" points="60.78,-28.35 50.44,-26.06 57.09,-34.3 60.78,-28.35"/>
</a>
</g>
</g>
<!-- Node3 -->
<g id="Node000003" class="node">
<title>Node3</title>
<g id="a_Node000003"><a xlink:title=" ">
<polygon fill="#e0e0e0" stroke="#999999" points="190.12,-24.88 87.12,-24.88 87.12,-5.63 190.12,-5.63 190.12,-24.88"/>
<text xml:space="preserve" text-anchor="middle" x="138.62" y="-11.38" font-family="Helvetica,sans-Serif" font-size="10.00">zephyr/logging/log.h</text>
</a>
</g>
</g>
<!-- Node1&#45;&gt;Node3 -->
<g id="edge2_Node000001_Node000003" class="edge">
<title>Node1&#45;&gt;Node3</title>
<g id="a_edge2_Node000001_Node000003"><a xlink:title=" ">
<path fill="none" stroke="#63b8ff" d="M138.62,-66.11C138.62,-57.33 138.62,-46.02 138.62,-36.4"/>
<polygon fill="#63b8ff" stroke="#63b8ff" points="142.13,-36.59 138.63,-26.59 135.13,-36.59 142.13,-36.59"/>
</a>
</g>
</g>
<!-- Node4 -->
<g id="Node000004" class="node">
<title>Node4</title>
<g id="a_Node000004"><a xlink:title=" ">
<polygon fill="#e0e0e0" stroke="#999999" points="303,-30.5 208.25,-30.5 208.25,0 303,0 303,-30.5"/>
<text xml:space="preserve" text-anchor="start" x="216.25" y="-17" font-family="Helvetica,sans-Serif" font-size="10.00">zephyr/logging/log</text>
<text xml:space="preserve" text-anchor="middle" x="255.62" y="-5.75" font-family="Helvetica,sans-Serif" font-size="10.00">_ctrl.h</text>
</a>
</g>
</g>
<!-- Node1&#45;&gt;Node4 -->
<g id="edge3_Node000001_Node000004" class="edge">
<title>Node1&#45;&gt;Node4</title>
<g id="a_edge3_Node000001_Node000004"><a xlink:title=" ">
<path fill="none" stroke="#63b8ff" d="M165.17,-66.11C181.18,-57.29 201.79,-45.93 219.29,-36.28"/>
<polygon fill="#63b8ff" stroke="#63b8ff" points="220.79,-39.45 227.86,-31.56 217.41,-33.32 220.79,-39.45"/>
</a>
</g>
</g>
</g>
</svg>
