<?xml version="1.0" encoding="UTF-8" standalone="no"?>
<!DOCTYPE svg PUBLIC "-//W3C//DTD SVG 1.1//EN"
 "http://www.w3.org/Graphics/SVG/1.1/DTD/svg11.dtd">
<!-- Generated by graphviz version 15.0.0 (20260523.1842)
 -->
<!-- Title: modules/woz_uwb/src/facade/woz_logfmt.c Pages: 1 -->
<svg width="1217pt" height="105pt"
 viewBox="0.00 0.00 1217.00 105.00" xmlns="http://www.w3.org/2000/svg" xmlns:xlink="http://www.w3.org/1999/xlink">
<g id="graph0" class="graph" transform="scale(1 1) rotate(0) translate(4 101)">
<title>modules/woz_uwb/src/facade/woz_logfmt.c</title>
<!-- Node1 -->
<g id="Node000001" class="node">
<title>Node1</title>
<g id="a_Node000001"><a xlink:title="— PRETTY&#45;gated high&#45;res timestamp + compact colored log line.">
<polygon fill="#999999" stroke="#666666" points="614.88,-97 501.38,-97 501.38,-66.5 614.88,-66.5 614.88,-97"/>
<text xml:space="preserve" text-anchor="start" x="509.38" y="-83.5" font-family="Helvetica,sans-Serif" font-size="10.00">modules/woz_uwb/src</text>
<text xml:space="preserve" text-anchor="middle" x="558.12" y="-72.25" font-family="Helvetica,sans-Serif" font-size="10.00">/facade/woz_logfmt.c</text>
</a>
</g>
</g>
<!-- Node2 -->
<g id="Node000002" class="node">
<title>Node2</title>
<g id="a_Node000002"><a xlink:title=" ">
<polygon fill="#e0e0e0" stroke="#999999" points="48.25,-24.88 0,-24.88 0,-5.63 48.25,-5.63 48.25,-24.88"/>
<text xml:space="preserve" text-anchor="middle" x="24.12" y="-11.38" font-family="Helvetica,sans-Serif" font-size="10.00">stdint.h</text>
</a>
</g>
</g>
<!-- Node1&#45;&gt;Node2 -->
<g id="edge1_Node000001_Node000002" class="edge">
<title>Node1&#45;&gt;Node2</title>
<g id="a_edge1_Node000001_Node000002"><a xlink:title=" ">
<path fill="none" stroke="#63b8ff" d="M501.16,-80.68C407.15,-79.33 214.3,-71.27 57.12,-30.5 55.73,-30.14 54.32,-29.73 52.91,-29.28"/>
<polygon fill="#63b8ff" stroke="#63b8ff" points="54.28,-26.05 43.69,-25.8 51.81,-32.6 54.28,-26.05"/>
</a>
</g>
</g>
<!-- Node3 -->
<g id="Node000003" class="node">
<title>Node3</title>
<g id="a_Node000003"><a xlink:title=" ">
<polygon fill="#e0e0e0" stroke="#999999" points="117.75,-24.88 66.5,-24.88 66.5,-5.63 117.75,-5.63 117.75,-24.88"/>
<text xml:space="preserve" text-anchor="middle" x="92.12" y="-11.38" font-family="Helvetica,sans-Serif" font-size="10.00">stddef.h</text>
</a>
</g>
</g>
<!-- Node1&#45;&gt;Node3 -->
<g id="edge2_Node000001_Node000003" class="edge">
<title>Node1&#45;&gt;Node3</title>
<g id="a_edge2_Node000001_Node000003"><a xlink:title=" ">
<path fill="none" stroke="#63b8ff" d="M500.92,-79.19C417.31,-75.77 257.41,-64.91 126.12,-30.5 124.73,-30.13 123.32,-29.72 121.91,-29.28"/>
<polygon fill="#63b8ff" stroke="#63b8ff" points="123.23,-26.04 112.64,-25.88 120.82,-32.61 123.23,-26.04"/>
</a>
</g>
</g>
<!-- Node4 -->
<g id="Node000004" class="node">
<title>Node4</title>
<g id="a_Node000004"><a xlink:title=" ">
<polygon fill="#e0e0e0" stroke="#999999" points="204.75,-24.88 135.5,-24.88 135.5,-5.63 204.75,-5.63 204.75,-24.88"/>
<text xml:space="preserve" text-anchor="middle" x="170.12" y="-11.38" font-family="Helvetica,sans-Serif" font-size="10.00">zephyr/init.h</text>
</a>
</g>
</g>
<!-- Node1&#45;&gt;Node4 -->
<g id="edge3_Node000001_Node000004" class="edge">
<title>Node1&#45;&gt;Node4</title>
<g id="a_edge3_Node000001_Node000004"><a xlink:title=" ">
<path fill="none" stroke="#63b8ff" d="M500.97,-75.37C432.26,-68.23 313.75,-53.74 214.12,-30.5 211.55,-29.9 208.91,-29.22 206.27,-28.49"/>
<polygon fill="#63b8ff" stroke="#63b8ff" points="207.55,-25.22 196.96,-25.71 205.54,-31.92 207.55,-25.22"/>
</a>
</g>
</g>
<!-- Node5 -->
<g id="Node000005" class="node">
<title>Node5</title>
<g id="a_Node000005"><a xlink:title=" ">
<polygon fill="#e0e0e0" stroke="#999999" points="305.5,-24.88 222.75,-24.88 222.75,-5.63 305.5,-5.63 305.5,-24.88"/>
<text xml:space="preserve" text-anchor="middle" x="264.12" y="-11.38" font-family="Helvetica,sans-Serif" font-size="10.00">zephyr/kernel.h</text>
</a>
</g>
</g>
<!-- Node1&#45;&gt;Node5 -->
<g id="edge4_Node000001_Node000005" class="edge">
<title>Node1&#45;&gt;Node5</title>
<g id="a_edge4_Node000001_Node000005"><a xlink:title=" ">
<path fill="none" stroke="#63b8ff" d="M501.16,-70.26C451.54,-60.83 377.77,-46.1 314.12,-30.5 311.36,-29.82 308.52,-29.1 305.67,-28.34"/>
<polygon fill="#63b8ff" stroke="#63b8ff" points="306.73,-25.01 296.16,-25.75 304.89,-31.76 306.73,-25.01"/>
</a>
</g>
</g>
<!-- Node6 -->
<g id="Node000006" class="node">
<title>Node6</title>
<g id="a_Node000006"><a xlink:title=" ">
<polygon fill="#e0e0e0" stroke="#999999" points="430.88,-24.88 323.38,-24.88 323.38,-5.63 430.88,-5.63 430.88,-24.88"/>
<text xml:space="preserve" text-anchor="middle" x="377.12" y="-11.38" font-family="Helvetica,sans-Serif" font-size="10.00">zephyr/sys/cbprintf.h</text>
</a>
</g>
</g>
<!-- Node1&#45;&gt;Node6 -->
<g id="edge5_Node000001_Node000006" class="edge">
<title>Node1&#45;&gt;Node6</title>
<g id="a_edge5_Node000001_Node000006"><a xlink:title=" ">
<path fill="none" stroke="#63b8ff" d="M517.05,-66.11C485.89,-55.01 443.43,-39.88 413.49,-29.21"/>
<polygon fill="#63b8ff" stroke="#63b8ff" points="414.69,-25.92 404.1,-25.86 412.34,-32.52 414.69,-25.92"/>
</a>
</g>
</g>
<!-- Node7 -->
<g id="Node000007" class="node">
<title>Node7</title>
<g id="a_Node000007"><a xlink:title=" ">
<polygon fill="#e0e0e0" stroke="#999999" points="551.62,-24.88 448.62,-24.88 448.62,-5.63 551.62,-5.63 551.62,-24.88"/>
<text xml:space="preserve" text-anchor="middle" x="500.12" y="-11.38" font-family="Helvetica,sans-Serif" font-size="10.00">zephyr/logging/log.h</text>
</a>
</g>
</g>
<!-- Node1&#45;&gt;Node7 -->
<g id="edge6_Node000001_Node000007" class="edge">
<title>Node1&#45;&gt;Node7</title>
<g id="a_edge6_Node000001_Node000007"><a xlink:title=" ">
<path fill="none" stroke="#63b8ff" d="M544.96,-66.11C536.26,-56.44 524.82,-43.71 515.67,-33.54"/>
<polygon fill="#63b8ff" stroke="#63b8ff" points="518.36,-31.29 509.07,-26.2 513.15,-35.97 518.36,-31.29"/>
</a>
</g>
</g>
<!-- Node8 -->
<g id="Node000008" class="node">
<title>Node8</title>
<g id="a_Node000008"><a xlink:title=" ">
<polygon fill="#e0e0e0" stroke="#999999" points="664.5,-30.5 569.75,-30.5 569.75,0 664.5,0 664.5,-30.5"/>
<text xml:space="preserve" text-anchor="start" x="577.75" y="-17" font-family="Helvetica,sans-Serif" font-size="10.00">zephyr/logging/log</text>
<text xml:space="preserve" text-anchor="middle" x="617.12" y="-5.75" font-family="Helvetica,sans-Serif" font-size="10.00">_backend.h</text>
</a>
</g>
</g>
<!-- Node1&#45;&gt;Node8 -->
<g id="edge7_Node000001_Node000008" class="edge">
<title>Node1&#45;&gt;Node8</title>
<g id="a_edge7_Node000001_Node000008"><a xlink:title=" ">
<path fill="none" stroke="#63b8ff" d="M571.51,-66.11C578.75,-58.2 587.87,-48.24 596.04,-39.3"/>
<polygon fill="#63b8ff" stroke="#63b8ff" points="598.6,-41.69 602.77,-31.94 593.44,-36.96 598.6,-41.69"/>
</a>
</g>
</g>
<!-- Node9 -->
<g id="Node000009" class="node">
<title>Node9</title>
<g id="a_Node000009"><a xlink:title=" ">
<polygon fill="#e0e0e0" stroke="#999999" points="777.5,-30.5 682.75,-30.5 682.75,0 777.5,0 777.5,-30.5"/>
<text xml:space="preserve" text-anchor="start" x="690.75" y="-17" font-family="Helvetica,sans-Serif" font-size="10.00">zephyr/logging/log</text>
<text xml:space="preserve" text-anchor="middle" x="730.12" y="-5.75" font-family="Helvetica,sans-Serif" font-size="10.00">_ctrl.h</text>
</a>
</g>
</g>
<!-- Node1&#45;&gt;Node9 -->
<g id="edge8_Node000001_Node000009" class="edge">
<title>Node1&#45;&gt;Node9</title>
<g id="a_edge8_Node000001_Node000009"><a xlink:title=" ">
<path fill="none" stroke="#63b8ff" d="M597.15,-66.11C621.81,-56.87 653.89,-44.84 680.36,-34.91"/>
<polygon fill="#63b8ff" stroke="#63b8ff" points="681.4,-38.26 689.54,-31.47 678.94,-31.71 681.4,-38.26"/>
</a>
</g>
</g>
<!-- Node10 -->
<g id="Node000010" class="node">
<title>Node10</title>
<g id="a_Node000010"><a xlink:title=" ">
<polygon fill="#e0e0e0" stroke="#999999" points="890.5,-30.5 795.75,-30.5 795.75,0 890.5,0 890.5,-30.5"/>
<text xml:space="preserve" text-anchor="start" x="803.75" y="-17" font-family="Helvetica,sans-Serif" font-size="10.00">zephyr/logging/log</text>
<text xml:space="preserve" text-anchor="middle" x="843.12" y="-5.75" font-family="Helvetica,sans-Serif" font-size="10.00">_msg.h</text>
</a>
</g>
</g>
<!-- Node1&#45;&gt;Node10 -->
<g id="edge9_Node000001_Node000010" class="edge">
<title>Node1&#45;&gt;Node10</title>
<g id="a_edge9_Node000001_Node000010"><a xlink:title=" ">
<path fill="none" stroke="#63b8ff" d="M614.91,-68.7C658.58,-59.32 720.68,-45.77 784.22,-30.91"/>
<polygon fill="#63b8ff" stroke="#63b8ff" points="784.85,-34.36 793.78,-28.67 783.25,-27.54 784.85,-34.36"/>
</a>
</g>
</g>
<!-- Node11 -->
<g id="Node000011" class="node">
<title>Node11</title>
<g id="a_Node000011"><a xlink:title=" ">
<polygon fill="#e0e0e0" stroke="#999999" points="1003.5,-30.5 908.75,-30.5 908.75,0 1003.5,0 1003.5,-30.5"/>
<text xml:space="preserve" text-anchor="start" x="916.75" y="-17" font-family="Helvetica,sans-Serif" font-size="10.00">zephyr/logging/log</text>
<text xml:space="preserve" text-anchor="middle" x="956.12" y="-5.75" font-family="Helvetica,sans-Serif" font-size="10.00">_output.h</text>
</a>
</g>
</g>
<!-- Node1&#45;&gt;Node11 -->
<g id="edge10_Node000001_Node000011" class="edge">
<title>Node1&#45;&gt;Node11</title>
<g id="a_edge10_Node000001_Node000011"><a xlink:title=" ">
<path fill="none" stroke="#63b8ff" d="M615.14,-74.1C680.77,-66.05 791.99,-51.22 897.17,-30.76"/>
<polygon fill="#63b8ff" stroke="#63b8ff" points="897.69,-34.23 906.82,-28.86 896.34,-27.36 897.69,-34.23"/>
</a>
</g>
</g>
<!-- Node12 -->
<g id="Node000012" class="node">
<title>Node12</title>
<g id="a_Node000012"><a xlink:title=" ">
<polygon fill="#e0e0e0" stroke="#999999" points="1116.5,-30.5 1021.75,-30.5 1021.75,0 1116.5,0 1116.5,-30.5"/>
<text xml:space="preserve" text-anchor="start" x="1029.75" y="-17" font-family="Helvetica,sans-Serif" font-size="10.00">zephyr/logging/log</text>
<text xml:space="preserve" text-anchor="middle" x="1069.12" y="-5.75" font-family="Helvetica,sans-Serif" font-size="10.00">_output_custom.h</text>
</a>
</g>
</g>
<!-- Node1&#45;&gt;Node12 -->
<g id="edge11_Node000001_Node000012" class="edge">
<title>Node1&#45;&gt;Node12</title>
<g id="a_edge11_Node000001_Node000012"><a xlink:title=" ">
<path fill="none" stroke="#63b8ff" d="M615.1,-76.92C699.35,-70.71 862.26,-56.64 1010.25,-30.67"/>
<polygon fill="#63b8ff" stroke="#63b8ff" points="1010.61,-34.16 1019.84,-28.96 1009.38,-27.27 1010.61,-34.16"/>
</a>
</g>
</g>
<!-- Node13 -->
<g id="Node000013" class="node">
<title>Node13</title>
<g id="a_Node000013"><a xlink:title=" ">
<polygon fill="#e0e0e0" stroke="#999999" points="1209.38,-24.88 1134.88,-24.88 1134.88,-5.63 1209.38,-5.63 1209.38,-24.88"/>
<text xml:space="preserve" text-anchor="middle" x="1172.12" y="-11.38" font-family="Helvetica,sans-Serif" font-size="10.00">cmsis_core.h</text>
</a>
</g>
</g>
<!-- Node1&#45;&gt;Node13 -->
<g id="edge12_Node000001_Node000013" class="edge">
<title>Node1&#45;&gt;Node13</title>
<g id="a_edge12_Node000001_Node000013"><a xlink:title=" ">
<path fill="none" stroke="#63b8ff" d="M615,-79.57C717.75,-76.6 940.79,-66.22 1125.12,-30.5 1128.26,-29.89 1131.49,-29.16 1134.72,-28.34"/>
<polygon fill="#63b8ff" stroke="#63b8ff" points="1135.36,-31.8 1144.06,-25.76 1133.49,-25.05 1135.36,-31.8"/>
</a>
</g>
</g>
</g>
</svg>
